<?xml version="1.0" encoding="UTF-8"?>
<svg id="Layer_1" data-name="Layer 1" xmlns="http://www.w3.org/2000/svg" viewBox="0 0 575.32 474.73">
  <path d="M575.32,474.73c-1.04-53.27,0-318.63-.02-370.41,0-7.83-.11-29.57-.43-30.12-2.06,1-4.35,1.58-6.71,2.3-5.32,1.61-20.47,4.93-21.84,5.03-51.38,3.96-92.13-51.01-143.66-50.99-28.86,0-60.05,17.13-84.76,2.17-7.69-4.65-13.47-11.92-20.82-17.09-27.81-19.56-65.31-3.87-97.61,6.63-34.88,11.33-74.42,26.44-108.47,12.92C78.53,30.21,7.08.08.31,0,.11.58,0,1.25,0,2.03c.11,25.4-.11,97.73.07,118.66C.46,166.57.36,424.35.07,474.73h575.25Z" style="fill: #43489b;"/>
  <path d="M37.97,445.99c-.05.4-.13.82,0,1.23.12.37.51.36.53.74-1.61-.56-1.2-1.95-.18-2.93,1.3-1.25,2.71-1.86,4.52-1.22.96.34,2.55,1.61,2.57,2.67.03,1.45-2.19,2.86-3.56,2.82-.46-.02-2.39-.87-2.74-1.18-.61-.56-.42-1.68-1.13-2.11ZM38.52,445.63l.61.15c-1.04,1.77,1.95,3.48,3.38,3.14.6-.14,2.23-1.37,2.33-1.97.36-1.98-2.58-3.48-4.31-2.95-.7.21-1.34.95-1.96,1.32l-.06.31Z" style="fill: #eaddb7;"/>
  <path d="M26.66,432.19c-.03.6-.08,1.22.07,1.83.14.56.54.58.58,1.14-1.65-.93-1.33-3-.37-4.4,1.23-1.78,2.62-2.62,4.48-1.55.99.57,2.67,2.56,2.76,4.16.12,2.18-2.03,4.15-3.42,3.99-.47-.05-2.47-1.45-2.83-1.94-.65-.88-.52-2.54-1.27-3.23ZM27.19,431.69l.62.26c-.94,2.58,2.18,5.33,3.6,4.91.6-.18,2.16-1.91,2.23-2.8.24-2.95-2.82-5.36-4.53-4.68-.7.28-1.3,1.33-1.89,1.85l-.04.45Z" style="fill: #eaddb7;"/>
  <path d="M20.69,448.01c-.04.8-.12,1.63.09,2.45.19.74.74.77.79,1.51-2.27-1.23-1.82-3.99-.48-5.87,1.71-2.39,3.62-3.51,6.19-2.09,1.37.75,3.66,3.4,3.78,5.53.16,2.91-2.83,5.54-4.73,5.35-.65-.07-3.39-1.92-3.89-2.57-.9-1.17-.71-3.38-1.73-4.3ZM21.42,447.34l.86.35c-1.31,3.44,2.98,7.1,4.94,6.53.82-.24,2.99-2.56,3.09-3.74.34-3.93-3.86-7.14-6.21-6.22-.96.37-1.79,1.79-2.62,2.48l-.06.61Z" style="fill: #eaddb7;"/>
  <path d="M506.43,115.19c.1-.4.22-.8.14-1.22-.08-.38-.47-.42-.44-.79,1.53.73.97,2.08-.15,2.93-1.43,1.09-2.91,1.54-4.63.7-.92-.45-2.35-1.88-2.25-2.95.13-1.45,2.5-2.6,3.86-2.39.46.07,2.28,1.14,2.58,1.49.55.63.22,1.71.88,2.23ZM505.84,115.48l-.59-.22c1.23-1.64-1.54-3.68-3-3.5-.61.07-2.37,1.11-2.54,1.69-.58,1.93,2.17,3.75,3.94,3.42.72-.13,1.44-.79,2.1-1.09l.09-.3Z" style="fill: #eaddb7;"/>
  <path d="M516.1,130.19c.1-.59.22-1.2.13-1.83-.08-.57-.47-.63-.44-1.19,1.54,1.11.98,3.13-.13,4.41-1.42,1.63-2.9,2.3-4.63,1.03-.92-.68-2.36-2.85-2.27-4.44.13-2.18,2.49-3.89,3.85-3.58.46.11,2.29,1.72,2.59,2.25.55.95.23,2.58.9,3.36ZM515.51,130.62l-.59-.33c1.22-2.45-1.56-5.54-3.02-5.29-.61.11-2.36,1.65-2.53,2.52-.57,2.9,2.2,5.65,3.96,5.17.72-.2,1.44-1.18,2.09-1.63l.09-.45Z" style="fill: #eaddb7;"/>
  <path d="M523.82,115.14c.13-.79.3-1.61.19-2.44-.11-.76-.65-.85-.61-1.59,2.12,1.48,1.36,4.18-.19,5.88-1.97,2.18-4,3.07-6.38,1.38-1.27-.9-3.25-3.8-3.13-5.93.18-2.9,3.44-5.19,5.31-4.77.63.14,3.15,2.29,3.58,3,.76,1.27.32,3.44,1.23,4.47ZM523.02,115.72l-.81-.44c1.69-3.27-2.15-7.39-4.17-7.05-.84.14-3.26,2.2-3.5,3.37-.79,3.87,3.03,7.53,5.47,6.89,1-.26,1.99-1.57,2.89-2.17l.12-.6Z" style="fill: #eaddb7;"/>
  <path d="M475.86,428.49l-.22.2c.2-.03.4-.02.6.04-2.06-2.4-4.59-4.1-7.16-5.55-2.78-1.57-2.51-1.29-5.28-1.63-1.17-.14-2.37-.65-3.54-.82-3.15-.47-6.48-.24-9.66-.98-.75-.18-5.71-1.73-6.06-1.99-.45-.33-.91-1.53-1.56-.99.46.79,1.48,1.73,2.23,2.07.66.29,1.35.14,2.06.34,1.81.5,3.08,1.25,5.1,1.54,5.51.79,12.2.35,17.47,3.48,1.15.68,3.99,2.47,4.73,3.14.4.36.71.99,1.29,1.17Z" style="fill: #eaddb7;"/>
</svg>