<?xml version="1.0" encoding="UTF-8"?>
<svg xmlns="http://www.w3.org/2000/svg" viewBox="0 0 867.76 2152.34">
  <g id="Layer_3" data-name="Layer 3">
    <path d="M867.02,2152.34H.02C.02,1892.34.57,1131.16.09,875.63c55.94,46.45,94.71,110.88,165.25,128.45,51.25,12.77,105.57-2.49,153.14-25.47s91.25-53.63,139.74-74.56c121.57-52.47,392.55-21.07,408.87-21.42.94,222.39.86,1159.42-.07,1269.71Z" style="fill: #c72b25;"/>
    <path d="M83.93,1028.38c.09,4.55-7.89,3.43-11.11,1.9-3.6-1.71-4.62-2.65-5.26-6.56-.4-2.41.36-4.35,1.99-5.8,1.31-1.17,5.21.46,6.88.9,2.81.74,4.68.08,6.02,3.18.6,1.38,1.45,5,1.48,6.39ZM80.2,1021.47c-1.16-.79-1.86-.09-2.45-.27-.38-.12-.56-.75-.96-.97-1.24-.71-4.37-1.56-5.58-1.1-2.9,1.1-3.36,6.28-.63,8.6,2.85,2.42,10.14,3.89,11.79.87.67-1.23-.66-6.09-2.17-7.12Z" style="fill: #eaddb7;"/>
    <path d="M417.17,1011.58c-3.09,1.31-4.64,6.43-4.53,8.17.12,1.94.47,2.35,2.96,1.61,1.53-.46,3.08-1.57,4.55-3.12,1.18-1.25,1.2-3.42,1.38-4.43.31-1.7,1.31-3.17-.42-3.15-.77,0-3,.52-3.94.92ZM420.81,1012.04c.2.55-.48,1.25-.52,1.59-.03.22.35.16.39.36.12.63-.21,2.52-.87,3.48-1.59,2.32-5.27,4.2-6.06,3.04s.29-5.76,2.83-7.8c1.04-.83,3.97-1.39,4.24-.67Z" style="fill: #eaddb7;"/>
    <path d="M731.91,1517.35c-3.69.71-4.04,7.02-3.31,9.38.82,2.63,1.43,3.3,4.51,3.15,1.9-.09,3.6-1.05,5.04-2.63,1.16-1.27.45-4.16.36-5.45-.16-2.16.68-3.79-1.63-4.35-1.03-.25-3.84-.32-4.97-.1ZM736.94,1519.18c.46.81-.22,1.5-.17,1.95.03.29.52.33.64.61.38.89.57,3.29.01,4.35-1.35,2.55-5.65,3.83-7.1,2.01-1.52-1.9-1.56-7.58,1.16-9.45,1.11-.76,4.85-.52,5.45.53Z" style="fill: #eaddb7;"/>
    <path d="M590.52,1376.47c-.95-3.81-7.62-2.98-10.06-1.75-2.73,1.38-3.4,2.16-3.07,5.43.2,2.02,1.31,3.66,3.05,4.89,1.4,1,4.41-.32,5.75-.66,2.26-.58,4.03,0,4.49-2.58.2-1.14.12-4.17-.17-5.33ZM588.86,1382.21c-.82.64-1.59.05-2.06.2-.3.09-.31.62-.61.8-.91.58-3.44,1.24-4.58.85-2.76-.96-4.34-5.31-2.5-7.21,1.92-1.99,7.9-3.12,10.02-.56.86,1.04.81,5.1-.26,5.94Z" style="fill: #eaddb7;"/>
    <path d="M762.52,884.47c-.95-3.81-7.62-2.98-10.06-1.75-2.73,1.38-3.4,2.16-3.07,5.43.2,2.02,1.31,3.66,3.05,4.89,1.4,1,4.41-.32,5.75-.66,2.26-.58,4.03,0,4.49-2.58.2-1.14.12-4.17-.17-5.33ZM760.86,890.21c-.82.64-1.59.05-2.06.2-.3.09-.31.62-.61.8-.91.58-3.44,1.24-4.58.85-2.76-.96-4.34-5.31-2.5-7.21,1.92-1.99,7.9-3.12,10.02-.56.86,1.04.81,5.1-.26,5.94Z" style="fill: #eaddb7;"/>
    <path d="M501.51,1314.51l-.46.08c.31.03.6.1.86.19-1.43-2.2-4.01-4.04-6.82-5.72-3.04-1.82-2.83-1.56-6.69-2.54-1.62-.41-3.06-1.08-4.66-1.52-4.32-1.17-9.37-1.92-13.55-3.29-.99-.32-7.24-2.73-7.59-3-.44-.35-.32-1.29-1.62-1.1.16.66,1.01,1.58,1.89,2.01.77.38,1.89.46,2.8.79,2.33.83,3.69,1.69,6.48,2.43,7.57,2.03,17.71,3.54,23.38,7.1,1.23.77,4.21,2.76,4.86,3.42.35.35.39.87,1.12,1.14Z" style="fill: #eaddb7;"/>
    <path d="M802.27,1583.95h-.46c.3.09.56.2.8.33-1.02-2.4-3.22-4.64-5.65-6.76-2.64-2.3-2.48-2-6.06-3.6-1.5-.67-2.78-1.57-4.26-2.27-3.99-1.87-8.76-3.43-12.59-5.47-.9-.48-6.56-3.88-6.85-4.21-.37-.42-.1-1.32-1.39-1.35.04.68.72,1.73,1.5,2.3.68.5,1.76.77,2.58,1.24,2.12,1.21,3.3,2.27,5.87,3.46,7,3.24,16.57,6.41,21.47,10.85,1.06.97,3.62,3.42,4.14,4.17.28.4.23.92.89,1.31Z" style="fill: #eaddb7;"/>
  </g>
  <g id="Layer_4" data-name="Layer 4">
    <path d="M865,1451c-43.78-1.02-35-2-81-12-77.3-16.8-100.52-22.44-185-44-67.97-17.35-71-23-144-40-68.33-15.91-211.07-14.53-279,3-31,8-149.05,61.26-176,92C.02,1191.34.48,257.53,0,2c55.94,46.45,94.71,110.88,165.25,128.45,51.25,12.77,105.57-2.49,153.14-25.47s91.25-53.63,139.74-74.56c121.57-52.47,392.55-21.07,408.87-21.42,1.02,222.34-1.22,1439.81-2,1442Z" style="fill: #df5231;"/>
    <path d="M83.83,154.75c.09,4.55-7.89,3.43-11.11,1.9-3.6-1.71-4.62-2.65-5.26-6.56-.4-2.41.36-4.35,1.99-5.8,1.31-1.17,5.21.46,6.88.9,2.81.74,4.68.08,6.02,3.18.6,1.38,1.45,5,1.48,6.39ZM80.11,147.84c-1.16-.79-1.86-.09-2.45-.27-.38-.12-.56-.75-.96-.97-1.24-.71-4.37-1.56-5.58-1.1-2.9,1.1-3.36,6.28-.63,8.6,2.85,2.42,10.14,3.89,11.79.87.67-1.23-.66-6.09-2.17-7.12Z" style="fill: #eaddb7;"/>
    <path d="M417.08,137.95c-3.09,1.31-4.64,6.43-4.53,8.17.12,1.94.47,2.35,2.96,1.61,1.53-.46,3.08-1.57,4.55-3.12,1.18-1.25,1.2-3.42,1.38-4.43.31-1.7,1.31-3.17-.42-3.15-.77,0-3,.52-3.94.92ZM420.72,138.4c.2.55-.48,1.25-.52,1.59-.03.22.35.16.39.36.12.63-.21,2.52-.87,3.48-1.59,2.32-5.27,4.2-6.06,3.04s.29-5.76,2.83-7.8c1.04-.83,3.97-1.39,4.24-.67Z" style="fill: #eaddb7;"/>
    <path d="M82.08,1331.95c-3.09,1.31-4.64,6.43-4.53,8.17.12,1.94.47,2.35,2.96,1.61,1.53-.46,3.08-1.57,4.55-3.12,1.18-1.25,1.2-3.42,1.38-4.43.31-1.7,1.31-3.17-.42-3.15-.77,0-3,.52-3.94.92ZM85.72,1332.4c.2.55-.48,1.25-.52,1.59-.03.22.35.16.39.36.12.63-.21,2.52-.87,3.48-1.59,2.32-5.27,4.2-6.06,3.04s.29-5.76,2.83-7.8c1.04-.83,3.97-1.39,4.24-.67Z" style="fill: #eaddb7;"/>
    <path d="M797.08,1357.95c-3.09,1.31-4.64,6.43-4.53,8.17.12,1.94.47,2.35,2.96,1.61,1.53-.46,3.08-1.57,4.55-3.12,1.18-1.25,1.2-3.42,1.38-4.43.31-1.7,1.31-3.17-.42-3.15-.77,0-3,.52-3.94.92ZM800.72,1358.4c.2.55-.48,1.25-.52,1.59-.03.22.35.16.39.36.12.63-.21,2.52-.87,3.48-1.59,2.32-5.27,4.2-6.06,3.04s.29-5.76,2.83-7.8c1.04-.83,3.97-1.39,4.24-.67Z" style="fill: #eaddb7;"/>
    <path d="M51.08,1298.95c-3.09,1.31-4.64,6.43-4.53,8.17.12,1.94.47,2.35,2.96,1.61,1.53-.46,3.08-1.57,4.55-3.12,1.18-1.25,1.2-3.42,1.38-4.43.31-1.7,1.31-3.17-.42-3.15-.77,0-3,.52-3.94.92ZM54.72,1299.4c.2.55-.48,1.25-.52,1.59-.03.22.35.16.39.36.12.63-.21,2.52-.87,3.48-1.59,2.32-5.27,4.2-6.06,3.04s.29-5.76,2.83-7.8c1.04-.83,3.97-1.39,4.24-.67Z" style="fill: #eaddb7;"/>
    <path d="M827.81,594.71c-3.69.71-4.04,7.02-3.31,9.38.82,2.63,1.43,3.3,4.51,3.15,1.9-.09,3.6-1.05,5.04-2.63,1.16-1.27.45-4.16.36-5.45-.16-2.16.68-3.79-1.63-4.35-1.03-.25-3.84-.32-4.97-.1ZM832.84,596.55c.46.81-.22,1.5-.17,1.95.03.29.52.33.64.61.38.89.57,3.29.01,4.35-1.35,2.55-5.65,3.83-7.1,2.01-1.52-1.9-1.56-7.58,1.16-9.45,1.11-.76,4.85-.52,5.45.53Z" style="fill: #eaddb7;"/>
    <path d="M590.43,502.84c-.95-3.81-7.62-2.98-10.06-1.75-2.73,1.38-3.4,2.16-3.07,5.43.2,2.02,1.31,3.66,3.05,4.89,1.4,1,4.41-.32,5.75-.66,2.26-.58,4.03,0,4.49-2.58.2-1.14.12-4.17-.17-5.33ZM588.77,508.58c-.82.64-1.59.05-2.06.2-.3.09-.31.62-.61.8-.91.58-3.44,1.24-4.58.85-2.76-.96-4.34-5.31-2.5-7.21,1.92-1.99,7.9-3.12,10.02-.56.86,1.04.81,5.1-.26,5.94Z" style="fill: #eaddb7;"/>
    <path d="M762.43,10.84c-.95-3.81-7.62-2.98-10.06-1.75-2.73,1.38-3.4,2.16-3.07,5.43.2,2.02,1.31,3.66,3.05,4.89,1.4,1,4.41-.32,5.75-.66,2.26-.58,4.03,0,4.49-2.58.2-1.14.12-4.17-.17-5.33ZM760.77,16.58c-.82.64-1.59.05-2.06.2-.3.09-.31.62-.61.8-.91.58-3.44,1.24-4.58.85-2.76-.96-4.34-5.31-2.5-7.21,1.92-1.99,7.9-3.12,10.02-.56.86,1.04.81,5.1-.26,5.94Z" style="fill: #eaddb7;"/>
    <path d="M501.42,440.88l-.46.08c.31.03.6.1.86.19-1.43-2.2-4.01-4.04-6.82-5.72-3.04-1.82-2.83-1.56-6.69-2.54-1.62-.41-3.06-1.08-4.66-1.52-4.32-1.17-9.37-1.92-13.55-3.29-.99-.32-7.24-2.73-7.59-3-.44-.35-.32-1.29-1.62-1.1.16.66,1.01,1.58,1.89,2.01.77.38,1.89.46,2.8.79,2.33.83,3.69,1.69,6.48,2.43,7.57,2.03,17.71,3.54,23.38,7.1,1.23.77,4.21,2.76,4.86,3.42.35.35.39.87,1.12,1.14Z" style="fill: #eaddb7;"/>
    <path d="M823.79,569.34l-.26.38c.24-.2.48-.36.72-.48-2.56-.51-5.65.05-8.77.88-3.38.89-3.05.92-6.38,2.98-1.4.86-2.86,1.42-4.27,2.25-3.79,2.25-7.76,5.32-11.6,7.34-.9.48-6.9,3.25-7.33,3.3-.55.07-1.15-.66-1.9.39.58.35,1.83.38,2.74.05.8-.29,1.62-1.02,2.47-1.44,2.19-1.08,3.73-1.45,6.17-2.91,6.62-3.97,14.61-10.11,21.04-11.66,1.4-.34,4.86-1.07,5.78-1.08.49,0,.89.33,1.59,0Z" style="fill: #eaddb7;"/>
  </g>
</svg>