<?xml version="1.0" encoding="UTF-8"?>
<svg xmlns="http://www.w3.org/2000/svg" viewBox="0 0 496 373">
  <g id="Layer_3" data-name="Layer 3">
    <path d="M79.86,7.98c29.14,7.63,55.68,21.62,84.52,30.08,28.84,8.46,62.59,10.67,87.87-4.24,16.28-9.61,34.78-26.38,51.37-17.2,4.95,2.74,8.12,7.35,12.18,11.06,13.3,12.17,37.57,13.07,51.98,1.93,8.12-6.28,18.1-16.39,26.95-10.94,3.2,1.97,4.63,5.44,6.53,8.44,8.44,13.28,28.03,18.34,45.03,15.93s35.18-10.55,49.71-18.71v348.42c-169.76-.9-327.26.9-496,0V15.26C0-10.08,59.16,2.55,79.86,7.98Z" style="fill: #42489f;"/>
  </g>
  <g id="Layer_1" data-name="Layer 1">
    <path d="M47.72,24.48c-1.84.46-2.2,3.59-1.9,4.73.33,1.28.61,1.59,2.14,1.43.94-.1,1.81-.62,2.57-1.44.61-.66.34-2.07.33-2.7-.02-1.06.44-1.9-.68-2.11-.5-.09-1.89-.05-2.45.09ZM50.16,25.24c.2.39-.15.75-.14.97,0,.14.25.15.3.28.16.43.19,1.61-.12,2.15-.74,1.3-2.9,2.05-3.57,1.2s-.55-3.71.84-4.71c.57-.41,2.41-.4,2.68.11Z" style="fill: #eaddb7;"/>
    <path d="M41.91,40.63c-3.53.88-4.2,6.86-3.64,9.05.63,2.45,1.17,3.04,4.09,2.73,1.8-.19,3.46-1.19,4.91-2.76,1.17-1.27.65-3.96.63-5.17-.03-2.03.85-3.63-1.3-4.03-.96-.18-3.62-.09-4.69.18ZM46.57,42.09c.39.74-.29,1.43-.26,1.85.02.27.47.28.57.54.31.82.36,3.08-.22,4.12-1.42,2.49-5.54,3.93-6.82,2.29-1.33-1.72-1.06-7.09,1.61-9,1.09-.78,4.62-.76,5.12.21Z" style="fill: #eaddb7;"/>
    <path d="M55.29,37.94c-1.74.18-1.64,3.18-1.18,4.34.5,1.29.83,1.64,2.29,1.7.91.04,1.68-.35,2.3-1.04.5-.56.04-1.97-.06-2.59-.17-1.04.16-1.79-.97-2.15-.5-.16-1.85-.32-2.38-.26ZM57.78,39.03c.25.41-.04.71,0,.92.03.14.26.18.33.32.22.44.42,1.6.19,2.08-.54,1.16-2.54,1.59-3.31.66s-1.07-3.69.15-4.47c.5-.32,2.3-.04,2.63.49Z" style="fill: #eaddb7;"/>
    <path d="M458.19,51.86c-1.14.28-1.35,2.21-1.17,2.92.2.79.38.98,1.32.88.58-.06,1.12-.38,1.58-.89.38-.41.21-1.28.2-1.67,0-.66.27-1.17-.42-1.3-.31-.06-1.17-.03-1.51.06ZM459.69,52.33c.12.24-.09.46-.08.6,0,.09.15.09.18.17.1.26.12.99-.07,1.33-.46.8-1.79,1.27-2.2.74s-.34-2.28.52-2.9c.35-.25,1.49-.24,1.65.07Z" style="fill: #eaddb7;"/>
    <path d="M462.93,68.65c-3.6.81-4.14,6.93-3.5,9.19.71,2.53,1.28,3.15,4.27,2.91,1.84-.15,3.52-1.13,4.97-2.7,1.16-1.27.56-4.05.52-5.29-.08-2.09.78-3.7-1.44-4.16-.98-.21-3.71-.19-4.81.06ZM467.75,70.27c.42.77-.26,1.46-.22,1.89.02.28.49.3.6.57.34.85.45,3.17-.12,4.22-1.39,2.52-5.59,3.88-6.94,2.17-1.41-1.8-1.27-7.3,1.42-9.19,1.1-.77,4.72-.66,5.26.35Z" style="fill: #eaddb7;"/>
    <path d="M453.46,62.77c-2.62.65-3.12,5.1-2.71,6.73.47,1.82.87,2.26,3.04,2.03,1.34-.14,2.57-.89,3.65-2.05.87-.94.48-2.94.47-3.84-.02-1.51.63-2.7-.97-2.99-.71-.13-2.69-.07-3.49.13ZM456.92,63.85c.29.55-.22,1.06-.2,1.38.01.2.35.21.43.4.23.61.27,2.29-.17,3.06-1.05,1.85-4.12,2.92-5.07,1.7s-.79-5.27,1.2-6.69c.81-.58,3.43-.56,3.81.15Z" style="fill: #eaddb7;"/>
    <path d="M463.22,59.01c-1.12.12-1.05,2.05-.76,2.79.32.83.53,1.05,1.47,1.09.58.02,1.08-.22,1.48-.67.32-.36.02-1.27-.04-1.66-.11-.67.1-1.15-.62-1.38-.32-.1-1.19-.2-1.53-.17ZM464.82,59.71c.16.26-.03.46,0,.59.02.09.17.11.21.2.14.28.27,1.03.12,1.34-.35.75-1.63,1.02-2.13.42s-.69-2.37.1-2.87c.32-.2,1.48-.03,1.69.31Z" style="fill: #eaddb7;"/>
  </g>
</svg>