<?xml version="1.0" encoding="UTF-8"?>
<svg id="Layer_1" data-name="Layer 1" xmlns="http://www.w3.org/2000/svg" viewBox="0 0 575.32 474.73">
  <path d="M575.32,474.73c-1.04-53.27,0-318.63-.02-370.41,0-7.83-.11-29.57-.43-30.12-2.06,1-4.35,1.58-6.71,2.3-5.32,1.61-20.47,4.93-21.84,5.03-51.38,3.96-92.13-51.01-143.66-50.99-28.86,0-60.05,17.13-84.76,2.17-7.69-4.65-13.47-11.92-20.82-17.09-27.81-19.56-65.31-3.87-97.61,6.63-34.88,11.33-74.42,26.44-108.47,12.92C78.53,30.21,7.08.08.31,0,.11.58,0,1.25,0,2.03c.11,25.4-.11,97.73.07,118.66C.46,166.57.36,424.35.07,474.73h575.25Z" style="fill: #43489b;"/>
  <path d="M37.97,445.99c-.05.4-.13.82,0,1.23.12.37.51.36.53.74-1.61-.56-1.2-1.95-.18-2.93,1.3-1.25,2.71-1.86,4.52-1.22.96.34,2.55,1.61,2.57,2.67.03,1.45-2.19,2.86-3.56,2.82-.46-.02-2.39-.87-2.74-1.18-.61-.56-.42-1.68-1.13-2.11ZM38.52,445.63l.61.15c-1.04,1.77,1.95,3.48,3.38,3.14.6-.14,2.23-1.37,2.33-1.97.36-1.98-2.58-3.48-4.31-2.95-.7.21-1.34.95-1.96,1.32l-.06.31Z" style="fill: #eaddb7;"/>
  <path d="M26.66,432.19c-.03.6-.08,1.22.07,1.83.14.56.54.58.58,1.14-1.65-.93-1.33-3-.37-4.4,1.23-1.78,2.62-2.62,4.48-1.55.99.57,2.67,2.56,2.76,4.16.12,2.18-2.03,4.15-3.42,3.99-.47-.05-2.47-1.45-2.83-1.94-.65-.88-.52-2.54-1.27-3.23ZM27.19,431.69l.62.26c-.94,2.58,2.18,5.33,3.6,4.91.6-.18,2.16-1.91,2.23-2.8.24-2.95-2.82-5.36-4.53-4.68-.7.28-1.3,1.33-1.89,1.85l-.04.45Z" style="fill: #eaddb7;"/>
  <path d="M20.69,448.01c-.04.8-.12,1.63.09,2.45.19.74.74.77.79,1.51-2.27-1.23-1.82-3.99-.48-5.87,1.71-2.39,3.62-3.51,6.19-2.09,1.37.75,3.66,3.4,3.78,5.53.16,2.91-2.83,5.54-4.73,5.35-.65-.07-3.39-1.92-3.89-2.57-.9-1.17-.71-3.38-1.73-4.3ZM21.42,447.34l.86.35c-1.31,3.44,2.98,7.1,4.94,6.53.82-.24,2.99-2.56,3.09-3.74.34-3.93-3.86-7.14-6.21-6.22-.96.37-1.79,1.79-2.62,2.48l-.06.61Z" style="fill: #eaddb7;"/>
  <path d="M506.43,115.19c.1-.4.22-.8.14-1.22-.08-.38-.47-.42-.44-.79,1.53.73.97,2.08-.15,2.93-1.43,1.09-2.91,1.54-4.63.7-.92-.45-2.35-1.88-2.25-2.95.13-1.45,2.5-2.6,3.86-2.39.46.07,2.28,1.14,2.58,1.49.55.63.22,1.71.88,2.23ZM505.84,115.48l-.59-.22c1.23-1.64-1.54-3.68-3-3.5-.61.07-2.37,1.11-2.54,1.69-.58,1.93,2.17,3.75,3.94,3.42.72-.13,1.44-.79,2.1-1.09l.09-.3Z" style="fill: #eaddb7;"/>
  <path d="M516.1,130.19c.1-.59.22-1.2.13-1.83-.08-.57-.47-.63-.44-1.19,1.54,1.11.98,3.13-.13,4.41-1.42,1.63-2.9,2.3-4.63,1.03-.92-.68-2.36-2.85-2.27-4.44.13-2.18,2.49-3.89,3.85-3.58.46.11,2.29,1.72,2.59,2.25.55.95.23,2.58.9,3.36ZM515.51,130.62l-.59-.33c1.22-2.45-1.56-5.54-3.02-5.29-.61.11-2.36,1.65-2.53,2.52-.57,2.9,2.2,5.65,3.96,5.17.72-.2,1.44-1.18,2.09-1.63l.09-.45Z" style="fill: #eaddb7;"/>
  <path d="M523.82,115.14c.13-.79.3-1.61.19-2.44-.11-.76-.65-.85-.61-1.59,2.12,1.48,1.36,4.18-.19,5.88-1.97,2.18-4,3.07-6.38,1.38-1.27-.9-3.25-3.8-3.13-5.93.18-2.9,3.44-5.19,5.31-4.77.63.14,3.15,2.29,3.58,3,.76,1.27.32,3.44,1.23,4.47ZM523.02,115.72l-.81-.44c1.69-3.27-2.15-7.39-4.17-7.05-.84.14-3.26,2.2-3.5,3.37-.79,3.87,3.03,7.53,5.47,6.89,1-.26,1.99-1.57,2.89-2.17l.12-.6Z" style="fill: #eaddb7;"/>
  <path d="M475.86,428.49l-.22.2c.2-.03.4-.02.6.04-2.06-2.4-4.59-4.1-7.16-5.55-2.78-1.57-2.51-1.29-5.28-1.63-1.17-.14-2.37-.65-3.54-.82-3.15-.47-6.48-.24-9.66-.98-.75-.18-5.71-1.73-6.06-1.99-.45-.33-.91-1.53-1.56-.99.46.79,1.48,1.73,2.23,2.07.66.29,1.35.14,2.06.34,1.81.5,3.08,1.25,5.1,1.54,5.51.79,12.2.35,17.47,3.48,1.15.68,3.99,2.47,4.73,3.14.4.36.71.99,1.29,1.17Z" style="fill: #eaddb7;"/>
  <path d="M41.77,374.57l-.22.2c.2-.03.4-.02.6.04-2.06-2.4-4.59-4.1-7.16-5.55-2.78-1.57-2.51-1.29-5.28-1.63-1.17-.14-2.37-.65-3.54-.82-3.15-.47-6.48-.24-9.66-.98-.75-.18-5.71-1.73-6.06-1.99-.45-.33-.91-1.53-1.56-.99.46.79,1.48,1.73,2.23,2.07.66.29,1.35.14,2.06.34,1.81.5,3.08,1.25,5.1,1.54,5.51.79,12.2.35,17.47,3.48,1.15.68,3.99,2.47,4.73,3.14.4.36.71.99,1.29,1.17Z" style="fill: #eaddb7;"/>
  <path d="M249.48,129.9c-.66,0-1.32-.1-1.89-.5h0c-1.23-.7-2.27-2-2.93-3.8-.57-1.4-.47-2.3-.38-3.5,0-.8.09-1.7,0-2.9-.09-1.8-.47-2.7-.85-3.6s-.66-1.8-.66-3.5c0-1.3,0-4.3,1.61-7,1.8-3,4.92-4,10.03-5.7,5.96-1.8,10.12-2.1,14.57-2.4,3.78-.2,6.15,0,8.51,1.3.76.4,2.55,1.4,3.88,3.5.95,1.4,1.04,2.4,1.14,4,.09,1,.19,2.3.66,4.2.38,1.7.76,2.8,1.04,3.7.47,1.4.76,2.3.38,3.6-.66,2.4-2.84,3.6-4.35,4.4-2.65,1.5-4.73,1.8-7.66,2.1-.85.1-1.8.2-2.93.4-3.31.5-7.47,1.1-12.3,2.9-1.23.4-2.27.9-3.22,1.3-1.89.8-3.41,1.4-4.73,1.4l.09.1ZM271.43,98h-2.36c-4.45.2-8.61.5-14.38,2.4-5.49,1.8-8.04,2.7-9.55,5.3-1.42,2.4-1.51,5.2-1.51,6.4,0,1.5.28,2.2.57,3.1.38.9.76,2,.85,3.9.09,1.3,0,2.3,0,3.1,0,1.1-.09,1.9.28,3,.66,1.6,1.51,2.7,2.55,3.3h0c1.61.9,3.22.2,5.86-1,.95-.4,1.99-.9,3.22-1.3,4.82-1.8,9.08-2.4,12.39-3,1.14-.2,2.08-.3,2.93-.4,2.93-.4,4.82-.6,7.38-2,1.51-.8,3.31-1.9,3.88-3.8.28-1,0-1.6-.38-2.9-.28-.9-.76-2.1-1.14-3.8-.47-2-.57-3.3-.66-4.4-.09-1.5-.19-2.3-.95-3.5-1.14-1.9-2.84-2.8-3.5-3.2-1.7-.9-3.41-1.2-5.68-1.2h.19Z" style="fill: #e7dcba;"/>
  <path d="M245.42,126.9l-.38-.9c2.36-1.1,4.82-2.1,7.19-2.8,1.51-.4,2.46-.7,4.45-1.1.76-.2,1.7-.4,2.93-.7,2.65-.6,3.69-.9,4.54-1.1.76-.2,1.42-.4,2.84-.7,2.36-.5,4.16-.8,5.58-1.1,2.93-.5,4.54-.8,7-1.9,1.7-.7,3.12-1.5,3.97-2l.47.9c-.85.5-2.27,1.3-4.07,2-2.55,1.1-4.26,1.4-7.19,1.9-1.42.3-3.22.6-5.58,1.1-1.42.3-1.99.5-2.74.7-.85.2-1.89.5-4.64,1.1-1.23.3-2.18.5-2.93.7-1.99.4-2.93.6-4.35,1.1-2.36.7-4.73,1.6-7.09,2.7v.1Z" style="fill: #e7dcba;"/>
  <g>
    <path d="M279.19,121.5c.76,2.6,2.27,3.3,4.54,2,1.8-1.1,3.97-1,4.35,1.6.38,5.8-7.38,7.3-11.54,7.4,3.5-.8,8.89-1.9,10.41-5.8.38-1.3,0-3.2-1.51-2.9-.95.2-1.99.8-3.03,1-1.99.4-3.12-1.4-3.22-3.3h0Z" style="fill: #fbf5ec;"/>
    <path d="M271.81,133l5.01-1.2c3.5-.8,8.32-1.9,9.65-5.4.19-.7.09-1.5-.19-1.9-.19-.2-.47-.3-.76-.2-.38,0-.85.3-1.23.4-.57.2-1.14.5-1.8.5-.85.2-1.7,0-2.36-.6-.85-.7-1.32-1.9-1.42-3.2v-.4l.76-.2v.5c.47,1.1.95,1.9,1.51,2.1.66.3,1.42.1,2.46-.4,1.23-.8,2.65-.9,3.59-.4.57.3,1.23.9,1.42,2.4.09,1.7-.38,3.1-1.42,4.3-2.93,3.4-9.36,3.7-10.59,3.7,0,0-4.64,0-4.64,0ZM287.32,127.1c-.38.9-.95,1.7-1.7,2.3.28-.2.57-.5.76-.7.38-.5.76-1,.95-1.6ZM286.85,123.8l.09.1c.28.4.47.9.57,1.4v-.1c0-.6-.28-1.1-.66-1.4Z" style="fill: #e7dcba;"/>
  </g>
  <g>
    <path d="M252.42,128.8c1.04,3.1-1.32,4.3-3.78,4.4-1.04.1-2.18.3-2.46,1.1-.66,5.4,10.41,3.2,13.34,2.3-3.69,1.7-11.73,4.2-14.09-.7-.66-1.4.19-3,1.51-3.3,2.65-.5,6.15.3,5.58-3.9h0l-.09.1Z" style="fill: #fbf5ec;"/>
    <path d="M250.71,139.4c-2.46,0-4.73-.8-5.86-3.1-.38-.8-.38-1.7,0-2.5s1.04-1.4,1.89-1.5c.57-.1,1.23-.2,1.8-.2,1.32-.1,2.55-.2,3.12-.9.38-.4.47-1.1.28-2.1l-.19-.5,1.04-.2v.5h0c.47,1.5.19,2.6-.19,3.2-.66,1.1-2.18,1.8-4.07,1.9-.57,0-1.8.2-2.08.7,0,.8.09,1.4.66,1.8,2.18,2,9.18.7,12.11-.1l.28.9c-.76.3-5.01,2.2-8.89,2.2l.09-.1ZM248.63,138.1c.38.1.85.2,1.32.2-.47,0-.95-.1-1.32-.2ZM245.6,134.4c-.19.5-.09.9,0,1.4,0,0,0,.1.09.2-.19-.5-.28-1-.19-1.6h.09Z" style="fill: #e7dcba;"/>
  </g>
  <path d="M306.43,462.5c-4.45,0-8.89-5.2-10.5-7.1-6.72-7.9-8.61-16.8-10.69-26.2-6.05-28.2-10.78-41.5-10.88-41.7-3.97-21.4-3.5-25-3.22-27.1.09-.8.19-1.4-.09-2.8-2.65-13.4-4.82-23-7.09-33.1l-.28-1.4c-8.32-37.4-12.49-56.1-13.91-60.5-.28-.9-6.91-22.8-5.3-29.6.47-1.9.47-3.5-.09-4.9-.66-1.7-1.8-2.7-2.46-3.2h-.09c-4.92-4.3-6.05-12.6-6.43-15.8-.47-3.3-.19-5.9,1.23-13.1,2.46-12.5,5.11-22,5.2-22.4,1.23-4.4,2.27-7.7,3.12-10.7,1.42-4.6,2.65-8.6,4.26-15.4.38-1.6,1.23-3.8,1.89-5.7.47-1.4,1.04-2.8,1.14-3.4l.95.2c-.19.7-.66,2-1.23,3.6-.66,1.9-1.51,4.1-1.89,5.6-1.7,6.8-2.93,10.8-4.26,15.4-.85,2.9-1.89,6.2-3.12,10.6-.09.4-2.74,9.8-5.2,22.3-1.42,7.1-1.61,9.6-1.23,12.8.38,3.1,1.51,11.2,6.05,15.1h.09c.66.6,2.08,1.8,2.74,3.8.57,1.6.66,3.5.19,5.5-1.61,6.6,5.11,28.9,5.2,29.1,1.32,4.4,5.58,23.2,13.91,60.6l.28,1.4c2.27,10.1,4.35,19.7,7.09,33.1.28,1.6.19,2.3.09,3.1-.28,1.9-.76,5.5,3.22,26.7,0,0,4.73,13.4,10.88,41.7,1.99,9.3,3.88,18.1,10.41,25.8,4.45,5.2,8.04,7.4,10.97,6.6.57-.1.85-.4,5.01-3.4l1.8-1.3c3.97-2.9,4.45-3.2,5.49-3.4,2.18-.5,3.59.4,5.3,1.4.95.6,2.08,1.2,3.59,1.8,4.82,1.9,11.92,2.1,16.08-1.7,2.65-2.5,3.5-5.9,3.5-5.9.47-1.7.38-3.3.28-4.5,0-1.2,0-2.1.57-2.4.76-.3,1.23.5,1.89,1.6.76,1.2,1.8,2.9,3.5,3.5,3.31,1.3,7.47-2.1,10.5-4.6,1.8-1.5,5.96-4.9,8.42-11.3,1.23-3.4,1.89-7.2,1.61-10.7-.28-3.8-1.23-6.2-2.55-9.4-.28-.7-.57-1.5-.95-2.3-1.61-4.1-2.65-8.7-4.82-17.9-.47-2.2-.66-2.9-1.99-11-.66-3.7-1.51-8.9-2.84-16.4-.95-5.7-2.27-10.3-4.35-15.7-1.04-2.7-1.89-4-2.93-5.4-.57-.8-1.23-1.7-1.89-2.9-3.31-6.1-3.88-11-4.73-18.4-.28-2.8-.66-6.1-1.32-9.9-.47-2.9-.66-3.7-1.14-5.8s-1.32-5.7-3.12-14.3c-6.62-32-9.93-48-10.22-52.5,0-.2-.95-16.1-5.58-21.6-.38-.5-1.23-1.4-1.7-3-.85-2.7,0-4.9.85-7.1.38-1,.76-2,1.04-3.1.47-2.4,0-3.7-1.89-8.7-.57-1.6-1.32-3.5-2.18-5.9-2.27-6.1-3.03-8.9-3.5-10.7-.47-1.7-.76-2.7-1.8-4.8-1.99-4-5.01-7.8-11.16-15.2-2.65-3.2-4.82-5.6-6.72-7.8-3.22-3.7-5.77-6.6-9.46-11.6-.95-1.4-2.46-3.1-3.88-4.6-1.23-1.4-2.36-2.6-2.84-3.4l.76-.6c.47.7,1.51,1.9,2.74,3.2,1.32,1.5,2.93,3.2,3.88,4.6,3.59,5,6.15,7.9,9.36,11.5,1.89,2.1,3.97,4.6,6.72,7.8,6.15,7.5,9.27,11.2,11.26,15.4,1.04,2.2,1.32,3.2,1.89,5,.47,1.8,1.32,4.6,3.5,10.7.85,2.4,1.61,4.3,2.18,5.8,1.99,5.1,2.55,6.6,1.99,9.3-.28,1.2-.66,2.2-1.04,3.3-.76,2.1-1.51,4.1-.85,6.4.47,1.3,1.14,2.2,1.42,2.6,4.82,5.8,5.77,21.5,5.77,22.2.28,4.4,3.78,21.5,10.12,52.4,1.8,8.6,2.65,12.1,3.12,14.3.47,2.1.66,2.9,1.14,5.9.57,3.8.95,7.1,1.32,9.9.85,7.3,1.42,12.1,4.64,18,.66,1.2,1.23,2,1.8,2.8,1.04,1.4,1.99,2.8,3.03,5.6,2.08,5.5,3.41,10.1,4.35,15.9,1.32,7.5,2.18,12.7,2.84,16.4,1.42,8.1,1.51,8.7,1.99,10.9,2.08,9.1,3.22,13.7,4.73,17.8.28.8.66,1.6.95,2.3,1.32,3.2,2.36,5.8,2.65,9.7.19,2.6,0,6.6-1.7,11.2-2.46,6.6-6.81,10.2-8.7,11.7-3.22,2.6-7.66,6.3-11.45,4.8-1.99-.8-3.12-2.6-3.97-3.9-.28-.4-.57-.9-.76-1.1v1.3c0,1.2.09,2.9-.38,4.8,0,.2-.95,3.7-3.78,6.4-4.45,4.1-11.82,4-17.03,1.9-1.51-.6-2.65-1.3-3.69-1.9-1.7-1-2.84-1.7-4.73-1.3-.85.2-1.23.4-5.11,3.3l-1.8,1.3c-4.45,3.3-4.64,3.4-5.3,3.6-.47.1-.95.2-1.32.2h.66Z" style="fill: #e7dcba;"/>
  <g>
    <path d="M245.7,231.8c8.7-5.1,19.49-8.1,29.04-10.9,14.76-4.6,29.8-9.3,45.4-9.2,1.7,0,3.41,0,5.11.1-1.7,0-3.41,0-5.11.1-15.51.6-30.36,5.4-45.12,9.8-9.93,2.9-19.96,5.3-29.32,10h0v.1Z" style="fill: #fbf5ec;"/>
    <path d="M244.37,233.2l1.14-1.8h.09v-.1c8.23-4.8,18.35-7.7,27.24-10.4l1.8-.5c14.47-4.5,29.42-9.3,45.03-9.3s.28,0,.47,0h5.2v1.1h-5.11c-14.47.6-28.57,4.8-42.28,9l-2.74.8c-1.61.5-3.22.9-4.82,1.4-8.13,2.3-16.46,4.6-24.22,8.5h0l-1.61,1-.19.3ZM288.36,217.3c-1.04.3-2.18.6-3.22.9,1.04-.3,2.08-.6,3.22-.9Z" style="fill: #e7dcba;"/>
  </g>
  <g>
    <path d="M271.52,357.6c26.11-6.9,55.24-13.8,81.63-19.4-26.2,6.9-55.24,13.8-81.63,19.4h0Z" style="fill: #fbf5ec;"/>
    <path d="M271.62,358l-.19-1c26.2-6.9,55.24-13.8,81.73-19.4l.19,1c-26.2,6.9-55.24,13.8-81.73,19.4ZM318.16,346.4c-3.88.9-7.85,1.8-11.73,2.8,3.88-.9,7.85-1.8,11.73-2.8Z" style="fill: #e7dcba;"/>
  </g>
  <g>
    <path d="M319.86,453.6c1.51-1.9,3.5-3.6,5.49-4.9,1.89-1.4,2.55-4,2.18-6.4,1.32,2.3.47,5.7-1.51,7.2-2.08,1.4-3.88,2.8-6.05,4.1h-.09Z" style="fill: #fbf5ec;"/>
    <path d="M318.63,454.4l.85-1.1c1.42-1.8,3.41-3.5,5.58-5,1.61-1.2,2.36-3.6,1.89-5.9l-.47-2.8,1.42,2.4c1.42,2.5.66,6.1-1.7,7.9-.76.5-1.51,1-2.27,1.5-1.32.9-2.46,1.7-3.88,2.6h-.19l-1.32.3.09.1ZM326.67,448c-.28.4-.66.8-1.04,1.1-.28.2-.57.4-.95.6.28-.2.66-.4.95-.7.38-.3.76-.7,1.04-1.1v.1Z" style="fill: #e7dcba;"/>
  </g>
  <g>
    <path d="M348.99,442.3c1.51-1.9,3.5-3.6,5.49-4.9,1.89-1.4,2.55-4,2.18-6.4,1.32,2.3.47,5.7-1.51,7.2-2.08,1.4-3.88,2.8-6.05,4.1h-.09Z" style="fill: #fbf5ec;"/>
    <path d="M347.67,443.3l1.04-1.3c1.42-1.8,3.41-3.5,5.58-5,1.61-1.2,2.36-3.6,1.89-5.9l-.47-2.8,1.42,2.4c1.42,2.5.66,6.1-1.7,7.9-.76.5-1.51,1-2.27,1.5-1.32.9-2.46,1.7-3.88,2.6h-.09l-1.51.5v.1ZM355.81,436.7c-.28.4-.66.8-1.04,1.1-.28.2-.57.4-.85.6.28-.2.66-.4.95-.6.38-.3.76-.7,1.04-1.1h-.09Z" style="fill: #e7dcba;"/>
  </g>
  <g>
    <path d="M274.27,349.5c12.86-3.7,26.11-5.4,38.97-9.3-12.2,5.2-26.01,7.1-38.97,9.3h0Z" style="fill: #fbf5ec;"/>
    <path d="M274.36,350l-.19-1c6.05-1.7,12.39-3.1,18.45-4.4,6.81-1.4,13.72-2.9,20.53-5l.28.9c-10.59,4.5-22.42,6.5-33.77,8.5-1.8.3-3.5.6-5.2.9l-.09.1ZM298.39,344.5c-1.89.4-3.78.8-5.58,1.2-1.14.2-2.18.5-3.31.7,2.93-.6,5.96-1.2,8.89-1.9Z" style="fill: #e7dcba;"/>
  </g>
  <g>
    <path d="M282.4,228.1c12.58-3.8,25.82-8.4,38.97-9.2-13.15,2.3-25.82,6.7-38.97,9.2h0Z" style="fill: #fbf5ec;"/>
    <path d="M282.5,228.6l-.19-1c1.7-.5,3.5-1.1,5.2-1.6,11.07-3.4,22.42-6.9,33.86-7.6v1c-6.81,1.2-13.81,3-20.43,4.8-5.96,1.6-12.2,3.2-18.35,4.4h-.09ZM305.86,221.9c-2.74.6-5.49,1.4-8.13,2.1.95-.3,1.89-.5,2.93-.8,1.7-.5,3.5-.9,5.2-1.4v.1Z" style="fill: #e7dcba;"/>
  </g>
</svg>