<?xml version="1.0" encoding="UTF-8"?>
<svg xmlns="http://www.w3.org/2000/svg" viewBox="0 0 244.52 474.73">
  <g id="Layer_1" data-name="Layer 1">
    <path d="M244.71,474.73c.17-31.32-.62-415.32-.19-438.7-11.27,3.26-22.22,5.28-31.74-3.33-5.14-4.65-9.01-11.92-13.94-17.09-18.62-19.56-43.71-3.87-65.34,6.63-23.34,11.33-49.82,26.44-72.6,12.92C52.56,30.21,4.74.08.2,0,.07.58,0,1.25,0,2.03c.07,25.4.24,422.31.05,472.69h244.66Z" style="fill: #42489f;"/>
  </g>
  <g id="Layer_2" data-name="Layer 2">
    <path d="M20.96,452.51c-.04.4-.09.82,0,1.23.08.37.34.36.35.74-1.07-.56-.8-1.95-.12-2.93.87-1.25,1.81-1.86,3.03-1.22.64.34,1.7,1.61,1.72,2.67.02,1.45-1.47,2.86-2.39,2.82-.31-.02-1.6-.87-1.83-1.18-.41-.56-.28-1.68-.76-2.11ZM21.32,452.15l.41.15c-.7,1.77,1.3,3.48,2.26,3.14.4-.14,1.49-1.37,1.56-1.97.24-1.98-1.73-3.48-2.88-2.95-.47.21-.9.95-1.31,1.32l-.04.31Z" style="fill: #ecdbb1;"/>
    <path d="M13.39,438.71c-.02.6-.05,1.22.05,1.83.09.56.36.58.39,1.14-1.11-.93-.89-3-.25-4.4.82-1.78,1.75-2.62,3-1.55.66.57,1.79,2.56,1.85,4.16.08,2.18-1.36,4.15-2.29,3.99-.31-.05-1.65-1.45-1.9-1.94-.44-.88-.35-2.54-.85-3.23ZM13.74,438.21l.42.26c-.63,2.58,1.46,5.33,2.41,4.91.4-.18,1.45-1.91,1.49-2.8.16-2.95-1.89-5.36-3.03-4.68-.47.28-.87,1.33-1.27,1.85l-.03.45Z" style="fill: #ecdbb1;"/>
    <path d="M9.39,454.53c-.03.8-.08,1.63.06,2.45.13.74.49.77.53,1.51-1.52-1.23-1.22-3.99-.32-5.87,1.14-2.39,2.43-3.51,4.14-2.09.91.75,2.45,3.4,2.53,5.53.1,2.91-1.89,5.54-3.17,5.35-.43-.07-2.27-1.92-2.61-2.57-.6-1.17-.47-3.38-1.16-4.3ZM9.88,453.86l.57.35c-.88,3.44,1.99,7.1,3.31,6.53.55-.24,2-2.56,2.07-3.74.23-3.93-2.58-7.14-4.16-6.22-.64.37-1.2,1.79-1.76,2.48l-.04.61Z" style="fill: #ecdbb1;"/>
    <path d="M208.52,69.71c.07-.4.15-.8.09-1.22-.05-.38-.31-.42-.29-.79,1.03.73.65,2.08-.1,2.93-.96,1.09-1.94,1.54-3.1.7-.61-.45-1.57-1.88-1.51-2.95.09-1.45,1.68-2.6,2.58-2.39.31.07,1.53,1.14,1.73,1.49.37.63.15,1.71.59,2.23ZM208.13,70l-.39-.22c.83-1.64-1.03-3.68-2.01-3.5-.41.07-1.58,1.11-1.7,1.69-.39,1.93,1.45,3.75,2.64,3.42.48-.13.97-.79,1.41-1.09l.06-.3Z" style="fill: #ecdbb1;"/>
    <path d="M214.99,84.71c.06-.59.15-1.2.09-1.83-.05-.57-.31-.63-.3-1.19,1.03,1.11.66,3.13-.09,4.41-.95,1.63-1.94,2.3-3.1,1.03-.62-.68-1.58-2.85-1.52-4.44.08-2.18,1.67-3.89,2.57-3.58.31.11,1.53,1.72,1.74,2.25.37.95.16,2.58.6,3.36ZM214.6,85.14l-.39-.33c.82-2.45-1.05-5.54-2.02-5.29-.41.11-1.58,1.65-1.7,2.52-.38,2.9,1.47,5.65,2.65,5.17.48-.2.96-1.18,1.4-1.63l.06-.45Z" style="fill: #ecdbb1;"/>
    <path d="M220.17,69.66c.09-.79.2-1.61.12-2.44-.07-.76-.43-.85-.41-1.59,1.42,1.48.91,4.18-.12,5.88-1.32,2.18-2.68,3.07-4.27,1.38-.85-.9-2.18-3.8-2.09-5.93.12-2.9,2.3-5.19,3.55-4.77.42.14,2.11,2.29,2.39,3,.51,1.27.21,3.44.83,4.47ZM219.63,70.24l-.54-.44c1.13-3.27-1.44-7.39-2.79-7.05-.56.14-2.18,2.2-2.34,3.37-.53,3.87,2.03,7.53,3.66,6.89.67-.26,1.33-1.57,1.93-2.17l.08-.6Z" style="fill: #ecdbb1;"/>
    <path d="M207.34,442.42l-.07.1c.07-.01.13,0,.2.02-.68-1.18-1.51-2.02-2.36-2.73-.92-.77-.83-.64-1.74-.8-.38-.07-.78-.32-1.17-.41-1.04-.23-2.14-.12-3.19-.49-.25-.09-1.88-.85-2-.98-.15-.16-.3-.75-.51-.49.15.39.49.85.73,1.02.22.14.45.07.68.17.6.25,1.02.62,1.68.76,1.82.39,4.02.17,5.76,1.71.38.33,1.31,1.22,1.56,1.55.13.18.24.49.43.57Z" style="fill: #ecdbb1;"/>
    <path d="M28.34,221.42l-.07.1c.07-.01.13,0,.2.02-.68-1.18-1.51-2.02-2.36-2.73-.92-.77-.83-.64-1.74-.8-.38-.07-.78-.32-1.17-.41-1.04-.23-2.14-.12-3.19-.49-.25-.09-1.88-.85-2-.98-.15-.16-.3-.75-.51-.49.15.39.49.85.73,1.02.22.14.45.07.68.17.6.25,1.02.62,1.68.76,1.82.39,4.02.17,5.76,1.71.38.33,1.31,1.22,1.56,1.55.13.18.24.49.43.57Z" style="fill: #ecdbb1;"/>
    <path d="M135.7,250.46c-.34.25-.73.45-1.16.47h0c-.89.12-1.9-.12-2.89-.75-.8-.47-1.07-.95-1.46-1.58-.29-.39-.56-.87-1.04-1.43-.7-.85-1.22-1.15-1.74-1.45s-.99-.63-1.6-1.47c-.47-.64-1.55-2.12-1.68-4.06-.14-2.16,1.12-3.84,3.17-6.62,2.45-3.15,4.51-4.89,6.72-6.73,1.9-1.54,3.2-2.34,4.9-2.6.54-.09,1.83-.28,3.28.25,1,.33,1.41.79,2.03,1.54.41.46.93,1.06,1.86,1.82.81.69,1.4,1.09,1.87,1.43.75.51,1.22.84,1.49,1.63.52,1.43-.18,2.85-.68,3.82-.84,1.75-1.81,2.69-3.23,3.95-.41.37-.86.78-1.38,1.31-1.54,1.51-3.49,3.39-5.36,6.11-.5.67-.86,1.31-1.21,1.86-.7,1.11-1.27,1.99-1.96,2.49h.09ZM135.64,226.39l-1.23.9c-2.24,1.79-4.3,3.52-6.62,6.66-2.21,2.97-3.21,4.39-3.06,6.25.13,1.72,1.08,3.14,1.52,3.73.54.74.94.98,1.41,1.31.52.3,1.11.7,1.85,1.6.52.6.83,1.13,1.12,1.53.4.54.63.97,1.23,1.37.92.54,1.76.75,2.52.65h0c1.16-.17,1.75-1.13,2.69-2.72.35-.56.71-1.2,1.21-1.86,1.86-2.72,3.86-4.64,5.37-6.19.52-.53.98-.94,1.38-1.31,1.38-1.31,2.3-2.13,3.12-3.79.5-.97,1.04-2.2.65-3.35-.21-.6-.58-.79-1.24-1.28-.47-.34-1.15-.75-1.96-1.44-.97-.8-1.48-1.41-1.93-1.91-.59-.7-.93-1.06-1.75-1.36-1.28-.5-2.49-.3-2.97-.24-1.21.2-2.2.71-3.39,1.57l.1-.07Z" style="fill: #eaddb7;"/>
    <path d="M132.5,250.53l-.52-.3c.83-1.44,1.76-2.87,2.73-4.12.64-.77,1.03-1.28,1.92-2.23.32-.39.74-.85,1.27-1.46,1.16-1.3,1.6-1.85,1.97-2.27.32-.39.59-.74,1.23-1.42,1.05-1.15,1.88-1.98,2.51-2.67,1.35-1.36,2.08-2.12,2.96-3.6.63-.99,1.08-1.93,1.35-2.5l.57.26c-.26.57-.71,1.5-1.4,2.53-.93,1.51-1.71,2.31-3.06,3.67-.63.69-1.46,1.52-2.51,2.67-.63.69-.85,1-1.18,1.39-.37.42-.8.97-2.02,2.31-.53.62-.95,1.07-1.27,1.46-.89.95-1.31,1.41-1.87,2.2-.98,1.24-1.89,2.59-2.72,4.03l.04.05Z" style="fill: #eaddb7;"/>
    <g>
      <path d="M148.14,235.01c1.33.99,2.37.76,3.08-.74.54-1.23,1.71-2,2.84-.87,2.29,2.71-1.21,6.4-3.34,8.04,1.53-1.73,3.94-4.32,3.33-6.82-.27-.78-1.15-1.58-1.83-.85-.42.46-.75,1.15-1.22,1.64-.89.95-2.13.5-2.86-.4h0Z" style="fill: #fdf6ec;"/>
      <path d="M148.44,243.48l2.18-2.5c1.53-1.73,3.65-4.1,3.08-6.33-.15-.42-.49-.77-.78-.86-.17-.03-.35.03-.47.19-.2.14-.34.47-.5.67-.22.31-.41.68-.76.93-.37.42-.89.65-1.45.6-.7-.02-1.37-.43-1.89-1.04l-.14-.2.32-.39.18.25c.64.36,1.18.58,1.54.46.45-.1.77-.49,1.14-1.13.35-.86,1.05-1.45,1.73-1.57.4-.07.96-.02,1.6.64.66.8.92,1.67.81,2.66-.3,2.79-3.54,5.39-4.18,5.85,0,0-2.41,1.76-2.41,1.76ZM154.39,234.67c.13.59.12,1.2-.06,1.78.08-.21.12-.46.14-.63.02-.39.03-.78-.08-1.15ZM152.95,233.23h.09c.29.1.57.28.8.49l-.04-.05c-.22-.3-.54-.43-.85-.44Z" style="fill: #eaddb7;"/>
    </g>
    <g>
      <path d="M136.83,248.8c1.66,1.13.86,2.62-.39,3.61-.51.45-1.02.98-.88,1.48,1.6,2.91,6.57-2.39,7.77-3.94-1.31,2.24-4.59,6.53-7.59,5.02-.85-.44-.98-1.55-.4-2.2,1.2-1.25,3.31-2.19,1.5-4.04h0v.09Z" style="fill: #fdf6ec;"/>
      <path d="M139.76,254.67c-1.28.94-2.75,1.41-4.17.71-.49-.25-.81-.69-.9-1.23s.04-1.09.44-1.46c.26-.27.57-.57.86-.78.65-.55,1.26-1.07,1.3-1.63.05-.34-.15-.72-.61-1.14l-.28-.17.47-.49.18.25h0c.79.56,1.03,1.21,1.05,1.65.05.79-.48,1.71-1.43,2.48-.3.22-.86.78-.83,1.14.29.39.55.65.99.63,1.85.16,5.03-3.15,6.27-4.66l.47.34c-.29.44-1.82,2.99-3.84,4.47v-.09ZM138.21,254.82c.23-.09.52-.23.76-.41-.25.18-.53.31-.76.41ZM135.3,254.15c.08.32.27.48.5.69,0,0,.04.05.12.06-.28-.17-.51-.38-.67-.72l.05-.04Z" style="fill: #eaddb7;"/>
    </g>
    <path d="M160.09,239.57c3.72,1.06,6.09,1.51,9.1,2.11,1.78.36,3.77.72,6.3,1.28,5.87,1.3,8.81,2.02,11.28,3.24,1.3.64,1.81,1.02,2.66,1.68.89.71,2.3,1.8,5.67,3.94,1.31.86,2.39,1.51,3.26,2.08,2.79,1.74,3.5,2.2,4.12,3.56.25.65.41,1.29.57,1.92.35,1.41.7,2.81,2.11,3.82.82.61,1.59.73,1.97.83,4.39.94,10.61,8.41,10.68,8.51,1.77,2.11,9.25,8.73,24.22,21.96.17.15.3.27.46.41,0-.21,0-.42,0-.63-.09-.08-.16-.14-.26-.23-14.43-12.8-22.41-19.89-24.14-21.95-.25-.34-6.4-7.72-11-8.73-.29-.09-.96-.28-1.67-.74-1.17-.88-1.5-2.15-1.86-3.48-.2-.69-.36-1.32-.65-2.02-.68-1.55-1.51-2.07-4.38-3.82-.84-.52-1.91-1.17-3.22-2.03-3.33-2.18-4.78-3.23-5.67-3.94-.94-.67-1.45-1.05-2.79-1.74-2.55-1.31-5.5-1.95-11.41-3.3-2.58-.53-4.56-.97-6.3-1.28-2.97-.55-5.34-1-9.02-2.1-1-.33-2.45-.55-3.68-.79-1.11-.17-2.08-.37-2.58-.53l-.18.58c.53.21,1.56.37,2.7.59,1.28.2,2.68.46,3.68.79Z" style="fill: #eaddb7;"/>
    <path d="M242.09,367.69c-.24-.16-.36-.25-.36-.25-9.7-8.93-10.75-10.88-11.29-11.92-.24-.43-.44-.81-1.17-1.49-6.25-5.55-10.79-9.49-15.61-13.6l-.65-.58c-17.8-15.25-26.79-22.88-29.06-24.55-.12-.06-11.65-8.49-13.19-12.35-.47-1.16-1.21-2.06-2.08-2.64-1.06-.73-2.24-.78-2.8-.83l-.05.04c-3.77-.19-7.28-3.75-8.59-5.13-1.35-1.43-2.15-2.73-3.97-6.77-3.22-7.09-5.23-12.73-5.32-12.96-.94-2.63-1.59-4.66-2.19-6.41-.97-2.77-1.77-5.21-3.33-9.2-.34-.88-.69-2.29-1.03-3.48-.28-1-.5-1.82-.66-2.24l-.56.26c.17.33.38,1.24.63,2.11.34,1.19.69,2.6,1.07,3.53,1.61,3.96,2.41,6.4,3.33,9.2.64,1.8,1.28,3.82,2.23,6.46.09.23,2.14,5.92,5.36,13.01,1.85,4.09,2.64,5.47,4.08,6.92,1.35,1.43,4.93,5.09,9.04,5.33l.05-.04c.52,0,1.48.05,2.43.64.8.47,1.38,1.26,1.81,2.38,1.61,3.96,12.94,12.22,13.42,12.56,2.32,1.63,11.22,9.25,29.02,24.5l.65.58c4.82,4.11,9.41,8.01,15.61,13.6.65.58.82.91,1.06,1.34.61,1.14,1.66,3.09,11.43,12.12.02.01.25.16.65.43.01-.19.03-.38.04-.57Z" style="fill: #eaddb7;"/>
    <g>
      <path d="M170.42,302.07c2.69-5.82,7.23-11.41,11.19-16.42,6.03-7.88,12.16-15.92,20.32-21.81.89-.65,1.77-1.3,2.7-1.9-.89.65-1.77,1.3-2.62,1.99-7.86,6.2-13.86,14.22-19.96,22-4.13,5.21-8.48,10.21-11.66,16.09h0l.04.05Z" style="fill: #fdf6ec;"/>
      <path d="M170.24,303.27l-.06-1.32.05-.04-.04-.05c2.56-5.5,6.78-10.78,10.44-15.49l.76-.93c5.91-7.73,11.97-15.78,20.09-21.72,8.12-5.94.15-.11.25-.18l1.97-1.44.74-.54.4.54-1.08.79-1.58,1.15c-7.32,5.8-13.14,13.24-18.77,20.53l-1.14,1.44c-.66.86-1.35,1.67-2.01,2.53-3.41,4.23-6.91,8.53-9.54,13.4h0l-.48,1.1v.22ZM187.41,278.69c-.43.54-.92,1.12-1.35,1.67.43-.54.87-1.09,1.35-1.67Z" style="fill: #eaddb7;"/>
    </g>
    <g>
      <path d="M241.67,339.46c-4.29,4.97-8.51,9.92-12.51,14.73,4.11-4.49,8.33-9.18,12.55-13.96-.02-.26-.03-.51-.05-.77Z" style="fill: #fdf6ec;"/>
      <path d="M241.65,338.93c-4.37,5.06-8.66,10.1-12.75,15l.46.42c4.06-4.43,8.23-9.06,12.4-13.77-.05-.55-.08-1.1-.11-1.65Z" style="fill: #eaddb7;"/>
    </g>
    <g>
      <path d="M241.75,333.22c-4.6,5.4-9.65,10.39-14.08,15.94,4.78-4.83,9.88-9.78,14.03-15.27.02-.22.03-.45.05-.67Z" style="fill: #fdf6ec;"/>
      <path d="M241.83,332.6c-2.06,2.47-4.22,4.84-6.37,7.16-2.68,2.94-5.48,6.05-8.02,9.19l.46.42v-.09c.79-.8,1.57-1.59,2.4-2.42,3.92-4,7.95-8.12,11.38-12.59.04-.56.08-1.12.15-1.67ZM235.96,340.22c.79-.88,1.63-1.8,2.47-2.72-1.27,1.46-2.63,2.91-3.94,4.32.52-.53.95-1.07,1.47-1.6Z" style="fill: #eaddb7;"/>
    </g>
    <g>
      <path d="M188.2,286.28c5.18-6.66,10.42-13.97,16.97-19.37-6.02,6.14-11.03,13.13-16.97,19.37h0Z" style="fill: #fdf6ec;"/>
      <path d="M188.42,286.49l-.46-.42c.71-.89,1.43-1.87,2.13-2.77,4.54-5.89,9.19-11.93,14.89-16.63l.36.49c-3.11,3.18-6.11,6.73-8.91,10.14-2.53,3.06-5.2,6.22-7.97,9.15l-.05.04ZM198.17,274.3c-1.21,1.34-2.35,2.78-3.48,4.13.38-.51.8-.97,1.24-1.51.71-.89,1.5-1.78,2.2-2.67l.04.05Z" style="fill: #eaddb7;"/>
    </g>
  </g>
</svg>