<?xml version="1.0" encoding="UTF-8"?>
<svg id="Layer_1" data-name="Layer 1" xmlns="http://www.w3.org/2000/svg" viewBox="0 0 258.04 200.98">
  <path d="M88.11,196.39c-.52,0-1.13-.39-2.04-1.23-2.02-1.85-2.62-4.19-3.62-8.07-.41-1.62-.88-3.45-1.55-5.63-.02-.08-2.45-7.92-6.25-15.07-2.25-4.25-4.09-6.41-7.15-10-.85-1-1.79-2.11-2.86-3.4-4.73-5.71-6.64-8.61-8.33-11.17-1.46-2.21-2.72-4.12-5.5-7.36-5.4-6.29-8.61-8.36-12-10.54-3.46-2.23-7.03-4.53-13.15-11.35-1.63-1.81-2.97-3.42-4.15-4.84-3.23-3.88-5.36-6.44-9.54-8.53-2.63-1.31-4.75-1.78-6.46-2.15-2.36-.52-4.07-.89-5.09-3.14-.63-1.38-1.79-3.96,7.55-25.67,6.16-14.33,7.89-16.01,8.92-17.01,3.42-3.3,7.1-4.36,17.92-5.19,4.15-.32,8.04-1.36,12.16-2.46,6.3-1.69,12.8-3.43,20.64-2.59,2.65.29,8.01,2.43,13.69,4.7,4.94,1.97,10.03,4,13.89,5.07-.25-.78-.39-1.59-.46-2.49-1.17-14.72,19.14-28.58,25.39-32.47,3.52-2.2,9.52-4.29,21.49-8.47,25.99-9.08,30.64-8.43,34.47-4.95,1.48,1.34,1.88,2.29,2.85,4.58.91,2.16,2.44,5.79,6.06,12.4,1.59,2.92,2.9,5.13,11.3,18.5,8.19,13.03,12.71,20.2,15.09,23.57,7.09,10.06,10.65,15.1,14.99,18.42,3.15,2.4,5.33,3.33,7.44,4.23,2.63,1.12,5.11,2.18,8.96,5.92.97.95,6.03,6.17,10.17,15.31,1.96,4.34,3.5,7.76,2.53,10.48-1.17,3.28-4.87,3.41-11.6,3.65l-1.44.05c-4.09.15-8.24.51-12.27.85-3.81.33-7.75.66-11.63.83-12.67.55-14.47.72-17.48,1.66l-1.57.49c-5.9,1.82-9.79,3.02-13.27,7.75-2.02,2.75-3.41,8.5-6.19,19.96-.24,1.03-.15,1.28-.1,1.34.41.17,2.22-1.15,2.9-1.66l.17-.13c1.1-.81,2.25-1.52,3.36-2.2,1.4-.86,2.85-1.74,4.17-2.83,4.72-3.92,16.44-8.9,25.32-11.88l1.12-.38c20.76-6.95,31.17-10.44,35.4-11.43,1.11-.26,4.35-1.02,4.65-2.96.13-.83-.27-1.86-1.16-2.99l.79-.62c1.08,1.37,1.53,2.63,1.36,3.76-.4,2.61-4.14,3.48-5.37,3.77-4.22.99-14.63,4.47-35.35,11.41l-1.12.38c-7.34,2.46-20.06,7.61-25,11.7-1.38,1.13-2.85,2.04-4.28,2.92-1.1.67-2.23,1.37-3.29,2.15l-.17.13c-1.62,1.2-3.46,2.55-4.29,1.45-.38-.51-.27-1.3-.09-2.08l.02-.1c2.81-11.59,4.22-17.4,6.35-20.32,3.68-5,7.92-6.31,13.78-8.12l1.57-.49c3.25-1.01,5.45-1.17,17.74-1.7,3.86-.17,7.79-.5,11.59-.83,4.03-.34,8.2-.7,12.31-.86l1.44-.05c6.29-.22,9.75-.35,10.69-2.99.83-2.34-.64-5.6-2.5-9.74-4.06-8.98-9-14.08-9.95-15.01-3.71-3.61-6-4.58-8.65-5.71-2.17-.92-4.41-1.88-7.65-4.36-4.47-3.41-8.06-8.5-15.2-18.64-2.39-3.39-6.91-10.57-15.12-23.61-8.42-13.4-9.73-15.62-11.34-18.56-3.64-6.65-5.19-10.31-6.11-12.49-.93-2.21-1.28-3.04-2.6-4.23-3.53-3.21-7.99-3.75-33.47,5.15-11.9,4.15-17.87,6.23-21.29,8.37-4.36,2.72-26.08,17.02-24.93,31.55.08,1.04.28,1.96.65,2.87.07.02.15.03.22.05l-.07.3c1.19,2.59,3.85,5.29,9.43,10.96,2.01,2.04,4.41,4.47,7.24,7.41,10.92,11.33,16.4,17.01,20.17,21.94,7.2,9.43,10.04,16.41,12.55,22.57,2.53,6.22,4.92,12.1,11.33,19.53,5.02,5.83,10.06,9.78,13.74,12.66,4.37,3.42,7.01,5.49,6.5,7.98-.39,1.89-2.28,2.22-4.9,2.66-2.32.4-5.51.94-9.21,2.74-6.01,2.92-13,4.14-19.75,5.32-4.75.83-9.66,1.69-14.29,3.13-4.13,1.29-7.24,2.2-9.51,2.88q-6.9,2.04-8.29,4.2c-.64,1-1.52,2.37-3.31,4.5-.47,1.13-5.94,13.64-17.97,15.39-.59.09-.86.35-1.13.6-.35.33-.66.5-1.01.5ZM63.51,41.77c-5.95,0-11.19,1.4-16.29,2.77-4.17,1.12-8.1,2.17-12.34,2.49-11.26.86-14.32,2.03-17.3,4.91-.91.89-2.61,2.54-8.7,16.69C-.29,89.95.88,92.53,1.32,93.5c.81,1.79,2.09,2.07,4.4,2.58,1.76.38,3.95.86,6.69,2.23,4.37,2.18,6.55,4.81,9.86,8.78,1.18,1.41,2.51,3.01,4.13,4.81,6.04,6.72,9.55,8.98,12.95,11.18,3.45,2.23,6.72,4.33,12.21,10.73,2.82,3.28,4.1,5.22,5.58,7.46,1.68,2.54,3.57,5.41,8.27,11.08,1.06,1.29,2,2.39,2.85,3.38,3.1,3.64,4.96,5.84,7.27,10.18,3.85,7.24,6.3,15.17,6.33,15.25.68,2.21,1.15,4.05,1.57,5.68.95,3.7,1.52,5.93,3.32,7.58,1.25,1.15,1.37,1.04,1.69.74.31-.29.77-.73,1.67-.86,11.95-1.75,17.17-14.72,17.22-14.85l.08-.14c1.78-2.11,2.65-3.46,3.28-4.45,1.59-2.48,1.73-2.52,8.85-4.62,2.27-.67,5.38-1.59,9.5-2.87,4.69-1.46,9.63-2.32,14.41-3.16,6.99-1.22,13.6-2.38,19.49-5.23,3.83-1.86,7.09-2.42,9.48-2.82,2.66-.45,3.85-.7,4.09-1.88.38-1.89-2.21-3.92-6.14-7-3.71-2.91-8.79-6.89-13.88-12.8-6.51-7.56-8.93-13.51-11.5-19.81-2.6-6.4-5.3-13.01-12.42-22.33-3.73-4.88-9.2-10.56-20.09-21.86-2.83-2.94-5.22-5.36-7.23-7.41-5.61-5.69-8.34-8.47-9.6-11.16-4-1.02-9.44-3.19-14.71-5.29-5.61-2.24-10.92-4.36-13.43-4.63-1.37-.15-2.69-.21-3.98-.21Z"/>
  <path d="M90.79,200.98c-.74,0-1.47-.21-2.15-.73-1.27-.97-2.18-2.77-2.71-5.35l.98-.2c.48,2.34,1.26,3.94,2.33,4.75,1.78,1.35,4.15-.18,6.44-1.66,1.09-.71,2.13-1.37,3.14-1.78,5.27-2.1,8.1-3.76,12.78-6.5,3.01-1.76,6.75-3.96,12.33-6.95l.28-.15c7.22-3.87,10.84-5.82,16.1-8.28,1.3-.61,2.38-1.1,3.31-1.53,2.72-1.24,4.22-1.92,6.69-3.49,1.66-1.06,2.94-1.99,4.17-2.88,1.75-1.27,3.39-2.47,5.91-3.87,1.47-.81,2.87-1.87,4.09-2.81,1.37-1.04,2.55-1.94,3.54-2.28l.33.95c-.84.29-1.96,1.14-3.26,2.13-1.25.95-2.68,2.04-4.21,2.88-2.46,1.37-4.09,2.55-5.81,3.8-1.25.91-2.53,1.85-4.23,2.92-2.53,1.61-4.05,2.3-6.81,3.56-.93.42-2,.91-3.3,1.52-5.23,2.45-8.85,4.39-16.05,8.26l-.28.15c-5.56,2.99-9.3,5.18-12.29,6.93-4.56,2.68-7.58,4.44-12.92,6.57-.92.37-1.91,1.01-2.96,1.69-1.74,1.12-3.64,2.35-5.43,2.35Z"/>
  <path d="M134.22,61.71c8.92-15.1,24.41-17.38,40.26-20.22-1.87.53-3.74,1-5.61,1.5-14.36,3.56-25.36,6.11-34.64,18.71h0Z"/>
  <path d="M146.95,77.79c8.92-15.1,24.41-17.38,40.26-20.22-1.87.53-3.74,1-5.61,1.5-14.36,3.56-25.36,6.11-34.64,18.71h0Z"/>
  <path d="M159.53,92.96c8.92-15.1,24.41-17.38,40.26-20.22-1.87.53-3.74,1-5.61,1.5-14.36,3.56-25.36,6.11-34.64,18.71h0Z"/>
  <path d="M52.4,99.43c8.92-15.1,24.41-17.38,40.26-20.22-1.87.53-3.74,1-5.61,1.5-14.36,3.56-25.36,6.11-34.64,18.71h-.01Z"/>
  <path d="M65.13,115.52c8.92-15.1,24.41-17.38,40.26-20.22-1.87.53-3.74,1-5.61,1.5-14.36,3.56-25.36,6.11-34.64,18.71h-.01Z"/>
  <path d="M77.71,130.68c8.92-15.1,24.41-17.38,40.26-20.22-1.87.53-3.74,1-5.61,1.5-14.36,3.56-25.36,6.11-34.64,18.71h-.01Z"/>
</svg>