<?xml version="1.0" encoding="UTF-8"?>
<svg id="Layer_1" data-name="Layer 1" xmlns="http://www.w3.org/2000/svg" viewBox="0 0 820.41 437.87">
  <path d="M819.17,259.29c-62.31-11.91-131.89,2.81-194.67,11.92-62.78,9.11-131.93,10.04-183.7-26.56-39.19-27.7-61.99-72.44-83.29-115.39,14.16-16.25,40.56-11.35,60.12-2.25,19.55,9.1,40.5,21.37,61.25,15.48,20.67-5.87,32.79-29.39,30.65-50.73-2.14-21.34-15.7-40.07-32.03-54.02C430.75-2.19,361.81-8.1,302.74,9.11s-110.12,54.42-157.38,93.75C101.44,139.41,56.36,180,0,189.67v248.2c254-169.44,562.1-2.56,819.34-39.67,2.02-133.84.72-7.1-.17-138.9Z" style="fill: #c72b25;"/>
  <path d="M312.61,146.28l-38.81-14.86c-3.01-1.15-6.28-2.58-6.92-4.98-.37-1.38.21-2.91,1.78-4.67,10.74-12.01,36.31-10.45,43.89-9.69,4.41.44,8.88,1.07,13.21,1.68,11.21,1.57,22.81,3.2,34.05,1.73l.27.98c-11.52,1.51-23.26-.14-34.61-1.73-4.31-.6-8.76-1.23-13.13-1.67-7.35-.74-32.15-2.27-42.43,9.23-1.38,1.54-1.9,2.83-1.59,3.96.53,1.97,3.48,3.25,6.2,4.29l38.81,14.86-.71.87Z" style="fill: #fdf6ec;"/>
  <path d="M476.36,55.68c-26.55-31.87-70.11-48.34-110.97-41.95l-.22-1.42c41.35-6.46,85.42,10.2,112.29,42.45l-1.1.92Z" style="fill: #fdf6ec;"/>
  <path d="M462.15,128.92c-3.65,0-7.19-.75-10.35-2.26l.75-1.32c7.26,3.48,16.68,2.57,24.59-2.36,7.91-4.93,12.27-12.62,11.37-20.07l1.62-.16c.96,7.99-3.66,16.21-12.07,21.46-4.99,3.11-10.57,4.71-15.91,4.71Z" style="fill: #fdf6ec;"/>
  <path d="M374.23,212.6c-9.38-5.24-20.02-11.17-28.44-21.7-7.78-9.73-14.46-26.04-11.87-40.58l.92.52c-2.49,13.94,3.98,29.68,11.5,39.08,8.27,10.34,18.8,16.22,28.1,21.41l-.22,1.26Z" style="fill: #fdf6ec;"/>
  <polygon points="342.25 94.5 308.65 92.78 308.71 91.78 342.3 93.5 342.25 94.5" style="fill: #fdf6ec;"/>
  <path d="M761.88,307.64c-15.31-10.26-38.91-15.32-64.73-13.89-23.36,1.3-45.7,7.22-67.3,12.95l-.48-.94c21.69-5.75,44.11-11.69,67.67-13,26.21-1.46,50.19,3.7,65.78,14.15l-.94.73Z" style="fill: #fdf6ec;"/>
</svg>