<?xml version="1.0" encoding="UTF-8"?>
<svg id="Layer_1" data-name="Layer 1" xmlns="http://www.w3.org/2000/svg" viewBox="0 0 810.73 383.94">
  <path d="M810.73,245.94c0-3-16.18-2.77-24-5-35-10-28.39-8.31-61-33-30.92-23.42-43.27-69.52-35.19-106.19,34.01,8.75,78.41,8.93,95.54-20,16.41-27.72-7.09-64.28-38.66-75.58-31.57-11.3-66.94-5.04-99.74,2.62-65.79,15.36-198.67,47.03-338.67,128.03C189.66,205.87,44.99,206.73,1.01,202.82.62,287-.11,301.76.01,307.82c298.91-13.72,527.04-3.1,808.72,76.12.47-121.11,2-122.97,2-138Z" style="fill: #f1431d;"/>
  <path d="M579.95,135.59c-4.3-8.09-9.17-17.27-9.58-26.85-.38-8.84,4.06-19.73,14.81-24.13,13.03-5.33,25.63.75,38.96,7.18,10.18,4.91,20.7,10.01,31.64,9.74,3.72-.08,7.72-.76,11.59-1.41,8.74-1.46,17.77-2.98,24.09,2.18l-1.14.99c-5.71-4.66-13.93-3.28-22.63-1.82-3.94.66-8.01,1.34-11.86,1.43-11.38.25-22.11-4.92-32.49-9.93-12.95-6.25-25.18-12.15-37.44-7.13-10.09,4.13-14.25,14.44-13.89,22.84.4,9.31,5.2,18.36,9.44,26.34l-1.49.56Z" style="fill: #fff5ea;"/>
  <path d="M773.91,59.94h-1.63c.19-16.97-11.52-33.84-29.14-42.01-17.62-8.16-40.78-7.44-57.63,1.79l-.89-1.16c17.35-9.5,41.18-10.24,59.31-1.84,18.13,8.4,30.18,25.76,29.99,43.21Z" style="fill: #fff5ea;"/>
  <path d="M746.53,96.32c-4.26,0-8.51-.71-12.41-2.19l.67-1.26c11.09,4.22,25.2,1.86,33.54-5.62l1.19.94c-5.87,5.26-14.45,8.13-22.99,8.13Z" style="fill: #fff5ea;"/>
  <path d="M765,266.41c-26.82-1.51-52.96-12.9-69.94-30.48-18.33-18.98-25.76-43.6-31.8-67.19l1.6-.29c6,23.43,13.37,47.87,31.47,66.61,16.69,17.29,42.41,28.49,68.78,29.97l-.11,1.38Z" style="fill: #fff5ea;"/>
</svg>