<?xml version="1.0" encoding="UTF-8"?>
<svg id="Layer_1" data-name="Layer 1" xmlns="http://www.w3.org/2000/svg" viewBox="0 0 707.45 281.04">
  <g>
    <ellipse cx="259.36" cy="166.08" rx="103" ry="100" style="fill: #fdf6ec;"/>
    <path d="M259.36,267.58c-57.62,0-104.5-45.53-104.5-101.5s46.88-101.5,104.5-101.5,104.5,45.53,104.5,101.5-46.88,101.5-104.5,101.5ZM259.36,67.58c-55.97,0-101.5,44.19-101.5,98.5s45.53,98.5,101.5,98.5,101.5-44.19,101.5-98.5-45.53-98.5-101.5-98.5Z" style="fill: #fdf6ec;"/>
  </g>
  <ellipse cx="258.86" cy="166.08" rx="32" ry="31.5" style="fill: #df5231;"/>
  <g>
    <path d="M286.72,55.29l-15.79-2.71c-.25,1.87-.71,3.34-1.09,4.33-.62,1.65-1.37,3.62-3.27,5.41-.36.34-1.49,1.36-3.27,2.17-2.26,1.02-4.31,1.11-5.45,1.08l36.67,6c-1.08-.36-2.97-1.14-4.75-2.86-1.4-1.36-2.11-2.7-2.33-3.14-1.17-2.33-1.19-4.44-1.22-6.2-.01-1.06.06-2.6.46-4.44l-13.04-1.81" style="fill: #fdf6ec;"/>
    <path d="M294.44,72.06l-36.67-6,.09-.99c1.84.05,3.6-.3,5.23-1.04,1.56-.71,2.63-1.61,3.13-2.08,1.83-1.73,2.56-3.66,3.15-5.22.51-1.32.86-2.74,1.06-4.22l.07-.51,5.5.94,11.28,1.57-.11.53c-.31,1.43-.46,2.89-.45,4.33.03,1.81.06,3.78,1.17,5.98.3.61,1,1.81,2.23,3,1.28,1.24,2.82,2.16,4.56,2.75l-.24.97ZM261.49,65.66l29.75,4.87c-.65-.43-1.25-.91-1.81-1.46-1.34-1.3-2.1-2.61-2.43-3.28-1.2-2.4-1.24-4.58-1.27-6.34-.01-1.29.09-2.55.3-3.77l-10.18-1.75-2.28-.32v-.07s-2.22-.38-2.22-.38c-.22,1.37-.57,2.69-1.04,3.93-.62,1.65-1.4,3.71-3.39,5.59-.54.51-1.71,1.49-3.41,2.26-.65.3-1.33.53-2.02.71Z" style="fill: #fdf6ec;"/>
  </g>
  <g>
    <path d="M323.03,71.36l-13.92-7.94c-.87,1.67-1.81,2.9-2.5,3.7-1.15,1.34-2.52,2.93-4.92,3.97-.46.2-1.86.77-3.81.92-2.47.19-4.43-.43-5.49-.84l32.41,18.17c-.89-.7-2.4-2.09-3.48-4.31-.85-1.75-1.06-3.26-1.11-3.75-.3-2.59.39-4.58.98-6.24.35-1,.94-2.43,1.95-4.02l-11.64-6.16" style="fill: #fdf6ec;"/>
    <path d="M324.56,89.78l-32.41-18.17.43-.9c1.74.67,3.51.94,5.27.81,1.72-.13,3.02-.61,3.65-.88,2.3-1,3.6-2.51,4.74-3.84.93-1.08,1.75-2.3,2.44-3.61l.24-.46,4.69,2.68,10.25,5.43-.29.46c-.78,1.23-1.42,2.55-1.9,3.92-.56,1.56-1.25,3.51-.96,6.02.05.54.27,1.95,1.06,3.59.98,2.02,2.36,3.36,3.34,4.13l-.55.83ZM295.76,72.49l26.31,14.75c-.43-.58-.84-1.24-1.21-1.99-.87-1.78-1.1-3.33-1.16-3.92-.32-2.73.45-4.89,1.01-6.46.41-1.17.93-2.3,1.55-3.37l-9.15-5.22-1.85-.98.03-.06-1.99-1.13c-.67,1.2-1.45,2.33-2.32,3.34-1.15,1.34-2.59,3.01-5.1,4.1-.68.3-2.1.82-3.97.96-.72.05-1.44.05-2.15-.02Z" style="fill: #fdf6ec;"/>
  </g>
  <g>
    <path d="M195.38,71.22l13.92-7.94c.87,1.67,1.81,2.9,2.5,3.7,1.15,1.34,2.52,2.93,4.92,3.97.46.2,1.86.77,3.81.92,2.47.19,4.43-.43,5.49-.84l-32.41,18.17c.89-.7,2.4-2.09,3.48-4.31.85-1.75,1.06-3.26,1.11-3.75.3-2.59-.39-4.58-.98-6.24-.35-1-.94-2.43-1.95-4.02l11.64-6.16" style="fill: #fdf6ec;"/>
    <path d="M193.85,89.64l-.55-.83c.98-.77,2.36-2.12,3.34-4.14.8-1.64,1.01-3.05,1.06-3.58.29-2.52-.4-4.46-.95-6.02-.48-1.37-1.12-2.69-1.9-3.92l-.29-.46,10.25-5.43,4.69-2.68.24.46c.68,1.31,1.5,2.52,2.44,3.6,1.14,1.33,2.44,2.84,4.74,3.84.63.27,1.93.75,3.65.88,1.76.14,3.53-.14,5.27-.81l.42.9-32.41,18.17ZM196.14,71.36c.62,1.08,1.14,2.21,1.55,3.38.56,1.57,1.32,3.72,1,6.46-.06.58-.29,2.13-1.16,3.91-.36.75-.78,1.41-1.21,1.99l26.31-14.75c-.72.07-1.44.08-2.16.02-1.38-.11-2.79-.45-3.97-.96-2.52-1.09-3.95-2.76-5.1-4.1-.87-1.01-1.65-2.13-2.32-3.34l-1.99,1.13.03.06-1.85.98-9.15,5.22Z" style="fill: #fdf6ec;"/>
  </g>
  <g>
    <path d="M231.28,55.36l15.79-2.71c.25,1.87.71,3.34,1.09,4.33.62,1.65,1.37,3.62,3.27,5.41.36.34,1.49,1.36,3.27,2.17,2.26,1.02,4.31,1.11,5.45,1.08l-36.67,6c1.08-.36,2.97-1.14,4.75-2.86,1.4-1.36,2.11-2.7,2.33-3.14,1.17-2.33,1.19-4.44,1.22-6.2,0-1.06-.06-2.6-.46-4.44l13.04-1.81" style="fill: #fdf6ec;"/>
    <path d="M223.56,72.13l-.24-.97c1.74-.58,3.28-1.5,4.56-2.74,1.23-1.2,1.93-2.4,2.23-3,1.1-2.2,1.14-4.17,1.17-5.91.02-1.51-.14-2.96-.45-4.4l-.11-.53,11.28-1.57,5.5-.94.07.51c.2,1.48.55,2.9,1.06,4.22.59,1.56,1.32,3.5,3.15,5.23.5.47,1.57,1.37,3.13,2.08,1.63.73,3.38,1.09,5.23,1.04l.09.99-36.67,6ZM231.98,55.75c.21,1.23.32,2.47.3,3.7-.03,1.83-.07,4.02-1.27,6.42-.33.67-1.09,1.98-2.43,3.27-.56.54-1.17,1.03-1.81,1.46l29.74-4.87c-.69-.18-1.36-.42-2.02-.71-1.7-.77-2.86-1.75-3.41-2.26-2-1.88-2.77-3.94-3.4-5.6-.47-1.24-.82-2.55-1.04-3.93l-2.23.38v.07s-2.27.32-2.27.32l-10.18,1.75Z" style="fill: #fdf6ec;"/>
  </g>
  <g>
    <path d="M352.26,97.59l-10.44-12.15c-1.38,1.28-2.68,2.12-3.6,2.64-1.53.87-3.36,1.91-5.97,2.09-.5.03-2.02.1-3.9-.41-2.39-.66-4.03-1.89-4.89-2.64l24.43,28c-.6-.96-1.56-2.77-1.83-5.23-.21-1.94.1-3.42.21-3.91.59-2.54,1.91-4.18,3.01-5.55.67-.83,1.7-1.97,3.19-3.13l-8.9-9.71" style="fill: #fdf6ec;"/>
    <path d="M347.51,115.45l-24.43-28,.71-.71c1.36,1.19,2.98,2.06,4.69,2.54.85.23,2.19.48,3.74.39,2.49-.17,4.23-1.16,5.75-2.03,1.25-.71,2.43-1.57,3.51-2.57l.38-.35,3.64,4.24,7.7,8.4-.43.33c-1.15.9-2.2,1.92-3.11,3.05-1.1,1.38-2.35,2.93-2.91,5.35-.34,1.5-.29,2.86-.2,3.74.19,1.78.79,3.46,1.76,5.02l-.8.59ZM326.19,89.49l19.83,22.73c-.22-.74-.38-1.5-.46-2.28-.1-.96-.15-2.44.22-4.07.62-2.65,1.99-4.36,3.1-5.74.78-.97,1.65-1.86,2.6-2.67l-6.73-7.84-1.55-1.69.05-.05-1.48-1.72c-1.03.91-2.14,1.7-3.31,2.36-1.54.88-3.46,1.97-6.18,2.15-1.68.1-3.14-.18-4.06-.43-.69-.19-1.37-.44-2.03-.75Z" style="fill: #fdf6ec;"/>
  </g>
  <g>
    <path d="M370.85,134.47l-5.69-14.98c-1.74.73-3.24,1.08-4.28,1.26-1.74.3-3.81.66-6.32-.07-.48-.14-1.93-.59-3.53-1.71-2.03-1.43-3.15-3.15-3.7-4.14l13.45,34.64c-.24-1.11-.53-3.14.06-5.54.46-1.89,1.26-3.19,1.53-3.6,1.42-2.19,3.22-3.28,4.72-4.19.91-.55,2.27-1.27,4.06-1.86l-5.06-12.16" style="fill: #fdf6ec;"/>
    <path d="M360.31,149.65l-13.45-34.64.9-.42c.89,1.61,2.09,2.94,3.55,3.97,1.04.73,2.21,1.3,3.38,1.64,2.39.7,4.35.36,6.08.06,1.41-.24,2.82-.66,4.18-1.23l.48-.2,1.9,4.99,4.48,10.76-.51.17c-1.4.46-2.73,1.07-3.96,1.81-1.51.91-3.21,1.94-4.56,4.03-.3.46-1.04,1.7-1.46,3.45-.43,1.73-.45,3.52-.06,5.32l-.95.29ZM349.1,118l10.91,28.11c.04-.77.16-1.54.34-2.3.45-1.83,1.19-3.14,1.6-3.75,1.48-2.28,3.36-3.42,4.87-4.34,1.05-.64,2.18-1.18,3.35-1.62l-3.76-9.9-.78-1.88.06-.02-.81-2.14c-1.28.5-2.6.87-3.91,1.1-1.75.3-3.93.68-6.54-.08-1.27-.37-2.54-.99-3.68-1.78-.59-.42-1.14-.88-1.65-1.38Z" style="fill: #fdf6ec;"/>
  </g>
  <g>
    <path d="M375.69,173.85l.14-16.02c-1.88.05-3.41-.17-4.45-.38-1.73-.35-3.79-.77-5.87-2.36-.4-.3-1.59-1.25-2.66-2.88-1.37-2.07-1.79-4.08-1.94-5.2l-.04,37.16c.18-1.12.65-3.12,2.06-5.15,1.12-1.6,2.33-2.51,2.73-2.8,2.11-1.53,4.19-1.89,5.92-2.19,1.04-.18,2.58-.36,4.46-.26l-.31-13.17" style="fill: #fdf6ec;"/>
    <path d="M361.36,184.25l-.99-.08.04-37.16,1-.07c.24,1.79.88,3.51,1.86,4.99.99,1.51,2.11,2.43,2.54,2.76,2,1.53,3.95,1.92,5.67,2.27,1.41.28,2.87.41,4.34.37h.52s-.05,5.61-.05,5.61l.27,11.36-.54-.03c-1.47-.08-2.93,0-4.35.25-1.73.3-3.7.64-5.71,2.1-.98.71-1.88,1.64-2.61,2.68-1,1.45-1.69,3.15-1.98,4.94ZM361.41,150.6l-.03,30.16c.32-.71.71-1.39,1.15-2.03.79-1.14,1.78-2.14,2.85-2.92,2.2-1.6,4.38-1.97,6.13-2.28,1.21-.21,2.45-.31,3.7-.29l.09-10.3-.05-2.33h.08s.02-2.27.02-2.27h-.03c-1.36,0-2.7-.13-4.01-.4-1.74-.35-3.9-.79-6.07-2.45-.59-.44-1.74-1.42-2.77-3-.39-.59-.74-1.23-1.03-1.88Z" style="fill: #fdf6ec;"/>
  </g>
  <g>
    <path d="M364.81,213.05l5.79-14.94c-1.78-.62-3.13-1.36-4.03-1.93-1.49-.94-3.27-2.06-4.66-4.28-.26-.42-1.04-1.73-1.47-3.63-.55-2.42-.23-4.45.02-5.55l-13.18,34.74c.56-.98,1.71-2.69,3.75-4.08,1.61-1.1,3.06-1.53,3.54-1.66,2.52-.68,4.58-.29,6.32.04,1.04.2,2.54.57,4.26,1.34l4.37-12.42" style="fill: #fdf6ec;"/>
    <path d="M347.71,217.71l-.9-.43,13.18-34.74.96.29c-.41,1.8-.41,3.59-.02,5.33.28,1.24.77,2.44,1.41,3.48,1.33,2.12,3.01,3.18,4.5,4.12,1.2.76,2.52,1.39,3.93,1.88l.49.17-2.09,5.41-3.72,10.56-.5-.22c-1.34-.6-2.69-1.02-4.15-1.3-1.72-.33-3.68-.7-6.1-.05-.66.18-1.97.62-3.39,1.59-1.46.99-2.7,2.35-3.6,3.92ZM359.65,186.25l-10.7,28.2c.55-.55,1.15-1.05,1.79-1.49,1.54-1.05,2.97-1.54,3.69-1.73,2.63-.71,4.8-.3,6.54.03,1.25.24,2.42.58,3.58,1.04l3.66-9.44.83-2.35.07.03.83-2.13c-1.3-.49-2.53-1.09-3.65-1.8-1.5-.95-3.37-2.12-4.82-4.44-.7-1.13-1.23-2.44-1.53-3.79-.16-.7-.26-1.41-.3-2.13Z" style="fill: #fdf6ec;"/>
  </g>
  <g>
    <path d="M342.39,246.42l10.74-11.89c-1.44-1.21-2.44-2.39-3.07-3.24-1.06-1.41-2.32-3.1-2.82-5.66-.1-.49-.35-1.99-.08-3.92.35-2.46,1.37-4.24,2-5.18l-24.71,27.75c.88-.72,2.55-1.9,4.96-2.48,1.89-.45,3.41-.33,3.9-.28,2.59.26,4.38,1.37,5.88,2.29.9.56,2.17,1.44,3.5,2.77l8.52-10.05" style="fill: #fdf6ec;"/>
    <path d="M342.72,247.32l-.38-.38c-1.03-1.03-2.14-1.91-3.41-2.7-1.52-.93-3.21-1.97-5.67-2.22-.68-.07-2.07-.13-3.73.27-1.74.42-3.34,1.22-4.76,2.38l-.69-.72,24.71-27.75.79.61c-1.02,1.52-1.67,3.2-1.92,4.97-.25,1.81-.03,3.23.07,3.75.48,2.47,1.73,4.13,2.73,5.46.84,1.13,1.85,2.2,2.99,3.16l.4.33-3.99,4.42-7.14,8.42ZM332.23,240.97c.47,0,.85.03,1.13.06,2.68.27,4.55,1.42,6.06,2.34,1.11.69,2.1,1.44,3.01,2.27l6.68-7.39,1.72-2.03.06.05,1.52-1.69c-1.04-.92-1.97-1.92-2.76-2.99-1.06-1.41-2.38-3.17-2.91-5.86-.12-.57-.36-2.12-.08-4.08.1-.71.26-1.41.48-2.1l-20.05,22.51c.71-.31,1.44-.56,2.2-.75,1.14-.27,2.15-.35,2.94-.35Z" style="fill: #fdf6ec;"/>
  </g>
  <g>
    <path d="M309.94,268.45l14.12-7.58c-.95-1.63-1.49-3.07-1.81-4.09-.52-1.69-1.14-3.7-.75-6.28.07-.49.33-1.99,1.24-3.72,1.16-2.19,2.71-3.53,3.63-4.2l-32.6,17.82c1.07-.38,3.04-.93,5.51-.66,1.94.21,3.32.83,3.77,1.05,2.35,1.12,3.67,2.76,4.77,4.14.66.83,1.56,2.09,2.37,3.79l11.4-6.6" style="fill: #fdf6ec;"/>
    <path d="M309.97,269.42l-.23-.49c-.62-1.31-1.4-2.55-2.31-3.69-1.04-1.3-2.33-2.92-4.59-4-.49-.24-1.81-.81-3.61-1-1.78-.2-3.56.02-5.29.63l-.41-.91,32.6-17.82.53.84c-1,.73-2.42,2.02-3.48,4.03-.84,1.6-1.11,3.02-1.19,3.56-.37,2.47.21,4.37.73,6.05.43,1.38,1.03,2.73,1.77,3.99l.26.45-4.73,2.54-10.05,5.82ZM297.95,259.17c.46,0,.92.02,1.38.08,1.89.2,3.28.78,3.94,1.1,2.47,1.18,3.84,2.9,4.94,4.28.77.97,1.46,2.01,2.03,3.1l9.29-4.99,1.8-1.04.03.06,2-1.07c-.66-1.2-1.2-2.45-1.6-3.74-.52-1.71-1.17-3.82-.77-6.5.1-.73.41-2.2,1.29-3.88.36-.67.75-1.27,1.16-1.8l-26.45,14.46c.32-.02.63-.04.95-.04Z" style="fill: #fdf6ec;"/>
  </g>
  <g>
    <path d="M271.22,280.1l15.81-2.59c-.37-1.85-.42-3.39-.38-4.45.05-1.76.12-3.87,1.32-6.18.23-.44.96-1.77,2.38-3.11,1.81-1.7,3.71-2.46,4.79-2.8l-36.62,6.29c1.13-.02,3.18.11,5.42,1.16,1.76.83,2.87,1.86,3.23,2.21,1.86,1.82,2.57,3.8,3.17,5.46.36,1,.8,2.48,1.01,4.35l12.92-2.54" style="fill: #fdf6ec;"/>
    <path d="M270.91,281.04l-.06-.54c-.16-1.45-.49-2.88-.98-4.24-.6-1.67-1.28-3.54-3.05-5.27-.49-.48-1.54-1.38-3.09-2.12-2.05-.96-3.95-1.13-5.2-1.11l-.09-.99,36.62-6.29.23.97c-1.71.54-3.3,1.47-4.6,2.69-1.18,1.11-1.89,2.23-2.28,2.98-1.16,2.23-1.22,4.3-1.26,5.96-.04.96,0,2.48.37,4.34l.1.51-5.14.84-11.57,2.28ZM261.96,267.18c.7.18,1.44.44,2.19.79,1.68.79,2.83,1.78,3.37,2.3,1.93,1.89,2.68,3.96,3.28,5.63.42,1.18.73,2.39.93,3.61l10.58-1.73,1.87-.37v.06s2.27-.37,2.27-.37c-.3-1.72-.33-3.14-.29-4.06.05-1.76.11-3.96,1.38-6.39.43-.81,1.2-2.04,2.48-3.24.52-.49,1.09-.94,1.69-1.34l-29.74,5.11Z" style="fill: #fdf6ec;"/>
  </g>
  <g>
    <path d="M231.96,277.45l15.79,2.71c.25-1.87.71-3.34,1.09-4.33.62-1.65,1.37-3.62,3.27-5.41.36-.34,1.49-1.36,3.27-2.17,2.26-1.02,4.31-1.11,5.45-1.08l-36.67-6c1.08.36,2.97,1.14,4.75,2.86,1.4,1.36,2.11,2.7,2.33,3.14,1.17,2.33,1.19,4.44,1.22,6.2,0,1.06-.06,2.6-.46,4.44l13.04,1.81" style="fill: #fdf6ec;"/>
    <path d="M248.18,280.74l-5.49-.94-11.29-1.57.11-.53c.31-1.43.46-2.89.45-4.33-.03-1.81-.06-3.79-1.17-5.98-.3-.61-1-1.81-2.23-3.01-1.28-1.24-2.82-2.16-4.56-2.74l.24-.97,36.67,6-.09.99c-1.85-.05-3.6.3-5.23,1.04-1.57.71-2.63,1.61-3.13,2.08-1.83,1.73-2.56,3.67-3.15,5.22-.51,1.32-.86,2.74-1.06,4.22l-.07.51ZM245.1,279.2l2.23.38c.22-1.37.57-2.69,1.04-3.93.62-1.65,1.39-3.71,3.39-5.6.54-.51,1.71-1.49,3.41-2.26.66-.3,1.33-.53,2.02-.71l-29.75-4.87c.65.43,1.25.92,1.81,1.46,1.34,1.3,2.1,2.61,2.43,3.28,1.2,2.4,1.24,4.58,1.27,6.34.01,1.29-.09,2.54-.3,3.77l10.18,1.75,2.27.32v.07Z" style="fill: #fdf6ec;"/>
  </g>
  <g>
    <path d="M194.8,261.42l14.06,7.69c.84-1.69,1.76-2.93,2.44-3.74,1.13-1.36,2.47-2.98,4.85-4.06.45-.21,1.85-.81,3.79-.99,2.47-.23,4.44.35,5.5.74l-32.73-17.59c.9.69,2.44,2.04,3.56,4.25.88,1.74,1.12,3.24,1.18,3.73.35,2.58-.31,4.58-.86,6.26-.33,1.01-.9,2.44-1.88,4.05l11.75,5.95" style="fill: #fdf6ec;"/>
    <path d="M209.08,269.8l-5.01-2.74-10.06-5.1.28-.46c.78-1.28,1.39-2.6,1.83-3.95.55-1.69,1.17-3.58.84-6.04-.07-.54-.31-1.94-1.13-3.57-.8-1.58-1.95-2.95-3.42-4.08l.54-.84,32.73,17.59-.41.91c-1.73-.64-3.51-.88-5.28-.71-1.81.17-3.14.72-3.62.95-2.27,1.03-3.54,2.56-4.67,3.91-.93,1.11-1.73,2.34-2.39,3.66l-.23.47ZM206.65,267.33l2,1.09c.64-1.22,1.41-2.35,2.27-3.38,1.14-1.38,2.55-3.07,5.03-4.19.53-.25,1.99-.85,3.95-1.03.72-.07,1.44-.07,2.15-.02l-26.57-14.28c.47.62.89,1.27,1.24,1.97.9,1.77,1.16,3.31,1.23,3.9.36,2.68-.32,4.77-.87,6.45-.38,1.17-.89,2.32-1.5,3.43l8.96,4.9,2.15,1.09-.03.07Z" style="fill: #fdf6ec;"/>
  </g>
  <g>
    <path d="M165.57,234.14l10.5,12.11c1.38-1.29,2.67-2.13,3.59-2.66,1.53-.88,3.35-1.93,5.96-2.12.5-.04,2.02-.11,3.9.4,2.39.65,4.04,1.87,4.9,2.62l-24.55-27.89c.61.96,1.58,2.77,1.86,5.23.22,1.94-.08,3.42-.19,3.91-.58,2.54-1.89,4.19-2.99,5.56-.66.83-1.69,1.98-3.17,3.14l8.94,9.67" style="fill: #fdf6ec;"/>
    <path d="M176.03,246.97l-3.78-4.35-7.61-8.23.43-.33c1.15-.9,2.19-1.93,3.09-3.06,1.04-1.3,2.33-2.91,2.89-5.36.18-.82.36-2.13.18-3.74-.2-1.76-.82-3.5-1.79-5.02l.8-.6,24.55,27.89-.7.71c-.94-.82-2.52-1.92-4.7-2.51-1.75-.47-3.19-.43-3.73-.38-2.49.18-4.22,1.17-5.74,2.05-1.27.73-2.44,1.6-3.51,2.6l-.38.35ZM174.63,243.82l1.48,1.71c1.02-.9,2.13-1.7,3.3-2.38,1.55-.89,3.46-1.99,6.17-2.19.59-.05,2.16-.1,4.07.42.74.2,1.41.45,2.02.74l-19.92-22.63c.23.75.39,1.51.48,2.28.2,1.75,0,3.18-.2,4.08-.61,2.68-1.98,4.39-3.09,5.76-.77.96-1.63,1.86-2.58,2.67l6.64,7.66,1.69,1.82-.06.05Z" style="fill: #fdf6ec;"/>
  </g>
  <g>
    <path d="M146.68,198.19l5.62,15c1.74-.73,3.24-1.07,4.29-1.24,1.74-.29,3.82-.64,6.32.09.48.14,1.93.6,3.52,1.73,2.02,1.44,3.14,3.16,3.68,4.16l-13.3-34.69c.24,1.11.51,3.14-.08,5.54-.47,1.89-1.27,3.18-1.54,3.6-1.43,2.18-3.23,3.27-4.74,4.17-.91.55-2.27,1.26-4.07,1.84l5.01,12.18" style="fill: #fdf6ec;"/>
    <path d="M169.67,218.17c-.59-1.09-1.68-2.67-3.53-3.99-1.4-1-2.71-1.47-3.37-1.66-2.38-.7-4.35-.37-6.08-.08-1.42.23-2.82.64-4.19,1.21l-.48.2-1.89-5.05-4.41-10.72.52-.17c1.42-.46,2.75-1.06,3.96-1.79,1.42-.85,3.19-1.9,4.58-4.02.66-1.02,1.17-2.21,1.47-3.45.54-2.19.34-4.1.08-5.31l.96-.28,13.3,34.69-.91.42ZM159.85,211.11c.99,0,2.05.12,3.2.45.72.21,2.15.72,3.67,1.8.62.44,1.16.91,1.64,1.39l-10.79-28.15c-.04.72-.15,1.49-.35,2.3-.33,1.34-.89,2.64-1.6,3.75-1.52,2.31-3.47,3.48-4.9,4.33-1.04.63-2.16,1.16-3.35,1.6l3.69,9.85.8,1.95-.06.03.8,2.13c1.29-.5,2.61-.86,3.92-1.08.98-.16,2.09-.35,3.34-.35Z" style="fill: #fdf6ec;"/>
  </g>
  <g>
    <path d="M142.22,157.78l.33,16.02c1.88-.11,3.41.07,4.46.25,1.74.3,3.81.66,5.94,2.18.41.29,1.62,1.2,2.74,2.8,1.43,2.03,1.91,4.02,2.09,5.14l-1.04-37.14c-.15,1.12-.56,3.13-1.91,5.2-1.07,1.63-2.25,2.58-2.65,2.88-2.07,1.59-4.13,2.01-5.86,2.37-1.04.21-2.57.44-4.45.39l.69,13.15" style="fill: #fdf6ec;"/>
    <path d="M157.29,184.25c-.2-1.23-.71-3.09-2-4.93-1-1.42-2.07-2.29-2.62-2.68-2.05-1.46-4.01-1.8-5.74-2.1-1.46-.25-2.88-.33-4.35-.24l-.52.03-.11-5.41-.61-11.56h.54c1.46.05,2.88-.07,4.34-.37,1.75-.36,3.69-.77,5.65-2.28.43-.32,1.54-1.23,2.54-2.76.97-1.49,1.59-3.17,1.83-4.99l1,.05,1.04,37.14-.99.09ZM143.71,173.27c1.13,0,2.25.1,3.39.29,1.75.3,3.92.67,6.15,2.27.6.43,1.78,1.37,2.86,2.92.44.62.79,1.24,1.08,1.85l-.84-30.14c-.3.71-.66,1.4-1.09,2.05-1.09,1.66-2.3,2.65-2.77,3.01-2.14,1.64-4.29,2.09-6.02,2.45-1.28.26-2.5.39-3.73.41l.22,10.51.11,2.11h-.07s.05,2.28.05,2.28c.22,0,.45-.01.67-.01Z" style="fill: #fdf6ec;"/>
  </g>
  <g>
    <path d="M151.76,117.85l-5.78,14.94c1.78.61,3.13,1.36,4.03,1.93,1.49.94,3.27,2.06,4.66,4.28.26.42,1.04,1.73,1.48,3.63.55,2.42.24,4.45-.02,5.55l13.15-34.75c-.56.98-1.71,2.69-3.75,4.09-1.61,1.1-3.06,1.53-3.54,1.66-2.52.68-4.58.29-6.32-.04-1.04-.2-2.54-.57-4.26-1.33l-4.36,12.43" style="fill: #fdf6ec;"/>
    <path d="M156.6,148.36l-.95-.29c.29-1.21.52-3.11.02-5.32-.29-1.24-.78-2.44-1.42-3.48-1.33-2.12-3.01-3.18-4.49-4.11-1.23-.78-2.55-1.41-3.93-1.89l-.49-.17,2.06-5.34,3.73-10.62.5.22c1.32.58,2.72,1.02,4.15,1.3,1.73.33,3.68.7,6.09.05.66-.18,1.97-.62,3.39-1.59,1.46-1,2.7-2.36,3.6-3.93l.9.42-13.15,34.75ZM146.63,132.49c1.28.48,2.51,1.08,3.65,1.81,1.5.95,3.37,2.12,4.82,4.44.7,1.13,1.23,2.44,1.54,3.78.17.74.26,1.46.3,2.12l10.67-28.2c-.55.55-1.15,1.06-1.79,1.49-1.54,1.05-2.98,1.54-3.69,1.73-2.63.71-4.8.3-6.54-.03-1.22-.24-2.42-.58-3.57-1.03l-3.68,9.5-.81,2.3-.07-.03-.82,2.11Z" style="fill: #fdf6ec;"/>
  </g>
  <g>
    <path d="M176.34,85.23l-10.84,11.8c1.43,1.22,2.42,2.41,3.05,3.26,1.05,1.42,2.3,3.11,2.78,5.68.09.49.34,1.99.05,3.92-.37,2.45-1.4,4.23-2.04,5.16l24.92-27.56c-.88.71-2.57,1.88-4.98,2.44-1.9.44-3.41.31-3.9.25-2.59-.28-4.37-1.4-5.87-2.34-.9-.56-2.16-1.46-3.48-2.8l-8.59,9.98" style="fill: #fdf6ec;"/>
    <path d="M169.71,115.39l-.78-.62c.71-1.03,1.62-2.72,1.96-4.95.19-1.26.17-2.56-.05-3.75-.46-2.46-1.64-4.06-2.69-5.47-.86-1.16-1.86-2.23-2.97-3.18l-.39-.34,3.67-4,7.55-8.77.38.39c1.05,1.06,2.19,1.98,3.39,2.73,1.5.94,3.19,2,5.66,2.27.54.07,1.95.17,3.73-.24,1.72-.4,3.38-1.21,4.78-2.34l.69.72-24.92,27.56ZM166.21,96.99c1.02.91,1.94,1.92,2.74,3,1.06,1.43,2.37,3.2,2.87,5.89.24,1.31.26,2.72.05,4.09-.11.75-.29,1.45-.5,2.09l20.23-22.37c-.72.31-1.46.56-2.21.74-1.93.45-3.49.33-4.07.26-2.69-.29-4.56-1.46-6.06-2.41-1.04-.65-2.03-1.4-2.95-2.26l-7.11,7.73-1.38,1.61-.05-.04-1.55,1.69Z" style="fill: #fdf6ec;"/>
  </g>
  <g>
    <ellipse cx="387.09" cy="44.92" rx="40.4" ry="39.06" style="fill: #fdf6ec;"/>
    <path d="M387.09,85.48c-23.1,0-41.9-18.2-41.9-40.56s18.8-40.56,41.9-40.56,41.9,18.2,41.9,40.56-18.8,40.56-41.9,40.56ZM387.09,7.36c-21.45,0-38.9,16.85-38.9,37.56s17.45,37.56,38.9,37.56,38.9-16.85,38.9-37.56-17.45-37.56-38.9-37.56Z" style="fill: #fdf6ec;"/>
  </g>
  <ellipse cx="386.9" cy="44.92" rx="12.55" ry="12.3" style="fill: #df5231;"/>
  <g>
    <path d="M397.83,1.64l-6.19-1.06c-.1.73-.28,1.3-.43,1.69-.25.64-.54,1.41-1.28,2.12-.14.13-.58.53-1.28.85-.89.4-1.69.44-2.14.42l14.38,2.35c-.42-.14-1.17-.45-1.86-1.12-.55-.53-.83-1.05-.91-1.23-.46-.91-.47-1.73-.48-2.42,0-.41.02-1.02.18-1.73l-5.12-.71" style="fill: #fdf6ec;"/>
    <path d="M400.81,8.5l-14.38-2.35.1-.99c.36.02,1.1-.01,1.91-.38.42-.19.81-.45,1.15-.76.64-.61.9-1.29,1.14-1.89.21-.53.34-1.07.42-1.62l.07-.51,2.75.47,4.46.62-.12.53c-.15.67-.17,1.24-.17,1.62,0,.65.02,1.39.43,2.19.1.22.37.67.81,1.1.46.45,1.04.79,1.67,1.01l-.24.97ZM389.1,5.58l9.45,1.55c-.58-.6-.84-1.15-.89-1.26-.5-.99-.51-1.89-.52-2.61,0-.31,0-.73.08-1.21l-4.58-.75v-.04s-.58-.1-.58-.1c-.09.45-.21.88-.37,1.29-.28.71-.6,1.53-1.4,2.3-.36.33-.75.6-1.18.83Z" style="fill: #fdf6ec;"/>
  </g>
  <g>
    <path d="M412.07,7.92l-5.46-3.1c-.34.65-.71,1.13-.98,1.44-.45.52-.99,1.15-1.93,1.55-.18.08-.73.3-1.49.36-.97.07-1.74-.17-2.15-.33l12.71,7.1c-.35-.27-.94-.81-1.37-1.69-.33-.68-.41-1.27-.44-1.46-.12-1.01.15-1.79.38-2.44.14-.39.37-.95.77-1.57l-4.57-2.41" style="fill: #fdf6ec;"/>
    <path d="M412.53,15.38l-12.71-7.1.43-.9c.62.24,1.29.34,1.93.3.69-.05,1.19-.26,1.32-.32.83-.36,1.32-.92,1.75-1.41.36-.41.67-.87.92-1.36l.24-.46,1.92,1.09,4.5,2.37-.3.46c-.29.45-.53.93-.72,1.47-.21.58-.46,1.3-.36,2.21.03.21.11.72.39,1.3.37.75.87,1.24,1.22,1.51l-.55.83ZM402.52,8.64l8.36,4.67c-.29-.65-.37-1.19-.41-1.41-.14-1.19.17-2.07.4-2.72.14-.39.3-.75.48-1.1l-4.04-2.27v-.02s-.51-.29-.51-.29c-.24.39-.5.75-.79,1.09-.48.56-1.07,1.24-2.11,1.68-.19.08-.69.28-1.38.37Z" style="fill: #fdf6ec;"/>
  </g>
  <g>
    <path d="M362,7.86l5.46-3.1c.34.65.71,1.13.98,1.44.45.52.99,1.15,1.93,1.55.18.08.73.3,1.49.36.97.07,1.74-.17,2.15-.33l-12.71,7.1c.35-.27.94-.81,1.37-1.69.33-.68.41-1.27.44-1.46.12-1.01-.15-1.79-.38-2.44-.14-.39-.37-.95-.77-1.57l4.57-2.41" style="fill: #fdf6ec;"/>
    <path d="M361.54,15.32l-.55-.83c.36-.28.86-.76,1.23-1.51.28-.58.36-1.09.39-1.29.11-.92-.14-1.61-.35-2.23-.19-.53-.42-1.01-.72-1.46l-.3-.46,4.5-2.37,1.92-1.09.24.46c.26.49.57.94.92,1.34.44.51.92,1.07,1.75,1.42.18.08.67.27,1.33.32.64.04,1.31-.06,1.93-.3l.43.9-12.71,7.1ZM362.72,8.03c.18.35.34.71.48,1.1.23.65.54,1.53.41,2.67-.04.26-.13.82-.41,1.46l8.36-4.67c-.69-.09-1.19-.29-1.38-.37-1.03-.44-1.62-1.12-2.09-1.67-.3-.34-.57-.71-.8-1.1l-.52.29v.02s-.53.28-.53.28l-3.5,1.99Z" style="fill: #fdf6ec;"/>
  </g>
  <g>
    <path d="M376.08,1.67l6.19-1.06c.1.73.28,1.3.43,1.69.25.64.54,1.41,1.28,2.12.14.13.58.53,1.28.85.89.4,1.69.44,2.14.42l-14.38,2.35c.42-.14,1.17-.45,1.86-1.12.55-.53.83-1.05.91-1.23.46-.91.47-1.73.48-2.42,0-.41-.02-1.02-.18-1.73l5.12-.71" style="fill: #fdf6ec;"/>
    <path d="M373.1,8.53l-.24-.97c.63-.21,1.21-.56,1.67-1,.55-.53.78-1.02.8-1.07.42-.83.43-1.57.44-2.22,0-.37-.02-.95-.17-1.62l-.12-.53,4.46-.62,2.75-.47.07.51c.08.55.21,1.08.4,1.58.25.64.52,1.32,1.16,1.94.41.38.85.62,1.14.76.81.36,1.55.39,1.91.38l.1.99-14.38,2.35ZM376.69,2.07c.07.49.08.9.08,1.2-.01.73-.02,1.63-.53,2.65-.04.09-.3.64-.88,1.24l9.46-1.55c-.43-.22-.83-.5-1.17-.82-.81-.78-1.13-1.6-1.39-2.26-.17-.45-.3-.89-.39-1.34l-.59.1v.04s-1.17.16-1.17.16l-3.41.58Z" style="fill: #fdf6ec;"/>
  </g>
  <g>
    <path d="M423.54,18.16l-4.1-4.75c-.54.5-1.05.83-1.41,1.03-.6.34-1.32.75-2.34.82-.2.01-.79.04-1.53-.16-.94-.26-1.58-.74-1.92-1.03l9.58,10.94c-.24-.37-.61-1.08-.72-2.04-.08-.76.04-1.34.08-1.53.23-.99.75-1.63,1.18-2.17.26-.32.67-.77,1.25-1.22l-3.49-3.79" style="fill: #fdf6ec;"/>
    <path d="M421.44,25.34l-9.58-10.94.7-.71c.52.44,1.1.75,1.73.93.66.18,1.17.15,1.37.14.9-.06,1.55-.43,2.12-.75.32-.18.8-.49,1.32-.96l.38-.35,1.87,2.17,2.99,3.25-.43.33c-.43.34-.83.72-1.17,1.14-.42.53-.88,1.11-1.08,1.97-.03.16-.14.68-.07,1.37.1.88.45,1.52.64,1.82l-.79.6ZM414.28,15.64l6.3,7.2c-.04-.5,0-1.01.1-1.51.25-1.09.81-1.79,1.25-2.35.27-.34.56-.64.86-.92l-3.05-3.48.03-.03-.39-.46c-.44.36-.84.61-1.12.76-.63.36-1.42.8-2.55.88-.2,0-.75.04-1.44-.11Z" style="fill: #fdf6ec;"/>
  </g>
  <g>
    <path d="M430.83,32.57l-2.23-5.85c-.68.29-1.27.42-1.68.49-.68.12-1.5.26-2.48-.03-.19-.05-.76-.23-1.38-.67-.79-.56-1.24-1.23-1.45-1.62l5.27,13.53c-.09-.43-.21-1.23.02-2.17.18-.74.49-1.24.6-1.41.56-.86,1.26-1.28,1.85-1.64.36-.21.89-.5,1.59-.73l-1.99-4.75" style="fill: #fdf6ec;"/>
    <path d="M426.41,38.6l-5.27-13.53.91-.42c.17.32.57.93,1.3,1.45.57.4,1.08.56,1.22.59.89.26,1.62.14,2.26.02.56-.1,1.07-.24,1.57-.46l.48-.2.88,2.31,1.85,4.41-.51.17c-.64.21-1.14.48-1.49.69-.57.35-1.19.73-1.68,1.48-.3.47-.46.94-.53,1.26-.15.62-.16,1.28-.02,1.95l-.96.28ZM422.99,27.07l3.46,8.89c.14-.5.35-.97.62-1.39.62-.95,1.38-1.41,1.99-1.78.3-.18.66-.37,1.1-.56l-1.67-4.31h.03s-.2-.55-.2-.55c-.42.15-.85.26-1.31.33-.67.12-1.6.28-2.71-.04-.15-.04-.69-.2-1.3-.59Z" style="fill: #fdf6ec;"/>
  </g>
  <g>
    <path d="M432.72,47.95l.05-6.26c-.74.02-1.34-.07-1.75-.15-.68-.14-1.49-.3-2.3-.92-.16-.12-.62-.49-1.04-1.12-.54-.81-.7-1.59-.76-2.03v14.51c.06-.44.24-1.22.79-2.01.44-.62.91-.98,1.07-1.1.83-.6,1.64-.74,2.32-.86.41-.07,1.01-.14,1.75-.1l-.12-5.14" style="fill: #fdf6ec;"/>
    <path d="M427.41,52.05l-1-.07v-14.51l1-.07c.09.67.32,1.28.68,1.82.37.55.77.88.92,1,.71.54,1.43.69,2.07.82.59.12,1.12.16,1.67.15h.52s-.02,2.58-.02,2.58l.11,4.67-.54-.03c-.54-.03-1.1,0-1.64.09-.65.11-1.38.24-2.11.77-.36.27-.69.6-.96.98-.47.67-.64,1.35-.7,1.79ZM427.42,40v9.52c.31-.4.66-.75,1.06-1.05.93-.67,1.81-.83,2.52-.95.41-.07.81-.11,1.22-.12l.03-3.62-.02-1h.03s0-.59,0-.59c-.44-.02-.89-.07-1.34-.16-.74-.15-1.62-.33-2.51-1.01-.21-.16-.61-.49-1-1.02Z" style="fill: #fdf6ec;"/>
  </g>
  <g>
    <path d="M428.46,63.26l2.27-5.84c-.7-.24-1.23-.53-1.58-.75-.59-.37-1.28-.81-1.83-1.67-.1-.17-.41-.68-.58-1.42-.22-.94-.09-1.74,0-2.17l-5.17,13.57c.22-.38.67-1.05,1.47-1.6.63-.43,1.2-.6,1.39-.65.99-.27,1.8-.11,2.48.02.41.08,1,.22,1.67.52l1.71-4.85" style="fill: #fdf6ec;"/>
    <path d="M422,65.23l-.9-.43,5.17-13.57.96.28c-.05.26-.22,1.04,0,1.95.15.64.41,1.09.51,1.26.5.78,1.12,1.17,1.68,1.52.45.28.95.52,1.48.7l.49.17-1.13,2.91-1.38,3.93-.5-.22c-.64-.29-1.2-.42-1.56-.49-.66-.13-1.39-.26-2.25-.03-.19.05-.69.21-1.24.58-.54.37-.98.85-1.32,1.44ZM426.31,53.93l-3.4,8.93c.59-.37,1.12-.55,1.39-.62,1.09-.3,1.97-.13,2.68,0,.31.06.73.15,1.21.32l1.63-4.32.04.02.22-.56c-.42-.17-.82-.38-1.2-.62-.58-.36-1.37-.86-1.98-1.82-.13-.22-.4-.68-.58-1.34Z" style="fill: #fdf6ec;"/>
  </g>
  <g>
    <path d="M419.66,76.3l4.21-4.64c-.57-.47-.96-.93-1.21-1.27-.42-.55-.91-1.21-1.11-2.21-.04-.19-.14-.78-.03-1.53.14-.96.54-1.66.79-2.02l-9.69,10.84c.34-.28,1-.74,1.95-.97.74-.18,1.34-.13,1.53-.11,1.02.1,1.72.53,2.31.9.35.22.85.56,1.37,1.08l3.34-3.92" style="fill: #fdf6ec;"/>
    <path d="M419.81,77.11l-.38-.38c-.49-.49-.97-.81-1.28-1.01-.55-.34-1.17-.74-2.09-.83-.25-.03-.76-.05-1.36.1-.81.2-1.4.58-1.75.87l-.69-.72,9.69-10.84.78.62c-.21.3-.58.94-.71,1.81-.1.68,0,1.21.02,1.36.18.92.65,1.52,1.02,2.01.32.43.7.83,1.13,1.19l.4.33-1.61,1.77-3.17,3.73ZM415.67,73.87c.2,0,.36.01.48.02,1.15.11,1.94.61,2.52.97.25.16.59.38.97.7l3.09-3.44.02.02.4-.44c-.34-.32-.64-.66-.9-1.01-.41-.53-.97-1.27-1.2-2.41-.04-.21-.13-.74-.07-1.42l-6.36,7.12c.4-.08.76-.11,1.04-.11Z" style="fill: #fdf6ec;"/>
  </g>
  <g>
    <path d="M406.94,84.9l5.54-2.96c-.37-.64-.59-1.2-.71-1.6-.2-.66-.45-1.44-.3-2.45.03-.19.13-.78.49-1.45.45-.86,1.06-1.38,1.42-1.64l-12.79,6.96c.42-.15,1.19-.36,2.16-.26.76.08,1.3.33,1.48.41.92.44,1.44,1.08,1.87,1.62.26.32.61.81.93,1.48l4.47-2.58" style="fill: #fdf6ec;"/>
    <path d="M406.81,85.71l-.23-.49c-.24-.5-.53-.97-.87-1.38-.39-.49-.87-1.09-1.7-1.48-.18-.08-.66-.29-1.32-.36-.82-.08-1.51.08-1.94.23l-.41-.91,12.79-6.96.53.84c-.37.27-.89.74-1.27,1.47-.22.41-.37.86-.44,1.29-.13.87.08,1.56.27,2.17.12.38.31.91.68,1.55l.26.45-2.21,1.18-4.15,2.39ZM402.99,81.03c.72.1,1.23.33,1.43.42,1.07.51,1.65,1.24,2.08,1.77.25.31.48.64.68.99l4.08-2.21v.03s.55-.29.55-.29c-.26-.52-.42-.96-.51-1.25-.22-.73-.48-1.57-.32-2.67.07-.46.21-.93.42-1.37l-8.41,4.58Z" style="fill: #fdf6ec;"/>
  </g>
  <g>
    <path d="M391.75,89.45l6.2-1.01c-.15-.72-.16-1.32-.15-1.74.02-.69.05-1.51.52-2.42.09-.17.38-.69.93-1.22.71-.66,1.46-.96,1.88-1.09l-14.36,2.46c.44,0,1.25.04,2.13.45.69.32,1.13.73,1.27.86.73.71,1.01,1.49,1.24,2.13.14.39.31.97.4,1.7l5.07-.99" style="fill: #fdf6ec;"/>
    <path d="M391.38,90.16l-.07-.53c-.07-.56-.19-1.09-.38-1.59-.22-.61-.47-1.31-1.12-1.94-.12-.11-.51-.48-1.13-.77-.58-.27-1.21-.4-1.92-.4l-.08-.99,14.36-2.46.23.97c-.43.13-1.08.41-1.69.98-.45.43-.71.87-.83,1.09-.42.82-.44,1.55-.46,2.2,0,.36,0,.93.14,1.62l.11.51-2.64.43-4.53.89ZM389.28,84.51c.67.34,1.09.73,1.23.87.82.8,1.14,1.68,1.37,2.33.13.37.24.77.32,1.17l4.58-.78v.03s.59-.09.59-.09c-.08-.56-.08-1.02-.07-1.34.02-.68.05-1.61.58-2.64.13-.24.4-.69.84-1.16l-9.44,1.62Z" style="fill: #fdf6ec;"/>
  </g>
  <g>
    <path d="M376.35,88.42l6.19,1.06c.1-.73.28-1.3.43-1.69.25-.64.54-1.41,1.28-2.12.14-.13.58-.53,1.28-.85.89-.4,1.69-.44,2.14-.42l-14.38-2.35c.42.14,1.17.45,1.86,1.12.55.53.83,1.05.91,1.23.46.91.47,1.73.48,2.42,0,.41-.02,1.02-.18,1.73l5.12.71" style="fill: #fdf6ec;"/>
    <path d="M382.96,90.06l-2.73-.47-4.48-.62.12-.53c.15-.67.17-1.24.17-1.62,0-.65-.02-1.39-.43-2.19-.1-.22-.37-.67-.81-1.1-.58-.57-1.23-.86-1.67-1l.24-.97,14.38,2.35-.1.99c-.36-.01-1.1.01-1.91.38-.42.19-.81.45-1.15.76-.64.61-.9,1.29-1.14,1.89-.21.53-.34,1.07-.42,1.62l-.07.51ZM381.54,88.8l.59.1c.09-.45.21-.88.37-1.29.28-.71.6-1.53,1.4-2.3.36-.33.75-.6,1.18-.83l-9.45-1.54c.58.6.84,1.15.89,1.26.5.99.51,1.89.52,2.61,0,.31,0,.73-.08,1.21l4.58.75v.04Z" style="fill: #fdf6ec;"/>
  </g>
  <g>
    <path d="M361.77,82.16l5.51,3c.33-.66.69-1.14.96-1.46.44-.53.97-1.16,1.9-1.59.18-.08.73-.32,1.49-.39.97-.09,1.74.14,2.16.29l-12.84-6.87c.35.27.96.8,1.4,1.66.35.68.44,1.26.46,1.46.14,1.01-.12,1.79-.34,2.44-.13.39-.35.95-.74,1.58l4.61,2.32" style="fill: #fdf6ec;"/>
    <path d="M367.5,85.85l-2.56-1.39-3.92-1.97.29-.46c.29-.46.52-.96.69-1.48.21-.62.44-1.31.32-2.21-.02-.16-.09-.68-.41-1.3-.29-.57-.72-1.07-1.26-1.49l.54-.84,12.84,6.87-.41.91c-.66-.24-1.3-.32-1.95-.26-.46.04-.9.16-1.33.35-.83.38-1.3.95-1.72,1.45-.36.42-.65.87-.9,1.36l-.23.46ZM366.55,84.19l.53.29c.23-.39.48-.75.78-1.1.43-.52,1.03-1.24,2.07-1.72.45-.2.91-.33,1.39-.4l-8.44-4.52c.32.68.41,1.25.43,1.47.16,1.12-.14,2-.36,2.65-.13.38-.28.75-.47,1.11l4.09,2.18-.02.04Z" style="fill: #fdf6ec;"/>
  </g>
  <g>
    <path d="M350.31,71.5l4.12,4.73c.54-.5,1.05-.83,1.41-1.04.6-.34,1.32-.75,2.34-.83.19-.01.79-.04,1.53.15.94.25,1.58.73,1.92,1.02l-9.63-10.89c.24.37.62,1.08.73,2.04.09.76-.03,1.34-.08,1.53-.23.99-.74,1.64-1.17,2.17-.26.32-.66.77-1.24,1.23l3.51,3.78" style="fill: #fdf6ec;"/>
    <path d="M354.39,76.95l-1.85-2.12-3.04-3.27.42-.34c.43-.34.81-.72,1.16-1.15.38-.47.86-1.06,1.07-1.97.03-.11.15-.64.07-1.36-.09-.82-.41-1.45-.65-1.83l.79-.6,9.63,10.89-.7.71c-.52-.44-1.1-.75-1.72-.92-.44-.11-.9-.16-1.38-.13-.89.07-1.54.44-2.11.76-.49.29-.93.61-1.33.98l-.38.35ZM354.09,75.08l.39.45c.34-.28.71-.53,1.11-.77.64-.37,1.43-.81,2.55-.9.5-.03.98.01,1.44.11l-6.33-7.16c.06.78-.07,1.36-.11,1.53-.26,1.12-.86,1.86-1.27,2.36-.26.32-.53.61-.83.88l3.07,3.47-.03.03Z" style="fill: #fdf6ec;"/>
  </g>
  <g>
    <path d="M342.9,57.46l2.21,5.86c.68-.28,1.27-.42,1.68-.49.68-.11,1.5-.25,2.48.04.19.05.76.23,1.38.68.79.56,1.23,1.24,1.44,1.62l-5.22-13.55c.09.43.2,1.23-.03,2.17-.18.74-.5,1.24-.6,1.4-.56.85-1.27,1.28-1.86,1.63-.36.21-.89.49-1.6.72l1.97,4.76" style="fill: #fdf6ec;"/>
    <path d="M351.65,65.41c-.32-.58-.77-1.08-1.29-1.45-.59-.43-1.12-.58-1.22-.6-.87-.26-1.6-.14-2.24-.04-.39.07-.95.19-1.6.46l-.48.2-.82-2.17-1.9-4.58.51-.17c.69-.22,1.19-.49,1.5-.68.53-.31,1.19-.71,1.69-1.47.09-.15.37-.6.53-1.24.15-.63.16-1.3.03-1.95l.96-.28,5.22,13.55-.9.42ZM348.07,62.2c.41,0,.86.05,1.34.19.15.04.69.2,1.3.6l-3.43-8.91c-.2.71-.51,1.2-.61,1.37-.65.98-1.45,1.46-2.03,1.81-.36.21-.71.39-1.08.54l1.65,4.32h-.02s.21.57.21.57c.53-.18.99-.29,1.3-.34.41-.07.86-.14,1.36-.14Z" style="fill: #fdf6ec;"/>
  </g>
  <g>
    <path d="M341.15,41.67l.13,6.26c.74-.04,1.34.03,1.75.1.68.12,1.5.26,2.33.85.16.11.64.47,1.08,1.09.56.79.75,1.57.82,2.01l-.41-14.51c-.06.44-.22,1.22-.75,2.03-.42.64-.88,1.01-1.04,1.13-.81.62-1.62.79-2.3.92-.41.08-1.01.17-1.75.15l.27,5.14" style="fill: #fdf6ec;"/>
    <path d="M346.77,52.06c-.07-.45-.26-1.13-.73-1.8-.4-.56-.83-.88-.96-.97-.74-.52-1.47-.65-2.11-.77-.55-.09-1.1-.13-1.65-.1l-.52.03-.05-2.31-.26-4.96h.54c.54.03,1.08-.02,1.64-.13.74-.14,1.41-.3,2.09-.83.16-.12.56-.45.93-1.01.35-.54.58-1.16.67-1.82l1,.05.41,14.51-.99.09ZM341.77,47.42c.45,0,.9.04,1.35.12.73.13,1.62.28,2.54.93.17.12.61.45,1.04,1l-.27-9.55c-.41.58-.83.94-1.06,1.11-.93.71-1.88.89-2.51,1.01-.41.08-.8.13-1.19.15l.12,4.62h-.02s.01.61.01.61Z" style="fill: #fdf6ec;"/>
  </g>
  <g>
    <path d="M344.89,26.08l-2.27,5.84c.7.24,1.23.53,1.58.75.59.37,1.28.8,1.83,1.67.1.17.41.68.58,1.42.22.94.09,1.74,0,2.17l5.16-13.57c-.22.38-.67,1.05-1.47,1.6-.63.43-1.2.6-1.39.65-.99.27-1.8.11-2.48,0-.41-.08-1-.22-1.67-.52l-1.71,4.85" style="fill: #fdf6ec;"/>
    <path d="M347.08,38.11l-.96-.28c.05-.26.22-1.04,0-1.95-.15-.64-.41-1.09-.51-1.26-.49-.78-1.09-1.15-1.67-1.51-.46-.29-.96-.52-1.48-.71l-.49-.17,1.06-2.73,1.44-4.1.5.22c.64.29,1.2.42,1.56.49.69.12,1.41.25,2.25.02.19-.05.69-.21,1.24-.58.54-.37.98-.85,1.32-1.44l.9.43-5.16,13.57ZM343.27,31.63c.42.17.82.38,1.2.62.62.39,1.38.86,1.99,1.83.13.21.4.67.58,1.33l3.4-8.93c-.59.38-1.12.55-1.4.62-1.06.29-1.93.14-2.62.01-.35-.07-.77-.16-1.26-.33l-1.63,4.32h-.04s-.21.53-.21.53Z" style="fill: #fdf6ec;"/>
  </g>
  <g>
    <path d="M354.53,13.33l-4.25,4.61c.56.48.95.94,1.2,1.27.41.55.9,1.22,1.09,2.22.04.19.13.78.02,1.53-.14.96-.55,1.65-.8,2.02l9.78-10.76c-.35.28-1.01.73-1.95.95-.74.17-1.34.12-1.53.1-1.02-.11-1.72-.55-2.3-.91-.35-.22-.85-.57-1.37-1.09l-3.37,3.9" style="fill: #fdf6ec;"/>
    <path d="M352.16,25.32l-.78-.62c.39-.58.63-1.17.72-1.81.11-.74,0-1.29-.01-1.35-.17-.91-.63-1.53-1-2.02-.32-.43-.7-.83-1.12-1.19l-.39-.34,2.02-2.19,2.82-3.26.38.38c.38.38.81.73,1.28,1.02.56.35,1.19.74,2.09.84.25.03.75.05,1.36-.09.8-.19,1.39-.57,1.75-.85l.68.73-9.78,10.76ZM350.99,17.91c.33.31.62.65.89,1,.41.55.97,1.3,1.18,2.43.03.15.13.7.05,1.44l6.44-7.08c-.67.13-1.23.1-1.52.07-1.13-.12-1.89-.59-2.5-.97-.36-.23-.69-.47-1-.73l-3.11,3.44-.03-.03-.41.44Z" style="fill: #fdf6ec;"/>
  </g>
  <g>
    <ellipse cx="457.97" cy="148.82" rx="59.05" ry="57.51" style="fill: #fdf6ec;"/>
    <path d="M457.97,207.83c-33.39,0-60.55-26.47-60.55-59.01s27.16-59.01,60.55-59.01,60.55,26.47,60.55,59.01-27.16,59.01-60.55,59.01ZM457.97,92.81c-31.73,0-57.55,25.13-57.55,56.01s25.82,56.01,57.55,56.01,57.55-25.13,57.55-56.01-25.82-56.01-57.55-56.01Z" style="fill: #fdf6ec;"/>
  </g>
  <ellipse cx="457.69" cy="148.82" rx="18.35" ry="18.12" style="fill: #df5231;"/>
  <g>
    <path d="M473.66,85.1l-9.05-1.56c-.14,1.07-.41,1.92-.62,2.49-.36.95-.79,2.08-1.87,3.11-.21.2-.85.78-1.87,1.25-1.3.59-2.47.64-3.12.62l21.02,3.45c-.62-.2-1.7-.66-2.72-1.65-.8-.78-1.21-1.55-1.34-1.81-.67-1.34-.68-2.55-.7-3.56,0-.61.03-1.5.26-2.55l-7.48-1.04" style="fill: #fdf6ec;"/>
    <path d="M478.07,94.95l-21.02-3.45.1-.99c1,.03,1.99-.16,2.9-.58.87-.4,1.46-.9,1.73-1.16,1-.95,1.4-2,1.75-2.92.29-.8.49-1.57.59-2.38l.07-.52,3.3.57,6.77.94-.12.53c-.22,1.01-.25,1.88-.25,2.44.02,1.02.04,2.12.65,3.34.17.34.56,1.01,1.24,1.68.96.94,2,1.36,2.52,1.53l-.23.97ZM460.11,90.99l15.35,2.52c-.13-.11-.25-.22-.38-.34-.79-.77-1.24-1.55-1.44-1.95-.71-1.41-.73-2.69-.75-3.71,0-.53.02-1.21.14-2.01l-6.93-1.15v-.04s-1.07-.19-1.07-.19c-.12.7-.31,1.38-.57,2.08-.37.98-.83,2.19-1.99,3.3-.55.52-1.26,1-2.01,1.34-.12.05-.23.1-.35.15Z" style="fill: #fdf6ec;"/>
  </g>
  <g>
    <path d="M494.47,94.34l-7.98-4.57c-.5.96-1.04,1.67-1.44,2.13-.66.77-1.45,1.69-2.82,2.28-.26.11-1.07.44-2.18.53-1.42.11-2.54-.25-3.15-.48l18.58,10.45c-.51-.4-1.38-1.2-2-2.48-.49-1.01-.61-1.87-.64-2.16-.17-1.49.23-2.63.56-3.59.2-.58.54-1.4,1.12-2.31l-6.67-3.54" style="fill: #fdf6ec;"/>
    <path d="M495.24,105.12l-18.58-10.45.42-.9c.37.14,1.49.56,2.93.45.49-.04,1.23-.16,2.02-.49,1.26-.54,1.99-1.4,2.63-2.15.52-.59.99-1.3,1.38-2.04l.24-.46,3.03,1.73,5.92,3.14-.29.46c-.45.7-.81,1.44-1.07,2.2-.33.96-.69,2.01-.54,3.37.03.3.15,1.09.59,2,.55,1.13,1.31,1.88,1.86,2.3l-.55.83ZM479.69,95.23l13.57,7.63c-.08-.14-.16-.29-.23-.44-.49-1.02-.64-1.89-.69-2.33-.18-1.58.24-2.79.57-3.77.22-.64.49-1.25.81-1.83l-6.11-3.45.02-.04-.95-.55c-.37.64-.79,1.24-1.25,1.77-.68.79-1.52,1.77-3,2.41-.92.39-1.78.52-2.34.57-.13.01-.26.02-.4.02Z" style="fill: #fdf6ec;"/>
  </g>
  <g>
    <path d="M421.3,94.26l7.98-4.57c.5.96,1.04,1.67,1.44,2.13.66.77,1.45,1.69,2.82,2.28.26.11,1.07.44,2.18.53,1.42.11,2.54-.25,3.15-.48l-18.58,10.45c.51-.4,1.38-1.2,2-2.48.49-1.01.61-1.87.64-2.16.17-1.49-.23-2.63-.56-3.59-.2-.58-.54-1.4-1.12-2.31l6.67-3.54" style="fill: #fdf6ec;"/>
    <path d="M420.53,105.04l-.55-.83c.55-.43,1.31-1.17,1.86-2.3.44-.91.56-1.7.59-1.99.16-1.36-.21-2.41-.52-3.34-.28-.8-.63-1.54-1.08-2.24l-.29-.46,5.92-3.14,3.03-1.73.24.46c.49.93,1.02,1.62,1.37,2.03.65.75,1.37,1.6,2.64,2.15.79.33,1.54.45,2.02.49,1.44.11,2.56-.31,2.93-.45l.42.9-18.58,10.45ZM422.04,94.41c.32.58.59,1.18.8,1.79.35,1.01.77,2.23.58,3.81-.04.43-.19,1.3-.69,2.32-.07.15-.15.3-.23.44l13.57-7.63c-.13,0-.26,0-.39-.02-.56-.05-1.42-.18-2.34-.57-1.48-.64-2.33-1.62-3-2.42-.46-.53-.88-1.13-1.25-1.77l-.95.55.02.04-1.22.65-4.9,2.81Z" style="fill: #fdf6ec;"/>
  </g>
  <g>
    <path d="M441.88,85.14l9.05-1.56c.14,1.07.41,1.92.62,2.49.36.95.79,2.08,1.87,3.11.21.2.85.78,1.87,1.25,1.3.59,2.47.64,3.12.62l-21.02,3.45c.62-.2,1.7-.66,2.72-1.65.8-.78,1.21-1.55,1.34-1.81.67-1.34.68-2.55.7-3.56,0-.61-.03-1.5-.26-2.55l7.48-1.04" style="fill: #fdf6ec;"/>
    <path d="M437.47,94.99l-.23-.97c.53-.17,1.56-.6,2.52-1.53.69-.67,1.07-1.34,1.24-1.67.6-1.21.63-2.31.65-3.28,0-.62-.02-1.48-.25-2.5l-.12-.53,6.77-.94,3.3-.57.07.52c.1.8.3,1.58.59,2.38.35.92.74,1.96,1.75,2.92.27.26.86.75,1.73,1.16.91.41,1.88.61,2.9.57l.1.99-21.02,3.45ZM442.51,85.54c.12.8.14,1.47.14,1.94-.02,1.1-.05,2.37-.75,3.78-.2.39-.65,1.17-1.44,1.94-.12.12-.25.24-.38.34l15.35-2.52c-.12-.05-.23-.1-.35-.15-1.01-.46-1.69-1.04-2.01-1.34-1.17-1.11-1.62-2.32-1.99-3.3-.26-.7-.45-1.39-.57-2.09l-1.08.19v.04s-1.22.17-1.22.17l-5.7.98Z" style="fill: #fdf6ec;"/>
  </g>
  <g>
    <path d="M511.23,109.43l-5.99-6.99c-.79.74-1.54,1.22-2.06,1.52-.88.5-1.93,1.1-3.42,1.2-.29.02-1.16.06-2.23-.24-1.37-.38-2.31-1.09-2.8-1.52l14,16.1c-.35-.55-.9-1.59-1.05-3.01-.12-1.11.06-1.97.12-2.25.34-1.46,1.09-2.4,1.73-3.19.38-.47.98-1.13,1.83-1.8l-5.1-5.58" style="fill: #fdf6ec;"/>
    <path d="M508.35,119.83l-14-16.1.71-.7c.75.66,1.65,1.15,2.6,1.41.91.26,1.68.25,2.06.22,1.37-.09,2.34-.64,3.2-1.13.74-.43,1.38-.9,1.98-1.46l.38-.36,1.89,2.21,4.92,5.38-.42.33c-.66.52-1.25,1.1-1.75,1.72-.58.72-1.31,1.62-1.63,2.99-.15.68-.19,1.39-.11,2.08.13,1.25.6,2.21.97,2.79l-.8.6ZM497.04,105.29l10.21,11.75c-.03-.16-.05-.33-.07-.5-.09-.8-.04-1.61.13-2.41.37-1.6,1.21-2.64,1.83-3.4.4-.5.85-.97,1.34-1.41l-4.59-5.32.02-.02-.72-.84c-.54.46-1.12.87-1.76,1.24-.92.52-2.04,1.16-3.64,1.27-.54.04-1.4.02-2.4-.26-.12-.03-.24-.07-.36-.11Z" style="fill: #fdf6ec;"/>
  </g>
  <g>
    <path d="M521.89,130.64l-3.26-8.61c-.99.42-1.86.62-2.46.73-1,.17-2.19.38-3.63-.04-.27-.08-1.11-.34-2.02-.99-1.16-.82-1.81-1.81-2.12-2.38l7.71,19.92c-.14-.64-.3-1.8.03-3.19.26-1.09.72-1.83.87-2.07.81-1.26,1.84-1.89,2.71-2.41.52-.32,1.3-.73,2.33-1.07l-2.9-6.99" style="fill: #fdf6ec;"/>
    <path d="M515.64,139.45l-7.71-19.92.91-.42c.33.61.94,1.48,1.97,2.21.4.28,1.04.67,1.87.92,1.31.38,2.4.2,3.37.03.87-.16,1.64-.39,2.38-.7l.48-.2,1.29,3.41,2.52,6.06-.51.17c-.81.27-1.56.61-2.22,1.02-.8.48-1.79,1.07-2.55,2.25-.37.59-.64,1.24-.8,1.92-.23.97-.24,2-.03,2.97l-.95.29ZM509.93,121.91l5.63,14.54c.03-.16.06-.33.1-.49.19-.78.5-1.53.93-2.22.89-1.39,2.04-2.07,2.88-2.57.54-.33,1.13-.63,1.76-.87l-2.54-6.57.04-.02-.39-1.03c-.66.25-1.35.43-2.08.57-1.06.18-2.33.4-3.86-.05-.96-.29-1.71-.74-2.17-1.06-.1-.07-.2-.15-.3-.22Z" style="fill: #fdf6ec;"/>
  </g>
  <g>
    <path d="M524.66,153.29l.08-9.21c-1.08.03-1.96-.1-2.55-.22-.99-.2-2.17-.44-3.36-1.35-.23-.17-.91-.72-1.53-1.65-.78-1.19-1.03-2.34-1.11-2.99l-.02,21.37c.1-.64.37-1.79,1.18-2.96.64-.92,1.33-1.45,1.56-1.61,1.21-.88,2.4-1.09,3.4-1.26.6-.11,1.48-.21,2.56-.15l-.18-7.57" style="fill: #fdf6ec;"/>
    <path d="M516.66,159.32l-.99-.08.02-21.37,1-.06c.07.55.29,1.65,1.03,2.78.58.88,1.23,1.39,1.41,1.52,1.11.85,2.2,1.07,3.16,1.26.8.16,1.61.23,2.44.21h.52s-.03,3.21-.03,3.21l.17,7-.54-.03c-1.06-.06-1.91.05-2.44.14-.93.16-2.07.35-3.2,1.17-.19.13-.84.62-1.44,1.49-.71,1.03-.99,2.06-1.1,2.75ZM516.69,140.82v15.59c.07-.14.16-.28.25-.41.7-1.01,1.47-1.58,1.68-1.74,1.31-.95,2.64-1.18,3.6-1.34.45-.08,1.12-.17,1.94-.17l.05-5.94-.03-1.1h.04s0-1.12,0-1.12c-.72-.01-1.44-.09-2.15-.23-1.02-.21-2.28-.46-3.56-1.44-.27-.2-.98-.78-1.64-1.77-.07-.11-.13-.21-.2-.32Z" style="fill: #fdf6ec;"/>
  </g>
  <g>
    <path d="M518.43,175.83l3.32-8.59c-1.02-.35-1.8-.78-2.31-1.11-.86-.54-1.88-1.19-2.67-2.46-.15-.24-.6-.99-.84-2.09-.31-1.39-.13-2.56.01-3.19l-7.55,19.98c.32-.57.98-1.54,2.15-2.35.92-.63,1.76-.88,2.03-.95,1.44-.39,2.63-.17,3.62.02.6.11,1.46.33,2.44.77l2.5-7.14" style="fill: #fdf6ec;"/>
    <path d="M508.83,178.61l-.9-.42,7.55-19.98.96.29c-.22,1.01-.23,2.01,0,2.97.15.69.43,1.38.78,1.93.74,1.19,1.72,1.81,2.51,2.3.46.3,1.21.72,2.21,1.06l.49.17-1.26,3.26-2.22,6.34-.5-.22c-.96-.43-1.79-.64-2.33-.73-.92-.18-2.05-.39-3.4-.03-.23.06-1.02.29-1.88.88-1.04.72-1.66,1.59-2,2.18ZM515.37,161.32l-5.51,14.59c.13-.1.26-.2.4-.29.97-.66,1.85-.94,2.19-1.02,1.56-.42,2.88-.17,3.84.01.46.08,1.12.24,1.88.53l2.49-6.57h.04s.4-1.02.4-1.02c-.86-.34-1.51-.71-1.93-.98-.83-.52-1.96-1.23-2.82-2.62-.29-.46-.68-1.23-.9-2.25-.03-.12-.05-.25-.07-.37Z" style="fill: #fdf6ec;"/>
  </g>
  <g>
    <path d="M505.57,195.02l6.16-6.84c-.83-.7-1.4-1.38-1.76-1.86-.61-.81-1.33-1.78-1.62-3.25-.05-.28-.2-1.14-.05-2.25.2-1.41.78-2.44,1.15-2.98l-14.17,15.96c.5-.41,1.46-1.09,2.84-1.42,1.09-.26,1.95-.19,2.24-.16,1.49.15,2.51.79,3.37,1.32.52.32,1.24.83,2.01,1.59l4.88-5.78" style="fill: #fdf6ec;"/>
    <path d="M505.77,195.87l-.38-.38c-.6-.59-1.25-1.1-1.92-1.52-.86-.53-1.8-1.11-3.16-1.25-.67-.07-1.38-.02-2.07.15-.96.23-1.85.67-2.64,1.32l-.69-.72,14.17-15.96.79.61c-.39.57-.89,1.51-1.07,2.77-.14,1.04,0,1.83.05,2.09.27,1.37.97,2.29,1.53,3.04.49.65,1.05,1.25,1.68,1.78l.4.33-2.3,2.56-4.37,5.18ZM499.73,191.69c.23,0,.46.01.68.03,1.58.16,2.67.83,3.55,1.37.57.35,1.1.75,1.61,1.19l4.67-5.25.03.03.75-.83c-.53-.49-1.02-1.03-1.45-1.6-.59-.78-1.39-1.85-1.71-3.45-.06-.31-.22-1.22-.05-2.41.02-.13.04-.25.06-.38l-10.34,11.65c.16-.05.32-.09.48-.13.57-.14,1.16-.21,1.73-.21Z" style="fill: #fdf6ec;"/>
  </g>
  <g>
    <path d="M486.97,207.69l8.09-4.36c-.55-.94-.86-1.77-1.04-2.35-.3-.97-.66-2.13-.43-3.61.04-.28.19-1.14.71-2.14.66-1.26,1.56-2.03,2.08-2.42l-18.69,10.25c.61-.22,1.74-.53,3.16-.38,1.11.12,1.9.48,2.16.6,1.35.64,2.1,1.59,2.74,2.38.38.48.89,1.2,1.36,2.18l6.53-3.79" style="fill: #fdf6ec;"/>
    <path d="M486.89,208.54l-.23-.49c-.36-.74-.79-1.45-1.3-2.08-.65-.8-1.34-1.66-2.56-2.24-.23-.11-.96-.44-2-.56-1.25-.13-2.29.12-2.94.35l-.41-.91,18.69-10.25.54.84c-.83.62-1.48,1.38-1.94,2.25-.47.91-.62,1.68-.66,1.98-.21,1.37.12,2.44.41,3.38.24.78.58,1.53,1,2.25l.26.45-2.97,1.6-5.89,3.42ZM480.4,202.15c.17,0,.33.02.51.04,1.2.13,2.04.52,2.32.64,1.43.68,2.23,1.67,2.88,2.47.44.55.81,1.11,1.13,1.69l6.16-3.37.02.04.97-.52c-.34-.65-.62-1.32-.83-2-.31-1-.69-2.25-.45-3.83.05-.34.22-1.25.76-2.29.06-.12.12-.23.19-.34l-13.65,7.49Z" style="fill: #fdf6ec;"/>
  </g>
  <g>
    <path d="M464.77,214.39l9.06-1.49c-.21-1.06-.24-1.95-.22-2.56.03-1.01.07-2.22.76-3.56.13-.25.55-1.02,1.37-1.79,1.03-.98,2.13-1.41,2.75-1.61l-20.99,3.62c.65,0,1.82.06,3.11.67,1.01.48,1.65,1.07,1.85,1.27,1.07,1.05,1.48,2.19,1.82,3.14.21.57.46,1.42.58,2.5l7.41-1.46" style="fill: #fdf6ec;"/>
    <path d="M464.42,215.18l-.06-.54c-.09-.84-.28-1.64-.55-2.38-.33-.93-.71-1.98-1.7-2.96-.16-.16-.75-.72-1.71-1.18-.88-.42-1.83-.62-2.9-.62l-.08-.99,20.99-3.62.24.97c-.99.32-1.85.82-2.56,1.5-.52.48-.97,1.07-1.27,1.66-.64,1.25-.67,2.36-.7,3.34-.02.54,0,1.41.21,2.45l.1.51-3.18.52-6.81,1.34ZM460.35,207.02c.16.06.31.13.47.2,1.11.53,1.8,1.18,1.99,1.37,1.15,1.13,1.59,2.35,1.94,3.32.22.6.39,1.23.5,1.89l6.92-1.17v.04s1.08-.18,1.08-.18c-.14-.91-.16-1.66-.14-2.17.03-1.04.07-2.32.82-3.77.25-.49.71-1.21,1.47-1.93.09-.09.18-.17.28-.25l-15.32,2.64Z" style="fill: #fdf6ec;"/>
  </g>
  <g>
    <path d="M442.26,212.87l9.05,1.56c.14-1.07.41-1.92.62-2.49.36-.95.79-2.08,1.87-3.11.21-.2.85-.78,1.87-1.25,1.3-.59,2.47-.64,3.12-.62l-21.02-3.45c.62.2,1.7.66,2.72,1.65.8.78,1.21,1.55,1.34,1.81.67,1.34.68,2.55.7,3.56,0,.61-.03,1.5-.26,2.55l7.48,1.04" style="fill: #fdf6ec;"/>
    <path d="M451.74,215.01l-3.29-.57-6.79-.94.12-.53c.22-1.02.25-1.88.25-2.44-.02-1.02-.04-2.12-.65-3.34-.17-.34-.56-1.01-1.24-1.68-.96-.93-1.99-1.36-2.52-1.53l.23-.97,21.02,3.45-.1.99c-1.03-.03-1.99.16-2.9.58-.87.4-1.46.9-1.73,1.16-1,.96-1.4,2-1.75,2.92-.29.79-.49,1.57-.59,2.38l-.07.52ZM449.81,213.66l1.08.19c.12-.7.31-1.38.57-2.08.37-.98.83-2.19,1.99-3.3.32-.3,1-.88,2-1.34.12-.05.23-.1.35-.15l-15.35-2.52c.13.11.25.22.38.34.79.77,1.24,1.55,1.44,1.94.71,1.42.73,2.69.75,3.72,0,.52-.02,1.21-.14,2.01l6.93,1.15v.04Z" style="fill: #fdf6ec;"/>
  </g>
  <g>
    <path d="M420.96,203.65l8.06,4.42c.48-.97,1.01-1.68,1.4-2.15.65-.78,1.42-1.71,2.78-2.33.26-.12,1.06-.46,2.17-.57,1.42-.13,2.55.2,3.15.43l-18.76-10.12c.52.39,1.4,1.17,2.04,2.44.51,1,.64,1.86.68,2.15.2,1.49-.18,2.64-.5,3.6-.19.58-.51,1.4-1.08,2.33l6.74,3.42" style="fill: #fdf6ec;"/>
    <path d="M429.24,208.76l-2.89-1.58-6.16-3.13.28-.46c.43-.71.77-1.44,1.03-2.22.31-.94.67-1.99.48-3.38-.09-.69-.31-1.35-.63-1.99-.57-1.13-1.34-1.85-1.89-2.27l.54-.84,18.76,10.12-.42.91c-.64-.25-1.67-.52-2.93-.4-1,.1-1.74.4-2.01.53-1.25.57-1.97,1.43-2.6,2.18-.54.66-.98,1.33-1.35,2.06l-.23.47ZM427.85,206.86l.96.53c.35-.63.75-1.22,1.22-1.79.67-.81,1.5-1.8,2.96-2.47.39-.18,1.22-.5,2.33-.61.13-.01.26-.02.38-.03l-13.69-7.39c.08.14.16.28.24.43.37.73.62,1.51.73,2.31.22,1.62-.19,2.84-.52,3.83-.21.63-.46,1.22-.77,1.8l6.18,3.34-.02.03Z" style="fill: #fdf6ec;"/>
  </g>
  <g>
    <path d="M404.21,187.96l6.02,6.96c.79-.74,1.53-1.23,2.06-1.53.88-.51,1.92-1.11,3.42-1.22.28-.02,1.16-.06,2.24.23,1.37.37,2.32,1.08,2.81,1.5l-14.07-16.04c.35.55.9,1.59,1.06,3.01.13,1.11-.05,1.97-.11,2.25-.33,1.46-1.08,2.41-1.71,3.2-.38.48-.97,1.14-1.82,1.81l5.12,5.56" style="fill: #fdf6ec;"/>
    <path d="M410.19,195.64l-2.38-2.76-4.43-4.81.42-.33c.65-.51,1.24-1.1,1.74-1.73.58-.73,1.31-1.64,1.61-3,.05-.25.22-1.04.1-2.08-.14-1.25-.61-2.21-.98-2.8l.8-.6,14.07,16.04-.7.71c-.78-.67-1.66-1.14-2.62-1.4-.92-.25-1.7-.24-2.07-.21-1.39.1-2.35.66-3.2,1.15-.47.27-1.2.74-1.97,1.46l-.38.36ZM409.56,193.38l.71.82c.56-.48,1.17-.91,1.77-1.25.89-.52,2.01-1.17,3.63-1.28.45-.03,1.34-.04,2.41.25.13.03.25.07.37.11l-10.28-11.72c.03.16.05.33.07.51.09.79.05,1.61-.12,2.41-.36,1.59-1.2,2.64-1.81,3.41-.4.51-.86.99-1.36,1.44l4.63,5.28-.04.03Z" style="fill: #fdf6ec;"/>
  </g>
  <g>
    <path d="M393.38,167.29l3.22,8.63c1-.42,1.86-.61,2.46-.72,1-.17,2.19-.37,3.63.05.27.08,1.11.34,2.02.99,1.16.83,1.8,1.82,2.11,2.39l-7.63-19.95c.14.64.29,1.81-.05,3.19-.27,1.09-.73,1.83-.88,2.07-.82,1.26-1.85,1.88-2.72,2.4-.52.31-1.3.73-2.33,1.06l2.87,7" style="fill: #fdf6ec;"/>
    <path d="M406.38,178.87c-.33-.61-.94-1.49-1.96-2.22-.39-.28-1.04-.67-1.87-.92-1.33-.39-2.43-.2-3.4-.04-.54.1-1.38.28-2.35.69l-.48.2-1.22-3.26-2.55-6.23.52-.17c.77-.25,1.5-.58,2.23-1.01.84-.5,1.8-1.07,2.56-2.24.13-.22.56-.9.81-1.92.3-1.23.19-2.29.05-2.96l.96-.29,7.63,19.95-.91.42ZM400.93,174.5c.58,0,1.21.07,1.9.27.97.29,1.71.74,2.17,1.06.1.07.21.15.3.23l-5.57-14.57c-.03.16-.06.33-.11.5-.29,1.17-.78,1.96-.94,2.21-.89,1.37-2,2.03-2.89,2.57-.58.34-1.16.63-1.75.87l2.5,6.58-.04.02.39,1.04c.85-.31,1.58-.47,2.08-.56.58-.1,1.23-.21,1.96-.21Z" style="fill: #fdf6ec;"/>
  </g>
  <g>
    <path d="M390.82,144.04l.19,9.21c1.08-.06,1.96.04,2.56.14,1,.17,2.19.38,3.4,1.26.23.17.93.69,1.57,1.61.82,1.17,1.09,2.31,1.2,2.96l-.6-21.36c-.08.65-.32,1.8-1.1,2.99-.61.94-1.29,1.48-1.52,1.66-1.19.91-2.37,1.16-3.36,1.36-.6.12-1.47.25-2.55.22l.39,7.56" style="fill: #fdf6ec;"/>
    <path d="M399.25,159.3c-.17-1.02-.55-1.95-1.12-2.76-.6-.86-1.24-1.34-1.46-1.5-1.12-.82-2.22-1-3.19-1.17-.8-.13-1.63-.18-2.45-.13l-.52.03-.06-2.83-.38-7.37h.54c.82.04,1.62-.03,2.44-.2.91-.18,2.04-.41,3.16-1.27.55-.43,1.02-.95,1.4-1.53.69-1.06.94-2.1,1.02-2.78l1,.05.6,21.36-.99.1ZM391.66,152.73c.67,0,1.34.05,2,.16,1.02.17,2.3.39,3.61,1.35.25.18,1,.74,1.69,1.73.07.1.14.21.21.31l-.44-15.59c-.08.14-.17.29-.26.43-.44.68-.99,1.28-1.63,1.78-1.31,1-2.62,1.26-3.57,1.46-.65.13-1.29.21-1.93.23l.17,7.04h-.02s.02,1.11.02,1.11c.05,0,.1,0,.16,0Z" style="fill: #fdf6ec;"/>
  </g>
  <g>
    <path d="M396.29,121.08l-3.31,8.59c1.02.35,1.8.78,2.31,1.11.86.54,1.88,1.18,2.67,2.46.15.24.6.99.85,2.09.32,1.39.14,2.56,0,3.19l7.54-19.99c-.32.57-.98,1.55-2.15,2.35-.92.63-1.76.88-2.03.95-1.44.39-2.63.17-3.62-.02-.6-.11-1.46-.33-2.44-.77l-2.5,7.15" style="fill: #fdf6ec;"/>
    <path d="M399.28,138.7l-.96-.28c.22-1,.22-2,0-2.97-.16-.69-.44-1.38-.79-1.94-.73-1.18-1.68-1.78-2.51-2.3-.46-.3-1.21-.72-2.21-1.06l-.49-.17,1.4-3.63,2.09-5.98.5.22c.96.43,1.79.64,2.33.73.92.18,2.05.39,3.4.03.23-.06,1.02-.29,1.88-.88,1.03-.71,1.66-1.58,2-2.18l.9.42-7.54,19.99ZM393.63,129.38c.85.34,1.51.71,1.93.98.88.55,1.97,1.24,2.82,2.62.29.46.68,1.22.91,2.24.03.13.06.26.08.38l5.51-14.61c-.13.1-.26.2-.4.3-.97.66-1.85.94-2.19,1.02-1.56.42-2.88.17-3.84-.01-.46-.08-1.12-.24-1.89-.53l-1.9,4.92-.58,1.67-.05-.02-.4,1.04Z" style="fill: #fdf6ec;"/>
  </g>
  <g>
    <path d="M410.38,102.32l-6.21,6.79c.82.7,1.39,1.39,1.75,1.88.6.82,1.32,1.79,1.59,3.27.05.28.19,1.14.03,2.25-.21,1.41-.8,2.43-1.17,2.97l14.29-15.85c-.51.41-1.47,1.08-2.86,1.4-1.09.25-1.95.18-2.24.15-1.49-.16-2.51-.81-3.36-1.34-.51-.32-1.24-.84-2-1.61l-4.93,5.74" style="fill: #fdf6ec;"/>
    <path d="M406.74,119.81l-.78-.62c.39-.58.9-1.52,1.09-2.76.1-.7.09-1.42-.03-2.09-.25-1.35-.9-2.24-1.48-3.04-.5-.68-1.06-1.29-1.69-1.82l-.39-.34,2.34-2.56,4.38-5.1.38.39c.58.59,1.23,1.11,1.91,1.54.87.54,1.8,1.12,3.15,1.27.46.05,1.19.06,2.08-.14.97-.22,1.86-.66,2.66-1.3l.68.72-14.29,15.85ZM404.88,109.07c.53.5,1.02,1.04,1.44,1.62.63.86,1.39,1.9,1.68,3.48.14.77.15,1.61.03,2.41-.02.13-.04.25-.07.38l10.43-11.57c-.16.05-.32.09-.49.13-.8.18-1.64.24-2.4.16-1.58-.17-2.66-.84-3.53-1.39-.59-.37-1.12-.77-1.62-1.21l-4.72,5.22-.03-.03-.74.81Z" style="fill: #fdf6ec;"/>
  </g>
  <path d="M182.46,225.73l9.52-18.84v-.16h-11.02v-2.83h14.44v2.94l-9.51,18.88h-3.44,0Z" style="fill: #df5231;"/>
  <path d="M204.67,226.02c-1.68,0-3.12-.44-4.31-1.32s-2.11-2.15-2.74-3.82c-.63-1.66-.94-3.68-.94-6.06s.32-4.38.95-6.06,1.55-2.95,2.75-3.84,2.63-1.33,4.3-1.33,3.12.44,4.31,1.33,2.11,2.16,2.74,3.84.94,3.69.94,6.06-.31,4.39-.94,6.06c-.62,1.67-1.53,2.94-2.72,3.82s-2.64,1.32-4.34,1.32ZM204.67,223.21c1.03,0,1.89-.33,2.59-.98s1.24-1.61,1.61-2.86.56-2.77.56-4.53-.19-3.29-.56-4.55c-.37-1.25-.91-2.21-1.61-2.87-.7-.66-1.57-.99-2.59-.99-1.51,0-2.68.74-3.51,2.21s-1.24,3.54-1.24,6.2c0,1.77.19,3.28.56,4.53.37,1.26.91,2.21,1.62,2.86s1.56.98,2.57.98Z" style="fill: #df5231;"/>
  <path d="M215.63,209.15v-1.14c0-.83.17-1.59.52-2.28s.85-1.24,1.51-1.65,1.46-.62,2.4-.62,1.78.21,2.44.62,1.15.96,1.49,1.65c.33.69.49,1.45.48,2.28v1.14c0,.82-.16,1.57-.5,2.26-.34.69-.84,1.24-1.49,1.65-.65.42-1.46.62-2.42.62s-1.77-.21-2.42-.62c-.66-.41-1.16-.97-1.49-1.65-.34-.69-.51-1.44-.51-2.26h0ZM216.64,225.73l15-21.83h2.55l-15,21.83h-2.55ZM218.1,208.01v1.14c0,.62.15,1.17.44,1.67s.8.74,1.51.73c.72,0,1.23-.23,1.51-.73s.42-1.05.42-1.67v-1.14c0-.62-.14-1.17-.41-1.67s-.78-.74-1.52-.73c-.7,0-1.2.23-1.5.73s-.45,1.05-.45,1.67h0ZM226.6,221.63v-1.14c0-.83.17-1.59.51-2.27s.84-1.23,1.51-1.65,1.47-.62,2.42-.62,1.78.21,2.43.62,1.15.96,1.48,1.65c.33.69.5,1.45.5,2.28v1.14c0,.83-.17,1.59-.51,2.28s-.83,1.24-1.49,1.65-1.46.62-2.42.62-1.77-.21-2.43-.62-1.16-.96-1.5-1.65c-.34-.69-.51-1.45-.51-2.28h.01ZM229.08,220.49v1.14c0,.62.15,1.17.44,1.67s.8.75,1.52.75,1.21-.25,1.49-.75.42-1.05.42-1.67v-1.14c0-.62-.14-1.17-.41-1.66s-.78-.74-1.51-.74-1.22.25-1.52.74-.45,1.05-.45,1.66h.02Z" style="fill: #df5231;"/>
  <path d="M454.09,190.86v-1.66l5.17-5.37c.55-.57,1-1.08,1.36-1.52s.63-.86.81-1.26.27-.82.27-1.26c0-.51-.12-.95-.36-1.32s-.56-.65-.97-.85-.88-.3-1.39-.3c-.55,0-1.02.11-1.43.33-.4.22-.72.54-.94.94-.22.41-.33.88-.33,1.43h-2.19c0-.93.21-1.74.64-2.44.43-.7,1.01-1.24,1.76-1.62.75-.39,1.59-.58,2.54-.58s1.81.19,2.54.57,1.3.9,1.71,1.55c.41.65.62,1.39.62,2.21,0,.57-.1,1.12-.31,1.66-.21.54-.57,1.14-1.1,1.81-.52.67-1.25,1.47-2.18,2.4l-3.04,3.18v.12h6.87v1.97h-10.05Z" style="fill: #df5231;"/>
  <path d="M466.08,190.86v-1.66l5.17-5.37c.55-.57,1-1.08,1.36-1.52s.63-.86.81-1.26.27-.82.27-1.26c0-.51-.12-.95-.36-1.32s-.56-.65-.97-.85-.88-.3-1.39-.3c-.55,0-1.02.11-1.43.33-.4.22-.72.54-.94.94-.22.41-.33.88-.33,1.43h-2.19c0-.93.21-1.74.64-2.44.43-.7,1.01-1.24,1.76-1.62.75-.39,1.59-.58,2.54-.58s1.81.19,2.54.57,1.3.9,1.71,1.55c.41.65.62,1.39.62,2.21,0,.57-.1,1.12-.31,1.66-.21.54-.57,1.14-1.1,1.81-.52.67-1.25,1.47-2.18,2.4l-3.04,3.18v.12h6.87v1.97h-10.05Z" style="fill: #df5231;"/>
  <path d="M478.38,179.25v-.8c0-.58.12-1.11.36-1.59s.59-.87,1.06-1.15c.46-.29,1.02-.43,1.68-.43s1.25.14,1.71.43.81.67,1.04,1.15.35,1.01.34,1.59v.8c0,.57-.11,1.1-.35,1.58-.24.48-.59.87-1.05,1.16-.46.29-1.02.44-1.69.44s-1.24-.15-1.7-.44c-.46-.29-.81-.68-1.05-1.16-.24-.48-.35-1.01-.35-1.58h0ZM479.09,190.86l10.5-15.28h1.78l-10.5,15.28h-1.78ZM480.11,178.45v.8c0,.43.1.82.31,1.17s.56.52,1.06.51c.51,0,.86-.16,1.06-.51s.3-.74.3-1.17v-.8c0-.43-.1-.82-.29-1.17s-.55-.52-1.07-.51c-.49,0-.84.16-1.05.51s-.31.74-.31,1.17h0ZM486.06,187.99v-.8c0-.58.12-1.11.36-1.59s.59-.86,1.06-1.15c.46-.29,1.03-.44,1.69-.44s1.24.14,1.7.43.8.67,1.04,1.15c.23.48.35,1.01.35,1.59v.8c0,.58-.12,1.11-.35,1.59-.24.48-.58.87-1.04,1.15s-1.02.43-1.69.43-1.24-.14-1.7-.43-.81-.67-1.05-1.15-.35-1.01-.35-1.59h-.02ZM487.79,187.19v.8c0,.43.1.82.31,1.17s.56.52,1.07.52.85-.17,1.05-.52.3-.74.3-1.17v-.8c0-.43-.1-.82-.29-1.16s-.54-.52-1.06-.52-.85.17-1.06.52-.31.73-.31,1.16h0Z" style="fill: #df5231;"/>
  <path d="M400.07,33.03c-.91,0-1.72-.16-2.42-.47s-1.25-.75-1.64-1.3c-.4-.55-.59-1.19-.59-1.89,0-.54.12-1.05.35-1.52s.55-.86.94-1.17.85-.51,1.34-.6v-.08c-.65-.16-1.17-.51-1.57-1.05s-.59-1.16-.59-1.86.18-1.27.54-1.8.86-.94,1.49-1.24,1.35-.45,2.16-.45,1.51.15,2.14.45,1.12.72,1.49,1.24.54,1.13.54,1.8-.2,1.32-.59,1.86-.91.89-1.55,1.05v.08c.49.09.94.29,1.34.6s.71.7.95,1.17.35.98.35,1.52c0,.71-.2,1.34-.6,1.89s-.95.99-1.65,1.3-1.5.47-2.41.47h-.02ZM400.07,31.41c.54,0,1.01-.09,1.41-.27s.71-.43.92-.76.33-.71.33-1.14c0-.46-.12-.86-.35-1.21s-.55-.62-.94-.83c-.4-.2-.85-.3-1.36-.3s-.97.1-1.38.3-.72.47-.94.83-.34.76-.34,1.21.11.81.33,1.14.52.58.92.76.87.27,1.42.27h-.02ZM400.07,25.33c.43,0,.82-.09,1.16-.26s.6-.42.8-.73.29-.67.29-1.09-.1-.77-.29-1.07-.45-.54-.79-.71-.73-.25-1.17-.25-.85.08-1.19.25-.6.41-.79.71-.28.66-.28,1.07.1.78.29,1.09.46.55.8.73.73.26,1.17.26h0Z" style="fill: #df5231;"/>
  <path d="M406.5,22.91v-.69c0-.5.1-.95.31-1.37.21-.41.51-.74.91-.99s.87-.37,1.44-.37,1.07.12,1.46.37.69.58.89.99.3.87.29,1.37v.69c0,.49-.09.95-.3,1.36s-.5.75-.9.99-.88.37-1.45.37-1.06-.12-1.45-.37-.69-.58-.9-.99c-.2-.41-.3-.87-.3-1.36h0ZM407.1,32.86l9-13.1h1.53l-9,13.1h-1.53ZM407.98,22.22v.69c0,.37.09.7.26,1s.48.45.91.44c.43,0,.74-.14.91-.44s.25-.63.25-1v-.69c0-.37-.08-.7-.25-1s-.47-.45-.91-.44c-.42,0-.72.14-.9.44s-.27.63-.27,1h0ZM413.08,30.4v-.69c0-.5.1-.95.31-1.36s.51-.74.91-.99.88-.37,1.45-.37,1.07.12,1.46.37.69.58.89.99.3.87.3,1.37v.69c0,.5-.1.95-.3,1.37-.2.41-.5.74-.89.99s-.88.37-1.45.37-1.06-.12-1.46-.37-.7-.58-.9-.99c-.2-.41-.3-.87-.3-1.37h-.02ZM414.56,29.71v.69c0,.37.09.7.26,1s.48.45.91.45.73-.15.9-.45.25-.63.25-1v-.69c0-.37-.08-.7-.25-1-.16-.29-.47-.44-.91-.44s-.73.15-.91.44c-.18.3-.27.63-.27,1h.02Z" style="fill: #df5231;"/>
  <path d="M0,273.88v-13.1h1.98v5.7h6.52v-5.7h1.98v13.1h-1.98v-5.7H1.98v5.7S0,273.88,0,273.88Z" style="fill: #fdf6ec;"/>
  <path d="M15.29,274.09c-.62,0-1.18-.12-1.69-.35-.5-.23-.9-.57-1.2-1.01s-.44-.99-.44-1.63c0-.56.11-1.01.32-1.37.21-.35.5-.64.87-.85s.77-.37,1.21-.47.9-.19,1.37-.25c.59-.06,1.07-.12,1.43-.17s.63-.12.8-.22.25-.27.25-.5v-.04c0-.56-.16-.99-.47-1.29s-.78-.46-1.39-.46-1.14.14-1.52.42c-.37.28-.63.59-.77.95l-1.8-.41c.22-.6.53-1.08.94-1.45.41-.37.89-.63,1.42-.8s1.1-.25,1.68-.25c.39,0,.81.05,1.25.14s.85.26,1.24.5.71.59.95,1.04.37,1.03.37,1.75v6.52h-1.87v-1.34h-.07c-.12.24-.3.48-.55.72s-.57.44-.95.6-.85.24-1.4.24l.02-.02ZM15.7,272.56c.53,0,.99-.1,1.36-.31.38-.21.66-.48.86-.82s.3-.7.3-1.08v-1.27c-.07.06-.2.13-.4.18s-.41.11-.66.15-.49.08-.72.11-.43.06-.59.07c-.37.05-.71.13-1.01.24s-.55.27-.73.47-.28.48-.28.82c0,.47.18.83.53,1.07s.8.36,1.34.36h0Z" style="fill: #fdf6ec;"/>
  <path d="M30,264.05l-3.55,9.83h-2.06l-3.56-9.83h2.05l2.5,7.58h.11l2.48-7.58h2.04-.01Z" style="fill: #fdf6ec;"/>
  <path d="M36.82,267.53v1.65h-5.82v-1.65h5.82Z" style="fill: #fdf6ec;"/>
  <path d="M46.74,274.08c-.92,0-1.72-.21-2.41-.63s-1.22-1.01-1.6-1.78-.57-1.65-.57-2.65.19-1.91.57-2.68c.38-.76.91-1.36,1.6-1.78s1.49-.63,2.41-.63,1.73.21,2.42.63,1.22,1.02,1.6,1.78c.38.77.57,1.66.57,2.68s-.19,1.89-.57,2.65-.91,1.35-1.6,1.78-1.49.63-2.42.63ZM46.74,272.47c.6,0,1.1-.16,1.49-.47s.68-.74.87-1.26c.19-.52.29-1.1.29-1.72s-.1-1.21-.29-1.74-.48-.95-.87-1.27-.89-.47-1.49-.47-1.09.16-1.48.47-.68.74-.87,1.27-.29,1.11-.29,1.74.1,1.19.29,1.72c.19.53.48.95.87,1.26s.88.47,1.48.47Z" style="fill: #fdf6ec;"/>
  <path d="M56.79,277.76c-1.17,0-2.09-.22-2.77-.66s-1.14-.96-1.4-1.56l1.63-.68c.12.19.27.39.47.6s.46.39.8.54.76.22,1.29.22c.72,0,1.32-.17,1.79-.52s.71-.91.71-1.67v-1.92h-.13c-.11.21-.27.43-.48.69-.22.25-.51.48-.89.66s-.86.28-1.47.28c-.77,0-1.47-.18-2.09-.55s-1.11-.9-1.48-1.62c-.37-.71-.55-1.59-.55-2.63s.18-1.94.54-2.68c.36-.75.85-1.32,1.47-1.72s1.33-.6,2.12-.6c.61,0,1.1.1,1.48.3.38.2.67.44.88.71s.38.51.49.71h.14v-1.6h1.85v10.05c0,.84-.19,1.54-.58,2.07s-.92.94-1.59,1.2-1.42.39-2.26.39h.03ZM56.78,272.14c.83,0,1.46-.29,1.9-.86.44-.57.66-1.36.66-2.38,0-.66-.1-1.24-.29-1.74s-.48-.89-.86-1.18-.85-.43-1.42-.43-1.05.15-1.44.44-.67.7-.87,1.2c-.19.51-.29,1.07-.29,1.7s.1,1.2.29,1.69c.19.49.48.87.87,1.14s.87.4,1.43.4l.02.02Z" style="fill: #fdf6ec;"/>
  <path d="M67.05,273.88v-9.83h1.82v1.62h.13c.21-.54.54-.97,1.01-1.28s1.02-.46,1.67-.46,1.21.15,1.65.46.77.73.99,1.28h.11c.23-.53.61-.96,1.12-1.27s1.12-.47,1.82-.47c.89,0,1.62.28,2.19.84s.85,1.4.85,2.53v6.58h-1.92v-6.41c0-.67-.18-1.15-.54-1.45-.36-.29-.8-.44-1.3-.44-.62,0-1.1.19-1.45.58s-.51.87-.51,1.45v6.27h-1.92v-6.53c0-.53-.16-.96-.49-1.28s-.76-.48-1.29-.48c-.36,0-.7.1-1.01.29-.31.19-.55.46-.74.79-.18.34-.28.73-.28,1.17v6.06h-1.9v-.02Z" style="fill: #fdf6ec;"/>
  <path d="M83.18,262.54c-.33,0-.62-.11-.85-.33s-.35-.49-.35-.8.12-.59.35-.81.52-.33.85-.33.61.11.85.33.36.49.36.81-.12.58-.36.8-.52.33-.85.33ZM82.22,273.88v-9.83h1.9v9.83h-1.9Z" style="fill: #fdf6ec;"/>
  <path d="M87.84,260.78v13.1h-1.9v-13.1h1.9Z" style="fill: #fdf6ec;"/>
  <path d="M89.67,264.05h1.9v10.47c0,.66-.11,1.21-.35,1.66s-.59.79-1.05,1.02-1.03.35-1.71.35h-.39v-1.64h.31c.46,0,.79-.12.98-.36s.3-.59.31-1.04v-10.46ZM90.61,262.54c-.33,0-.62-.11-.85-.33s-.35-.49-.35-.8.12-.59.35-.81.52-.33.85-.33.61.11.85.33.36.49.36.81-.12.58-.36.8-.52.33-.85.33Z" style="fill: #fdf6ec;"/>
  <path d="M97.52,274.09c-.92,0-1.72-.21-2.41-.64s-1.22-1.02-1.6-1.78-.57-1.64-.57-2.65.19-1.92.57-2.68.91-1.35,1.6-1.78c.69-.42,1.49-.64,2.41-.64s1.73.21,2.42.64c.69.43,1.22,1.02,1.6,1.78s.57,1.66.57,2.68-.19,1.89-.57,2.65-.91,1.35-1.6,1.78-1.49.64-2.42.64ZM94.59,274.45l-1.06-.73,6.93-10.15,1.06.73-6.93,10.15ZM97.52,272.47c.6,0,1.1-.16,1.49-.47s.68-.73.87-1.26.29-1.1.29-1.72-.1-1.21-.29-1.74-.48-.95-.87-1.26-.89-.47-1.49-.47-1.09.16-1.48.47-.68.74-.87,1.26-.29,1.1-.29,1.74.1,1.2.29,1.72.48.95.87,1.26.88.47,1.48.47Z" style="fill: #fdf6ec;"/>
  <path d="M104.44,262.54c-.33,0-.62-.11-.85-.33s-.35-.49-.35-.8.12-.59.35-.81.52-.33.85-.33.61.11.85.33.36.49.36.81-.12.58-.36.8-.52.33-.85.33ZM103.48,273.88v-9.83h1.9v9.83h-1.9Z" style="fill: #fdf6ec;"/>
  <path d="M109.11,268.05v5.83h-1.9v-9.83h1.85v1.62h.13c.22-.53.57-.96,1.05-1.27s1.08-.47,1.83-.47c.67,0,1.25.14,1.75.42s.89.69,1.17,1.24.42,1.23.42,2.05v6.24h-1.9v-6.01c0-.71-.19-1.27-.56-1.67s-.88-.61-1.53-.61c-.44,0-.83.1-1.18.29s-.62.48-.82.84-.3.81-.3,1.34h0Z" style="fill: #fdf6ec;"/>
  <path d="M120.88,274.07c-.8,0-1.51-.2-2.13-.61-.62-.41-1.11-.99-1.46-1.75s-.53-1.67-.53-2.72.18-1.98.54-2.73.85-1.33,1.47-1.73,1.32-.6,2.11-.6c.62,0,1.11.1,1.48.3.37.2.66.44.87.71s.37.51.48.71h.11v-4.87h1.9v13.1h-1.85v-1.53h-.16c-.11.21-.28.44-.49.71s-.51.5-.88.71c-.37.2-.86.3-1.45.3h0ZM121.3,272.45c.55,0,1.02-.15,1.4-.44s.67-.7.87-1.22.29-1.12.29-1.81-.1-1.28-.29-1.8-.48-.91-.86-1.2-.85-.43-1.41-.43-1.05.15-1.43.45-.67.71-.86,1.22-.29,1.1-.29,1.75.1,1.25.29,1.77.48.94.87,1.24.86.46,1.43.46h0Z" style="fill: #fdf6ec;"/>
  <path d="M134.9,266.46l-1.73.3c-.11-.33-.32-.63-.62-.91s-.75-.41-1.35-.41c-.54,0-.99.12-1.35.37s-.54.55-.54.93c0,.33.12.59.36.8s.63.37,1.16.49l1.57.35c.9.21,1.57.53,2.01.97s.67,1,.67,1.69c0,.59-.17,1.12-.51,1.58s-.81.82-1.42,1.08c-.6.26-1.3.39-2.09.39-1.1,0-2-.24-2.69-.71s-1.12-1.14-1.27-2l1.84-.28c.12.48.36.84.72,1.09s.83.37,1.4.37c.62,0,1.12-.13,1.5-.4s.57-.58.57-.96c0-.62-.46-1.04-1.39-1.26l-1.66-.37c-.92-.21-1.6-.54-2.03-1s-.65-1.03-.65-1.72c0-.58.16-1.09.49-1.53s.77-.78,1.34-1.02,1.22-.37,1.96-.37c1.07,0,1.9.23,2.51.69s1.01,1.08,1.21,1.84h-.01Z" style="fill: #fdf6ec;"/>
  <path d="M139.28,274.09c-.62,0-1.18-.12-1.69-.35-.5-.23-.9-.57-1.2-1.01s-.44-.99-.44-1.63c0-.56.11-1.01.32-1.37.21-.35.5-.64.87-.85s.77-.37,1.21-.47.9-.19,1.37-.25c.59-.06,1.07-.12,1.43-.17s.63-.12.8-.22.25-.27.25-.5v-.04c0-.56-.16-.99-.47-1.29s-.78-.46-1.39-.46-1.14.14-1.52.42c-.37.28-.63.59-.77.95l-1.8-.41c.22-.6.53-1.08.94-1.45.41-.37.89-.63,1.42-.8s1.1-.25,1.68-.25c.39,0,.81.05,1.25.14s.85.26,1.24.5.71.59.95,1.04.37,1.03.37,1.75v6.52h-1.87v-1.34h-.07c-.12.24-.3.48-.55.72s-.57.44-.95.6-.85.24-1.4.24l.02-.02ZM139.69,272.56c.53,0,.99-.1,1.36-.31.38-.21.66-.48.86-.82s.3-.7.3-1.08v-1.27c-.07.06-.2.13-.4.18s-.41.11-.66.15-.49.08-.72.11-.43.06-.59.07c-.37.05-.71.13-1.01.24s-.55.27-.73.47-.28.48-.28.82c0,.47.18.83.53,1.07s.8.36,1.34.36h0Z" style="fill: #fdf6ec;"/>
  <path d="M150.52,264.05v1.54h-5.36v-1.54h5.36ZM146.59,261.72h1.91v9.28c0,.45.09.78.28.99s.49.31.91.31c.1,0,.21,0,.32-.02s.23-.03.35-.05l.36,1.58c-.19.06-.4.11-.63.15s-.46.05-.69.05c-.85,0-1.53-.24-2.04-.72s-.76-1.12-.76-1.91v-9.67h-.01Z" style="fill: #fdf6ec;"/>
  <path d="M159.07,266.46l-1.73.3c-.11-.33-.32-.63-.62-.91s-.75-.41-1.35-.41c-.54,0-.99.12-1.35.37s-.54.55-.54.93c0,.33.12.59.36.8s.63.37,1.16.49l1.57.35c.9.21,1.57.53,2.01.97s.67,1,.67,1.69c0,.59-.17,1.12-.51,1.58s-.81.82-1.42,1.08c-.6.26-1.3.39-2.09.39-1.1,0-2-.24-2.69-.71s-1.12-1.14-1.27-2l1.84-.28c.12.48.36.84.72,1.09s.83.37,1.4.37c.62,0,1.12-.13,1.5-.4s.57-.58.57-.96c0-.62-.46-1.04-1.39-1.26l-1.66-.37c-.92-.21-1.6-.54-2.03-1s-.65-1.03-.65-1.72c0-.58.16-1.09.49-1.53s.77-.78,1.34-1.02,1.22-.37,1.96-.37c1.07,0,1.9.23,2.51.69s1.01,1.08,1.21,1.84h-.01Z" style="fill: #fdf6ec;"/>
  <path d="M164.83,274.08c-.96,0-1.79-.21-2.5-.62s-1.24-1-1.62-1.76-.57-1.65-.57-2.66.19-1.9.56-2.66.9-1.37,1.57-1.8c.68-.43,1.47-.65,2.39-.65.56,0,1.1.09,1.62.27s.99.47,1.41.86.75.9.99,1.53.36,1.38.36,2.27v.69h-7.81v-1.43h6.83l-.89.47c0-.6-.09-1.14-.28-1.6s-.47-.82-.84-1.09c-.37-.26-.83-.39-1.38-.39s-1.02.13-1.41.4-.69.61-.89,1.05-.31.91-.31,1.42v.98c0,.67.12,1.25.35,1.71s.56.83.98,1.07.91.37,1.46.37c.36,0,.69-.05.99-.16s.55-.26.77-.47.38-.47.49-.78l1.81.34c-.15.53-.4.99-.77,1.39s-.83.71-1.39.93-1.2.33-1.91.33h-.01Z" style="fill: #fdf6ec;"/>
  <path d="M170.37,273.88v-9.83h1.84v1.57h.11c.18-.53.5-.94.95-1.25s.97-.46,1.54-.46c.12,0,.26,0,.42.01.16,0,.29.02.39.03v1.83c-.08-.02-.21-.05-.41-.07s-.39-.04-.59-.04c-.45,0-.85.1-1.21.29s-.63.45-.83.78-.3.71-.3,1.15v5.99h-1.91Z" style="fill: #fdf6ec;"/>
  <path d="M439.66,15.37V2.27h4.68c1.01,0,1.85.19,2.52.56s1.17.88,1.5,1.52c.33.64.5,1.36.5,2.17s-.17,1.52-.5,2.17c-.33.64-.84,1.15-1.51,1.52s-1.52.56-2.54.56h-3.2v-1.67h3.01c.65,0,1.18-.11,1.58-.33s.69-.53.88-.92.28-.83.28-1.32-.09-.94-.28-1.32c-.18-.38-.48-.68-.88-.9s-.93-.33-1.58-.33h-2.49v11.4h-1.98.01Z" style="fill: #fdf6ec;"/>
  <path d="M450.26,15.37V5.54h1.84v1.57h.11c.18-.53.5-.94.95-1.25s.97-.46,1.54-.46c.12,0,.26,0,.42.01.16,0,.29.02.39.03v1.83c-.08-.02-.21-.05-.41-.07s-.39-.04-.59-.04c-.45,0-.85.1-1.21.29s-.63.45-.83.78c-.2.33-.3.71-.3,1.15v5.99h-1.91Z" style="fill: #fdf6ec;"/>
  <path d="M460.19,15.57c-.92,0-1.72-.21-2.41-.63s-1.22-1.01-1.6-1.78-.57-1.65-.57-2.65.19-1.91.57-2.68c.38-.76.91-1.36,1.6-1.78s1.49-.63,2.41-.63,1.73.21,2.42.63,1.22,1.02,1.6,1.78c.38.77.57,1.66.57,2.68s-.19,1.89-.57,2.65-.91,1.35-1.6,1.78-1.49.63-2.42.63ZM460.19,13.96c.6,0,1.1-.16,1.49-.47s.68-.74.87-1.26.29-1.1.29-1.72-.1-1.21-.29-1.74-.48-.95-.87-1.27-.89-.47-1.49-.47-1.09.16-1.48.47-.68.74-.87,1.27-.29,1.11-.29,1.74.1,1.19.29,1.72c.19.53.48.95.87,1.26s.88.47,1.48.47Z" style="fill: #fdf6ec;"/>
  <path d="M466.15,5.54h1.9v10.47c0,.66-.11,1.21-.35,1.66s-.59.79-1.05,1.02-1.03.35-1.71.35h-.39v-1.64h.31c.46,0,.79-.12.98-.36s.3-.59.31-1.04V5.54ZM467.09,4.03c-.33,0-.62-.11-.85-.33s-.35-.49-.35-.8.12-.59.35-.81.52-.33.85-.33.61.11.85.33.36.49.36.81-.12.58-.36.8-.52.33-.85.33Z" style="fill: #fdf6ec;"/>
  <path d="M474.11,15.57c-.96,0-1.79-.21-2.5-.62s-1.24-1-1.62-1.76-.57-1.65-.57-2.66.19-1.9.56-2.66.9-1.37,1.57-1.8c.68-.43,1.47-.65,2.39-.65.56,0,1.1.09,1.62.27s.99.47,1.41.86.75.9.99,1.53.37,1.38.37,2.27v.69h-7.81v-1.43h6.83l-.89.47c0-.6-.09-1.14-.28-1.6s-.47-.82-.84-1.09c-.37-.26-.83-.39-1.38-.39s-1.02.13-1.41.4-.69.61-.89,1.05-.31.91-.31,1.42v.98c0,.67.12,1.25.35,1.71s.56.83.98,1.07.91.37,1.46.37c.36,0,.69-.05.99-.16s.55-.26.77-.47.38-.47.49-.78l1.81.34c-.15.53-.4.99-.77,1.39s-.83.71-1.39.93c-.56.22-1.2.33-1.91.33h-.02Z" style="fill: #fdf6ec;"/>
  <path d="M479.65,15.37V2.27h1.9v13.1h-1.9ZM481.41,12.04l-.03-2.33h.34l3.91-4.17h2.29l-4.46,4.75h-.32l-1.74,1.75h0ZM485.84,15.37l-3.52-4.66,1.32-1.34,4.55,6h-2.36,0Z" style="fill: #fdf6ec;"/>
  <path d="M493.48,5.54v1.54h-5.36v-1.54h5.36ZM489.55,3.2h1.91v9.28c0,.45.09.78.28.99s.49.31.91.31c.1,0,.21,0,.32-.02s.23-.03.35-.05l.36,1.58c-.19.06-.4.11-.63.15s-.46.05-.69.05c-.85,0-1.53-.24-2.04-.72s-.76-1.12-.76-1.91V3.19h0Z" style="fill: #fdf6ec;"/>
  <path d="M502.03,7.95l-1.73.3c-.11-.33-.32-.63-.62-.91s-.75-.41-1.35-.41c-.54,0-.99.12-1.35.37s-.54.55-.54.93c0,.33.12.59.36.8s.63.37,1.17.49l1.57.35c.9.21,1.57.53,2.01.97s.67,1,.67,1.69c0,.59-.17,1.12-.51,1.58s-.81.82-1.42,1.08c-.6.26-1.3.39-2.09.39-1.1,0-2-.24-2.69-.71s-1.12-1.14-1.27-2l1.84-.28c.12.48.36.84.72,1.09s.83.37,1.4.37c.62,0,1.12-.13,1.5-.4s.57-.58.57-.96c0-.62-.46-1.04-1.39-1.26l-1.66-.37c-.92-.21-1.6-.54-2.04-1s-.65-1.03-.65-1.72c0-.58.16-1.09.49-1.53s.77-.78,1.34-1.02,1.22-.37,1.96-.37c1.07,0,1.9.23,2.51.69s1.01,1.08,1.21,1.84h0Z" style="fill: #fdf6ec;"/>
  <path d="M508.13,5.54v1.54h-5.36v-1.54h5.36ZM504.2,3.2h1.91v9.28c0,.45.09.78.28.99s.49.31.91.31c.1,0,.21,0,.32-.02s.23-.03.35-.05l.36,1.58c-.19.06-.4.11-.63.15s-.46.05-.69.05c-.85,0-1.53-.24-2.04-.72s-.76-1.12-.76-1.91V3.19h0Z" style="fill: #fdf6ec;"/>
  <path d="M510.69,19.04c-.29,0-.55,0-.78-.06-.23-.04-.41-.1-.53-.15l.47-1.56.13.04c.49.12.9.12,1.23-.02s.62-.52.85-1.14l.24-.65-3.59-9.96h2.05l2.48,7.63h.11l2.49-7.63h2.05l-4.04,11.13c-.19.52-.42.95-.71,1.3s-.63.62-1.03.8-.87.27-1.4.27h-.02Z" style="fill: #fdf6ec;"/>
  <path d="M518.93,15.37V5.54h1.84v1.57h.11c.18-.53.5-.94.95-1.25s.97-.46,1.54-.46c.12,0,.26,0,.42.01.16,0,.29.02.39.03v1.83c-.08-.02-.21-.05-.41-.07s-.39-.04-.59-.04c-.45,0-.85.1-1.21.29s-.63.45-.83.78-.3.71-.3,1.15v5.99h-1.91Z" style="fill: #fdf6ec;"/>
  <path d="M526.05,4.03c-.33,0-.62-.11-.85-.33s-.35-.49-.35-.8.12-.59.35-.81.52-.33.85-.33.61.11.85.33.36.49.36.81-.12.58-.36.8-.52.33-.85.33ZM525.09,15.37V5.54h1.9v9.83h-1.9Z" style="fill: #fdf6ec;"/>
  <path d="M530.72,9.54v5.83h-1.9V5.54h1.85v1.62h.13c.22-.53.57-.96,1.05-1.27s1.08-.47,1.83-.47c.67,0,1.25.14,1.75.42s.89.69,1.17,1.24.42,1.23.42,2.05v6.24h-1.9v-6.01c0-.71-.19-1.27-.56-1.67s-.88-.61-1.53-.61c-.44,0-.83.1-1.18.29s-.62.48-.82.84-.3.81-.3,1.34h0Z" style="fill: #fdf6ec;"/>
  <path d="M542.93,19.25c-1.17,0-2.09-.22-2.77-.66s-1.14-.96-1.4-1.56l1.63-.68c.12.19.27.39.47.6s.46.39.8.54.76.22,1.29.22c.72,0,1.32-.17,1.79-.52s.71-.91.71-1.67v-1.92h-.13c-.11.21-.27.43-.48.69-.22.25-.51.48-.89.66s-.86.28-1.47.28c-.77,0-1.47-.18-2.09-.55-.62-.37-1.11-.9-1.48-1.62-.37-.71-.55-1.59-.55-2.63s.18-1.94.54-2.68c.36-.75.85-1.32,1.47-1.72s1.33-.6,2.12-.6c.61,0,1.1.1,1.48.3.38.2.67.44.88.71s.38.51.49.71h.14v-1.6h1.85v10.05c0,.84-.2,1.54-.58,2.07s-.92.94-1.59,1.2c-.67.26-1.42.39-2.26.39h.03ZM542.92,13.63c.83,0,1.46-.29,1.9-.86s.66-1.36.66-2.38c0-.66-.1-1.24-.29-1.74s-.48-.89-.86-1.18-.85-.43-1.42-.43-1.05.15-1.44.44-.67.7-.87,1.2c-.19.51-.29,1.07-.29,1.7s.1,1.2.29,1.69.48.87.87,1.14.87.4,1.43.4l.02.02Z" style="fill: #fdf6ec;"/>
  <path d="M557.31,15.57c-.92,0-1.72-.21-2.41-.63s-1.22-1.01-1.6-1.78-.57-1.65-.57-2.65.19-1.91.57-2.68c.38-.76.91-1.36,1.6-1.78s1.49-.63,2.41-.63,1.73.21,2.42.63,1.22,1.02,1.6,1.78c.38.77.57,1.66.57,2.68s-.19,1.89-.57,2.65-.91,1.35-1.6,1.78-1.49.63-2.42.63ZM557.31,13.96c.6,0,1.1-.16,1.49-.47s.68-.74.87-1.26.29-1.1.29-1.72-.1-1.21-.29-1.74-.48-.95-.87-1.27-.89-.47-1.49-.47-1.09.16-1.48.47-.68.74-.87,1.27-.29,1.11-.29,1.74.1,1.19.29,1.72c.19.53.48.95.87,1.26s.88.47,1.48.47Z" style="fill: #fdf6ec;"/>
  <path d="M567.37,19.25c-1.17,0-2.09-.22-2.77-.66s-1.14-.96-1.4-1.56l1.63-.68c.12.19.27.39.47.6s.46.39.8.54.76.22,1.29.22c.72,0,1.32-.17,1.79-.52s.71-.91.71-1.67v-1.92h-.13c-.11.21-.27.43-.48.69-.22.25-.51.48-.89.66s-.86.28-1.47.28c-.77,0-1.47-.18-2.09-.55-.62-.37-1.11-.9-1.48-1.62-.37-.71-.55-1.59-.55-2.63s.18-1.94.54-2.68c.36-.75.85-1.32,1.47-1.72s1.33-.6,2.12-.6c.61,0,1.1.1,1.48.3.38.2.67.44.88.71s.38.51.49.71h.14v-1.6h1.85v10.05c0,.84-.2,1.54-.58,2.07s-.92.94-1.59,1.2c-.67.26-1.42.39-2.26.39h.03ZM567.35,13.63c.83,0,1.46-.29,1.9-.86s.66-1.36.66-2.38c0-.66-.1-1.24-.29-1.74s-.48-.89-.86-1.18-.85-.43-1.42-.43-1.05.15-1.44.44-.67.7-.87,1.2c-.19.51-.29,1.07-.29,1.7s.1,1.2.29,1.69.48.87.87,1.14.87.4,1.43.4l.02.02Z" style="fill: #fdf6ec;"/>
  <path d="M580.47,15.58c-.62,0-1.18-.12-1.69-.35-.5-.23-.9-.57-1.2-1.01s-.44-.99-.44-1.63c0-.56.11-1.01.32-1.37.21-.35.5-.64.87-.85s.77-.37,1.21-.47.9-.19,1.37-.25c.59-.06,1.07-.12,1.43-.17s.63-.12.79-.22.25-.27.25-.5v-.04c0-.56-.16-.99-.47-1.29s-.78-.46-1.39-.46-1.14.14-1.52.42c-.37.28-.63.59-.77.95l-1.8-.41c.22-.6.53-1.08.94-1.45s.89-.63,1.42-.8,1.1-.25,1.68-.25c.39,0,.81.05,1.25.14s.85.26,1.24.5.71.59.95,1.04.37,1.03.37,1.75v6.52h-1.87v-1.34h-.07c-.12.24-.3.48-.55.72s-.57.44-.95.6-.85.24-1.4.24l.03-.02ZM580.89,14.05c.53,0,.99-.1,1.36-.31.38-.21.66-.48.86-.82s.3-.7.3-1.08v-1.27c-.07.06-.2.13-.4.18s-.41.11-.66.15-.49.08-.72.11-.43.06-.59.07c-.37.05-.71.13-1.01.24s-.55.27-.73.47-.28.48-.28.82c0,.47.18.83.53,1.07s.8.36,1.34.36h0Z" style="fill: #fdf6ec;"/>
  <path d="M590.8,15.56c-.8,0-1.51-.2-2.13-.61s-1.11-.99-1.46-1.75-.53-1.67-.53-2.72.18-1.98.54-2.73.85-1.33,1.47-1.73,1.32-.6,2.11-.6c.62,0,1.11.1,1.48.3.37.2.66.44.87.71s.37.51.48.71h.11V2.27h1.9v13.1h-1.85v-1.53h-.16c-.11.21-.28.44-.49.71s-.51.5-.88.71c-.37.2-.86.3-1.45.3h0ZM591.21,13.94c.55,0,1.02-.15,1.4-.44s.67-.7.87-1.22.29-1.12.29-1.81-.1-1.28-.29-1.8-.48-.91-.86-1.2-.85-.43-1.41-.43-1.05.15-1.43.45-.67.71-.86,1.22-.29,1.1-.29,1.75.1,1.25.29,1.77.48.94.87,1.24.86.46,1.43.46h-.01Z" style="fill: #fdf6ec;"/>
  <path d="M597.47,15.37V5.54h1.82v1.62h.13c.21-.54.54-.97,1.01-1.28.47-.31,1.02-.46,1.67-.46s1.21.15,1.65.46.77.73.99,1.28h.11c.23-.53.61-.96,1.12-1.27s1.12-.47,1.82-.47c.89,0,1.62.28,2.19.84s.85,1.4.85,2.53v6.58h-1.92v-6.41c0-.67-.18-1.15-.54-1.45-.36-.29-.8-.44-1.3-.44-.62,0-1.1.19-1.45.58s-.51.87-.51,1.45v6.27h-1.92v-6.53c0-.53-.16-.96-.49-1.28s-.76-.48-1.29-.48c-.36,0-.7.1-1.01.29s-.55.46-.74.79c-.18.34-.28.73-.28,1.17v6.06h-1.9v-.02Z" style="fill: #fdf6ec;"/>
  <path d="M613.6,4.03c-.33,0-.62-.11-.85-.33s-.35-.49-.35-.8.12-.59.35-.81.52-.33.85-.33.61.11.85.33.36.49.36.81-.12.58-.36.8-.52.33-.85.33ZM612.64,15.37V5.54h1.9v9.83h-1.9Z" style="fill: #fdf6ec;"/>
  <path d="M618.27,9.54v5.83h-1.9V5.54h1.85v1.62h.13c.22-.53.57-.96,1.05-1.27s1.08-.47,1.83-.47c.67,0,1.25.14,1.75.42s.89.69,1.17,1.24.42,1.23.42,2.05v6.24h-1.9v-6.01c0-.71-.19-1.27-.56-1.67s-.88-.61-1.53-.61c-.44,0-.83.1-1.18.29s-.62.48-.82.84-.3.81-.3,1.34h0Z" style="fill: #fdf6ec;"/>
  <path d="M627.34,4.03c-.33,0-.62-.11-.85-.33s-.35-.49-.35-.8.12-.59.35-.81.52-.33.85-.33.61.11.85.33.36.49.36.81-.12.58-.36.8-.52.33-.85.33ZM626.39,15.37V5.54h1.9v9.83h-1.9Z" style="fill: #fdf6ec;"/>
  <path d="M637.46,7.95l-1.73.3c-.11-.33-.32-.63-.62-.91s-.75-.41-1.35-.41c-.54,0-.99.12-1.35.37s-.54.55-.54.93c0,.33.12.59.36.8s.63.37,1.17.49l1.57.35c.9.21,1.57.53,2.01.97s.67,1,.67,1.69c0,.59-.17,1.12-.51,1.58s-.81.82-1.42,1.08c-.6.26-1.3.39-2.09.39-1.1,0-2-.24-2.69-.71s-1.12-1.14-1.27-2l1.84-.28c.12.48.36.84.72,1.09s.83.37,1.4.37c.62,0,1.12-.13,1.5-.4s.57-.58.57-.96c0-.62-.46-1.04-1.39-1.26l-1.66-.37c-.92-.21-1.6-.54-2.04-1s-.65-1.03-.65-1.72c0-.58.16-1.09.49-1.53s.77-.78,1.34-1.02,1.22-.37,1.96-.37c1.07,0,1.9.23,2.51.69s1.01,1.08,1.21,1.84h-.01Z" style="fill: #fdf6ec;"/>
  <path d="M643.56,5.54v1.54h-5.36v-1.54h5.36ZM639.63,3.2h1.91v9.28c0,.45.09.78.28.99s.49.31.91.31c.1,0,.21,0,.32-.02s.23-.03.35-.05l.36,1.58c-.19.06-.4.11-.63.15s-.46.05-.69.05c-.85,0-1.53-.24-2.04-.72s-.76-1.12-.76-1.91V3.19h0Z" style="fill: #fdf6ec;"/>
  <path d="M644.92,15.37V5.54h1.84v1.57h.11c.18-.53.5-.94.95-1.25s.97-.46,1.54-.46c.12,0,.26,0,.42.01.16,0,.29.02.39.03v1.83c-.08-.02-.21-.05-.41-.07s-.39-.04-.59-.04c-.45,0-.85.1-1.21.29-.36.19-.63.45-.84.78-.2.33-.3.71-.3,1.15v5.99h-1.9,0Z" style="fill: #fdf6ec;"/>
  <path d="M653.84,15.58c-.62,0-1.18-.12-1.69-.35-.5-.23-.9-.57-1.2-1.01s-.44-.99-.44-1.63c0-.56.11-1.01.32-1.37.21-.35.5-.64.87-.85s.77-.37,1.21-.47.9-.19,1.37-.25c.59-.06,1.07-.12,1.43-.17s.63-.12.79-.22c.17-.1.25-.27.25-.5v-.04c0-.56-.16-.99-.47-1.29-.31-.3-.78-.46-1.39-.46s-1.14.14-1.52.42c-.37.28-.63.59-.77.95l-1.8-.41c.22-.6.53-1.08.95-1.45.41-.37.89-.63,1.42-.8.54-.17,1.1-.25,1.68-.25.39,0,.81.05,1.25.14s.85.26,1.24.5.71.59.95,1.04.37,1.03.37,1.75v6.52h-1.87v-1.34h-.07c-.12.24-.3.48-.55.72s-.57.44-.95.6-.85.24-1.4.24l.02-.02ZM654.26,14.05c.53,0,.99-.1,1.36-.31.38-.21.66-.48.86-.82s.3-.7.3-1.08v-1.27c-.07.06-.2.13-.4.18s-.41.11-.66.15-.49.08-.72.11-.43.06-.59.07c-.37.05-.71.13-1.01.24s-.55.27-.73.47c-.18.21-.28.48-.28.82,0,.47.18.83.53,1.07s.8.36,1.34.36h0Z" style="fill: #fdf6ec;"/>
  <path d="M665.08,5.54v1.54h-5.36v-1.54h5.36ZM661.16,3.2h1.91v9.28c0,.45.09.78.28.99s.49.31.91.31c.1,0,.21,0,.32-.02.11-.01.23-.03.35-.05l.36,1.58c-.19.06-.4.11-.63.15s-.46.05-.69.05c-.85,0-1.53-.24-2.04-.72s-.76-1.12-.76-1.91V3.19h0Z" style="fill: #fdf6ec;"/>
  <path d="M667.4,4.03c-.33,0-.62-.11-.85-.33s-.35-.49-.35-.8.12-.59.35-.81.52-.33.85-.33.61.11.85.33.36.49.36.81-.12.58-.36.8-.52.33-.85.33ZM666.45,15.37V5.54h1.9v9.83h-1.9Z" style="fill: #fdf6ec;"/>
  <path d="M674.3,15.57c-.92,0-1.72-.21-2.41-.63s-1.22-1.01-1.6-1.78c-.38-.76-.57-1.65-.57-2.65s.19-1.91.57-2.68c.38-.76.91-1.36,1.6-1.78s1.49-.63,2.41-.63,1.73.21,2.42.63,1.22,1.02,1.6,1.78c.38.77.57,1.66.57,2.68s-.19,1.89-.57,2.65-.91,1.35-1.6,1.78-1.49.63-2.42.63ZM674.3,13.96c.6,0,1.1-.16,1.49-.47s.68-.74.87-1.26.29-1.1.29-1.72-.1-1.21-.29-1.74-.48-.95-.87-1.27-.89-.47-1.49-.47-1.09.16-1.48.47-.68.74-.87,1.27-.29,1.11-.29,1.74.1,1.19.29,1.72c.19.53.48.95.87,1.26s.88.47,1.48.47Z" style="fill: #fdf6ec;"/>
  <path d="M682.15,9.54v5.83h-1.9V5.54h1.85v1.62h.13c.22-.53.57-.96,1.05-1.27s1.08-.47,1.83-.47c.67,0,1.25.14,1.75.42s.89.69,1.17,1.24.42,1.23.42,2.05v6.24h-1.9v-6.01c0-.71-.19-1.27-.56-1.67s-.88-.61-1.53-.61c-.44,0-.83.1-1.18.29-.35.2-.62.48-.82.84s-.3.81-.3,1.34h0Z" style="fill: #fdf6ec;"/>
  <path d="M486.9,242.77v-13.1h8.13v1.7h-6.15v4.25h5.56v1.69h-5.56v5.47h-1.98Z" style="fill: #fdf6ec;"/>
  <path d="M502.17,238.71v-5.77h1.9v9.83h-1.86v-1.71h-.11c-.23.52-.6.96-1.09,1.31s-1.11.52-1.85.52c-.63,0-1.19-.14-1.67-.41s-.86-.69-1.13-1.24-.41-1.23-.41-2.05v-6.25h1.9v6.03c0,.66.19,1.19.56,1.59s.86.59,1.45.59c.36,0,.71-.09,1.07-.26s.65-.45.89-.81.36-.82.36-1.37h-.01Z" style="fill: #fdf6ec;"/>
  <path d="M507.79,236.94v5.83h-1.9v-9.83h1.85v1.62h.13c.22-.53.57-.96,1.05-1.27s1.08-.47,1.83-.47c.67,0,1.25.14,1.75.42s.89.69,1.17,1.24.42,1.23.42,2.05v6.24h-1.9v-6.01c0-.71-.19-1.27-.56-1.67s-.88-.61-1.53-.61c-.44,0-.83.1-1.18.29s-.62.48-.82.84-.3.81-.3,1.34h0Z" style="fill: #fdf6ec;"/>
  <path d="M519.57,242.96c-.8,0-1.51-.2-2.13-.61-.62-.41-1.11-.99-1.46-1.75s-.53-1.67-.53-2.72.18-1.98.54-2.73.85-1.33,1.47-1.73,1.32-.6,2.11-.6c.62,0,1.11.1,1.48.3s.66.44.87.71.37.51.48.71h.11v-4.87h1.9v13.1h-1.85v-1.53h-.16c-.11.21-.28.44-.49.71s-.51.5-.88.71c-.37.2-.86.3-1.45.3h0ZM519.98,241.34c.55,0,1.02-.15,1.4-.44s.67-.7.87-1.22.29-1.12.29-1.81-.1-1.28-.29-1.8-.48-.91-.86-1.2-.85-.43-1.41-.43-1.05.15-1.43.45-.67.71-.86,1.22-.29,1.1-.29,1.75.1,1.25.29,1.77.48.94.87,1.24.86.46,1.43.46h-.01Z" style="fill: #fdf6ec;"/>
  <path d="M526.24,242.77v-9.83h1.84v1.57h.11c.18-.53.5-.94.95-1.25s.97-.46,1.54-.46c.12,0,.26,0,.42,0,.16,0,.29.02.39.03v1.83c-.08-.02-.21-.05-.41-.07s-.39-.04-.59-.04c-.45,0-.85.1-1.21.29s-.63.45-.83.78-.3.71-.3,1.15v5.99h-1.91Z" style="fill: #fdf6ec;"/>
  <path d="M535.16,242.98c-.62,0-1.18-.12-1.69-.35-.5-.23-.9-.57-1.2-1.01s-.44-.99-.44-1.63c0-.56.11-1.01.32-1.37.21-.35.5-.64.87-.85s.77-.37,1.21-.47.9-.19,1.37-.25c.59-.06,1.07-.12,1.43-.17s.63-.12.8-.22.25-.27.25-.5v-.04c0-.56-.16-.99-.47-1.29s-.78-.46-1.39-.46-1.14.14-1.52.42c-.37.28-.63.59-.77.95l-1.8-.41c.22-.6.53-1.08.94-1.45s.89-.63,1.42-.8,1.1-.25,1.68-.25c.39,0,.81.05,1.25.14s.85.26,1.24.5.71.59.95,1.04.37,1.03.37,1.75v6.52h-1.87v-1.34h-.07c-.12.24-.3.48-.55.72s-.57.44-.95.6-.85.24-1.4.24l.02-.02ZM535.57,241.45c.53,0,.99-.1,1.36-.31.38-.21.66-.48.86-.82s.3-.7.3-1.08v-1.27c-.07.06-.2.13-.4.18s-.41.11-.66.15-.49.08-.72.11-.43.06-.59.07c-.37.05-.71.13-1.01.24s-.55.27-.73.47-.28.48-.28.82c0,.47.18.83.53,1.07s.8.36,1.34.36h0Z" style="fill: #fdf6ec;"/>
  <path d="M542.79,231.43c-.33,0-.62-.11-.85-.33s-.35-.49-.35-.8.12-.59.35-.81.52-.33.85-.33.61.11.85.33.36.49.36.81-.12.58-.36.8-.52.33-.85.33ZM541.83,242.77v-9.83h1.9v9.83h-1.9Z" style="fill: #fdf6ec;"/>
  <path d="M552.91,235.35l-1.73.3c-.11-.33-.32-.63-.62-.91s-.75-.41-1.35-.41c-.54,0-.99.12-1.35.37s-.54.55-.54.93c0,.33.12.59.36.8s.63.37,1.16.49l1.57.35c.9.21,1.57.53,2.01.97s.67,1,.67,1.69c0,.59-.17,1.12-.51,1.58s-.81.82-1.42,1.08c-.6.26-1.3.39-2.09.39-1.1,0-2-.24-2.69-.71s-1.12-1.14-1.27-2l1.84-.28c.12.48.36.84.72,1.09s.83.37,1.4.37c.62,0,1.12-.13,1.5-.4s.57-.58.57-.96c0-.62-.46-1.04-1.39-1.26l-1.66-.37c-.92-.21-1.6-.54-2.03-1s-.65-1.03-.65-1.72c0-.58.16-1.09.49-1.53s.77-.78,1.34-1.02,1.22-.37,1.96-.37c1.07,0,1.9.23,2.51.69s1.01,1.08,1.21,1.84h-.01Z" style="fill: #fdf6ec;"/>
  <path d="M555.39,231.43c-.33,0-.62-.11-.85-.33s-.35-.49-.35-.8.12-.59.35-.81.52-.33.85-.33.61.11.85.33.36.49.36.81-.12.58-.36.8-.52.33-.85.33ZM554.44,242.77v-9.83h1.9v9.83h-1.9Z" style="fill: #fdf6ec;"/>
  <path d="M560.06,236.94v5.83h-1.9v-9.83h1.85v1.62h.13c.22-.53.57-.96,1.05-1.27s1.08-.47,1.83-.47c.67,0,1.25.14,1.75.42s.89.69,1.17,1.24.42,1.23.42,2.05v6.24h-1.9v-6.01c0-.71-.19-1.27-.56-1.67s-.88-.61-1.53-.61c-.44,0-.83.1-1.18.29s-.62.48-.82.84-.3.81-.3,1.34h0Z" style="fill: #fdf6ec;"/>
  <path d="M572.28,246.65c-1.17,0-2.09-.22-2.77-.66s-1.14-.96-1.4-1.56l1.63-.68c.12.19.27.39.47.6s.46.39.8.54.76.22,1.29.22c.72,0,1.32-.17,1.79-.52s.71-.91.71-1.67v-1.92h-.13c-.11.21-.27.43-.48.69-.22.25-.51.48-.89.66s-.86.28-1.47.28c-.77,0-1.47-.18-2.09-.55-.62-.37-1.11-.9-1.48-1.62-.37-.71-.55-1.59-.55-2.63s.18-1.94.54-2.68c.36-.75.85-1.32,1.47-1.72s1.33-.6,2.12-.6c.61,0,1.1.1,1.48.3s.67.44.88.71.38.51.49.71h.14v-1.6h1.85v10.05c0,.84-.19,1.54-.58,2.07s-.92.94-1.59,1.2c-.67.26-1.42.39-2.26.39h.03ZM572.26,241.03c.83,0,1.46-.29,1.9-.86s.66-1.36.66-2.38c0-.66-.1-1.24-.29-1.74s-.48-.89-.86-1.18-.85-.43-1.42-.43-1.05.15-1.44.44-.67.7-.87,1.2c-.19.51-.29,1.07-.29,1.7s.1,1.2.29,1.69.48.87.87,1.14.87.4,1.43.4l.02.02Z" style="fill: #fdf6ec;"/>
  <path d="M586.66,242.97c-.92,0-1.72-.21-2.41-.63s-1.22-1.01-1.6-1.78-.57-1.65-.57-2.65.19-1.91.57-2.68c.38-.76.91-1.36,1.6-1.78s1.49-.63,2.41-.63,1.73.21,2.42.63,1.22,1.02,1.6,1.78c.38.77.57,1.66.57,2.68s-.19,1.89-.57,2.65-.91,1.35-1.6,1.78-1.49.63-2.42.63ZM586.66,241.36c.6,0,1.1-.16,1.49-.47s.68-.74.87-1.26c.19-.52.29-1.1.29-1.72s-.1-1.21-.29-1.74-.48-.95-.87-1.27-.89-.47-1.49-.47-1.09.16-1.48.47-.68.74-.87,1.27-.29,1.11-.29,1.74.1,1.19.29,1.72.48.95.87,1.26.88.47,1.48.47Z" style="fill: #fdf6ec;"/>
  <path d="M596.71,246.65c-1.17,0-2.09-.22-2.77-.66s-1.14-.96-1.4-1.56l1.63-.68c.12.19.27.39.47.6s.46.39.8.54.76.22,1.29.22c.72,0,1.32-.17,1.79-.52s.71-.91.71-1.67v-1.92h-.13c-.11.21-.27.43-.48.69-.22.25-.51.48-.89.66s-.86.28-1.47.28c-.77,0-1.47-.18-2.09-.55-.62-.37-1.11-.9-1.48-1.62-.37-.71-.55-1.59-.55-2.63s.18-1.94.54-2.68c.36-.75.85-1.32,1.47-1.72s1.33-.6,2.12-.6c.61,0,1.1.1,1.48.3s.67.44.88.71.38.51.49.71h.14v-1.6h1.85v10.05c0,.84-.19,1.54-.58,2.07s-.92.94-1.59,1.2c-.67.26-1.42.39-2.26.39h.03ZM596.69,241.03c.83,0,1.46-.29,1.9-.86s.66-1.36.66-2.38c0-.66-.1-1.24-.29-1.74s-.48-.89-.86-1.18-.85-.43-1.42-.43-1.05.15-1.44.44-.67.7-.87,1.2c-.19.51-.29,1.07-.29,1.7s.1,1.2.29,1.69.48.87.87,1.14.87.4,1.43.4l.02.02Z" style="fill: #fdf6ec;"/>
  <path d="M607.93,231.43c-.33,0-.62-.11-.85-.33s-.35-.49-.35-.8.12-.59.35-.81.52-.33.85-.33.61.11.85.33.36.49.36.81-.12.58-.36.8-.52.33-.85.33ZM606.97,242.77v-9.83h1.9v9.83h-1.9Z" style="fill: #fdf6ec;"/>
  <path d="M612.59,236.94v5.83h-1.9v-9.83h1.85v1.62h.13c.22-.53.57-.96,1.05-1.27s1.08-.47,1.83-.47c.67,0,1.25.14,1.75.42s.89.69,1.17,1.24.42,1.23.42,2.05v6.24h-1.9v-6.01c0-.71-.19-1.27-.56-1.67s-.88-.61-1.53-.61c-.44,0-.83.1-1.18.29s-.62.48-.82.84-.3.81-.3,1.34h0Z" style="fill: #fdf6ec;"/>
  <path d="M624.37,242.96c-.8,0-1.51-.2-2.13-.61-.62-.41-1.11-.99-1.46-1.75s-.53-1.67-.53-2.72.18-1.98.54-2.73.85-1.33,1.47-1.73,1.32-.6,2.11-.6c.62,0,1.11.1,1.48.3s.66.44.87.71.37.51.48.71h.11v-4.87h1.9v13.1h-1.85v-1.53h-.16c-.11.21-.28.44-.49.71s-.51.5-.88.71c-.37.2-.86.3-1.45.3h0ZM624.78,241.34c.55,0,1.02-.15,1.4-.44s.67-.7.87-1.22.29-1.12.29-1.81-.1-1.28-.29-1.8-.48-.91-.86-1.2-.85-.43-1.41-.43-1.05.15-1.43.45-.67.71-.86,1.22-.29,1.1-.29,1.75.1,1.25.29,1.77.48.94.87,1.24.86.46,1.43.46h-.01Z" style="fill: #fdf6ec;"/>
  <path d="M638.39,235.35l-1.73.3c-.11-.33-.32-.63-.62-.91s-.75-.41-1.35-.41c-.54,0-.99.12-1.35.37s-.54.55-.54.93c0,.33.12.59.36.8s.63.37,1.16.49l1.57.35c.9.21,1.57.53,2.01.97s.67,1,.67,1.69c0,.59-.17,1.12-.51,1.58s-.81.82-1.42,1.08c-.6.26-1.3.39-2.09.39-1.1,0-2-.24-2.69-.71s-1.12-1.14-1.27-2l1.84-.28c.12.48.36.84.72,1.09s.83.37,1.4.37c.62,0,1.12-.13,1.5-.4s.57-.58.57-.96c0-.62-.46-1.04-1.39-1.26l-1.66-.37c-.92-.21-1.6-.54-2.03-1s-.65-1.03-.65-1.72c0-.58.16-1.09.49-1.53s.77-.78,1.34-1.02,1.22-.37,1.96-.37c1.07,0,1.9.23,2.51.69s1.01,1.08,1.21,1.84h-.01Z" style="fill: #fdf6ec;"/>
  <path d="M642.77,242.98c-.62,0-1.18-.12-1.69-.35-.5-.23-.9-.57-1.2-1.01s-.44-.99-.44-1.63c0-.56.11-1.01.32-1.37.21-.35.5-.64.87-.85s.77-.37,1.21-.47.9-.19,1.37-.25c.59-.06,1.07-.12,1.43-.17s.63-.12.8-.22.25-.27.25-.5v-.04c0-.56-.16-.99-.47-1.29s-.78-.46-1.39-.46-1.14.14-1.52.42c-.37.28-.63.59-.77.95l-1.8-.41c.22-.6.53-1.08.94-1.45s.89-.63,1.42-.8,1.1-.25,1.68-.25c.39,0,.81.05,1.25.14s.85.26,1.24.5.71.59.95,1.04.37,1.03.37,1.75v6.52h-1.87v-1.34h-.07c-.12.24-.3.48-.55.72s-.57.44-.95.6-.85.24-1.4.24l.02-.02ZM643.18,241.45c.53,0,.99-.1,1.36-.31.38-.21.66-.48.86-.82s.3-.7.3-1.08v-1.27c-.07.06-.2.13-.4.18s-.41.11-.66.15-.49.08-.72.11-.43.06-.59.07c-.37.05-.71.13-1.01.24s-.55.27-.73.47-.28.48-.28.82c0,.47.18.83.53,1.07s.8.36,1.34.36h0Z" style="fill: #fdf6ec;"/>
  <path d="M649.44,242.77v-9.83h1.82v1.62h.13c.21-.54.54-.97,1.01-1.28.47-.31,1.02-.46,1.67-.46s1.21.15,1.65.46c.44.31.77.73.99,1.28h.11c.23-.53.61-.96,1.12-1.27s1.12-.47,1.82-.47c.89,0,1.62.28,2.19.84s.85,1.4.85,2.53v6.58h-1.92v-6.41c0-.67-.18-1.15-.54-1.45-.36-.29-.8-.44-1.3-.44-.62,0-1.1.19-1.45.58s-.51.87-.51,1.45v6.27h-1.92v-6.53c0-.53-.16-.96-.49-1.28s-.76-.48-1.29-.48c-.36,0-.7.1-1.01.29-.31.19-.55.46-.74.79-.18.34-.28.73-.28,1.17v6.06h-1.9v-.02Z" style="fill: #fdf6ec;"/>
  <path d="M666.51,229.67v13.1h-1.9v-13.1h1.9Z" style="fill: #fdf6ec;"/>
  <path d="M669.29,231.43c-.33,0-.62-.11-.85-.33s-.35-.49-.35-.8.12-.59.35-.81.52-.33.85-.33.61.11.85.33.36.49.36.81-.12.58-.36.8-.52.33-.85.33ZM668.33,242.77v-9.83h1.9v9.83h-1.9Z" style="fill: #fdf6ec;"/>
  <path d="M673.96,236.94v5.83h-1.9v-9.83h1.85v1.62h.13c.22-.53.57-.96,1.05-1.27s1.08-.47,1.83-.47c.67,0,1.25.14,1.75.42s.89.69,1.17,1.24.42,1.23.42,2.05v6.24h-1.9v-6.01c0-.71-.19-1.27-.56-1.67s-.88-.61-1.53-.61c-.44,0-.83.1-1.18.29s-.62.48-.82.84-.3.81-.3,1.34h0Z" style="fill: #fdf6ec;"/>
  <path d="M686.17,246.65c-1.17,0-2.09-.22-2.77-.66s-1.14-.96-1.4-1.56l1.63-.68c.12.19.27.39.47.6s.46.39.8.54.76.22,1.29.22c.72,0,1.32-.17,1.79-.52s.71-.91.71-1.67v-1.92h-.13c-.11.21-.27.43-.48.69-.22.25-.51.48-.89.66s-.86.28-1.47.28c-.77,0-1.47-.18-2.09-.55-.62-.37-1.11-.9-1.48-1.62-.37-.71-.55-1.59-.55-2.63s.18-1.94.54-2.68c.36-.75.85-1.32,1.47-1.72s1.33-.6,2.12-.6c.61,0,1.1.1,1.48.3s.67.44.88.71.38.51.49.71h.14v-1.6h1.85v10.05c0,.84-.19,1.54-.58,2.07s-.92.94-1.59,1.2c-.67.26-1.42.39-2.26.39h.03ZM686.16,241.03c.83,0,1.46-.29,1.9-.86s.66-1.36.66-2.38c0-.66-.1-1.24-.29-1.74s-.48-.89-.86-1.18-.85-.43-1.42-.43-1.05.15-1.44.44-.67.7-.87,1.2c-.19.51-.29,1.07-.29,1.7s.1,1.2.29,1.69.48.87.87,1.14.87.4,1.43.4l.02.02Z" style="fill: #fdf6ec;"/>
  <path d="M696.65,242.97c-.96,0-1.79-.21-2.5-.62s-1.24-1-1.62-1.76-.57-1.65-.57-2.66.19-1.9.56-2.66c.37-.77.9-1.37,1.57-1.8.68-.43,1.47-.65,2.39-.65.56,0,1.1.09,1.62.27s.99.47,1.41.86.75.9.99,1.53.37,1.38.37,2.27v.69h-7.81v-1.43h6.83l-.89.47c0-.6-.09-1.14-.28-1.6s-.47-.82-.84-1.09c-.37-.26-.83-.39-1.38-.39s-1.02.13-1.41.4c-.39.26-.69.61-.89,1.05s-.31.91-.31,1.42v.98c0,.67.12,1.25.35,1.71s.56.83.98,1.07.91.37,1.46.37c.36,0,.69-.05.99-.16.29-.11.55-.26.77-.47s.38-.47.49-.78l1.81.34c-.15.53-.4.99-.77,1.39-.37.4-.83.71-1.39.93s-1.2.33-1.91.33h-.02Z" style="fill: #fdf6ec;"/>
  <path d="M702.2,242.77v-9.83h1.84v1.57h.11c.18-.53.5-.94.95-1.25s.97-.46,1.54-.46c.12,0,.26,0,.42,0,.16,0,.29.02.39.03v1.83c-.08-.02-.21-.05-.41-.07s-.39-.04-.59-.04c-.45,0-.85.1-1.21.29-.36.19-.63.45-.84.78-.2.33-.3.71-.3,1.15v5.99h-1.9,0Z" style="fill: #fdf6ec;"/>
</svg>