<?xml version="1.0" encoding="UTF-8"?>
<svg id="Layer_1" data-name="Layer 1" xmlns="http://www.w3.org/2000/svg" viewBox="0 0 241.81 169.05">
  <path d="M56.97,155.3c-6.86,0-13.75-.03-20.58-.11-1.4-.02-2.75-.03-4.05-.04-10.22-.08-16.39-.13-17.09-2.65-.76-2.74,5.96-6.03,6.73-6.39,4.24-2.05,8.17-2.27,18.29-2.37h.22s0,0,0,0c5.11-.05,9-.03,13.11-.01l3.46.02c3.73.01,7.46,0,11.19,0h5.6c2.16,0,4.35.07,6.48.14,4.23.14,8.6.28,12.84-.14h.1c6.11-.64,11.76-.63,16.8,0,1.35.17,4.15.52,5.52,2.53,1.02,1.5,1.02,3.64,0,5.2-.62.96-1.98,1.79-4.13,2.52-3.48,1.17-6.49,1.19-6.62,1.19-8.94-.02-18.03.02-26.82.05-6.93.03-13.99.06-21.07.06ZM40.04,144.74c-10.4.1-13.8.41-17.64,2.27-2.72,1.3-6.57,3.85-6.2,5.23.5,1.79,7.74,1.85,16.14,1.92,1.3,0,2.66.02,4.06.04,13.88.17,27.99.11,41.63.05,8.79-.04,17.88-.08,26.82-.05.12,0,2.97-.01,6.3-1.13,1.31-.45,3-1.17,3.61-2.12.81-1.23.81-2.91,0-4.09-1.12-1.64-3.62-1.95-4.82-2.1-4.96-.63-10.54-.63-16.57,0h-.1c-4.32.44-8.72.3-12.98.16-2.12-.07-4.3-.14-6.44-.14h-5.6c-3.73,0-7.46.01-11.19,0l-3.46-.02c-4.17-.02-8.1-.04-13.32.02h-.22s0,0,0,0Z"/>
  <path d="M53.24,169.05c-8.76,0-17.56-.03-26.29-.11-1.79-.02-3.52-.03-5.18-.04-14.05-.09-20.85-.24-21.69-2.62-.97-2.74,6.95-5.85,8.55-6.45,5.14-1.94,9.58-2.25,23.27-2.35h.22s0,0,0,0c6.56-.05,11.54-.04,16.81-.01l4.42.02c4.77.01,9.53,0,14.3,0h7.15c2.76,0,5.56.07,8.27.14,5.41.14,11,.28,16.44-.14h.13c7.78-.64,14.98-.63,21.4,0,1.69.17,5.21.51,6.93,2.49,1.33,1.52,1.33,3.7,0,5.29-.29.35-1.19,1.41-5.21,2.48-4.41,1.16-8.22,1.18-8.38,1.18-11.42-.02-23.03.02-34.26.05-8.86.03-17.87.06-26.92.06ZM31.68,158.49c-13.38.1-17.74.41-22.7,2.29-3.62,1.35-8.4,3.9-7.96,5.17.65,1.82,9.97,1.88,20.75,1.95,1.66,0,3.39.02,5.18.04,17.73.17,35.75.11,53.19.05,11.23-.04,22.84-.08,34.27-.05.15,0,3.83-.01,8.12-1.14,1.69-.45,3.88-1.19,4.69-2.16,1-1.2,1.01-2.84,0-3.99-1.46-1.68-4.71-2-6.27-2.15-6.36-.63-13.5-.63-21.23-.01h-.14c-5.49.44-11.11.29-16.54.15-2.71-.07-5.5-.14-8.25-.14h-7.15c-4.77,0-9.53.01-14.3,0l-4.43-.02c-5.32-.02-10.35-.04-17.02.02h-.22s0,0,0,0Z"/>
  <path d="M123.49,40.85c0-1.15-.55-2.18-1.23-3.05-1.34-1.7-3.14-3.24-5.13-4.04-1-.38-2.09-.53-3.21-.64-3.38-.27-6.84-.72-10.15-1.6-1.1-.31-2.2-.62-3.28-1.02,1.13.17,2.25.39,3.37.54,4.45.95,9.33.48,13.6,1.84,2.79,1.3,6.4,4.65,6.01,7.96h.02Z"/>
  <path d="M48.74,74.04c-.59,1.24.19,2.52.85,3.54,1.49,2.12,4.51,2.43,6.61,3.87,1.17.67,2.28,1.44,3.3,2.32-2.46-1.1-4.84-2.16-7.31-3.16-1.26-.5-2.65-1.33-3.26-2.62-.6-1.15-1.18-2.87-.19-3.95h0Z"/>
  <path d="M15.53,163.98c9.6-.68,19.3-.68,28.9,0-9.6.68-19.3.68-28.9,0h0Z"/>
  <path d="M236.25,123.04l-.18-.08-124.22-52.47-4.53,7.16-6,5-8.9,6.04-.56-.83,8.86-6.01,5.9-4.92,10.65-16.93,86.12,33.37,38.34,18.29.09,5.76-1.62,4.14-3.95,1.48ZM112.39,69.63l123.89,52.33,3.16-1.18,1.38-3.54-.07-4.94-37.75-18.01-85.32-33.06-5.28,8.4Z"/>
  <path d="M141.19,40.62c-2.08,0-4.1-1.05-5.11-1.57-8.12-4.21-14.11-8.12-19.4-11.56-6.46-4.21-11.57-7.54-17.31-9.12l-.07-.02c-2.47-.67-4.79-1.78-7.03-2.85-2.06-.98-4.2-2-6.41-2.66-1.12-.33-3.36-.99-3.7-2.55-.26-1.22.65-2.1,3.59-4.71,5.38-4.8,6.11-5.14,7.02-5.37,2.62-.64,4.87.28,7.05,1.17,10.96,4.52,14.47,6.54,14.61,6.62l.16.09c16.4,9.5,24.62,14.27,27.67,15.15l.18.05c1.98.57,6.1,1.76,6.86,4.65.16.63.17,1.4-1.21,4.59-1.97,4.56-2.96,6.85-4.85,7.68-.67.29-1.37.41-2.06.41ZM99.49,17.37l.07.02c5.92,1.62,11.1,4.99,17.66,9.26,5.27,3.43,11.24,7.32,19.31,11.51,1.22.63,4.07,2.11,6.31,1.14,1.53-.67,2.47-2.84,4.33-7.16,1.36-3.13,1.23-3.64,1.15-3.94-.61-2.34-4.51-3.46-6.17-3.94l-.19-.05c-3.16-.91-11.42-5.7-27.89-15.24l-.16-.09s-3.62-2.07-14.49-6.56c-2.03-.83-4.13-1.69-6.43-1.13-.71.18-1.51.62-6.6,5.15-2.54,2.26-3.41,3.11-3.27,3.75.21.98,2.14,1.55,2.96,1.79,2.33.69,4.5,1.72,6.6,2.72,2.19,1.04,4.44,2.12,6.8,2.77Z"/>
  <polygon points="117.89 60.88 117.04 60.36 124.53 48.06 126.49 41.2 126.49 33.77 127.49 33.77 127.47 41.4 125.42 48.53 117.89 60.88"/>
  <polygon points="63.99 72.77 62.99 72.77 63.01 63.33 65.19 53.85 81.24 25.71 84.53 22.53 89.85 19.42 96.82 16.8 97.17 17.74 90.28 20.32 85.09 23.36 81.99 26.38 66.09 54.28 63.99 63.49 63.99 72.77"/>
  <path d="M96.54,105.96c-1.9,0-3.64-.7-5.22-1.33-10.99-4.4-14.53-6.38-14.68-6.46l-.27-.15c-16.43-9.28-24.68-13.94-27.72-14.79l-.18-.05c-1.83-.5-6.13-1.69-6.91-4.58-.17-.63-.2-1.38,1.15-4.59,1.92-4.58,2.88-6.88,4.76-7.73,2.66-1.2,5.83.4,7.18,1.09,8.16,4.12,14.19,7.96,19.51,11.35,6.53,4.16,11.69,7.44,17.49,8.96h0c2.48.65,4.81,1.73,7.07,2.78,2.07.96,4.21,1.95,6.43,2.59,1.22.35,3.37.96,3.72,2.51.27,1.2-.63,2.1-3.53,4.75-5.35,4.87-6.07,5.22-6.97,5.45-.63.16-1.24.23-1.83.23ZM49.6,66.84c-.59,0-1.17.1-1.71.34-1.53.69-2.44,2.87-4.25,7.21-1.32,3.16-1.19,3.65-1.11,3.95.63,2.34,4.54,3.42,6.21,3.88l.18.05c3.15.88,11.44,5.56,27.94,14.88l.27.15s3.65,2.03,14.56,6.4c2.03.81,4.13,1.65,6.44,1.06.71-.18,1.5-.62,6.55-5.21,2.51-2.29,3.38-3.15,3.23-3.79-.22-.97-2.14-1.52-2.95-1.75-2.36-.68-4.54-1.69-6.64-2.66-2.22-1.03-4.51-2.09-6.9-2.72h0c-5.95-1.55-11.17-4.88-17.77-9.08-5.3-3.37-11.31-7.2-19.43-11.3-.93-.47-2.79-1.42-4.61-1.42Z"/>
</svg>