<?xml version="1.0" encoding="UTF-8"?>
<svg id="Layer_1" data-name="Layer 1" xmlns="http://www.w3.org/2000/svg" viewBox="0 0 98 98.27">
  <rect width="98" height="98" rx="11" ry="11" style="fill: #2c2d26;"/>
  <path d="M80.61,55.38h-17.59v42.89h-15.03v-42.89h-15.03v-8.32h15.03v-10.7c0-3.03.5-5.82,1.52-8.37,1.01-2.56,2.66-4.77,4.96-6.64,2.29-1.87,5.22-3.35,8.79-4.43s7.92-1.62,13.03-1.62c3.62,0,6.77.25,9.43.76l-1.76,8.75c-1.17-.22-2.35-.39-3.52-.54-1.17-.14-2.51-.22-4-.22-2.88,0-5.2.34-6.96,1.03s-3.12,1.6-4.08,2.75-1.6,2.47-1.92,3.94c-.32,1.48-.48,3.01-.48,4.59v10.7h17.59v8.32h.02Z" style="fill: #eaddb7;"/>
</svg>