<?xml version="1.0" encoding="UTF-8"?>
<svg id="Layer_2" data-name="Layer 2" xmlns="http://www.w3.org/2000/svg" viewBox="0 0 340.01 765.95">
  <path d="M215.43,453.66c-2.39.14-4.84.74-7.06,1.54-2.22.65-4.6-.24-6.15-2.02.94,2.42,4.01,3.75,6.42,2.98,2.33-.86,4.49-1.55,6.78-2.49h0Z" style="fill: #43489b;"/>
  <path d="M314.63,255.05c-1.48,2.37-.97,4.03,1.48,4.92,1.97.67,3.36,2.41,1.67,4.48-4.07,4.29-10.32-.75-13.1-3.96,2.96,2.22,7.3,5.68,11.2,4.21,1.27-.59,2.37-2.17,1.15-3.17-.8-.63-1.91-.98-2.73-1.71-1.6-1.25-1.03-3.44.31-4.78h0Z" style="fill: #43489b;"/>
  <path d="M35.06,489.93c1.83-.36,3.25-1.72,4.33-2.76,2.22-2.14,3.12-4.1,4.37-6.81.37-.82.79-1.71,1.28-2.72,1.51-3.08,3.39-6.92,6.5-11.01.79-1.04,1.53-1.93,2.18-2.72,1.98-2.38,3.3-3.96,2.95-6.2h0c-.22-1.43-1.06-2.8-2.5-4.07-1.11-.96-1.96-1.19-3.05-1.47-.72-.19-1.55-.41-2.66-.89-1.56-.68-2.29-1.31-2.99-1.91-.74-.64-1.44-1.25-2.95-1.74-1.2-.39-3.93-1.28-6.83-.57-3.3.81-5.2,3.53-8.35,8.02-3.59,5.13-5.13,9.13-6.75,13.36-1.39,3.65-2,5.97-1.56,8.72.14.88.48,2.94,1.95,4.87,1.01,1.32,1.95,1.75,3.23,2.33.91.42,2.05.93,3.63,1.94,1.4.89,2.3,1.62,3.01,2.21,1.13.92,1.81,1.47,3.13,1.51.37.01.72-.02,1.06-.09ZM55.71,457.86c.28,1.79-.86,3.15-2.73,5.4-.66.79-1.41,1.69-2.21,2.75-3.16,4.17-5.07,8.06-6.6,11.18-.5,1.01-.91,1.92-1.29,2.74-1.25,2.71-2.07,4.5-4.15,6.51-1.22,1.17-2.74,2.64-4.7,2.57-.99-.03-1.48-.42-2.54-1.29-.7-.57-1.65-1.35-3.11-2.28-1.64-1.04-2.81-1.58-3.75-2-1.28-.59-1.99-.91-2.85-2.04-1.32-1.72-1.63-3.61-1.76-4.41-.41-2.52.18-4.71,1.48-8.13,1.63-4.24,3.14-8.18,6.66-13.21,3.35-4.79,4.96-6.94,7.79-7.64,2.65-.64,5.18.18,6.27.54,1.35.44,1.95.96,2.64,1.56.72.62,1.54,1.33,3.24,2.07,1.18.52,2.08.75,2.8.94,1.04.27,1.72.46,2.63,1.24,1.28,1.13,2.01,2.29,2.19,3.48h0Z" style="fill: #43489b;"/>
  <path d="M32.65,488.86c.73-.67,1.87-1.79,3.12-3.31,1.77-2.16,2.61-3.74,3.99-6.36.69-1.31,1.56-2.95,2.76-5.06.72-1.27,1.06-1.81,1.47-2.49.47-.78,1.05-1.72,2.44-4.13.64-1.1,1.13-1.97,1.54-2.69,1-1.76,1.5-2.64,2.35-3.91,1.39-2.1,2.98-4.14,4.71-6.05l-.72-.68c-1.76,1.95-3.38,4.02-4.8,6.16-.87,1.3-1.37,2.19-2.39,3.97-.41.72-.9,1.59-1.54,2.68-1.38,2.4-1.96,3.34-2.43,4.11-.41.68-.75,1.23-1.48,2.51-1.21,2.13-2.07,3.77-2.77,5.09-1.4,2.65-2.18,4.11-3.88,6.19-1.21,1.48-2.32,2.56-3.03,3.21l.66.75Z" style="fill: #43489b;"/>
  <path d="M39.56,485.95c2.14,1.52,2.26,3.21.38,5.01-1.52,1.4-2.15,3.53.07,4.69,5.11,2.18,8.93-4.89,10.28-8.9-1.86,3.19-4.53,8.07-8.51,8.35-1.34-.01-2.86-.97-2.12-2.37.49-.89,1.36-1.65,1.83-2.64.99-1.78-.28-3.5-1.94-4.15h0Z" style="fill: #43489b;"/>
  <path d="M54.59,462.23c2.44,1.98,4.35.06,5.22-2.31.43-.99.95-2.03,1.76-2.09,5.14,1.03-.41,11.12-2.11,13.64,2.69-3.04,7.53-10.14,3.86-13.93-1.03-1.04-2.8-.78-3.49.49-1.3,2.44-1.62,6.07-5.25,4.21h0Z" style="fill: #43489b;"/>
  <path d="M293.46,674.51c4.97-.97,8.39-3.28,10.01-4.38,3.42-2.31,8.09-5.47,7.95-9.63-.07-2.14-1.37-3.84-2.31-5.07-.28-.37-.65-.85-.76-1.11.2.06.73.27,1.16.44,1.09.43,2.57,1.01,4.42,1.14.15,0,3.68.24,7.01-1.74,5.16-3.05,7.3-10.23,7.13-15.99-.05-1.68-.3-3.02-.53-4.2-.36-1.93-.63-3.33.29-4.97.41-.73.75-1.02,4.58-3.93l1.77-1.34c4.35-3.31,4.52-3.43,4.91-4.06,2.71-4.36-1.22-11.4-2.51-13.71-5.02-8.97-12.49-13.6-20.39-18.5-23.65-14.68-34.18-23.41-34.29-23.49-18.16-10.55-21.5-11.2-23.49-11.58-.8-.15-1.28-.25-2.49-.97-11.33-6.76-19.31-11.8-27.77-17.14l-1.31-.82c-31.15-19.68-46.79-29.56-50.34-32.23-.75-.56-18.47-13.84-25.17-14.32-1.84-.13-3.31-.67-4.43-1.63-1.36-1.16-1.88-2.63-2.16-3.42l-.05-.15c-2.21-6.07-9.46-9.76-12.18-11.15-2.86-1.45-5.27-2.01-12.29-2.88-12.17-1.51-21.52-1.85-21.92-1.86-4.4-.17-7.72-.21-10.64-.25-4.61-.06-8.58-.11-15.25-.61-1.58-.12-3.8-.03-5.77.05-1.46.06-2.85.12-3.47.06l-.08,1c.69.06,2.04.01,3.6-.05,1.94-.08,4.14-.17,5.66-.06,6.7.49,10.69.55,15.31.61,2.92.04,6.22.08,10.62.25.39.01,9.71.35,21.83,1.86,6.89.85,9.24,1.39,11.96,2.77,2.65,1.35,9.64,4.91,11.71,10.6l.05.15c.29.82.89,2.52,2.45,3.85,1.29,1.09,2.94,1.72,4.92,1.86,6.49.46,24.55,13.99,24.73,14.13,3.59,2.7,19.23,12.58,50.41,32.27l1.31.82c8.46,5.35,16.45,10.39,27.79,17.16,1.36.81,1.97.93,2.81,1.09,1.81.35,5.17,1,23.12,11.42.03.04,10.61,8.8,34.33,23.53,7.79,4.83,15.15,9.4,20.03,18.12,3.28,5.88,4.13,10.14,2.55,12.7-.29.47-.62.72-4.67,3.79l-1.77,1.34c-3.87,2.94-4.31,3.3-4.84,4.23-1.09,1.96-.79,3.59-.4,5.65.22,1.14.46,2.44.51,4.04.16,5.29-1.85,12.27-6.64,15.1-3.06,1.81-6.42,1.61-6.45,1.6-1.7-.12-3.11-.67-4.13-1.07-1.09-.43-1.87-.73-2.33-.16-.51.63.08,1.4.82,2.37.86,1.13,2.05,2.68,2.1,4.49.12,3.61-4.29,6.59-7.51,8.77-1.91,1.29-6.36,4.3-12.88,4.64-3.47.18-7.1-.44-10.22-1.75-3.34-1.41-5.26-3.16-7.68-5.39-.56-.52-1.15-1.05-1.78-1.61-3.23-2.85-7.06-5.32-14.7-10.25-1.84-1.19-2.4-1.5-9.27-5.35-3.12-1.75-7.55-4.23-13.99-7.85-4.88-2.74-8.61-5.38-12.88-9.11-2.08-1.81-2.98-3.11-3.94-4.47-.58-.83-1.18-1.69-2.07-2.71-4.48-5.16-8.74-7.23-15.18-10.36-2.47-1.2-5.27-2.56-8.53-4.31-2.46-1.32-3.16-1.78-4.86-2.9-1.77-1.15-4.72-3.09-11.95-7.49-26.86-16.34-40.33-24.54-44.34-26.21-.14-.06-14.26-5.95-17.77-12.08-.29-.51-.91-1.6-2.15-2.56-2.15-1.65-4.45-1.51-6.68-1.38-1.03.06-2.1.12-3.16.01-2.33-.24-3.37-1.15-7.26-4.56-1.22-1.07-2.71-2.38-4.6-3.97-4.8-4.05-7.09-5.68-8.61-6.76-1.42-1.01-2.2-1.56-3.81-3.23-3.05-3.15-5.44-7.3-10.2-15.57-2.08-3.61-3.6-6.43-4.94-8.92-2.3-4.28-4.12-7.66-7.55-12.79-.92-1.38-1.98-3.38-2.91-5.16-.88-1.67-1.64-3.11-2.16-3.81l-.78.6c.48.64,1.25,2.11,2.07,3.67.94,1.8,2.02,3.83,2.97,5.25,3.41,5.09,5.22,8.45,7.5,12.7,1.34,2.5,2.86,5.32,4.95,8.94,4.81,8.34,7.22,12.53,10.35,15.76,1.68,1.74,2.49,2.31,3.95,3.35,1.5,1.07,3.77,2.68,8.54,6.7,1.88,1.59,3.37,2.89,4.59,3.96,3.97,3.48,5.17,4.53,7.8,4.8,1.13.12,2.24.05,3.31-.01,2.15-.13,4.17-.25,6.03,1.18,1.08.83,1.63,1.8,1.86,2.21,3.71,6.47,17.69,12.31,18.28,12.55,3.94,1.64,18.24,10.34,44.21,26.14,7.21,4.39,10.16,6.32,11.92,7.47,1.73,1.13,2.44,1.6,4.94,2.94,3.28,1.76,6.09,3.12,8.56,4.33,6.33,3.07,10.52,5.1,14.86,10.11.85.98,1.44,1.82,2.01,2.63,1,1.42,1.93,2.76,4.1,4.66,4.32,3.78,8.1,6.45,13.05,9.23,6.44,3.62,10.87,6.1,13.99,7.85,6.85,3.83,7.41,4.15,9.21,5.31,7.6,4.9,11.42,7.36,14.59,10.16.63.56,1.21,1.09,1.77,1.6,2.5,2.29,4.47,4.1,7.97,5.57,3.26,1.36,7.04,2.01,10.65,1.82,1.18-.06,2.3-.21,3.35-.41Z" style="fill: #43489b;"/>
  <path d="M149.93,487.72c-7.37,6.88-13.46,16.41-19.04,24.86-8.85,12.9-17.85,26.12-22.66,41.26-.54,1.67-1,3.37-1.49,5.05.59-1.65,1.13-3.32,1.74-4.96,5.42-14.86,14.44-27.83,23.15-40.83,5.72-8.75,11.07-17.77,18.29-25.38h.01Z" style="fill: #43489b;"/>
  <path d="M255.65,551.83c-14.51,23.28-29.94,49.42-43.34,73.4,14.51-23.29,29.95-49.43,43.34-73.4h0Z" style="fill: #43489b;"/>
  <path d="M327.4,628.74c-2.21.92-4.34,2.29-6.18,3.78-1.89,1.35-4.42,1.28-6.44.1,1.65,1.99,4.97,2.24,7,.73,1.92-1.58,3.75-2.95,5.62-4.59h0Z" style="fill: #43489b;"/>
  <path d="M307.95,653.56c-2.21.92-4.34,2.29-6.18,3.78-1.89,1.35-4.42,1.28-6.44.1,1.65,1.99,4.97,2.24,7,.73,1.92-1.58,3.75-2.95,5.62-4.59h0Z" style="fill: #43489b;"/>
  <path d="M247.52,552.05c-7.39,11.37-13.14,23.73-20.72,34.97,8.57-10.26,14.6-23.11,20.72-34.97h0Z" style="fill: #43489b;"/>
  <path d="M135.05,522.23c-7.41,11.07-15.73,22.5-20.62,35.03,6.19-12.1,14.22-23.05,20.62-35.03h0Z" style="fill: #43489b;"/>
  <path d="M1,593.52l.69-.35c-.57.02-1.13-.05-1.69-.21,5.02,5.17,11.6,9.06,18.36,12.46,7.33,3.69,6.66,3.09,14.4,4.35,3.25.53,6.49,1.79,9.74,2.39,8.75,1.61,18.25,1.89,27,4.05,2.06.51,15.56,4.65,16.48,5.24,1.17.76,2.07,3.2,4.06,2.29-1.04-1.64-3.59-3.73-5.6-4.55-1.76-.71-3.78-.58-5.71-1.12-4.96-1.39-8.28-3.13-13.92-4.14-15.31-2.75-34.4-3.36-48.25-10.65-3.01-1.59-10.43-5.72-12.32-7.2-1.01-.79-1.68-2.1-3.25-2.57Z" style="fill: #43489b;"/>
  <path d="M132.22,745.66c-.64-6.29,5.15-11.76,11.98-11.72,3.11.02,6.94,1.32,9.16,4.05,2.37,2.93,8.19,13.5,8.66,16.56,1.16,7.56-10.88,15.27-18.48,9.21-5.21-4.15-10.75-12.55-11.31-18.11ZM142.71,759.13c1.09,2.6,4.85,3.58,7.13,2.82,1.65,0,4.04-.06,4.35-.12,4.39-.85,5.19-8.99,3.04-13.2-4.51-8.82-8.38-13.66-17.73-10.1-3.95,1.5-5.02,7.44-3.23,11.63.51,1.19,4.82,7.34,6.44,8.98Z" style="fill: #43489b;"/>
  <path d="M105.66,37.94c1-.19,1.93-.59,2.71-.91,2.7-1.14,4.16-2.57,6.19-4.55.61-.6,1.28-1.25,2.06-1.98,2.38-2.22,5.35-4.98,9.5-7.55,1.05-.65,2.01-1.19,2.86-1.66,2.58-1.44,4.28-2.39,4.73-4.51h0c.28-1.35,0-2.87-.87-4.5-.67-1.24-1.36-1.73-2.23-2.36-.58-.42-1.24-.89-2.07-1.71-1.16-1.14-1.6-1.94-2.02-2.72-.45-.83-.88-1.61-2.06-2.57-.94-.76-3.08-2.49-5.92-2.86-3.23-.41-5.84,1.35-10.16,4.26-4.93,3.33-7.65,6.36-10.52,9.56-2.46,2.76-3.79,4.62-4.32,7.21-.17.83-.56,2.79.11,5.01.46,1.53,1.15,2.23,2.11,3.2.67.68,1.51,1.53,2.59,2.97.95,1.28,1.51,2.23,1.95,2.99.7,1.21,1.12,1.94,2.3,2.43,1.04.44,2.09.43,3.07.24ZM132.74,16.56c-.35,1.68-1.82,2.49-4.24,3.85-.86.48-1.83,1.02-2.9,1.69-4.23,2.62-7.23,5.42-9.65,7.66-.79.73-1.46,1.39-2.07,1.99-2.02,1.98-3.35,3.29-5.88,4.35-1.48.62-3.33,1.39-5.04.67-.87-.36-1.17-.88-1.82-2.01-.43-.75-1.03-1.77-2.01-3.09-1.12-1.49-1.99-2.37-2.68-3.08-.95-.96-1.47-1.49-1.86-2.78-.6-1.98-.24-3.75-.09-4.51.48-2.37,1.74-4.12,4.04-6.7,2.87-3.2,5.54-6.19,10.38-9.45,4.6-3.1,6.75-4.46,9.5-4.1,2.57.33,4.56,1.94,5.41,2.63,1.05.85,1.39,1.48,1.83,2.28.44.8.93,1.71,2.2,2.96.89.87,1.61,1.39,2.19,1.8.83.6,1.38.99,1.92,2,.76,1.43,1.02,2.71.79,3.83h0Z" style="fill: #43489b;"/>
  <path d="M101.78,36.2c.89-.35,2.28-.95,3.9-1.87,2.3-1.31,3.58-2.43,5.7-4.28,1.06-.93,2.38-2.08,4.16-3.55,1.07-.88,1.55-1.25,2.14-1.71.68-.53,1.52-1.17,3.57-2.83.93-.75,1.66-1.35,2.27-1.85,1.49-1.22,2.23-1.83,3.42-2.67,1.95-1.39,4.05-2.65,6.23-3.75l-.44-.9c-2.22,1.12-4.36,2.41-6.35,3.83-1.21.86-1.97,1.48-3.47,2.71-.61.5-1.34,1.09-2.27,1.85-2.04,1.65-2.87,2.29-3.55,2.82-.6.46-1.08.84-2.17,1.73-1.8,1.48-3.12,2.64-4.19,3.57-2.14,1.87-3.32,2.9-5.54,4.16-1.57.89-2.92,1.48-3.78,1.81l.36.93Z" style="fill: #43489b;"/>
  <path d="M108.92,35.98c1.4,2.08.94,3.63-1.34,4.59-1.83.73-3.11,2.4-1.51,4.19,3.84,3.69,9.61-1.27,12.17-4.37-2.74,2.2-6.75,5.61-10.4,4.49-1.19-.47-2.23-1.85-1.1-2.83.74-.63,1.77-1,2.52-1.72,1.48-1.24.93-3.21-.34-4.36h0Z" style="fill: #43489b;"/>
  <path d="M130.3,20.06c1.51,2.6,3.87,1.55,5.44-.26.72-.73,1.53-1.48,2.28-1.25,4.25,2.69-4.1,9.74-6.46,11.4,3.43-1.78,10.13-6.42,8.12-11.05-.57-1.28-2.24-1.66-3.28-.77-1.98,1.72-3.48,4.84-6.1,1.93h0Z" style="fill: #43489b;"/>
  <path d="M281.47,290.73c.57-.11,1.05-.22,1.45-.31,3.83-.88,9.07-2.08,10.34-5.84.66-1.93.07-3.89-.36-5.32-.12-.41-.28-.93-.31-1.21.16.14.54.48.85.76.83.75,1.96,1.78,3.57,2.54.13.06,3.22,1.48,6.85.87,5.67-.97,9.97-6.59,11.74-11.78.52-1.51.74-2.79.94-3.91.33-1.91.56-3.17,1.91-4.3.61-.5,1.01-.65,5.4-1.92l1.99-.57c5.04-1.45,5.23-1.51,5.79-1.93,3.89-2.95,2.74-10.56,2.36-13.06-1.48-9.71-6.6-16.4-12.02-23.47-16.2-21.18-22.68-32.55-22.75-32.67-12.69-15.63-15.45-17.35-17.11-18.38-.66-.41-1.05-.66-1.89-1.72-7.88-9.93-13.31-17.14-19.05-24.78l-.9-1.19c-21.23-28.19-31.88-42.35-34.16-45.94-.48-.76-11.87-18.65-17.7-21.39-1.6-.75-2.72-1.73-3.4-2.96-.82-1.49-.79-2.97-.78-3.76v-.16c.06-6.17-5.18-11.94-7.15-14.12-2.07-2.27-4.03-3.6-10.02-6.79-10.35-5.52-18.61-9.04-18.95-9.19-3.87-1.66-6.82-2.84-9.42-3.88-4.09-1.64-7.63-3.05-13.42-5.78-1.37-.65-3.4-1.33-5.18-1.94-1.32-.45-2.58-.87-3.12-1.14l-.42.9c.6.3,1.82.71,3.24,1.19,1.76.6,3.75,1.27,5.08,1.9,5.82,2.74,9.37,4.16,13.48,5.81,2.59,1.04,5.53,2.21,9.4,3.87.35.15,8.56,3.66,18.88,9.16,5.87,3.12,7.78,4.41,9.74,6.57,1.91,2.1,6.95,7.66,6.9,13.43v.15c-.02.83-.05,2.55.9,4.27.78,1.42,2.06,2.55,3.78,3.35,5.64,2.64,17.23,20.87,17.35,21.05,2.3,3.63,12.96,17.79,34.2,46.01l.89,1.19c5.75,7.64,11.18,14.87,19.07,24.8.95,1.2,1.45,1.51,2.15,1.94,1.5.93,4.28,2.67,16.81,18.09.02.04,6.53,11.47,22.78,32.71,5.34,6.97,10.38,13.55,11.82,22.98.96,6.35.29,10.42-1.97,12.14-.42.31-.8.42-5.48,1.77l-1.99.57c-4.45,1.29-4.96,1.45-5.75,2.1-1.64,1.37-1.91,2.92-2.25,4.9-.19,1.09-.41,2.33-.9,3.76-1.63,4.75-5.72,10.24-10.98,11.12-3.33.56-6.26-.78-6.29-.79-1.47-.69-2.54-1.66-3.33-2.37-.83-.76-1.43-1.31-2.06-.95-.68.39-.41,1.29-.07,2.42.39,1.3.93,3.07.37,4.7-1.1,3.24-6.03,4.37-9.63,5.2-2.13.49-7.11,1.63-13.05-.31-3.15-1.03-6.18-2.83-8.53-5.06-2.51-2.39-3.63-4.61-5.05-7.42-.33-.65-.67-1.33-1.05-2.05-1.93-3.65-4.53-7.17-9.7-14.17-1.25-1.69-1.65-2.16-6.53-7.99-2.2-2.62-5.31-6.34-9.82-11.73-3.44-4.12-5.89-7.75-8.45-12.52-1.25-2.32-1.62-3.78-2.02-5.33-.24-.94-.49-1.91-.94-3.13-2.27-6.13-5.38-9.43-10.09-14.43-1.8-1.91-3.85-4.08-6.17-6.76-1.75-2.02-2.23-2.67-3.37-4.24-1.19-1.63-3.18-4.37-8.16-10.76-18.51-23.75-27.8-35.68-30.82-38.54-.11-.1-10.74-10.19-11.82-16.83-.09-.56-.28-1.74-1.07-3.02-1.37-2.21-3.48-2.89-5.52-3.53-.94-.3-1.91-.61-2.82-1.07-1.99-1.01-2.62-2.18-4.94-6.54-.73-1.37-1.63-3.05-2.78-5.11-2.93-5.26-4.43-7.49-5.43-8.97-.93-1.38-1.44-2.14-2.32-4.18-1.66-3.84-2.41-8.35-3.89-17.33-.65-3.92-1.06-6.95-1.42-9.62-.62-4.6-1.11-8.23-2.46-13.96-.36-1.54-.63-3.69-.87-5.58-.22-1.78-.42-3.33-.65-4.13l-.94.28c.21.73.41,2.3.62,3.97.24,1.92.52,4.1.89,5.69,1.34,5.69,1.83,9.3,2.44,13.86.36,2.68.77,5.72,1.42,9.65,1.5,9.07,2.25,13.62,3.96,17.57.92,2.12,1.45,2.91,2.41,4.34.98,1.46,2.47,3.68,5.38,8.89,1.15,2.06,2.04,3.73,2.77,5.1,2.38,4.46,3.1,5.81,5.37,6.96.98.5,1.99.82,2.97,1.13,1.96.62,3.8,1.21,4.98,3.11.68,1.1.85,2.15.92,2.59,1.15,7.04,11.68,17.04,12.13,17.46,2.96,2.81,12.82,15.46,30.72,38.43,4.97,6.38,6.96,9.11,8.14,10.74,1.16,1.6,1.65,2.26,3.43,4.31,2.34,2.7,4.39,4.87,6.2,6.79,4.62,4.91,7.68,8.15,9.88,14.09.43,1.17.68,2.11.91,3.03.41,1.6.8,3.12,2.11,5.55,2.59,4.84,5.07,8.52,8.56,12.69,4.51,5.4,7.62,9.11,9.82,11.73,4.87,5.81,5.27,6.28,6.49,7.94,5.14,6.97,7.73,10.46,9.62,14.04.37.71.71,1.38,1.04,2.03,1.46,2.9,2.62,5.18,5.25,7.7,2.46,2.33,5.62,4.21,8.91,5.28,5.09,1.67,9.48,1.16,12.11.65Z" style="fill: #43489b;"/>
  <path d="M206.92,75.5c-8.89,3.58-17.53,9.96-25.34,15.55-12.23,8.42-24.7,17.08-34.08,28.87-1.04,1.3-2.02,2.65-3.03,3.98,1.08-1.27,2.12-2.56,3.21-3.81,9.82-11.34,22.23-19.77,34.37-28.33,8.05-5.81,15.85-11.99,24.85-16.26h.01Z" style="fill: #43489b;"/>
  <path d="M279.85,168.82c-20.76,15.7-43.32,33.62-63.33,50.32,20.77-15.71,43.33-33.63,63.33-50.32h0Z" style="fill: #43489b;"/>
  <path d="M292.46,277.21c-2.28.06-4.65.55-6.79,1.23-2.14.55-4.38-.38-5.79-2.13.81,2.33,3.69,3.7,6.01,3.05,2.25-.75,4.34-1.33,6.56-2.15h0Z" style="fill: #43489b;"/>
  <path d="M272.51,166.22c-10.41,7.56-19.69,16.57-30.23,23.95,11.1-6.17,20.79-15.52,30.23-23.95h0Z" style="fill: #43489b;"/>
  <path d="M182.05,101.04c-10.33,7.29-21.6,14.59-30.16,24.04,9.59-8.62,20.43-15.59,30.16-24.04h0Z" style="fill: #43489b;"/>
  <path d="M99.66,179.41c1.83-.36,3.35-1.01,5.37-1.88.82-.35,1.71-.73,2.74-1.14,3.15-1.26,7.07-2.83,12.07-3.83,1.27-.26,2.4-.43,3.4-.59,3.03-.47,5.03-.79,6.25-2.58.79-1.15,1.07-2.65.85-4.45-.18-1.38-.67-2.07-1.28-2.94-.41-.58-.87-1.23-1.36-2.26-.69-1.43-.81-2.31-.93-3.17-.13-.92-.24-1.78-1.03-3.07-.63-1.02-2.05-3.33-4.67-4.6-2.97-1.45-6.15-.68-11.44.58-6.03,1.44-9.8,3.34-13.79,5.35-3.42,1.73-5.4,3-6.88,5.22-.48.72-1.6,2.39-1.78,4.67-.13,1.58.28,2.46.84,3.67.4.85.89,1.91,1.39,3.59.44,1.49.62,2.55.76,3.4.22,1.31.36,2.18,1.33,3.02,1.69,1.5,4.09,1.38,5.85,1.29.85-.04,1.61-.14,2.33-.28ZM119.94,171.51c-.1.02-.2.04-.3.06-5.08,1.02-9.05,2.61-12.23,3.88-1.04.41-1.94.8-2.76,1.15-2.71,1.16-4.5,1.93-7.37,2.08-1.68.08-3.76.19-5.15-1.05-.7-.61-.79-1.18-1-2.43-.14-.83-.33-1.97-.79-3.53-.52-1.75-1.03-2.85-1.44-3.73-.55-1.19-.86-1.85-.75-3.16.16-2.02,1.18-3.54,1.61-4.19,1.37-2.04,3.25-3.24,6.46-4.86,3.99-2.01,7.71-3.89,13.64-5.3,5.64-1.35,8.24-1.89,10.79-.65,2.36,1.15,3.68,3.29,4.24,4.2.69,1.13.79,1.82.91,2.7.12.89.26,1.9,1.02,3.47.53,1.1,1.04,1.82,1.45,2.4.58.82.96,1.36,1.1,2.46.19,1.57-.03,2.83-.68,3.78h0c-.98,1.44-2.72,1.72-5.6,2.17-.93.15-1.97.31-3.14.54Z" style="fill: #43489b;"/>
  <path d="M96.68,176.14c2.2-.43,3.77-1.01,6.19-1.89,1.38-.51,3.1-1.14,5.38-1.9,1.38-.46,1.98-.64,2.73-.87.86-.26,1.91-.58,4.52-1.43,1.19-.39,2.13-.7,2.91-.96,1.9-.63,2.85-.95,4.32-1.33,2.41-.64,4.93-1.11,7.46-1.41l-.12-.99c-2.58.3-5.14.78-7.6,1.43-1.49.39-2.46.71-4.37,1.35-.78.26-1.71.57-2.9.96-2.59.85-3.64,1.17-4.5,1.43-.76.23-1.37.41-2.76.88-2.3.77-4.02,1.41-5.41,1.91-2.78,1.02-4.31,1.59-6.95,2.02-1.86.3-3.39.4-4.35.43l.03,1c.99-.03,2.57-.12,4.48-.44.33-.05.64-.11.94-.17Z" style="fill: #43489b;"/>
  <path d="M98.24,178.89c.57,2.39-.46,3.67-3.03,3.79-2.04.07-3.91,1.18-3.05,3.37,2.33,4.68,9.8,2,13.45-.01-3.48,1.12-8.66,2.95-11.78.71-.98-.83-1.46-2.44,0-2.98.95-.33,2.09-.34,3.09-.75,1.9-.65,2.11-2.65,1.32-4.13h0Z" style="fill: #43489b;"/>
  <path d="M124.98,171.26c.49,2.9,3.17,2.71,5.37,1.56.97-.44,2.04-.86,2.68-.4,3.11,3.89-7.65,7.64-10.56,8.39,3.99-.51,12.24-2.58,12.04-7.52-.07-1.37-1.54-2.27-2.89-1.79-2.56.93-5.2,3.31-6.65-.23h0Z" style="fill: #43489b;"/>
  <path d="M198.87,470.59c4.37-.85,8.58-3.75,11.32-6.88,1.07-1.22,1.77-2.33,2.39-3.3,1.01-1.6,1.74-2.75,3.5-3.36.79-.27,1.24-.27,5.98.01l2.21.13c5.25.31,5.57.33,6.26.13,4.86-1.43,6.61-8.83,7.19-11.27,2.23-9.46-.22-17.33-2.8-25.66-7.72-24.9-9.71-37.55-9.73-37.67-6.41-18.64-8.45-21.15-9.67-22.65-.48-.59-.77-.95-1.18-2.2-3.88-11.74-6.43-20.21-9.13-29.18l-.43-1.43c-9.94-33.02-14.93-49.6-15.78-53.67-.18-.86-4.47-21.16-9.1-25.62-1.26-1.21-1.97-2.48-2.17-3.83-.24-1.64.35-2.99.67-3.72l.06-.15c2.39-5.69-.52-12.76-1.62-15.43-1.15-2.78-2.55-4.66-7.16-9.59-7.98-8.55-14.63-14.5-14.91-14.75-3.13-2.82-5.54-4.88-7.67-6.7-3.35-2.87-6.24-5.34-10.83-9.77-1.09-1.05-2.79-2.35-4.29-3.5-1.12-.85-2.17-1.66-2.59-2.09l-.69.71c.47.47,1.5,1.26,2.69,2.18,1.48,1.13,3.15,2.41,4.2,3.42,4.61,4.46,7.51,6.94,10.87,9.81,2.12,1.82,4.53,3.87,7.65,6.68.28.25,6.89,6.18,14.85,14.69,4.51,4.82,5.87,6.64,6.96,9.28,1.06,2.57,3.85,9.36,1.62,14.65l-.06.14c-.33.76-1.02,2.34-.74,4.26.23,1.58,1.04,3.05,2.41,4.37,4.46,4.3,8.82,24.94,8.87,25.15.86,4.11,5.85,20.7,15.8,53.75l.43,1.43c2.7,8.98,5.25,17.45,9.13,29.2.47,1.43.84,1.88,1.36,2.52,1.1,1.35,3.14,3.87,9.47,22.25,0,.04,2,12.74,9.75,37.73,2.54,8.19,4.95,15.93,2.79,25.1-.55,2.32-2.2,9.3-6.52,10.57-.52.15-.93.13-5.93-.17l-2.21-.13c-4.71-.28-5.35-.3-6.34.04-2.09.72-2.93,2.06-4.01,3.76-.6.94-1.27,2.01-2.29,3.18-3.38,3.86-9.48,7.58-14.89,6.66-3.44-.59-5.78-2.79-5.8-2.81-1.17-1.12-1.84-2.37-2.32-3.28-.52-.98-.9-1.69-1.63-1.56h-.02c-.76.15-.83,1.06-.93,2.2-.11,1.32-.26,3.14-1.41,4.46-2.3,2.64-7.52,2.06-11.34,1.63-2.26-.25-7.52-.84-12.55-4.6-3.41-2.55-5.34-5.48-6.36-7.48-1.53-3.03-1.77-5.45-2.09-8.51-.07-.71-.15-1.45-.24-2.24-.5-4-1.68-8.1-4.05-16.26-.58-2-.79-2.57-3.31-9.51-1.14-3.15-2.77-7.63-5.12-14.15-1.78-4.94-2.79-9.09-3.47-14.34-.33-2.55-.15-4.02.05-5.58.12-.95.24-1.93.27-3.2.11-6.42-1.66-10.5-4.34-16.68-1.03-2.36-2.19-5.04-3.43-8.28-.94-2.44-1.15-3.2-1.67-5.03-.54-1.9-1.44-5.09-3.86-12.63-8.99-28.05-13.5-42.14-15.35-45.78-.07-.13-6.56-12.94-5.11-19.42.12-.5.39-1.7.11-3.16-.5-2.51-2.3-3.83-4.03-5.11-.8-.59-1.63-1.19-2.33-1.92-1.54-1.58-1.7-2.87-2.31-7.65-.19-1.51-.43-3.35-.76-5.64-.86-5.82-1.47-8.38-1.88-10.07-.38-1.58-.59-2.45-.67-4.62-.17-4.09.81-8.5,2.76-17.28.85-3.84,1.59-6.77,2.25-9.35,1.13-4.45,2.03-7.96,2.88-13.71.23-1.54.78-3.61,1.26-5.43.46-1.73.85-3.22.93-4.04l-.98-.1c-.07.74-.47,2.26-.9,3.88-.49,1.85-1.04,3.95-1.28,5.54-.85,5.69-1.74,9.18-2.86,13.6-.66,2.59-1.41,5.53-2.26,9.38-1.97,8.87-2.95,13.32-2.78,17.54.09,2.27.31,3.17.7,4.82.4,1.68,1.01,4.21,1.86,9.99.33,2.28.57,4.11.76,5.62.61,4.79.82,6.4,2.59,8.23.76.78,1.62,1.41,2.45,2.03,1.66,1.22,3.22,2.37,3.64,4.49.24,1.24,0,2.26-.09,2.69-1.54,6.88,4.91,19.61,5.19,20.15,1.81,3.56,6.6,18.5,15.29,45.62,2.41,7.53,3.31,10.7,3.84,12.6.53,1.87.75,2.64,1.7,5.12,1.25,3.26,2.42,5.95,3.45,8.32,2.63,6.05,4.37,10.05,4.26,16.25-.02,1.22-.14,2.17-.26,3.09-.21,1.62-.4,3.15-.05,5.83.69,5.33,1.71,9.55,3.52,14.56,2.35,6.52,3.98,11,5.12,14.15,2.51,6.91,2.71,7.47,3.27,9.41,2.36,8.15,3.54,12.22,4.03,16.14.1.78.17,1.51.24,2.22.33,3.16.58,5.66,2.19,8.86,1.07,2.1,3.08,5.17,6.65,7.83,5.24,3.92,10.68,4.53,13.01,4.79,4.04.45,9.55,1.07,12.19-1.96,1.37-1.57,1.54-3.65,1.65-5.03.03-.42.08-.97.16-1.23.15.19.39.62.58.98.52.97,1.23,2.3,2.51,3.53.1.1,2.56,2.43,6.31,3.07,1.47.25,2.97.2,4.46-.09Z" style="fill: #43489b;"/>
  <path d="M178.35,247.77c-9.97.37-20.75,3.4-30.43,5.98-15.03,3.74-30.39,7.6-43.93,15.39-1.5.86-2.96,1.78-4.43,2.67,1.52-.81,3.03-1.66,4.55-2.46,13.8-7.22,29-10.91,44-14.79,9.99-2.71,19.89-5.83,30.23-6.8h.01Z" style="fill: #43489b;"/>
  <path d="M213.87,358.04c-26.05,7.63-54.68,16.73-80.37,25.53,26.06-7.64,54.69-16.73,80.37-25.53h0Z" style="fill: #43489b;"/>
  <path d="M249.78,572.19c-2.24-.87-4.73-1.36-7.08-1.56-2.29-.33-4.11-2.15-4.8-4.41-.12,2.59,2.15,5.08,4.66,5.4,2.48.19,4.74.47,7.21.58h0Z" style="fill: #43489b;"/>
  <path d="M185.22,462.28c-2.23-.7-4.71-1.03-7.05-1.11-2.28-.2-4.1-1.8-4.81-3.88-.1,2.42,2.18,4.64,4.68,4.81,2.46.05,4.71.21,7.17.18h0Z" style="fill: #43489b;"/>
  <path d="M207.73,353.21c-12.95,3.54-25.34,8.79-38.34,12.12,13.08-2.03,26.01-7.45,38.34-12.12h0Z" style="fill: #43489b;"/>
  <path d="M144.61,263.13c-12.76,3.31-26.44,6.33-38.31,12.23,12.55-4.79,25.69-7.64,38.31-12.23h0Z" style="fill: #43489b;"/>
</svg>