<?xml version="1.0" encoding="UTF-8"?>
<svg xmlns="http://www.w3.org/2000/svg" viewBox="0 0 360.8 816.22">
  <g id="Layer_1" data-name="Layer 1">
    <path d="M159.59,584.51c2.42-.32,5-.2,7.37.15,2.35.22,4.56-1.12,5.76-3.16-.47,2.55-3.28,4.45-5.84,4.16-2.5-.4-4.8-.66-7.28-1.14h0Z" style="fill: #43489b;"/>
    <path d="M21.44,408.6c1.94,2.04,1.76,3.77-.52,5.11-1.84,1.04-2.89,3.01-.79,4.71,4.92,3.43,10.19-2.72,12.34-6.4-2.53,2.74-6.2,6.97-10.39,6.28-1.39-.34-2.8-1.67-1.77-2.89.68-.78,1.72-1.33,2.4-2.2,1.36-1.54.36-3.57-1.25-4.63h0Z" style="fill: #43489b;"/>
    <path d="M347.25,585.54c-1.9,0-3.59-1.06-4.87-1.88-2.64-1.67-3.92-3.42-5.7-5.85-.53-.73-1.12-1.53-1.81-2.42-2.12-2.73-4.75-6.14-8.66-9.56-.99-.87-1.91-1.6-2.72-2.25-2.45-1.96-4.07-3.25-4.17-5.52h0c-.06-1.44.52-2.95,1.71-4.47.92-1.15,1.73-1.54,2.76-2.03.69-.33,1.47-.7,2.49-1.39,1.43-.97,2.03-1.72,2.62-2.45.62-.77,1.2-1.5,2.61-2.27,1.12-.61,3.69-2.01,6.72-1.87,3.46.16,5.9,2.46,9.93,6.27,4.6,4.34,6.92,7.98,9.37,11.82,2.1,3.31,3.17,5.47,3.26,8.25.03.89.1,2.98-1,5.15-.76,1.49-1.61,2.09-2.78,2.91-.83.58-1.87,1.31-3.25,2.6-1.23,1.15-1.98,2.03-2.59,2.74-.95,1.12-1.52,1.79-2.84,2.08-.37.08-.73.12-1.08.12ZM320.31,558.02c.07,1.81,1.47,2.93,3.79,4.78.82.65,1.74,1.39,2.75,2.28,3.98,3.49,6.65,6.94,8.79,9.7.7.9,1.29,1.71,1.83,2.44,1.78,2.42,2.95,4.02,5.43,5.59,1.45.92,3.26,2.06,5.2,1.63.99-.22,1.4-.7,2.29-1.75.59-.69,1.39-1.64,2.67-2.83,1.44-1.34,2.51-2.09,3.36-2.69,1.17-.82,1.82-1.27,2.46-2.54.99-1.94.92-3.85.9-4.67-.08-2.55-1.1-4.59-3.07-7.69-2.46-3.85-4.74-7.43-9.25-11.69-4.29-4.06-6.32-5.86-9.29-6-2.77-.12-5.15,1.17-6.17,1.73-1.26.69-1.76,1.32-2.34,2.04-.6.75-1.28,1.6-2.84,2.65-1.08.73-1.94,1.14-2.62,1.46-.98.47-1.63.78-2.39,1.72-1.06,1.35-1.56,2.64-1.51,3.84h0Z" style="fill: #43489b;"/>
    <path d="M349.46,584.02c-.87-.52-2.22-1.4-3.77-2.65-2.2-1.78-3.34-3.17-5.24-5.48-.95-1.15-2.14-2.59-3.75-4.44-.97-1.11-1.41-1.58-1.96-2.16-.63-.67-1.39-1.49-3.25-3.59-.85-.96-1.52-1.71-2.07-2.34-1.35-1.53-2.02-2.3-3.12-3.39-1.81-1.8-3.79-3.49-5.89-5.03l.59-.81c2.15,1.57,4.17,3.3,6.01,5.13,1.12,1.11,1.8,1.89,3.17,3.43.55.63,1.22,1.38,2.07,2.34,1.85,2.09,2.61,2.9,3.24,3.57.55.59.99,1.06,1.98,2.18,1.62,1.86,2.81,3.3,3.77,4.46,1.92,2.33,2.98,3.62,5.1,5.33,1.5,1.22,2.82,2.07,3.66,2.57l-.51.86Z" style="fill: #43489b;"/>
    <path d="M341.97,582.5c-1.84,1.9-1.64,3.59.6,4.99,1.79,1.09,2.84,3.05.85,4.62-4.69,3.12-9.89-3.09-12.03-6.76,2.49,2.78,6.12,7.05,10.15,6.56,1.34-.27,2.67-1.5,1.66-2.73-.67-.78-1.68-1.36-2.35-2.24-1.34-1.55-.41-3.49,1.13-4.45h0Z" style="fill: #43489b;"/>
    <path d="M322.28,562.09c-2.05,2.41-4.35.89-5.68-1.26-.63-.89-1.35-1.82-2.17-1.71-4.95,2,2.59,10.84,4.78,12.99-3.29-2.47-9.52-8.51-6.59-12.93.82-1.22,2.65-1.31,3.59-.19,1.78,2.14,2.81,5.65,6.08,3.12h0Z" style="fill: #43489b;"/>
    <path d="M124.64,816.22c-5.16,0-9.04-1.62-10.88-2.38-3.88-1.62-9.17-3.82-9.84-7.93-.35-2.11.62-4.03,1.32-5.42.21-.42.49-.96.55-1.24-.19.1-.67.4-1.08.65-1,.63-2.38,1.48-4.2,1.97-.15.04-3.64.94-7.36-.36-5.76-2.01-9.31-8.64-10.26-14.33-.28-1.66-.29-3.02-.29-4.22-.01-1.97-.02-3.39-1.26-4.82-.55-.63-.95-.86-5.35-2.98l-2.03-.98c-5-2.41-5.2-2.5-5.71-3.04-3.56-3.76-1-11.42-.16-13.94,3.28-9.77,9.84-15.74,16.8-22.07,20.8-18.94,29.65-29.53,29.73-29.63,16.12-13.84,19.33-15.11,21.25-15.87.77-.3,1.23-.49,2.31-1.43,10.02-8.8,17.03-15.29,24.45-22.15l1.15-1.06c27.34-25.28,41.07-37.98,44.1-41.28.64-.7,15.79-17.12,22.4-18.88,1.82-.48,3.18-1.29,4.12-2.45,1.14-1.39,1.37-2.94,1.49-3.77l.02-.16c1.03-6.38,7.56-11.39,10.02-13.28,2.58-1.97,4.88-2.99,11.75-5.18,11.88-3.81,21.19-5.94,21.58-6.03,4.37-1.01,7.68-1.69,10.6-2.29,4.6-.94,8.57-1.76,15.15-3.52,1.56-.42,3.8-.75,5.79-1.05,1.48-.22,2.87-.43,3.49-.61l.28.96c-.68.2-2.04.4-3.62.64-1.96.29-4.17.63-5.68,1.03-6.61,1.77-10.6,2.58-15.21,3.53-2.91.6-6.22,1.27-10.58,2.28-.39.09-9.65,2.21-21.5,6.01-6.73,2.16-8.98,3.14-11.43,5.01-2.39,1.83-8.69,6.66-9.65,12.65l-.02.15c-.13.86-.39,2.64-1.7,4.25-1.08,1.32-2.61,2.25-4.56,2.76-6.41,1.7-21.84,18.44-22,18.61-3.06,3.34-16.79,16.04-44.16,41.34l-1.15,1.06c-7.42,6.87-14.43,13.35-24.46,22.17-1.21,1.06-1.79,1.29-2.6,1.61-1.74.69-4.98,1.97-20.91,15.64-.03.04-8.91,10.67-29.77,29.67-6.85,6.24-13.33,12.12-16.51,21.62-2.13,6.4-2.16,10.75-.07,12.95.38.4.76.58,5.42,2.83l2.03.98c4.45,2.15,4.96,2.41,5.67,3.23,1.48,1.71,1.49,3.37,1.5,5.47,0,1.16.02,2.48.28,4.06.88,5.22,4.25,11.69,9.6,13.55,3.42,1.19,6.74.35,6.77.34,1.68-.44,2.98-1.25,3.93-1.85,1-.63,1.73-1.08,2.31-.6.64.52.2,1.39-.36,2.49-.64,1.27-1.52,3.02-1.23,4.81.59,3.56,5.58,5.64,9.23,7.16,2.17.9,7.21,3,13.8,2.08,3.51-.49,7.02-1.79,9.89-3.67,3.07-2.02,4.64-4.11,6.63-6.76.46-.61.94-1.25,1.47-1.93,2.67-3.42,6.03-6.58,12.71-12.88,1.61-1.52,2.11-1.93,8.24-7.03,2.78-2.31,6.73-5.6,12.47-10.39,4.35-3.63,7.57-6.93,11.11-11.41,1.73-2.18,2.38-3.62,3.07-5.15.42-.93.86-1.89,1.54-3.06,3.48-5.93,7.33-8.77,13.17-13.07,2.24-1.65,4.77-3.52,7.7-5.86,2.2-1.77,2.82-2.35,4.3-3.77,1.54-1.47,4.12-3.94,10.5-9.64,23.69-21.18,35.58-31.82,39.27-34.22.13-.08,13.11-8.57,15.43-15.26.19-.56.6-1.75,1.65-2.92,1.83-2.03,4.16-2.34,6.42-2.63,1.04-.14,2.13-.28,3.16-.59,2.28-.68,3.15-1.78,6.37-5.87,1.01-1.29,2.25-2.86,3.83-4.78,4.01-4.9,5.99-6.93,7.3-8.28,1.22-1.26,1.9-1.95,3.19-3.9,2.43-3.67,4.02-8.21,7.17-17.23,1.38-3.94,2.34-7,3.2-9.7,1.47-4.64,2.62-8.31,5.06-14,.65-1.53,1.32-3.7,1.91-5.62.55-1.8,1.03-3.36,1.42-4.15l.9.44c-.35.72-.84,2.31-1.36,4-.59,1.94-1.27,4.15-1.94,5.72-2.42,5.64-3.57,9.29-5.03,13.91-.85,2.71-1.82,5.77-3.21,9.73-3.18,9.11-4.78,13.68-7.28,17.45-1.34,2.03-2.04,2.75-3.3,4.05-1.3,1.33-3.25,3.35-7.24,8.22-1.57,1.92-2.8,3.49-3.82,4.77-3.29,4.18-4.29,5.44-6.87,6.21-1.11.33-2.23.48-3.32.62-2.17.29-4.23.56-5.81,2.31-.92,1.02-1.28,2.08-1.43,2.53-2.45,7.06-15.3,15.47-15.85,15.82-3.62,2.36-16.24,13.65-39.15,34.13-6.36,5.69-8.94,8.15-10.47,9.62-1.51,1.44-2.13,2.04-4.37,3.83-2.94,2.36-5.48,4.23-7.73,5.89-5.74,4.23-9.53,7.02-12.9,12.77-.66,1.13-1.09,2.06-1.5,2.97-.72,1.58-1.4,3.08-3.2,5.36-3.59,4.53-6.85,7.88-11.26,11.56-5.74,4.79-9.69,8.07-12.47,10.39-6.1,5.08-6.6,5.49-8.19,6.98-6.65,6.27-9.99,9.41-12.62,12.77-.52.67-1,1.3-1.46,1.91-2.05,2.73-3.67,4.88-6.89,7-2.99,1.96-6.65,3.32-10.3,3.83-1.2.17-2.34.24-3.43.24Z" style="fill: #43489b;"/>
    <path d="M231.82,605.38c8.73,5.34,16.69,13.53,23.92,20.75,11.38,10.97,22.98,22.22,30.76,36.15.87,1.54,1.66,3.11,2.48,4.67-.91-1.51-1.78-3.04-2.71-4.54-8.33-13.54-19.89-24.55-31.16-35.64-7.44-7.5-14.56-15.32-23.28-21.4h-.01Z" style="fill: #43489b;"/>
    <path d="M138.51,688.57c19.07,20.07,39.64,42.77,57.74,63.73-19.08-20.08-39.65-42.78-57.74-63.73h0Z" style="fill: #43489b;"/>
    <path d="M81.72,777.81c2.39.48,4.79,1.42,6.93,2.52,2.15.96,4.67.41,6.47-1.14-1.27,2.27-4.54,3.15-6.87,2.05-2.24-1.19-4.33-2.17-6.52-3.43h0Z" style="fill: #43489b;"/>
    <path d="M106.04,798.44c2.39.48,4.79,1.42,6.93,2.52,2.15.96,4.67.41,6.47-1.14-1.27,2.27-4.54,3.15-6.87,2.05-2.24-1.19-4.33-2.17-6.52-3.43h0Z" style="fill: #43489b;"/>
    <path d="M146.7,687.23c9.62,9.74,17.79,20.77,27.58,30.35-10.59-8.42-19.13-19.88-27.58-30.35h0Z" style="fill: #43489b;"/>
    <path d="M253.47,636.4c9.58,9.44,20.15,19.07,27.49,30.43-8.56-10.69-18.74-19.9-27.49-30.43h0Z" style="fill: #43489b;"/>
    <path d="M134.81,34.04l-.73.45c.57-.04,1.13.03,1.67.2-4.46-6.1-10.62-10.59-17.03-14.5-6.94-4.23-6.34-3.53-13.97-4.81-3.2-.54-6.32-1.96-9.51-2.59-8.6-1.68-18.11-1.7-26.65-4.04-2.01-.55-15.1-5.13-15.95-5.82-1.09-.88-1.72-3.81-3.82-2.65.86,1.96,3.18,4.4,5.11,5.32,1.68.81,3.73.58,5.6,1.17,4.82,1.52,7.96,3.53,13.5,4.58,15.06,2.85,34.16,2.97,47.24,11.36,2.84,1.82,9.83,6.6,11.56,8.32.92.92,1.45,2.49,2.97,3.01Z" style="fill: #43489b;"/>
    <path d="M64.82,584.81c-2.03-7.51-9.46-12.95-15.54-11.71-2.76.56-5.64,2.75-6.49,6.35-.91,3.85-1.71,17.29-.86,20.98,2.1,9.09,16.03,16.08,20.3,7.64,2.93-5.79,4.39-16.62,2.59-23.26ZM61.04,602.47c.11,3.24-2.84,5.05-5.19,4.55-1.47.28-3.63.63-3.93.61-4.27-.23-8.35-9.67-8.18-15,.37-11.16,1.81-17.52,11.63-14.95,4.15,1.09,7.56,7.88,7.7,13.12.04,1.49-1.26,9.47-2.03,11.67Z" style="fill: #43489b;"/>
    <path d="M246.69,184.51c-4.22-4.17-11.48-4.84-15.32-1.62-1.75,1.46-2.97,4.05-2.24,6.77.78,2.91,5.19,12.13,7.15,14.24,4.85,5.19,17.28,4.32,17.18-2.96-.07-4.99-3.04-12.74-6.77-16.43ZM250.55,197.7c1.27,2.1-.14,4.47-1.99,5.07-.94.77-2.34,1.85-2.55,1.96-3.1,1.53-9.49-3.1-11.33-6.7-3.87-7.53-5.2-12.32,2.69-14.5,3.33-.92,8.26,2.23,10.3,5.65.58.97,2.61,6.77,2.89,8.53Z" style="fill: #43489b;"/>
  </g>
  <g id="Layer_2" data-name="Layer 2">
    <path d="M188.2,155.46c-1.04,0-2.04-.2-2.9-.38-2.92-.6-4.67-1.72-7.08-3.28-.73-.47-1.52-.98-2.44-1.54-2.82-1.72-6.33-3.86-10.98-5.59-1.18-.44-2.25-.78-3.19-1.08-2.86-.92-4.75-1.52-5.61-3.52h0c-.55-1.27-.55-2.81,0-4.58.43-1.34,1.02-1.96,1.77-2.75.5-.52,1.07-1.12,1.74-2.07.94-1.34,1.22-2.21,1.49-3.06.29-.9.56-1.75,1.56-2.91.79-.92,2.6-3.04,5.37-3.94,3.16-1.03,6.11.2,11.01,2.23,5.59,2.32,8.9,4.77,12.4,7.37,3.01,2.24,4.7,3.8,5.73,6.25.33.79,1.11,2.63.87,4.94-.17,1.59-.72,2.41-1.49,3.54-.54.8-1.22,1.79-2.01,3.41-.71,1.44-1.07,2.48-1.37,3.31-.47,1.32-.75,2.12-1.83,2.82-.96.63-2.01.83-3.03.83ZM156.91,139.66c.68,1.58,2.31,2.1,5,2.96.95.31,2.03.65,3.23,1.1,4.75,1.76,8.3,3.93,11.16,5.67.93.57,1.73,1.09,2.46,1.56,2.41,1.56,4,2.58,6.74,3.14,1.61.33,3.6.73,5.18-.31.8-.52,1-1.08,1.43-2.32.29-.82.68-1.93,1.41-3.42.83-1.68,1.52-2.71,2.08-3.53.76-1.12,1.18-1.74,1.32-3.08.21-2.06-.49-3.73-.79-4.45-.94-2.24-2.54-3.71-5.36-5.8-3.5-2.6-6.76-5.01-12.24-7.28-5.21-2.16-7.62-3.08-10.31-2.21-2.5.82-4.18,2.78-4.9,3.62-.88,1.04-1.1,1.72-1.38,2.59-.28.87-.6,1.86-1.63,3.33-.72,1.02-1.34,1.67-1.84,2.19-.71.75-1.19,1.24-1.53,2.33-.48,1.55-.49,2.86-.04,3.91h0Z" style="fill: #43489b;"/>
    <path d="M191.74,153.01c-.96-.17-2.47-.5-4.27-1.09-2.56-.84-4.06-1.69-6.54-3.11-1.24-.71-2.79-1.59-4.86-2.69-1.24-.66-1.8-.93-2.48-1.26-.79-.39-1.75-.86-4.12-2.1-1.08-.56-1.93-1.01-2.64-1.38-1.73-.91-2.59-1.37-3.94-1.97-2.23-.99-4.57-1.83-6.97-2.49l.27-.96c2.45.67,4.84,1.53,7.11,2.54,1.38.61,2.26,1.07,4,2,.71.37,1.55.82,2.63,1.38,2.37,1.23,3.32,1.7,4.1,2.08.69.34,1.25.61,2.51,1.28,2.09,1.11,3.64,1.99,4.89,2.7,2.51,1.43,3.89,2.21,6.36,3.03,1.75.57,3.21.89,4.13,1.05l-.17.98Z" style="fill: #43489b;"/>
    <path d="M184.56,154.16c-.99,2.31-.23,3.75,2.24,4.24,1.97.36,3.58,1.76,2.33,3.82-3.12,4.36-9.87.59-13.04-1.96,3.17,1.63,7.86,4.21,11.29,2.41,1.1-.69,1.87-2.24.55-2.99-.86-.47-1.96-.65-2.86-1.2-1.72-.93-1.56-2.97-.52-4.34h0Z" style="fill: #43489b;"/>
    <path d="M160.04,142.64c-1.01,2.84-3.57,2.26-5.49.79-.86-.58-1.82-1.16-2.52-.79-3.73,3.45,6.01,8.78,8.69,9.95-3.78-1.09-11.39-4.36-10.29-9.29.32-1.36,1.91-2.06,3.14-1.38,2.32,1.31,4.43,4.08,6.49.73h0Z" style="fill: #43489b;"/>
    <path d="M61.61,437.26c-.59,0-1.1-.02-1.51-.03-4.01-.13-9.49-.31-11.5-3.75-1.04-1.77-.83-3.8-.68-5.29.04-.42.1-.97.07-1.24-.13.17-.44.57-.7.91-.68.9-1.62,2.13-3.08,3.17-.12.08-2.93,2.07-6.69,2.17-5.86.14-11.27-4.56-14.06-9.31-.81-1.38-1.29-2.59-1.71-3.66-.71-1.81-1.18-3-2.76-3.86-.71-.38-1.14-.44-5.78-.85l-2.1-.18c-5.33-.46-5.53-.48-6.18-.78-4.47-2.15-4.81-9.84-4.92-12.37-.41-9.82,3.4-17.36,7.44-25.34,12.08-23.89,16.35-36.3,16.39-36.42,9.65-17.77,12.08-19.99,13.53-21.32.58-.53.93-.85,1.56-2.05,5.95-11.25,9.97-19.38,14.23-27.97l.66-1.34c15.74-31.74,23.64-47.67,25.21-51.64.33-.84,8.23-20.58,13.54-24.38,1.46-1.04,2.38-2.22,2.82-3.56.53-1.62.21-3.06.04-3.84l-.04-.16c-1.26-6.04,2.86-12.72,4.41-15.23,1.62-2.62,3.33-4.31,8.7-8.58,9.29-7.4,16.86-12.44,17.18-12.65,3.55-2.38,6.27-4.1,8.67-5.62,3.78-2.39,7.04-4.46,12.31-8.25,1.25-.9,3.14-1.96,4.81-2.9,1.24-.69,2.41-1.35,2.9-1.72l.6.8c-.54.41-1.68,1.05-3.01,1.79-1.64.92-3.51,1.97-4.71,2.84-5.29,3.81-8.57,5.88-12.36,8.28-2.39,1.52-5.11,3.23-8.65,5.6-.32.21-7.86,5.23-17.11,12.6-5.26,4.19-6.92,5.82-8.47,8.32-1.5,2.43-5.46,8.85-4.28,14.5l.03.15c.18.81.55,2.49-.07,4.37-.51,1.54-1.56,2.89-3.13,4.01-5.13,3.68-13.17,23.78-13.25,23.98-1.59,4-9.5,19.95-25.25,51.71l-.66,1.34c-4.26,8.61-8.29,16.73-14.24,28-.72,1.36-1.16,1.76-1.77,2.32-1.32,1.2-3.76,3.44-13.3,20.98,0,.05-4.29,12.51-16.41,36.47-3.98,7.86-7.74,15.29-7.34,24.82.28,6.41,1.75,10.28,4.35,11.54.48.23.88.26,5.83.69l2.1.18c4.7.41,5.25.47,6.17.96,1.91,1.03,2.48,2.5,3.21,4.37.4,1.03.86,2.2,1.64,3.52,2.56,4.35,7.73,8.95,13.17,8.81,3.44-.09,6.11-1.96,6.14-1.98,1.34-.96,2.22-2.12,2.87-2.97.69-.9,1.17-1.56,1.88-1.32.76.26.67,1.18.54,2.36-.14,1.35-.33,3.19.54,4.68,1.73,2.97,6.89,3.13,10.66,3.25,2.23.07,7.44.24,13-2.81,2.96-1.61,5.64-3.96,7.55-6.6,2.04-2.83,2.73-5.22,3.6-8.25.2-.7.41-1.43.65-2.21,1.22-3.95,3.13-7.9,6.94-15.77.92-1.89,1.23-2.44,4.98-9.09,1.69-3,4.08-7.24,7.54-13.4,2.64-4.7,4.38-8.73,6.01-13.91.79-2.52.88-4.02.98-5.61.06-.97.12-1.97.33-3.25,1.08-6.46,3.54-10.29,7.28-16.1,1.43-2.22,3.05-4.75,4.86-7.82,1.36-2.32,1.71-3.05,2.55-4.81.87-1.83,2.33-4.9,6.07-12.13,13.89-26.86,20.86-40.35,23.32-43.73.09-.12,8.76-12.06,8.54-18.78-.02-.57-.06-1.77.48-3.17.94-2.43,2.92-3.5,4.84-4.53.88-.48,1.8-.97,2.62-1.59,1.79-1.37,2.19-2.64,3.67-7.36.46-1.49,1.03-3.3,1.78-5.55,1.91-5.72,2.97-8.2,3.68-9.84.66-1.53,1.02-2.38,1.51-4.55.91-4.08.78-8.65.51-17.76-.12-3.97-.3-7.02-.46-9.72-.28-4.63-.5-8.29-.27-14.17.06-1.58-.09-3.74-.22-5.65-.12-1.79-.23-3.35-.15-4.18l1,.09c-.07.75.04,2.34.16,4.02.13,1.93.28,4.12.22,5.75-.23,5.84,0,9.47.27,14.08.16,2.7.35,5.76.46,9.75.27,9.19.41,13.8-.53,18.01-.5,2.26-.88,3.14-1.56,4.72-.7,1.63-1.76,4.08-3.65,9.76-.75,2.24-1.31,4.05-1.78,5.53-1.51,4.84-1.97,6.29-4.01,7.86-.88.67-1.83,1.18-2.75,1.68-1.84.99-3.57,1.92-4.38,4.01-.47,1.21-.43,2.27-.41,2.72.23,7.13-8.37,18.96-8.73,19.46-2.42,3.32-9.81,17.63-23.24,43.6-3.73,7.22-5.19,10.27-6.05,12.1-.85,1.79-1.21,2.53-2.59,4.89-1.82,3.09-3.44,5.62-4.88,7.86-3.67,5.7-6.09,9.47-7.14,15.72-.21,1.23-.26,2.2-.32,3.15-.1,1.65-.19,3.22-1.02,5.85-1.65,5.25-3.41,9.33-6.09,14.1-3.46,6.16-5.85,10.4-7.54,13.4-3.74,6.63-4.04,7.17-4.95,9.04-3.79,7.82-5.69,11.75-6.89,15.63-.24.77-.44,1.5-.64,2.19-.9,3.12-1.61,5.59-3.75,8.56-2,2.76-4.8,5.21-7.89,6.89-4.77,2.61-9.27,2.96-12,2.96Z" style="fill: #43489b;"/>
    <path d="M94.17,211.73c9.61,1.81,19.49,6.41,28.41,10.4,13.89,5.92,28.07,12.02,39.76,21.8,1.3,1.08,2.54,2.21,3.81,3.32-1.33-1.04-2.63-2.11-3.96-3.13-12.05-9.25-26.12-15.14-39.94-21.21-9.19-4.16-18.21-8.73-28.06-11.2h-.01Z" style="fill: #43489b;"/>
    <path d="M39.4,317.31c23.86,11.43,49.94,24.7,73.24,37.25-23.87-11.43-49.95-24.7-73.24-37.25h0Z" style="fill: #43489b;"/>
    <path d="M47.97,426.1c2.29-.38,4.76-.36,7.04-.09,2.25.13,4.31-1.22,5.38-3.2-.35,2.45-2.97,4.34-5.42,4.15-2.4-.3-4.6-.47-6.98-.85h0Z" style="fill: #43489b;"/>
    <path d="M46.24,313.34c11.9,5.43,22.96,12.49,34.95,17.71-12.31-3.93-23.85-11.24-34.95-17.71h0Z" style="fill: #43489b;"/>
    <path d="M124.06,232.04c11.76,5.17,24.47,10.18,34.9,17.82-11.28-6.63-23.5-11.39-34.9-17.82h0Z" style="fill: #43489b;"/>
    <path d="M221.86,293.15c-1.9,0-3.56-.35-5.75-.81-.88-.19-1.86-.39-2.96-.6-3.4-.63-7.63-1.42-12.83-1.45-1.32-.02-2.49.04-3.52.07-3.13.12-5.19.19-6.76-1.34-1.01-.98-1.59-2.4-1.72-4.2-.08-1.39.26-2.16.71-3.13.29-.64.62-1.38.92-2.47.41-1.54.36-2.43.31-3.29-.05-.92-.11-1.8.43-3.21.43-1.12,1.41-3.66,3.77-5.41,2.69-1.99,6.03-1.85,11.56-1.63,6.32.25,10.47,1.4,14.86,2.61,3.76,1.04,5.99,1.91,7.91,3.8.62.61,2.07,2.04,2.69,4.24.44,1.52.2,2.46-.13,3.76-.23.91-.52,2.05-.69,3.79-.15,1.55-.12,2.62-.1,3.49.04,1.33.06,2.2-.74,3.22-1.4,1.79-3.83,2.14-5.6,2.39-.86.12-1.64.17-2.38.17ZM200.02,289.29c.1,0,.21,0,.32,0,5.29.03,9.57.83,13.01,1.47,1.12.21,2.1.42,2.99.6,2.94.62,4.89,1.03,7.78.63,1.69-.24,3.8-.54,4.96-2.01.58-.73.56-1.31.53-2.58-.02-.84-.06-2,.1-3.61.18-1.82.48-3,.71-3.94.32-1.28.5-1.98.14-3.24-.56-1.95-1.87-3.25-2.44-3.8-1.77-1.74-3.88-2.55-7.42-3.54-4.39-1.21-8.48-2.34-14.69-2.59-5.91-.24-8.62-.28-10.92,1.43-2.13,1.58-3.04,3.93-3.42,4.94-.47,1.24-.43,1.94-.38,2.82.05.9.11,1.91-.34,3.61-.32,1.18-.68,1.98-.98,2.63-.42.92-.69,1.52-.62,2.63.11,1.58.59,2.77,1.42,3.58h0c1.27,1.23,3.06,1.16,6.03,1.06.96-.04,2.04-.08,3.25-.08Z" style="fill: #43489b;"/>
    <path d="M224.21,289.38c-2.28,0-3.97-.27-6.56-.67-1.48-.23-3.32-.52-5.76-.84-1.47-.19-2.11-.25-2.9-.33-.91-.09-2.03-.2-4.8-.54-1.27-.15-2.27-.28-3.1-.39-2.02-.26-3.04-.39-4.58-.48-2.54-.16-5.15-.15-7.75.05l-.08-1c2.64-.2,5.3-.22,7.88-.05,1.57.1,2.6.23,4.64.49.83.11,1.83.23,3.1.39,2.76.34,3.87.45,4.78.54.8.08,1.45.14,2.93.33,2.45.32,4.3.61,5.79.84,2.99.47,4.63.73,7.35.65,1.92-.06,3.47-.26,4.44-.42l.16.99c-1,.16-2.6.37-4.57.43-.34,0-.66.01-.97.01Z" style="fill: #43489b;"/>
    <path d="M223.18,292.37c-.11,2.45,1.17,3.51,3.77,3.14,2.06-.33,4.15.41,3.71,2.72-1.41,5.04-9.42,3.84-13.46,2.57,3.7.44,9.25,1.23,11.93-1.56.82-1,.99-2.68-.59-2.92-1.02-.14-2.16.06-3.24-.14-2.03-.28-2.63-2.2-2.13-3.8h0Z" style="fill: #43489b;"/>
    <path d="M194.93,290.01c.08,2.94-2.64,3.27-5.07,2.56-1.06-.24-2.21-.46-2.76.12-2.35,4.41,9.15,6.03,12.21,6.21-4.1.27-12.76-.19-13.53-5.07-.2-1.36,1.1-2.53,2.55-2.32,2.75.42,5.85,2.26,6.61-1.5h0Z" style="fill: #43489b;"/>
    <path d="M179.47,597.96c-4.55,0-9.33-2.04-12.68-4.58-1.31-1-2.23-1.95-3.03-2.78-1.32-1.37-2.28-2.37-4.16-2.62-.84-.11-1.29-.02-5.98,1.16l-2.19.55c-5.2,1.31-5.51,1.39-6.24,1.33-5.14-.47-8.35-7.4-9.4-9.68-4.08-8.86-3.17-17.05-2.21-25.72,2.86-25.92,2.38-38.71,2.38-38.84,2.78-19.52,4.32-22.38,5.25-24.08.36-.67.58-1.08.75-2.38,1.59-12.26,2.49-21.07,3.43-30.39l.15-1.49c3.49-34.32,5.25-51.54,5.3-55.7.01-.88.34-21.62,4.1-26.89,1.03-1.43,1.49-2.81,1.42-4.18-.08-1.65-.93-2.87-1.39-3.52l-.09-.13c-3.5-5.12-1.97-12.63-1.4-15.45.61-2.95,1.64-5.07,5.29-10.78,6.32-9.92,11.81-17.04,12.04-17.34,2.58-3.37,4.59-5.85,6.37-8.04,2.79-3.45,5.21-6.44,8.93-11.67.88-1.24,2.33-2.84,3.61-4.26.95-1.05,1.85-2.05,2.19-2.54l.83.56c-.38.55-1.25,1.53-2.27,2.65-1.26,1.39-2.69,2.97-3.54,4.17-3.74,5.26-6.16,8.25-8.97,11.72-1.77,2.19-3.78,4.67-6.35,8.03-.23.3-5.69,7.38-11.99,17.26-3.57,5.59-4.58,7.64-5.15,10.44-.55,2.72-2.02,9.92,1.24,14.69l.09.12c.48.68,1.47,2.1,1.57,4.04.08,1.6-.45,3.19-1.56,4.75-3.63,5.07-3.96,26.17-3.96,26.38-.06,4.2-1.81,21.44-5.31,55.78l-.15,1.49c-.95,9.33-1.84,18.13-3.43,30.41-.19,1.49-.48,2.01-.87,2.73-.83,1.54-2.39,4.4-5.13,23.65,0,.04.49,12.89-2.38,38.9-.94,8.53-1.84,16.58,2.12,25.17,1,2.17,4.02,8.7,8.59,9.12.55.05.96-.05,5.91-1.3l2.19-.55c4.66-1.18,5.3-1.32,6.36-1.18,2.23.3,3.34,1.46,4.75,2.92.78.81,1.67,1.73,2.92,2.68,4.13,3.14,10.97,5.63,16.21,3.68,3.33-1.24,5.24-3.84,5.26-3.87.95-1.32,1.37-2.68,1.68-3.67.33-1.06.58-1.83,1.32-1.85h.03c.79,0,1.04.87,1.36,1.97.37,1.28.87,3.03,2.28,4.11,2.82,2.15,7.94.58,11.67-.57,2.21-.68,7.36-2.27,11.66-6.92,2.92-3.15,4.28-6.4,4.9-8.56.93-3.27.71-5.69.43-8.75-.07-.71-.13-1.45-.19-2.24-.29-4.02.1-8.27.88-16.73.19-2.08.29-2.67,1.45-9.97.53-3.31,1.28-8.01,2.36-14.87.82-5.19,1.01-9.46.67-14.74-.17-2.57-.64-3.97-1.14-5.46-.31-.91-.62-1.85-.89-3.09-1.37-6.28-.39-10.63,1.09-17.2.57-2.52,1.21-5.37,1.82-8.79.46-2.58.53-3.36.69-5.26.17-1.97.44-5.27,1.39-13.14,3.52-29.26,5.28-43.94,6.42-47.87.04-.14,4.04-13.96,1.32-20.04-.21-.47-.73-1.6-.73-3.08,0-2.56,1.55-4.2,3.04-5.79.69-.73,1.39-1.48,1.96-2.33,1.23-1.85,1.15-3.14.82-7.95-.1-1.52-.23-3.37-.34-5.68-.28-5.88-.16-8.51-.09-10.25.07-1.62.11-2.52-.23-4.66-.63-4.05-2.48-8.19-6.14-16.43-1.6-3.6-2.92-6.34-4.08-8.75-2-4.15-3.59-7.43-5.56-12.9-.53-1.46-1.48-3.39-2.32-5.09-.79-1.61-1.48-3-1.72-3.79l.96-.29c.21.71.92,2.13,1.66,3.63.85,1.72,1.82,3.68,2.37,5.19,1.96,5.42,3.53,8.68,5.52,12.8,1.17,2.42,2.49,5.16,4.1,8.78,3.7,8.32,5.56,12.5,6.22,16.68.35,2.24.31,3.17.24,4.86-.08,1.72-.19,4.33.09,10.16.11,2.3.24,4.15.34,5.66.33,4.82.43,6.44-.99,8.57-.61.91-1.35,1.7-2.06,2.46-1.42,1.51-2.76,2.94-2.77,5.11,0,1.27.43,2.22.62,2.62,2.89,6.46-1.08,20.19-1.25,20.77-1.12,3.85-2.99,19.42-6.39,47.71-.94,7.85-1.22,11.14-1.38,13.1-.16,1.93-.23,2.73-.7,5.35-.62,3.44-1.26,6.3-1.83,8.83-1.45,6.44-2.41,10.7-1.09,16.77.26,1.19.57,2.1.86,2.99.52,1.55,1.02,3.02,1.19,5.72.35,5.36.16,9.7-.68,14.96-1.08,6.85-1.83,11.55-2.36,14.87-1.16,7.26-1.25,7.86-1.44,9.86-.77,8.45-1.16,12.67-.88,16.61.06.78.12,1.52.19,2.22.29,3.17.52,5.67-.46,9.12-.66,2.27-2.08,5.67-5.13,8.96-4.48,4.85-9.81,6.49-12.09,7.19-3.95,1.22-9.35,2.88-12.58.42-1.67-1.27-2.25-3.29-2.64-4.62-.12-.41-.27-.94-.4-1.17-.12.21-.27.68-.39,1.07-.33,1.05-.78,2.49-1.83,3.95-.08.12-2.09,2.88-5.72,4.22-1.42.53-2.94.76-4.48.76Z" style="fill: #43489b;"/>
    <path d="M156.45,375.33c10.06-1.55,21.44-.64,31.64.04,15.78.78,31.91,1.64,46.99,6.69,1.67.55,3.31,1.18,4.96,1.77-1.68-.51-3.35-1.05-5.04-1.54-15.23-4.44-31.17-5.14-46.94-6.09-10.53-.74-21.05-1.91-31.59-.88h-.01Z" style="fill: #43489b;"/>
    <path d="M142.45,490.37c27.57,2.5,58.01,5.94,85.46,9.65-27.58-2.5-58.02-5.94-85.46-9.65h0Z" style="fill: #43489b;"/>
    <path d="M148.37,707.42c2.07-1.28,4.47-2.24,6.78-2.89,2.23-.77,3.69-2.89,3.95-5.25.62,2.52-1.16,5.4-3.61,6.19-2.44.66-4.65,1.37-7.11,1.95h0Z" style="fill: #43489b;"/>
    <path d="M191.52,587.18c2.1-1.12,4.51-1.92,6.84-2.44,2.25-.63,3.75-2.55,4.06-4.73.57,2.36-1.28,4.97-3.74,5.61-2.45.53-4.67,1.1-7.14,1.55h0Z" style="fill: #43489b;"/>
    <path d="M147.65,484.45c13.65.99,27.09,3.77,40.76,4.55-13.49.52-27.49-2.33-40.76-4.55h0Z" style="fill: #43489b;"/>
    <path d="M193.24,383.94c13.42.81,27.71,1.14,40.74,4.66-13.5-2.3-27.21-2.58-40.74-4.66h0Z" style="fill: #43489b;"/>
  </g>
</svg>