<?xml version="1.0" encoding="UTF-8"?>
<svg id="Layer_2" data-name="Layer 2" xmlns="http://www.w3.org/2000/svg" viewBox="0 0 149.05 365.48">
  <path d="M15.14,32.94c-.7,0-1.37-.15-2.04-.5h0c-1.32-.68-2.38-1.95-3.13-3.79-.57-1.4-.5-2.33-.42-3.49.06-.78.12-1.67.02-2.93-.14-1.77-.51-2.7-.87-3.59-.38-.94-.73-1.83-.71-3.48.02-1.31.07-4.31,1.73-6.96,1.9-3.02,5.19-4.03,10.64-5.71C26.58.56,31.01.33,35.69.08c4.03-.21,6.5-.07,9.04,1.26.81.42,2.72,1.42,4.1,3.51.95,1.43,1.05,2.44,1.2,3.96.1,1.04.23,2.34.68,4.24.4,1.69.82,2.81,1.15,3.71.52,1.41.83,2.26.42,3.58-.72,2.36-2.95,3.56-4.58,4.43-2.83,1.52-5.05,1.78-8.12,2.14-.92.11-1.94.23-3.09.4-3.52.51-7.9,1.15-12.96,2.91-1.28.45-2.4.9-3.39,1.29-2.01.81-3.57,1.43-5,1.43ZM38.27,1c-.75,0-1.56.03-2.45.07-4.69.25-9.06.48-15.17,2.36-5.82,1.79-8.46,2.69-10.09,5.29-1.52,2.41-1.56,5.21-1.58,6.41-.02,1.48.29,2.25.64,3.13.37.92.78,1.96.94,3.88.11,1.34.04,2.31-.02,3.08-.08,1.12-.13,1.86.33,3.02.67,1.64,1.57,2.74,2.68,3.31h0c1.67.85,3.38.16,6.21-.98,1-.4,2.13-.86,3.43-1.31,5.15-1.8,9.58-2.44,13.15-2.96,1.16-.17,2.18-.29,3.11-.4,3.07-.36,5.1-.6,7.77-2.03,1.56-.84,3.5-1.88,4.1-3.85.31-1,.08-1.61-.41-2.94-.32-.88-.76-2.08-1.18-3.82-.47-1.97-.6-3.3-.7-4.37-.14-1.47-.22-2.28-1.03-3.5-1.24-1.87-2.99-2.78-3.73-3.17-1.78-.93-3.57-1.22-6-1.22Z" style="fill: #eaddb7;"/>
  <path d="M10.84,29.9l-.41-.91c2.49-1.13,5.06-2.06,7.64-2.78,1.56-.44,2.61-.66,4.69-1.1.84-.18,1.85-.39,3.13-.66,2.8-.6,3.92-.87,4.83-1.09.81-.19,1.46-.35,2.96-.66,2.49-.51,4.39-.85,5.91-1.12,3.06-.54,4.75-.84,7.36-1.86,1.85-.73,3.28-1.48,4.16-1.97l.5.87c-.9.52-2.38,1.29-4.29,2.04-2.7,1.06-4.53,1.39-7.55,1.92-1.52.27-3.41.6-5.88,1.11-1.49.31-2.13.46-2.93.66-.92.22-2.04.49-4.86,1.1-1.28.28-2.29.49-3.13.66-2.06.43-3.09.65-4.63,1.08-2.53.71-5.05,1.63-7.5,2.73Z" style="fill: #eaddb7;"/>
  <g>
    <path d="M46.46,24.55c.77,2.61,2.38,3.28,4.77,2,1.88-1.06,4.17-1,4.56,1.58.42,5.78-7.78,7.3-12.15,7.36,3.75-.82,9.41-1.91,11.02-5.77.44-1.33,0-3.16-1.61-2.87-1.04.2-2.07.81-3.2.97-2.07.41-3.33-1.4-3.41-3.26h.01Z" style="fill: #fdf6ec;"/>
    <path d="M38.74,36.04l5.26-1.15c3.7-.8,8.76-1.91,10.2-5.37.22-.69.14-1.54-.21-1.94-.2-.23-.48-.31-.85-.24-.43.08-.87.25-1.35.43-.59.22-1.21.45-1.87.55-.91.18-1.79-.01-2.5-.57-.87-.68-1.43-1.87-1.48-3.16l-.02-.41.86-.21.14.45c.34,1.15.84,1.87,1.49,2.14.65.27,1.52.12,2.57-.44,1.34-.75,2.75-.91,3.76-.42.58.28,1.32.93,1.54,2.37.12,1.65-.37,3.07-1.46,4.26-3.12,3.4-9.86,3.66-11.18,3.67l-4.91.06ZM55.05,30.05c-.41.9-1.02,1.65-1.75,2.29.29-.22.56-.46.79-.72.44-.48.76-1,.96-1.57ZM54.61,26.77s.09.09.14.14c.33.38.5.86.56,1.37,0-.04,0-.08,0-.13-.09-.62-.33-1.09-.69-1.38Z" style="fill: #eaddb7;"/>
  </g>
  <g>
    <path d="M18.2,31.84c1.12,3.06-1.41,4.35-4.01,4.45-1.11.11-2.31.29-2.64,1.08-.72,5.45,11.02,3.17,14.05,2.3-3.88,1.7-12.45,4.21-14.93-.65-.67-1.36.17-3.03,1.65-3.31,2.82-.51,6.48.35,5.88-3.87h-.01Z" style="fill: #fdf6ec;"/>
    <path d="M16.43,42.36c-2.58,0-4.99-.75-6.19-3.11-.39-.79-.39-1.7.01-2.51.4-.81,1.13-1.36,1.99-1.53.62-.11,1.26-.16,1.89-.21,1.37-.1,2.67-.2,3.26-.93.35-.44.47-1.12.34-2.07l-.2-.55,1.1-.21.07.52h0c.53,1.53.17,2.56-.23,3.16-.74,1.11-2.3,1.78-4.26,1.86-.64.07-1.88.19-2.17.72-.08.78.13,1.38.65,1.83,2.3,1.98,9.74.73,12.78-.14l.34.94c-.78.34-5.29,2.23-9.38,2.23ZM14.21,41.1c.45.11.93.19,1.42.23-.5-.05-.98-.12-1.42-.23ZM11.05,37.42c-.16.46-.13.94.08,1.37.04.07.07.14.11.2-.19-.46-.26-.99-.2-1.58Z" style="fill: #eaddb7;"/>
  </g>
  <path d="M75.29,365.48c-4.72,0-9.45-5.25-11.11-7.08-7.09-7.88-9.11-16.79-11.25-26.22-6.43-28.24-11.43-41.52-11.48-41.65-4.23-21.44-3.74-24.97-3.45-27.07.11-.81.19-1.35-.11-2.8-2.81-13.45-5.06-23-7.45-33.12l-.34-1.45c-8.81-37.38-13.23-56.14-14.66-60.54-.3-.93-7.33-22.81-5.56-29.62.49-1.88.45-3.51-.11-4.94-.67-1.73-1.94-2.72-2.62-3.25l-.13-.1c-5.19-4.15-6.37-12.54-6.81-15.7-.46-3.3-.2-5.88,1.31-13.14,2.6-12.54,5.41-21.99,5.53-22.38,1.31-4.43,2.38-7.74,3.32-10.66,1.49-4.6,2.77-8.57,4.53-15.36.42-1.61,1.25-3.79,1.99-5.72.55-1.44,1.07-2.79,1.22-3.44l.97.23c-.17.71-.67,2.03-1.26,3.56-.73,1.9-1.55,4.06-1.96,5.61-1.77,6.82-3.05,10.8-4.54,15.41-.94,2.91-2.01,6.21-3.32,10.63-.12.4-2.92,9.8-5.51,22.3-1.48,7.12-1.74,9.63-1.3,12.78.43,3.06,1.56,11.16,6.44,15.07l.13.1c.7.55,2.16,1.69,2.94,3.67.64,1.63.69,3.47.17,5.47-1.73,6.61,5.45,28.92,5.52,29.14,1.44,4.44,5.86,23.21,14.68,60.62l.34,1.45c2.39,10.12,4.65,19.69,7.46,33.15.34,1.62.25,2.25.13,3.14-.26,1.91-.76,5.46,3.42,26.66.03.05,5.05,13.39,11.49,41.71,2.11,9.3,4.11,18.08,11,25.76,4.65,5.16,8.54,7.38,11.58,6.63.56-.14.92-.39,5.31-3.44l1.88-1.31c4.18-2.9,4.67-3.22,5.76-3.44,2.27-.45,3.76.38,5.65,1.43,1.05.58,2.23,1.24,3.78,1.81,5.12,1.86,12.64,2.11,17.02-1.74,2.8-2.46,3.73-5.87,3.74-5.9.45-1.73.39-3.31.34-4.46-.05-1.21-.09-2.08.62-2.36.78-.3,1.33.53,2.03,1.57.82,1.22,1.93,2.9,3.69,3.54,3.5,1.28,7.9-2.14,11.11-4.64,1.9-1.48,6.34-4.93,8.86-11.32,1.34-3.39,1.95-7.2,1.72-10.73-.25-3.77-1.33-6.24-2.7-9.37-.32-.72-.65-1.48-.98-2.29-1.71-4.13-2.84-8.74-5.09-17.92-.54-2.21-.66-2.87-2.13-10.97-.66-3.66-1.6-8.85-2.98-16.39-1.05-5.74-2.38-10.3-4.59-15.74-1.08-2.65-2.04-3.97-3.06-5.36-.62-.85-1.26-1.72-1.96-2.93-3.55-6.11-4.14-11.01-5.03-18.42-.34-2.84-.73-6.06-1.35-9.87-.47-2.87-.68-3.72-1.2-5.77-.54-2.13-1.44-5.69-3.31-14.29-6.97-31.96-10.47-48-10.75-52.51,0-.16-1.04-16.1-5.85-21.56-.41-.46-1.26-1.42-1.78-2.96-.89-2.66.02-4.91.89-7.08.41-1.01.83-2.05,1.08-3.13.55-2.39,0-3.73-2.03-8.69-.64-1.56-1.42-3.46-2.34-5.85-2.35-6.08-3.18-8.88-3.72-10.73-.51-1.73-.79-2.69-1.88-4.83-2.06-4.04-5.31-7.76-11.8-15.16-2.83-3.23-5.08-5.65-7.07-7.78-3.42-3.67-6.11-6.56-9.97-11.62-1.04-1.36-2.65-3.06-4.07-4.55-1.34-1.41-2.49-2.63-3-3.37l.83-.56c.46.68,1.65,1.93,2.9,3.25,1.44,1.52,3.07,3.23,4.14,4.64,3.83,5.02,6.51,7.9,9.91,11.55,1.99,2.14,4.25,4.56,7.09,7.8,6.54,7.46,9.83,11.21,11.94,15.36,1.14,2.23,1.43,3.21,1.95,5.01.54,1.84,1.35,4.61,3.69,10.65.92,2.38,1.7,4.28,2.34,5.84,2.07,5.06,2.7,6.59,2.08,9.29-.27,1.17-.7,2.24-1.12,3.29-.85,2.1-1.65,4.07-.87,6.38.45,1.34,1.21,2.2,1.54,2.57,5.08,5.77,6.1,21.54,6.14,22.21.28,4.44,3.99,21.46,10.73,52.36,1.87,8.58,2.77,12.13,3.31,14.25.53,2.08.74,2.94,1.22,5.85.62,3.83,1.01,7.06,1.36,9.91.88,7.29,1.46,12.1,4.91,18.03.68,1.17,1.3,2.02,1.9,2.85,1.05,1.45,2.05,2.81,3.18,5.58,2.24,5.51,3.59,10.13,4.65,15.94,1.38,7.54,2.31,12.73,2.98,16.39,1.46,8.08,1.58,8.74,2.11,10.91,2.24,9.13,3.37,13.72,5.05,17.78.33.8.66,1.56.98,2.27,1.4,3.22,2.51,5.76,2.78,9.71.17,2.6,0,6.65-1.79,11.16-2.62,6.64-7.21,10.21-9.17,11.73-3.41,2.65-8.06,6.27-12.08,4.79-2.07-.76-3.29-2.59-4.18-3.93-.26-.39-.6-.9-.82-1.11-.04.27-.02.83,0,1.29.05,1.21.12,2.88-.37,4.76-.04.15-1,3.73-4.04,6.4-4.72,4.14-12.45,3.95-18.02,1.93-1.62-.59-2.85-1.27-3.93-1.88-1.77-.99-3.05-1.7-4.96-1.32-.85.17-1.25.42-5.39,3.29l-1.88,1.3c-4.72,3.27-4.9,3.4-5.64,3.59-.48.12-.96.17-1.45.17Z" style="fill: #eaddb7;"/>
  <g>
    <path d="M11.14,134.82c9.21-5.11,20.58-8.09,30.71-10.91,15.59-4.64,31.54-9.32,47.97-9.23,1.82,0,3.63.09,5.44.15-1.81.05-3.63.06-5.44.13-16.35.6-32.07,5.38-47.71,9.85-10.48,2.87-21.1,5.28-30.97,10.01h0Z" style="fill: #fdf6ec;"/>
    <path d="M9.65,136.21l1.15-1.8.13-.06s.06-.03.09-.04c8.67-4.78,19.36-7.74,28.8-10.36l1.89-.53c15.29-4.55,31.11-9.25,47.62-9.25.16,0,.32,0,.48,0,1.32,0,2.66.05,3.96.1l1.5.05v1c-.73.02-1.46.03-2.2.05-1.08.02-2.16.04-3.24.08-15.27.56-30.21,4.85-44.66,8.99l-2.93.84c-1.72.47-3.43.92-5.15,1.38-8.58,2.28-17.44,4.63-25.62,8.54-.03.02-.07.04-.1.05l-1.73.96ZM56.17,120.31c-1.13.3-2.25.61-3.37.93,1.12-.31,2.25-.62,3.37-.93Z" style="fill: #eaddb7;"/>
  </g>
  <g>
    <path d="M38.38,260.55c27.64-6.92,58.4-13.84,86.35-19.43-27.65,6.92-58.41,13.84-86.35,19.43h0Z" style="fill: #fdf6ec;"/>
    <path d="M38.48,261.04l-.22-.98c27.69-6.93,58.37-13.83,86.37-19.43l.22.98c-27.7,6.93-58.38,13.83-86.37,19.43ZM87.75,249.44c-4.14.92-8.27,1.85-12.4,2.79,4.13-.92,8.27-1.85,12.4-2.79Z" style="fill: #eaddb7;"/>
  </g>
  <g>
    <path d="M89.54,356.64c1.64-1.9,3.7-3.58,5.77-4.93,1.95-1.44,2.73-3.98,2.26-6.37,1.39,2.28.53,5.66-1.64,7.19-2.2,1.4-4.14,2.78-6.38,4.1h-.01Z" style="fill: #fdf6ec;"/>
    <path d="M88.21,357.41l.94-1.1c1.53-1.77,3.56-3.51,5.87-5.02,1.69-1.25,2.5-3.55,2.04-5.86l-.55-2.77,1.47,2.41c1.5,2.46.67,6.13-1.78,7.86-.82.53-1.59,1.03-2.35,1.54-1.35.9-2.63,1.74-4.06,2.59l-.16.06-1.43.29ZM96.72,351.04c-.32.4-.7.76-1.12,1.07-.33.21-.64.43-.96.65.33-.22.67-.43,1.01-.65.41-.29.77-.66,1.07-1.07Z" style="fill: #eaddb7;"/>
  </g>
  <g>
    <path d="M120.34,345.31c1.64-1.9,3.7-3.58,5.77-4.93,1.95-1.44,2.73-3.98,2.26-6.37,1.39,2.28.53,5.66-1.64,7.19-2.2,1.4-4.14,2.78-6.38,4.1h-.01Z" style="fill: #fdf6ec;"/>
    <path d="M118.85,346.28l1.11-1.3c1.53-1.77,3.56-3.51,5.87-5.02,1.69-1.25,2.5-3.55,2.04-5.86l-.55-2.77,1.47,2.41c1.5,2.46.67,6.13-1.78,7.86-.82.53-1.59,1.03-2.35,1.54-1.35.9-2.63,1.74-4.06,2.59l-.11.05-1.64.49ZM127.53,339.71c-.32.4-.7.76-1.12,1.07-.32.21-.63.42-.94.64.33-.21.66-.43.99-.64.41-.29.77-.66,1.07-1.07Z" style="fill: #eaddb7;"/>
  </g>
  <g>
    <path d="M41.32,252.54c13.6-3.68,27.62-5.41,41.16-9.33-12.91,5.22-27.5,7.06-41.16,9.33h0Z" style="fill: #fdf6ec;"/>
    <path d="M41.4,253.03l-.21-.98c6.44-1.74,13.07-3.07,19.48-4.35,7.15-1.43,14.55-2.91,21.67-4.97l.33.94c-11.24,4.54-23.7,6.53-35.75,8.46-1.85.3-3.69.59-5.52.89ZM66.78,247.49c-1.98.41-3.95.8-5.91,1.2-1.15.23-2.32.46-3.48.7,3.15-.56,6.29-1.18,9.39-1.89Z" style="fill: #eaddb7;"/>
  </g>
  <g>
    <path d="M49.89,131.14c13.31-3.8,27.29-8.39,41.19-9.21-13.91,2.26-27.32,6.71-41.19,9.21h0Z" style="fill: #fdf6ec;"/>
    <path d="M49.98,131.63l-.23-.97c1.83-.52,3.68-1.06,5.54-1.6,11.66-3.4,23.72-6.91,35.76-7.62l.11.99c-7.34,1.19-14.67,3.02-21.76,4.8-6.33,1.58-12.88,3.22-19.42,4.4ZM74.71,124.88c-2.88.64-5.75,1.37-8.61,2.14,1.02-.25,2.05-.51,3.06-.76,1.83-.46,3.68-.92,5.55-1.38Z" style="fill: #eaddb7;"/>
  </g>
</svg>