<?xml version="1.0" encoding="UTF-8"?>
<svg id="Layer_1" data-name="Layer 1" xmlns="http://www.w3.org/2000/svg" viewBox="0 0 732.6 555.16">
  <path d="M708,313.16c-35.67-10.43-28.94-8.67-62.17-34.43-31.52-24.43-44.11-72.52-35.87-110.78,34.67,9.13,79.92,9.32,97.37-20.86,16.72-28.92-7.22-67.06-39.4-78.85-32.18-11.79-68.23-5.26-101.66,2.73-67.06,16.02-202.49,49.06-345.18,133.56-72.18,42.74-153.44,60.44-216.96,66.91-.05,5.16-.11,10.33-.15,15.49-.28,30.77-.55,61.53-.89,92.28,258.9-7.35,473.48,9.86,729.37,83.52,0-125.39.14-128.4-.01-144.37h.01c-6.06.85-16.49-2.89-24.46-5.22Z" style="fill: #f1431d;"/>
  <path d="M496.65,203.26c-4.3-8.44-9.17-18.02-9.58-28.01-.38-9.22,4.06-20.58,14.81-25.17,13.03-5.56,25.63.78,38.96,7.49,10.18,5.12,20.7,10.44,31.64,10.16,3.72-.08,7.72-.79,11.59-1.47,8.74-1.52,17.77-3.11,24.09,2.27l-1.14,1.03c-5.71-4.86-13.93-3.42-22.63-1.9-3.94.69-8.01,1.4-11.86,1.49-11.38.26-22.11-5.13-32.49-10.36-12.95-6.52-25.18-12.68-37.44-7.44-10.09,4.31-14.25,15.06-13.89,23.83.4,9.71,5.2,19.15,9.44,27.48l-1.49.58h-.01Z" style="fill: #fff5ea;"/>
  <path d="M703.45,124.34h-1.63c.19-17.7-11.52-35.3-29.14-43.83-17.62-8.51-40.78-7.76-57.63,1.87l-.89-1.21c17.35-9.91,41.18-10.68,59.31-1.92,18.13,8.76,30.18,26.87,29.99,45.08h0Z" style="fill: #fff5ea;"/>
  <path d="M684.57,330.19c-26.82-1.58-52.96-13.46-69.94-31.8-18.33-19.8-25.76-45.48-31.8-70.09l1.6-.3c6,24.44,13.37,49.94,31.47,69.49,16.69,18.04,42.41,29.72,68.78,31.27l-.11,1.44h0Z" style="fill: #fff5ea;"/>
  <path d="M732.55,366.11c-18.56,3.19-38.34,6.34-56.21,9.25-77.43,12.6-162.71,13.9-226.56-36.75-48.33-38.34-76.45-100.26-102.72-159.71,17.46-22.48,50.03-15.71,74.14-3.12,24.12,12.59,49.95,29.58,75.54,21.43,25.49-8.12,40.44-40.68,37.81-70.21-2.64-29.53-19.37-55.46-39.5-74.76C437.39-3.04,352.36-11.21,279.5,12.61c-72.86,23.83-135.81,75.32-194.1,129.76C59.29,166.75,28.22,193.74.05,215.31c-.19,24.31.28,317.57,0,334.49,232.27-107.49,492.12-14.81,732.34,5.36.42-63.06.08-124.28.17-189.05Z" style="fill: #c72b25;"/>
  <path d="M291.68,196.19l-47.86-17.8c-3.71-1.38-7.74-3.1-8.54-5.96-.46-1.66.26-3.48,2.2-5.59,13.25-14.38,44.78-12.52,54.13-11.6,5.43.53,10.95,1.28,16.29,2.01,13.83,1.88,28.13,3.83,41.99,2.07l.34,1.18c-14.21,1.8-28.69-.17-42.69-2.08-5.31-.72-10.81-1.47-16.19-1.99-9.07-.89-39.66-2.71-52.33,11.05-1.7,1.84-2.34,3.39-1.96,4.75.66,2.36,4.29,3.89,7.65,5.13l47.86,17.8-.88,1.04h-.01Z" style="fill: #fdf6ec;"/>
  <path d="M493.63,66.65c-32.75-38.15-86.47-57.87-136.86-50.22l-.27-1.7c51-7.74,105.36,12.22,138.49,50.82l-1.35,1.11h-.01Z" style="fill: #fdf6ec;"/>
  <path d="M476.1,175.41c-4.5,0-8.87-.9-12.77-2.7l.93-1.58c8.95,4.16,20.57,3.08,30.33-2.83,9.75-5.9,15.13-15.11,14.02-24.03l1.99-.2c1.19,9.57-4.52,19.41-14.88,25.68-6.16,3.72-13.04,5.63-19.62,5.63h0Z" style="fill: #fdf6ec;"/>
  <path d="M400.64,336.63c-11.57-6.27-24.69-13.37-35.08-25.98-9.59-11.64-17.84-31.18-14.64-48.57l1.14.63c-3.07,16.69,4.91,35.52,14.19,46.78,10.2,12.37,23.19,19.41,34.66,25.62l-.27,1.51h0Z" style="fill: #fdf6ec;"/>
  <polygon points="328.23 134.19 286.79 132.14 286.87 130.94 328.3 133 328.23 134.19" style="fill: #fdf6ec;"/>
</svg>