<?xml version="1.0" encoding="UTF-8"?>
<svg id="Layer_1" data-name="Layer 1" xmlns="http://www.w3.org/2000/svg" viewBox="0 0 852.69 455.1">
  <path d="M831.69,263.72c0-3-16.18-2.77-24-5-35-10-28.39-8.31-61-33-30.92-23.42-43.27-69.52-35.19-106.19,34.01,8.75,78.41,8.93,95.54-20,16.41-27.72-7.09-64.28-38.66-75.58-31.57-11.3-66.94-5.04-99.74,2.62-65.79,15.36-198.67,47.03-338.67,128.03C210.62,223.65,65.95,224.51,21.97,220.6c-.4,84.18-1.12,98.94-1,105,298.91-13.72,527.04-3.1,808.72,76.12.47-121.11,2-122.97,2-138Z" style="fill: #f1431d;"/>
  <path d="M600.91,153.37c-4.3-8.09-9.17-17.27-9.58-26.85-.38-8.84,4.06-19.73,14.81-24.13,13.03-5.33,25.63.75,38.96,7.18,10.18,4.91,20.7,10.01,31.64,9.74,3.72-.08,7.72-.76,11.59-1.41,8.74-1.46,17.77-2.98,24.09,2.18l-1.14.99c-5.71-4.66-13.93-3.28-22.63-1.82-3.94.66-8.01,1.34-11.86,1.43-11.38.25-22.11-4.92-32.49-9.93-12.95-6.25-25.18-12.15-37.44-7.13-10.09,4.13-14.25,14.44-13.89,22.84.4,9.31,5.2,18.36,9.44,26.34l-1.49.56Z" style="fill: #fff5ea;"/>
  <path d="M794.86,77.72h-1.63c.19-16.97-11.52-33.84-29.14-42.01-17.62-8.16-40.78-7.44-57.63,1.79l-.89-1.16c17.35-9.5,41.18-10.24,59.31-1.84,18.13,8.4,30.18,25.76,29.99,43.21Z" style="fill: #fff5ea;"/>
  <path d="M767.49,114.1c-4.26,0-8.51-.71-12.41-2.19l.67-1.26c11.09,4.22,25.2,1.86,33.54-5.62l1.19.94c-5.87,5.26-14.45,8.13-22.99,8.13Z" style="fill: #fff5ea;"/>
  <path d="M785.96,284.19c-26.82-1.51-52.96-12.9-69.94-30.48-18.33-18.98-25.76-43.6-31.8-67.19l1.6-.29c6,23.43,13.37,47.87,31.47,66.61,16.69,17.29,42.41,28.49,68.78,29.97l-.11,1.38Z" style="fill: #fff5ea;"/>
  <path d="M0,455.1c264-176.1,584.22-2.66,851.58-41.23,2.1-139.11.74-7.38-.17-144.37-64.76-12.38-137.08,2.92-202.33,12.39-65.25,9.47-137.12,10.43-190.93-27.6-40.73-28.79-64.43-75.29-86.57-119.94,14.71-16.89,42.16-11.79,62.48-2.34,20.32,9.45,42.1,22.21,63.66,16.09,21.48-6.1,34.08-30.55,31.86-52.72-2.22-22.18-16.32-41.65-33.29-56.14C447.71-2.28,376.05-8.42,314.65,9.47c-61.4,17.89-114.45,56.56-163.57,97.44C105.43,144.9,58.57,187.09,0,197.14" style="fill: #c72b25;"/>
  <path d="M324.92,152.04l-40.33-15.45c-3.13-1.2-6.52-2.69-7.2-5.18-.39-1.44.22-3.02,1.85-4.85,11.17-12.48,37.74-10.87,45.61-10.07,4.58.46,9.23,1.11,13.73,1.74,11.65,1.63,23.71,3.32,35.39,1.8l.28,1.02c-11.97,1.57-24.18-.15-35.98-1.8-4.48-.63-9.11-1.28-13.65-1.73-7.64-.77-33.42-2.35-44.1,9.59-1.43,1.6-1.97,2.95-1.66,4.12.55,2.05,3.62,3.37,6.45,4.46l40.33,15.45-.74.91Z" style="fill: #fdf6ec;"/>
  <path d="M495.1,57.87c-27.6-33.13-72.87-50.25-115.34-43.6l-.23-1.48c42.98-6.72,88.79,10.6,116.71,44.12l-1.14.96Z" style="fill: #fdf6ec;"/>
  <path d="M480.33,134c-3.79,0-7.47-.77-10.76-2.35l.78-1.37c7.54,3.61,17.34,2.67,25.56-2.45,8.22-5.13,12.75-13.12,11.82-20.86l1.68-.17c1,8.31-3.81,16.85-12.54,22.3-5.19,3.24-10.99,4.9-16.54,4.9Z" style="fill: #fdf6ec;"/>
  <path d="M388.95,220.97c-9.75-5.44-20.81-11.61-29.56-22.55-8.08-10.11-15.03-27.07-12.34-42.17l.96.54c-2.59,14.49,4.14,30.84,11.96,40.62,8.59,10.75,19.55,16.86,29.21,22.25l-.23,1.31Z" style="fill: #fdf6ec;"/>
  <polygon points="355.71 98.21 320.8 96.43 320.86 95.4 355.78 97.18 355.71 98.21" style="fill: #fdf6ec;"/>
  <path d="M791.86,319.75c-15.91-10.67-40.44-15.92-67.27-14.43-24.28,1.35-47.5,7.5-69.94,13.45l-.5-.98c22.54-5.97,45.85-12.15,70.33-13.51,27.24-1.52,52.16,3.84,68.37,14.71l-.98.76Z" style="fill: #fdf6ec;"/>
</svg>