<?xml version="1.0" encoding="UTF-8"?>
<svg id="Layer_1" data-name="Layer 1" xmlns="http://www.w3.org/2000/svg" viewBox="0 0 98 98">
  <rect width="98" height="98" rx="11" ry="11" style="fill: #2c2d26;"/>
  <path d="M66,87h-33c-12.68,0-23-10.32-23-23v-30c0-12.68,10.32-23,23-23h33c12.68,0,23,10.32,23,23v30c0,12.68-10.32,23-23,23ZM33,17c-9.37,0-17,7.63-17,17v30c0,9.37,7.63,17,17,17h33c9.37,0,17-7.63,17-17v-30c0-9.37-7.63-17-17-17h-33Z" style="fill: #eaddb7;"/>
  <circle cx="70.5" cy="28.5" r="4.5" style="fill: #eaddb7;"/>
  <path d="M51,70c-11.03,0-20-8.52-20-19s8.97-19,20-19,20,8.52,20,19-8.97,19-20,19ZM51,38c-7.72,0-14,5.83-14,13s6.28,13,14,13,14-5.83,14-13-6.28-13-14-13Z" style="fill: #eaddb7;"/>
</svg>