<?xml version="1.0" encoding="UTF-8"?>
<svg id="Layer_1" data-name="Layer 1" xmlns="http://www.w3.org/2000/svg" viewBox="0 0 234 164.52">
  <path d="M56.91,36.36c-6.08,0-12.31-.42-20.49-1.7C12.88,31,.89,26.66.78,21.78l-.02-.82.12.06c1.27-5.56,17.4-9.91,33.91-13.89C55.93,2.03,74.15,1.27,113.32.03c.13,0,13.37-.39,40.08,1.77,20.42,1.66,26.62,3.33,27.66,7.46,1.45,5.78-8.62,13.45-13.01,16.47-13.48,9.31-24.66,9.19-46.92,8.95-6.42-.07-13.69-.15-22.19,0-11.27.18-19.65.67-26.39,1.07-5.77.34-10.66.62-15.64.62ZM1.81,22.04c.4,2.51,5.74,7.11,34.77,11.64,14.77,2.3,22.73,1.84,35.92,1.06,6.74-.4,15.14-.89,26.43-1.07,8.52-.14,15.79-.06,22.21,0,22.05.24,33.12.36,46.34-8.77,6.79-4.68,13.67-11.18,12.61-15.41-.88-3.5-7.38-5.13-26.76-6.7-26.66-2.15-39.84-1.77-39.96-1.77-39.11,1.24-57.28,2-78.33,7.07C23.37,10.91,1.68,16.14,1.8,21.77v.27Z"/>
  <path d="M128.38,164.52c-1.96,0-3.75-.16-5.43-.3-1.58-.14-3.09-.26-4.53-.26-7.7.04-13.87.14-18.82.22-15.57.25-20.27.33-27.55-2.02-11.45-3.7-19.04-10.05-24.06-14.26-11.76-9.85-17.98-20.2-23.99-30.21-3.82-6.37-10.9-18.15-16.01-35.57-3.83-13.07-4.96-23.75-6.39-37.28-.8-7.59-1.34-15.34-1.59-23.06l1-.03c.26,7.69.79,15.42,1.59,22.98,1.43,13.48,2.55,24.12,6.35,37.1,5.07,17.3,12.11,29.01,15.89,35.3,5.99,9.97,12.17,20.25,23.79,29.98,4.97,4.16,12.47,10.44,23.73,14.08,7.12,2.3,11.78,2.22,27.23,1.97,4.96-.08,11.13-.18,18.83-.22,1.48,0,3.02.12,4.62.26,3.21.28,6.85.6,11.22-.25,2.93-.57,10.65-2.56,18.92-8.76,3.8-2.84,9.34-7.89,14.21-15.8,4.22-6.85,7.5-17.2,9.49-29.93.92-5.85.95-8.28,1.05-16.34.06-4.96.16-12.45.53-24.32.41-13.3.95-25.22,1.59-35.44.44-6.99.96-13.94,1.59-21.26l1,.08c-.63,7.31-1.15,14.26-1.59,21.24-.64,10.2-1.18,22.12-1.59,35.4-.37,11.87-.46,19.35-.53,24.31-.1,8.11-.14,10.56-1.07,16.48-2.01,12.86-5.34,23.33-9.63,30.29-4.95,8.04-10.6,13.18-14.47,16.08-8.43,6.32-16.32,8.36-19.32,8.94-2.2.43-4.21.57-6.08.57Z"/>
  <path d="M179.18,118.17c-.37,0-.68-.12-1-.32-3.01-1.82-2.58-10.39-.21-16.55,3.16-8.17,9.69-11.95,14.94-14.99.71-.41,1.4-.81,2.06-1.2,26.97-16.19,28.27-26.04,28.76-29.75.49-3.77,0-6.62-1.43-8.48-2.6-3.39-7.81-2.5-12.85-1.65l-.41.07c-8.71,1.46-17.97,2.65-27.52,3.54l-.09-1c9.52-.89,18.76-2.08,27.44-3.54l.41-.07c5.08-.86,10.84-1.83,13.81,2.03,1.6,2.08,2.15,5.18,1.63,9.21-.51,3.85-1.85,14.05-29.24,30.49-.66.4-1.36.8-2.07,1.21-5.38,3.11-11.48,6.64-14.51,14.48-2.35,6.09-2.46,13.97-.21,15.33,1.31.79,4.31-2.09,17.7-15.86,1.02-1.03,8.28-8.54,18.31-19.47,2.81-3.07,5.46-5.97,8.65-10.34,3.92-5.37,6.5-8.92,8.02-14.26.99-3.5,3.03-10.69.05-15.54-2.1-3.43-5.62-4.04-13.38-5.08-5.52-.74-9.46-.54-14.92-.27-1.9.09-3.97.2-6.37.27-5.02.17-10.17.17-15.29,0l.03-1c5.1.17,10.23.17,15.23,0,2.39-.08,4.46-.18,6.35-.27,5.51-.27,9.49-.47,15.1.28,7.27.97,11.66,1.56,14.1,5.54,3.2,5.23,1.08,12.7.07,16.29-1.58,5.56-4.21,9.16-8.19,14.62-3.22,4.41-5.9,7.33-8.72,10.42-10.04,10.94-17.32,18.46-18.33,19.49-12.84,13.2-16.08,16.33-17.93,16.34Z"/>
  <path d="M24.5,22.02c7.25,4,15.7,1.6,23.56,1.67,6.03-.11,12.07.13,18.07.84,1.99.26,3.98.52,5.96.89-2-.14-4-.3-6-.4-5.99-.36-12-.51-18-.33-7.81-.15-16.69,2.09-23.59-2.66h0Z"/>
</svg>