<?xml version="1.0" encoding="UTF-8"?>
<svg id="Layer_1" data-name="Layer 1" xmlns="http://www.w3.org/2000/svg" viewBox="0 0 98 98">
  <rect width="98" height="98" rx="11" ry="11" style="fill: #2c2d26;"/>
  <g>
    <ellipse cx="23.41" cy="24.73" rx="4.58" ry="3.96" transform="translate(-6.64 8.72) rotate(-18.52)" style="fill: #eaddb7;"/>
    <path d="M23.01,31.76c-1.01,0-2-.19-2.92-.57-1.85-.76-3.26-2.24-3.87-4.05-.61-1.81-.37-3.84.65-5.56.95-1.6,2.49-2.83,4.33-3.44,3.96-1.33,8.18.55,9.4,4.19,1.22,3.64-1.01,7.68-4.98,9.01-.85.29-1.74.43-2.61.43ZM23.8,23.7c-.22,0-.45.04-.7.12-.47.16-.86.45-1.07.81-.08.13-.19.38-.12.6.07.22.32.35.46.41.39.16.88.16,1.35,0,.91-.31,1.32-1.04,1.19-1.41-.09-.27-.52-.53-1.1-.53Z" style="fill: #eaddb7;"/>
  </g>
  <polyline points="17 38 30 38 30 78 17 78" style="fill: #eaddb7;"/>
  <polyline points="39 38 53 38 53 78 39 78" style="fill: #eaddb7;"/>
  <polyline points="68 54 81 54 81 78 68 78" style="fill: #eaddb7;"/>
  <path d="M52,56c.42.04,1.38-4.58,2.92-6,1.38-1.27,2.5-1.8,2.95-2,.34-.15.81-.35,1.48-.5.57-.13,1.66-.35,2.95,0,.9.25,1.49.67,1.97,1,1.03.72,2.42,3.04,2.73,3.5.41.6,1.51,4.15,1.69,5,.04.94-1.21-2.44-.49-1.5,2.98,3.91,12.11,5.19,12.8,2.5.06-.24,0-3.76,0-6.5,0-1.48.02-1.6,0-2-.08-1.67-.56-2.92-.98-4-.59-1.51-1.3-3.3-2.95-5-1.74-1.78-3.59-2.5-4.92-3-2.84-1.07-5.25-1.04-6.89-1-1.58.04-3.53.1-5.9,1-.46.17-2.63,1.03-4.92,3-.95.82-1.49,1.28-1.97,2-2.39,3.56-1.73,13.37-.46,13.5h-.01Z" style="fill: #eaddb7;"/>
</svg>