<?xml version="1.0" encoding="UTF-8"?>
<svg id="Layer_1" data-name="Layer 1" xmlns="http://www.w3.org/2000/svg" viewBox="0 0 463 2311.77">
  <path d="M.39,2311.77h462.59c0-272-.29-1068.32-.04-1335.64-29.84,48.59-50.53,115.99-88.17,134.38-27.35,13.36-56.33-2.61-81.71-26.65s-48.69-56.1-74.56-78c-64.86-54.89-209.45-22.05-218.15-22.41-.5,232.65-.46,1212.94.04,1328.32Z" style="fill: #c72b25;"/>
  <path d="M1.47,1354.54c23.36-.95,18.67-1.87,43.22-11.2,41.24-15.69,53.63-20.95,98.71-41.07,36.27-16.19,37.88-21.47,76.83-37.34,36.46-14.85,112.62-13.56,148.86,2.8,16.54,7.47,79.52,57.19,93.91,85.88-.01-241.46-.25-1113.19,0-1351.74-29.84,43.36-50.53,103.5-88.17,119.91-27.35,11.92-56.33-2.33-81.71-23.78-25.38-21.45-48.69-50.06-74.56-69.6C153.7-20.58,9.11,8.73.41,8.4-.14,215.96,1.06,1352.49,1.47,1354.54Z" style="fill: #df5231;"/>
  <g id="Layer_1-2" data-name="Layer 1">
    <path d="M425.83,1224.4c-8.9,2.05-10.23,17.57-8.65,23.3,1.76,6.42,3.16,7.99,10.56,7.38,4.55-.38,8.7-2.87,12.29-6.85,2.87-3.22,1.38-10.27,1.29-13.41-.2-5.3,1.93-9.38-3.56-10.55-2.42-.53-9.17-.48-11.89.15l-.02-.03ZM437.75,1228.51c1.04,1.95-.64,3.7-.54,4.79.05.71,1.21.76,1.48,1.45.84,2.16,1.11,8.04-.3,10.7-3.44,6.39-13.82,9.84-17.16,5.5-3.49-4.56-3.14-18.51,3.51-23.3,2.72-1.95,11.67-1.67,13,.89v-.03Z" style="fill: #e7dcba;"/>
    <path d="M402.42,1209.49c-6.48,1.65-7.71,12.93-6.7,17.07,1.16,4.62,2.15,5.73,7.51,5.15,3.31-.36,6.35-2.26,9.02-5.2,2.15-2.38,1.19-7.46,1.16-9.74-.05-3.83,1.56-6.85-2.4-7.58-1.76-.33-6.65-.18-8.63.33l.02-.03ZM410.98,1212.23c.72,1.39-.54,2.69-.49,3.5.02.51.87.53,1.06,1.01.57,1.55.67,5.81-.42,7.76-2.6,4.69-10.18,7.4-12.53,4.31s-1.95-13.36,2.97-16.96c2-1.47,8.48-1.42,9.42.38h0Z" style="fill: #e7dcba;"/>
    <path d="M426.55,1199.96c-2.77.3-2.6,5.2-1.88,7.07.79,2.1,1.31,2.66,3.63,2.76,1.43.05,2.67-.56,3.66-1.7.79-.91.05-3.22-.1-4.21-.27-1.7.25-2.92-1.53-3.5-.79-.25-2.94-.51-3.78-.43ZM430.5,1201.73c.4.66-.07,1.17,0,1.5.05.23.42.28.52.51.35.71.67,2.61.3,3.4-.87,1.9-4.03,2.59-5.27,1.07s-1.71-6.01.25-7.28c.79-.51,3.66-.08,4.18.79l.02.03Z" style="fill: #e7dcba;"/>
  </g>
  <g id="Layer_1-3" data-name="Layer 1">
    <path d="M48.43,1369.53c-4.9,1.13-5.64,9.69-4.77,12.84.97,3.54,1.74,4.4,5.82,4.07,2.51-.21,4.8-1.58,6.77-3.77,1.58-1.77.76-5.66.71-7.39-.11-2.92,1.06-5.17-1.96-5.81-1.34-.29-5.05-.27-6.55.08h-.01ZM55,1371.79c.57,1.08-.35,2.04-.3,2.64.03.39.67.42.82.8.46,1.19.61,4.43-.16,5.9-1.89,3.52-7.62,5.42-9.46,3.03-1.92-2.52-1.73-10.2,1.93-12.84,1.5-1.08,6.43-.92,7.17.49h0Z" style="fill: #e7dcba;"/>
    <path d="M35.53,1361.31c-3.57.91-4.25,7.13-3.69,9.41.64,2.54,1.19,3.16,4.14,2.84,1.83-.2,3.5-1.24,4.97-2.87,1.19-1.31.65-4.11.64-5.37-.03-2.11.86-3.77-1.32-4.18-.97-.18-3.67-.1-4.75.18h.01ZM40.24,1362.82c.4.77-.3,1.48-.27,1.93.01.28.48.29.59.56.31.85.37,3.2-.23,4.28-1.43,2.59-5.61,4.08-6.91,2.38s-1.08-7.37,1.63-9.35c1.1-.81,4.67-.78,5.19.21h0Z" style="fill: #e7dcba;"/>
    <path d="M48.83,1356.06c-1.53.17-1.43,2.87-1.04,3.9.44,1.16.72,1.47,2,1.52.79.03,1.47-.31,2.02-.94.44-.5.03-1.77-.05-2.32-.15-.94.14-1.61-.84-1.93-.44-.14-1.62-.28-2.08-.24ZM51.01,1357.04c.22.36-.04.64,0,.82.03.13.23.15.29.28.19.39.37,1.44.16,1.87-.48,1.05-2.22,1.43-2.9.59s-.94-3.31.14-4.01c.44-.28,2.02-.04,2.3.43h.01Z" style="fill: #e7dcba;"/>
  </g>
  <path d="M53.06,334.37c-2.51.64-3.01,5.03-2.6,6.63.45,1.79.83,2.23,2.92,2,1.28-.14,2.47-.87,3.51-2.02.83-.93.46-2.9.45-3.78-.03-1.49.6-2.66-.93-2.96-.68-.13-2.58-.07-3.35.13h-.01ZM56.39,335.43c.27.55-.2,1.05-.19,1.36,0,.2.34.21.41.39.22.6.26,2.26-.16,3.01-1.01,1.82-3.96,2.87-4.88,1.68s-.75-5.2,1.15-6.6c.78-.57,3.29-.56,3.66.15h.01Z" style="fill: #e7dcba;"/>
  <path d="M45.12,357.01c-4.82,1.23-5.74,9.62-4.97,12.69.86,3.43,1.6,4.26,5.59,3.83,2.46-.27,4.73-1.67,6.71-3.87,1.6-1.78.89-5.55.86-7.25-.04-2.85,1.16-5.09-1.78-5.65-1.31-.25-4.95-.13-6.41.25ZM51.49,359.05c.53,1.04-.4,2-.36,2.59.03.38.64.39.78.76.42,1.15.49,4.32-.3,5.78-1.94,3.49-7.57,5.51-9.32,3.21-1.82-2.41-1.45-9.94,2.2-12.62,1.49-1.09,6.31-1.07,7,.29h0Z" style="fill: #e7dcba;"/>
  <path d="M63.4,353.24c-2.38.25-2.24,4.46-1.61,6.08.68,1.81,1.13,2.3,3.13,2.38,1.24.06,2.3-.49,3.14-1.46.68-.79.05-2.76-.08-3.63-.23-1.46.22-2.51-1.33-3.01-.68-.22-2.53-.45-3.25-.36ZM66.81,354.76c.34.57-.05,1,0,1.29.04.2.36.25.45.45.3.62.57,2.24.26,2.92-.74,1.63-3.47,2.23-4.52.93s-1.46-5.17.2-6.27c.68-.45,3.14-.06,3.59.69h.01Z" style="fill: #e7dcba;"/>
  <g>
    <path d="M341.23,590.61c.06-.04.41-.11.4.05l-.41.76c-.16.03-.16-.27-.14-.39,0-.02.11-.2.15-.42Z" style="fill: #eaddb7;"/>
    <path d="M438.34,507.33c.4-2.74-2.45-3.18-4.16-4.23-6.84-4.21-9.03-8.18-14.15-13.9-5.72-6.39-13.67-14.52-21.79-17.55-3.26-1.22-7.07-1.55-10.27-2.58-2.26-.73-5.38-5.6-6.91-7.56-8.71-11.16-18.36-25.4-31.93-30.43-6.88-2.55-14.04-3.99-21.33-4.37-2.93-.16-5.07.06-7.95.14-1.57.04-3.67-.31-5.16-.19-1.31.11-3.24.84-4.63,1.09-1.55.28-5.22.49-6.42,1.29-.74.49-.73,1.39-.62,2.2,2.14,1.43,4.37,1.28,6.8,1.38,9.39.35,16.68,1.28,24.46,7.21,1.41,1.08,2.74,3.17,2.79,5.03.12,4.03-2.96,6.56-4.61,9.9-1.13,2.29-4.06,10.14-4.12,12.47-.01.53.27,1.14.24,1.87-.1,2.73-1.89,6.69-4.01,8.39-.22.18-.68.14-.84.41-.13.23.03.62-.27,1.06-1.1,1.61-4.83,4.25-6.47,6.19-3.8,4.49-3.97,11.23-3.44,16.91.47,4.99,3.09,13.88,1.49,18.56-.33.97-.91,1.02-1.32,1.74-4.01.74-7.1-2.25-10.29-4.14-5.39-3.19-11.21-6.9-17.14-8.82-5.23-1.7-10.67-2.49-16.17-2.31-.73.62-1.72,1.16-1.43,2.24.23.86,4.87,4.12,5.88,5.02,4.44,4,9.09,8.73,12.75,13.53,3.13,4.11,6.41,10.23,6.77,15.5.65,9.55-7.4,22.56-12.59,30.19-1.32,1.93-3.52,4.09-4.59,5.9-1.05,1.79-1.22,4.09,1.21,4.57,2.05.41,6.88-1.56,8.94-2.44,8.27-3.51,12.74-7.24,17.95-14.64,2.95-4.2,5.33-9.06,8.91-12.76.89-.91,1.63-1.03,2.25-1.53.19-.15.8-1.49,1.14-1.89.35-.41,2.87-2.73,3.27-2.97,1.26-.77.93-.59,1.94-1.51.85-.79,3.48-1.65,4.59-1.45.77.14.79,1.73.74,2.36-.16,2.04-2.13,5.56-2.63,7.69-.42,3.67,4.1,3.62,5.66,6.3,1.16,1.99,1.03,6.89.83,9.27-.17,2.08-.41,4.33-.69,6.38-.23,1.72-1.29,5.22-1.2,6.7.06.98.64,2.15.75,3.34.2,2.29-.05,4.68.16,7.07.33,3.81-.29,5.55-2.14,8.83-2.95,5.25-7.14,8.53-12.08,11.62-.33.2-.79.17-1.21.46-1.22.85-1.09,2.41.33,2.93,3.06,1.11,8.34-1.64,11.83-1.24.81.09,1.82.38,2.7.41.8.03,4.31-1.02,5.04-1.43,1.19-.67.84-1.39,2.87-1.84,1.94-.43,2.6-.31,4.42-1.48,2.08-1.34,2.93-3.09,4.65-4.57,3.08-2.65,6.89-4.57,10.04-7.08,1.76-1.4,1.44-3.18,2.26-4.16.9-1.07,2.56-1.75,3.61-2.51,2.16-1.55,7.09-4.96,7.61-7.62.13-.66-.02-1.46.12-2.09.45-2.07,5.81-3.8,7.26-5.72.57-.75.65-1.66,1.06-2.42.82-1.49,3.56-5.04,5.16-5.4.38-.08.99.11,1.44.07,1.4-.15,1.94-.02,3.1-.03.53,0,1.05-.44,1.62-.39.37,1.74-.56,3.4-.95,4.97-.98,4.03-1.94,7.66-3.56,11.49-.15.36-.49,1.3-.71,1.79-.07.52-.45.84-.74,1.23,0,.05,0,.09-.02.14-.08.28-.26.53-.46.75-.19.43-.35.89-.57,1.3-.36.69-.75,1.37-1.19,2.01-.42.63-.87,1.24-1.22,1.92-.04.08-.09.12-.15.15-.9,1.48-3.06,4.65-2.98,5.82,0,.13,0,.23.12.31.64.43,1.5.57,2.24.37.55-.15,2.32-1.45,2.83-1.89.6-.52,2.84-3.44,3.56-3-.26,1.26-1.35,1.98-1.98,2.85-.45.62-.88,1.56-1.36,2.17-.75.95-1.67,1.79-2.38,2.6-.13.15-.3.29-.48.44-.42.7-.99,1.28-1.61,1.8-.01.01-.02.03-.03.04-.08.09-.2.18-.35.27-.51.4-1.05.77-1.55,1.15-.75.56-1.47,1.18-2.18,1.79-.27.41-.55.95-.79,1.19-1.45,1.48-6.6,5.34-8.42,6.23-.92.45-3.59,1.1-3.96,1.85-.55,1.11.53,1.61,1.43,1.86.4-.02.81-.06,1.21-.07.79-.45,2.19-.23,3.24-.61,1.09-.4,3.36-1.99,4.01-2.19.54-.16,1.1.12,1.62-.1.81-.34,2.99-1.7,3.95-2.25,7.33-4.19,12.32-8.61,17.88-14.88,2.06-2.32,3.96-4.76,5.95-7.16,1.59-1.93,4.42-4.51,4.84-6.98.2-1.22.16-2.27.43-3.44.44-1.94.46-1.11,1.49-2.29,3.34-3.89,8.07-16.83,9.54-22.1.69-2.48.88-6.5,2.01-8.57.26-.47,1.1-1.23,1.21-1.57.14-.45-.17-.74-.11-1.01.05-.2.75-.89.94-1.22,1.07-1.76,2.32-4.56,3.51-6.07.37-.47,1.05-.71,1.4-1.14,1.53-1.93,3.13-4.86,3.98-7.22,1.83-5.06,3.2-11.21,5.7-15.95,1.13-2.14,2.35-2.58,3.77-4.21,2.2-2.53,2.33-4.53-1.21-5.54ZM336.58,440.74c-.52-.27-1.54-1.46-2.22-1.95-5.31-3.81-14.5-7.15-20.99-7.32-2.44-.06-5.1.54-7.52.05-1.06-.21-2.98-.84-1.33-1.93,3.97-.39,8.08-1.96,12.02-2.17,13.88-.74,31.16,1.63,42.64,10.26,9.04,6.8,16.19,18.4,23.34,27.2,1.08,1.33,2.29,2.55,3.38,3.87-1.87.16-3.84-.5-5.68-.47-2.28.03-4.88.6-7.21.62-.9-1.62-1.66-3.32-2.6-4.92-5.53-9.4-18.99-20.16-29.5-22.62-1.18-.28-3.38-.14-4.33-.62ZM384.82,516.8c-.68-1.13-3.65-1.32-4.19-1.82-.47-.43-1.02-2.27-1.16-2.95-1.41-6.88-.17-13.75-.24-20.64-.05-4.6-.61-10.32-1.83-14.73-.69-2.49-1.62-4.9-2.88-7.13l7.43-.38c.04.59.51.53.78.92,4.79,6.76,4.47,20.44,3.07,28.54-.71,4.11-2.28,9.14-1.95,13.34.13,1.58.94,3.31.97,4.85ZM337.65,447.33c.22-1.71.78-3.7-.07-5.26.19-.22,3.09.2,3.59.3,10.51,2.23,25.92,15.02,30.22,25.11.1.24.58,1.43.5,1.52-3.43.76-6.76,1.91-9.92,3.46-2.38-3.84-5.95-7.22-9.37-10.11-3.88-3.27-9.26-7.6-13.82-9.65-.98-.44-2.26-.73-3.32-.88l2.19-4.5ZM332.06,457.89c.67-1.75,1.33-3.33,2.39-4.88l.25-.09c2.87-.13,5.39,1.42,7.78,2.83,3.28,1.92,6.58,4.6,9.48,7.12,1.37,1.19,2.62,2.52,3.88,3.76,2.02,1.99,4.26,3.55,5.23,6.45-4.01,1.57-7.27,4.54-10.56,7.26-2.74-3.2-5.13-6.44-8.93-8.4l.05-.03c-.26-.18-.48-.41-.72-.63-.17-.15-.34-.3-.51-.44-.07-.03-.14-.06-.2-.1-.08-.04-.15-.09-.23-.15-.1-.03-.17-.09-.21-.16-.3-.24-.63-.53-1.05-.74-2.75-1.37-6.31-2.33-9.33-2.76.6-3.04,1.58-6.12,2.69-9.02ZM358.48,501.98c-1.69-6.48-1.48-12.68-2.49-19.13-.28-1.8-.63-3.3-1.89-4.63l5.72-3.8c1.28,2.39,2.4,4.8,2.96,7.49,1.83,8.85-.27,16.87-1.78,25.52-.05.3.15.34-.36.34l-1.13-3,.37-.35c-.83.36-1.2-1.71-1.39-2.43ZM329.2,471.24c.28-1.16.14-2.17.31-3.31.68-.56,6.36,1.48,7.41,1.97,2.41,1.13,6.79,4.15,8.77,5.98.87.81,2.14,2.47,2.9,3.47.29.39,1.12,1.34,1.07,1.75l-7.55,9.5c-.41-.2-.41-.7-.62-.98-3-4.24-4.83-6.49-9.47-9.11-1.93-1.09-4.37-2.39-6.57-2.42,1.34-2.14,3.17-4.33,3.77-6.85ZM324.81,478.78c3.06.7,5.94,1.85,8.6,3.59,0,0,0,0,0,0,.25.08.46.26.67.42.25.2.52.35.76.57.02.01.04.03.06.04,1.42.94,3.79,3.59,4.79,5.04.64.93,1.16,1.95,1.56,3.01l-5.57,9.4c-.72-1.18-1.12-2.5-2.02-3.57-3.79-4.51-7.42-7.94-13.19-9.55-.52-.14-3.76-.6-3.78-.85,2.27-3.14,5.38-5.43,8.12-8.1ZM339.83,507.15c1.1,4.54,3.2,8.84,4.18,13.32,1.56,7.11,2.35,14.32,3.49,21.5.63,4.01,1.63,7.89,1.67,11.98,0,.7-.14,5.59-.68,5.65-1.08-1.17-5.36-4.33-5.65-5.75-.11-.53.38-2.3.43-3.11.26-4.78-2.52-9.6-3.3-14.38-1.34-8.26.44-15.74-2.45-23.96-.87-2.48-2.67-4.76-3.07-7.34h-.79s5.09-7.78,5.09-7.78c.4,1.05-.21,1.99-.17,2.95.08,1.85.8,5.06,1.25,6.93ZM316.09,518.71c.66-9.32-4.05-20.02-.8-29.14.39-1.1.55-1.58,1.76-1.57,4.54.04,9.63,3.13,12.81,6.28,1.4,1.39,4.27,4.53,4.69,6.41.45,2.03-.16,1.76-1.02,3.14-.85,1.37-1.61,2.82-2.42,4.22-3.42,4.61-7.23,8.85-11.5,12.64l-.04-.04c-.34.29-.8.48-1.24.61-.12.07-.24.14-.36.21-.39.22-.8.44-1.23.57-.21.06-.47.12-.69.05-.18.18-.42.32-.7.31.14-1.26.65-2.39.74-3.68ZM321.93,533.55c0,.07,0,.12-.03.17.02.4-.02,1.1-.27,1.14l-.24-1.01c-.06-.05-.1-.12-.11-.22-.02-.41-.16-.79-.27-1.18-.36-1.13-.73-3.44-.93-4.14-.37-1.25-1.15-2.74-1.53-3.78-.24-.67-.49-1.4-.64-2.1l2.7-1.63c.69.52.25,1.49.34,2.28.28,2.59.94,5.18,1.05,7.8.01.3.06,1.56-.16,2.1.04.19.08.37.09.57ZM325.52,543.66c-1.87-.18-3.35-1.77-4.45-3.2-2.53-3.29-3.79-7.55-4.61-11.63-.2-1.01-.2-2.06-.36-3.08l-.78.09c.02.3.06.61.1.91.02.05.03.1.02.17.06.44.11.88.13,1.33.12.39.27.77.38,1.13.29.92.33,1.91.47,2.86,0,.06.02.13.03.19.03.12.06.23.09.35.01.06.02.11,0,.16.15.71.36,1.41.57,2.11,1.28,3.16,2.78,5.97,5.62,8.45.44.38,1.12.28,1.08.85-1.99.25-3.84,1.58-5.13,3.08-1.16,1.35-2.61,2.71-3.6,3.89-.56.67-.97,1.31-1.66,2.1-7.26,8.4-10.66,18.67-20.79,24.54-2.65,1.54-10.57,5.17-13.38,5.26-2,.07-2.56-1.3-1.69-3.05.79-1.59,2.69-3.4,3.79-4.92.37-.52.65-1.43,1.12-1.82.84-.71,4.4-1.7,5.68-2.26,4.02-1.76,7.76-3.56,10.94-6.71.76-.75,6.1-6.73,6.13-7.21-.77-1.43-1.17.18-1.67.83-2.04,2.68-5.14,6.25-7.85,8.15-3.65,2.55-8.11,4.14-12.21,5.76-.13-.34.1-.42.23-.63.34-.57.98-1.35,1.4-1.95,1.23-1.76,2.26-3.71,3.31-5.68.52-.99,3.34-7.15,3.67-7.39.31-.23,1.23-.31,1.75-.57,1.45-.71,4.45-2.9,5.87-3.94,2.23-1.63,4.37-3.67,6.52-5.41l-.53-.62c-3.83,3.79-8.13,7.04-12.95,9.35-.15-.12,1.11-3.16,1.23-3.64.83-3.43,1.12-7.12.6-10.65-.06-.37-.31-.69-.31-1.08l6.39-.3c1.87-.64,3.95-.3,5.83-.69.48-.35.35-.96-.28-.98l-12.2,1.38c-.12-.65-.31-1.31-.54-1.93-1.66-4.53-4.55-8.57-7.58-12.17-.36-.43-4.22-4.76-4.01-5,2.51-.08,4.74.54,6.96,1.69,4.77,2.47,8.6,6.57,13.6,8.8.32.14.68.62.92.63.36.03.81-.28.57-.71-.22-.4-3.19-1.5-3.85-1.91-4.63-2.91-9.44-8.07-14.95-9.11-1.26-.24-3.01-.16-4.21-.54-.71-.22-3.11-2.34-3.72-2.98-.39-.42-.76-.88-1.13-1.37-.1.01-.21-.02-.29-.12-.16-.2-.37-.35-.58-.5-.09.03-.19.02-.28-.08-.52-.55-1.2-.88-1.72-1.42-.23-.24-.44-.51-.65-.78-.36-.24-.71-.56-.98-.92-.78-.51-1.55-2.58,0-2.9.79-.16,4.1,0,5.09.08,7.68.63,15.34,4.31,21.96,8.13,3.37,1.95,9.2,6.69,12.79,7.1,1.82.21,3.55-.26,5.36-.25.32.17,2.07,4.6,2.28,5.28.56,1.78,1.38,4.65,1.73,6.44.17.85-.07,3.71.74,3.85l.77-.32c.13-2.18.58-4.4.52-6.6-.09-4-1.34-7.98-1.04-12,2.03-1.93,4.12-3.84,5.97-5.96,1.03-1.18,2.28-2.7,3.19-4.04.82-1.21,1.42-2.59,2.27-3.79.21.14.37.27.5.5,1.31,2.36,2.93,6.1,3.7,8.7,2.03,6.84.57,13.88,1.51,20.84.63,4.67,4.37,11.64,3.42,16-.07.3-.11.58-.35.8-.36-.18-.44-.72-.7-.93-3.83-3.08-7.66-5.85-12.48-7.49-1.61-.55-1.78-.4-3.31-.55ZM376.96,578.08c-1.33,1.3-3.04,2.02-4.6,2.97-.5.31-1.13.93-1.51,1.14-.31.17-.25-.03-.34-.2-.61-2.21-2.86-4.06-2.06-6.49-1.73-1.35-1.41.86-1.09,2.08.41,1.55,2.47,3.8,2.24,5.22-.06.36-.46.67-.43,1.13.03.46.48.63.52,1.12.31,3.79-8.33,8.01-10.66,10.24-.15-.82.08-1.7.04-2.53-.07-1.32-.39-2.7-.44-4.01-.07-2.23.17-4.63.03-6.86-.53-.62-.92-.27-.92.47-.01,5.25.99,10.55-.2,15.72-.33.65-1.09.94-1.48,1.34-.75.76-1.2,1.38-2.09,2.12-2.29,1.91-6.78,4.24-8.53,6.13-.39.42-.58,1.04-1.03,1.53-1.4,1.54-3.35,2.67-5.31,3.31-.25.08-.38.03-.3-.24.13-.43,1.77-2.19,2.17-2.78,4.02-5.84,6.4-14.9,8.36-21.79.22-.78,1-2.23,1.07-2.77.09-.63-.34-.61-.85-.53-1.03,3.27-1.75,6.65-2.87,9.9-1.62,4.71-3.6,10.41-6.4,14.46-.8,1.16-1.96,2.28-2.71,3.44-.14.22-.09.63-.14.7-.1.11-1.11.1-1.53.29-.6.27-.95,1.28-1.78,1.64-1.51.64-3.87,1.03-5.5.87-.92-.09-1.84-.72-2.95-.33,1.18-1.31,2.71-2.64,3.82-3.98,1.52-1.82,3.46-4.36,4.89-6.3,2.91-3.92,5.12-8.22,6.46-12.86.11-.37.04-.71.21-1.2.04-.12.05-.36.15-.42.39-2.16,1.14-4.5,1.58-6.83.11-.56.55-.84.09-1.45l-.85.27c-.24,2.21-.74,4.62-1.31,6.78-2.04,7.8-4.1,11.01-8.88,17.17-3.3,4.25-6.87,10.08-12.81,10.26-.77.02-2.07-.76-2.96-.67-.04.57.15.32.48.4.42.1.87.1,1.29.18.51.09.53.21,0,.23-.45,0-1.94-.06-2.12-.49l.23-.69c1.17-.46,2.06-1.36,3.08-2.03,2-1.3,2.85-1.69,4.68-3.46,5.49-5.31,8.11-10.64,10.09-18.17.6-2.27,1.62-5.72,1.91-7.93.12-.88-.21-1.14-1.04-.94l-.35,3.28-1.79,6.29c-.18-.71.07-1.42-.01-2.13-.3-2.48-.95-4.85-1.01-7.38-.13-6.49,2.06-14.25.99-20.39-.12-.66-.39-1.05-.58-1.65.84.07,1.63.08,2.47-.07.71-.13,2.18-.52,2.87-.74.39-.13.86-.64.78-1.09-1.9.12-3.68,1.48-5.65,1.19-.74-.11-1.93-1.42-2.63-1.88-1.5-.99-3.91-1.57-3.58-3.86.31-2.12,2.4-5.58,2.59-7.73.06-.62-.12-1.25-.15-1.86.19-.24,2.76.86,3.18,1.06,3.72,1.75,6.44,3.58,9.18,6.72,2.46,2.82,4.38,5.43,7.42,7.81,5.94,4.65,15.6,8.03,22.95,9.13,3.69.55,7.63.28,11.36.5-2.72,1.68-4.32,4.85-5.79,7.65ZM383.7,569.38c-1.72.29-3.48.14-5.21,0v-1.13c-.03-.07-.06-.15-.09-.23-.07-.26-.03-.53.02-.79.01-.06.03-.13.04-.19-.02-.56.05-1.12.25-1.63.03-1.93.24-3.56.12-5.69-.01-.23-.19-.54.14-.52.89,1.86,2.07,3.59,3.11,5.38.25.34.46.71.67,1.08.21.38.43.78.55,1.21.44.87,1.03,2.22.39,2.51ZM389.99,567.89c-1.75-.43-3.11,1.46-4.99,1.15-.27-1.08-.74-2.1-1.24-3.08-1.47-2.86-3.71-5.75-5.06-8.56-1.43-2.97-2.24-6.52-3.12-9.68-.06-.23-.14-.34-.35-.46l-.94.49c-.11.23-.05.48-.02.72.08.59.84,2.7,1.09,3.4.93,2.63,2.15,5.17,2.68,7.96.23,1.21-.04,7.67-.46,8.71-.14.34-.69.4-.45.99-9.65-.52-19.56-3.48-27.56-9.05-.2-.26.35-4.21.36-5,.08-7.12-2.29-13.53-2.39-20.6-1.05-5.18-1.62-10.51-2.7-15.68-.54-2.59-2.12-5.43-2.95-8.07-.96-3.03-2.58-9.13-2.31-12.19.07-.81.67-1.58.2-2.42l-.73-.2c2.73-4.66,6.3-8.69,9.47-13.03,1.01-1.23,2.34-1.17,2.87-2.76l2-1.65c1.97,1.19,2.33,8.57,2.55,10.87.48,4.82.85,9.77,2.42,14.42.69,2.05,2,3.91,2.34,6.12.34,2.2-.03,5.6.45,7.63.17.73.3.78,1.03.61-.13-1.4.03-2.96-.06-4.34-.09-1.47-.65-3.37-.62-4.69.12-4.8,1.8-9.72,2.38-14.49.89-7.28.02-14.49-3.12-21.1.41-.28,1.03-.22,1.4-.37.16-.07.1-.37.46-.56,2.66-1.35,5.66-2.36,8.49-2.88.31-.06,1.95-.25,2.04-.19.58.84,1.02,1.87,1.51,2.68,6.8,11.35,2.05,25.58,3.84,37.93.19,1.29.61,2.75.84,4.05-2.53.07-4.63-.66-6.62,1.37-1.74,1.78-1.03,4.11-.03,6.11,1.17,2.36,3.16,4.89,4.38,7.37,1.07,2.16,1.01,4.23,2.65,6.17.45.53,1.57.62,2.13,1.14l3.6.29c.73,1.57,1.89,3.25,2.54,4.83,2.27,5.5,3.23,16.81,2.57,22.77-.12,1.08-.38,2.2-.59,3.26ZM379.15,533.04l-.06-.6.19-.02.06.6-.19.02ZM390.79,542.63c.76,2.63,1.45,5.31,2.38,7.89,1.45,4.02,5.49,11.45,3.73,15.66-.32.77-3.06,2.07-3.84,2.13-.55.04-1.3-.95-2.09-.52l.71-6.26c-.21-5.88-.6-12.15-2.2-17.9-.68-2.46-1.95-4.74-3.22-6.92l3.25-.98c-.42,2.52.62,4.62,1.28,6.9ZM413.59,567.12c-.3.79-.85,1.73-1.16,2.52-1.59,4.02-2.9,8.9-6.16,11.82.13-.95-.13-1.94-.07-2.88.09-1.37,1.06-3.17.07-4.53-1.54.05-.59.81-.52,1.24.12.76-.63,2.85-.65,4.17-.02,1.94-.42,2.98-.49,4.56-.05,1.05.18,1.97-.01,3.09-.37,2.08-3.35,5.53-4.75,7.23-1.77,2.15-3.78,4.14-5.56,6.29l1.41-3.13c.52-2.22,1.67-4.45,2.09-6.68.13-.71.24-1.31-.66-1.46-1.25,5-2.91,9.94-5.9,14.14-1.77,2.48-3.96,4.21-6.24,6.2-1.36,1.18-2.89,2.12-4.41,3.12-.6.39-2.72,2.04-3.14,2.17-.06.02-.13.03-.2.03-.15.08-.31.14-.44.2-.16.07-.33.13-.5.19,0,.09-.03.17-.09.23-.07.06-1.36.76-1.57.86-1.67.79-3.47.98-4.97,1.57-.88.34-1.6,1.7-2.35,1.91-.92.26-2.64-.09-3.71.5l6.24-3.36c6.19-5.43,12.37-10.6,17.02-17.6.73-1.1.92-2.33,1.3-3.04.08-.14.52-.2.69-.43,1.61-2.09,3.58-5.79,4.62-8.25.2-.46,1.05-2.46,1.09-2.76.09-.65-.63-.8-1.01-.46-.18.15-.52,1.93-.69,2.35-.9,2.25-2.93,6.03-4.54,7.77-.86.93-2.21,1.46-3.22,2.28-1.51,1.23-2.49,3.04-4.2,4.03-.21.12-1.68.89-1.56.18.33-2.08,3.19-5.48,4.33-7.39,4.24-7.12,6.23-15.7,7.93-23.79.39-.32.99-.3,1.38-.51,5.05-2.69,10.35-5.1,15.47-7.91.5-.27,1.42-.4,1.8-.67.12-.09.45-1.01.78-1.41,1.42-1.7,3.28-3.52,4.77-5.2.63-.72,1.35-1.39,1.96-2.14-.8,5.11-2.35,10.08-4.17,14.92ZM412.32,556.76c-3.49,3.54-4.21,4.05-8.59,6.45-.75.41-5.39,3.34-5.81,2.98-.07-1.13.28-2.23.24-3.36-.18-4.43-2.6-8.19-4.02-12.17-.98-2.73-1.62-5.73-2.41-8.54-.64-2.27-1.69-4.17-1.16-6.71.67-1.05,8.67-3.03,8.61-3.5-.39-.36-.74-.75-1.32-.56l-11.22,4.31c-1.97.61-5.8.05-6.89-1.93-.2-.36-.06-.92-.29-1.42-.52-1.1-1.05-2.3-1.61-3.41-1.5-2.99-5.26-7.44-5.23-10.62,0-.81.92-2.2,1.66-2.47,4.72-1.71,10.52,1.79,14.59,4.02,1.64.9,4.82,3.4,6.58,3.44.95.02,1.12-.46.12-.84-2.61-.99-4.18-2.15-6.48-3.55-1.57-.96-2.6-.69-3.43-2.68-2.22-5.34-.35-10.83.53-16.16,1.32-7.97,1.87-17.24-.28-25.14-.2-.74-1.64-4.95-1.98-5.21-.29-.22-.72.04-.73-.32,1.5.19,3.33.14,4.79.36,2.38.35,6.17,1.37,8.51,2.09,2.64.82,5.36,2.31,7.64,3.89.12.22-.56,1.66-.72,1.97-2.16,4.48-5.1,8.55-7.61,12.82-2.19,3.74-4.38,7.12-3.88,11.78.41,3.79,3.3,5.33,4.92,8.7,1.95,4.06,1.31,7.12,1.73,11.25.3,2.97,1.83,4.97,2.54,7.64,1.42,5.36-.16,12.13,5.35,15.7,1.96,1.27,6.82.81,7.82,1.85.15.16.19.5.32.61,1.05.87,2.2,1.75,3.36,2.42-1.52,2.4-3.68,4.3-5.65,6.31ZM419.99,547.82l-1.23,1.4c-1.53-.45-3-1.4-3.42-3.03l5.01.65-.36.98ZM438.96,512.02c-2.05,2.45-3.38,2.74-4.86,6.05-.39.87-.29,2.46-1.37,2.25l.43.26c-.71,2.04-1.18,4.26-1.87,6.32-.78,2.35-3.58,10.06-5.12,11.51-.36.34-.64.08-.95.47-.27.35-.31.98-.55,1.38-.63,1.05-1.44,2.13-2.11,3.2-1.19,1.92-.65,2.81-3.18,2.22-3.33-.78-3.14-.46-6.36-.12-1.62.17-2.77-.74-3.69-.72-1.34.03-.96.57-2.5-.43-2.4-1.55-3.42-4.09-3.89-6.86-.12-.68-.52-3.99-.4-4.42.07-.25.27-.31.48-.35l-.62-.46c-.38-1.89-.83-3.83-1.47-5.64-.87-2.45-1.37-2.73-1.55-5.75-.28-4.57,0-7.52-2.46-11.65-1.88-3.17-4.02-3.61-4.17-7.86-.23-6.41,6.12-14,9.27-19.41,1.06-1.82,1.83-3.82,2.99-5.58.26-.09,3.25,2.15,3.72,2.51,6.35,4.99,11.16,11.66,16.36,17.78,3.3,3.89,7.71,6.49,12.08,8.91.96,1.65-2.09,4.69-3.16,5.79-1.2,1.27-4.35,2.79-5.32,3.94-.25.29-1.26,2.94-.45,2.82.66-.82.62-1.72,1.43-2.47,2-1.88,4.54-3.05,6.63-5.32.32-.35.43-.93.85-1.31.87-.8,1.71-1,2.57-.1,1.12,1.18.07,2.04-.77,3.04Z" style="fill: #eaddb7;"/>
    <path d="M429.41,478.85c.02-.25.03-.5.09-.72.12-.39.5-.52.54-1.2.11-2.01-1.15-4.6-3.36-4.57-1.09.01-2.48,1.17-3.23,2.42-.08.54-.08,1.08-.03,1.62.04.49.07,1.04.22,1.51.28.87.99,1.61,1.73,2.09.86.57,1.81.6,2.73.11.34-.18.65-.41.96-.64.13-.2.25-.41.35-.63ZM428.3,479.07c-.64.49-1.49.65-2.28.63-.14,0-.25-.09-.3-.19-2.38-1.35-2.54-5.28.38-6.19,1.78-.56,3.44,1.85,3.17,3.54,0,.79-.23,1.53-.81,2.07,0,.04.02.07.03.09l-.19.05Z" style="fill: #eaddb7;"/>
    <path d="M433.23,444.67c-.73-1.58-2.89-2.54-4.52-2.08-.74.21-1.48.77-1.63,1.59-.16.87-.06,3.83.25,4.61.79,1.92,4.76,3.02,5.73,1.04.66-1.35.81-3.76.16-5.16ZM432.61,448.64c.1.7-.66,1.19-1.31,1.15-.4.11-.98.25-1.06.25-1.17.08-2.51-1.85-2.59-3.02-.16-2.45.09-3.88,2.83-3.62,1.16.11,2.25,1.49,2.41,2.63.05.33-.12,2.11-.28,2.61Z" style="fill: #eaddb7;"/>
    <path d="M401.87,442.52c-.59.72-2.26-1.58-2.58-1.83-.4-.3-1.19-.36-1.69-.57-.23-.1-.85-.26-.79-.58.09-.48.85-.15,1.13-.09.58.14,2.03.61,2.5.9.42.26,1.77,1.74,1.43,2.16Z" style="fill: #eaddb7;"/>
    <path d="M440.83,463.06c.24.77-.39,1.12-.51,1.87-.04.27-.11,1.55-.08,1.76.06.38.5.43.47.84-.46.07-1.12.26-1.23-.37-.03-.19-.04-1.97-.02-2.22.03-.34.3-1.66.52-1.77l.85-.12Z" style="fill: #eaddb7;"/>
    <path d="M429.1,606.45c-.18.23-.83-.31-.65-.53s.83.31.65.53Z" style="fill: #eaddb7;"/>
    <polygon points="444.91 527.05 444.93 527.25 444.55 527.29 444.53 527.1 444.91 527.05" style="fill: #eaddb7;"/>
    <path d="M341.08,591.04c.04-.12.05-.36.15-.42-.04.23-.15.4-.15.42Z" style="fill: #eaddb7;"/>
    <path d="M426.04,474.46c-.56-.46-1.1,1.5-1.13,1.89-.08,1.08.28,2.78,1.48,1.58.19-.81-.62-.55-.68-1.31-.04-.47.62-1.94.33-2.17Z" style="fill: #eaddb7;"/>
    <path d="M329.62,525.1c.63.42.98,2.38.93,3.14-.03.47-.81,3.56-1.02,3.91-.44.72-1.41.66-1.99.16s-1.68-3.75-1.66-4.62c.03-1.22,1.2-2.85,2.46-2.91.12,0,1.21.26,1.28.31ZM327.98,531.06c.8.56,1.15-.59,1.34-1.28.28-1.01.59-3.9-.87-4-2.44-.16-.98,4.04-.47,5.28Z" style="fill: #eaddb7;"/>
    <path d="M319.81,543.78c-1.3.42-1.15-.49-1.7-1.08-2.24-2.41-3.7-3.85-4.16-7.47-.02-.19-.04-1.69.12-1.74,1.05-.38.6,1.04.64,1.46.23,2.3,1.54,4.65,3.09,6.29.78.83,2.09,1.29,2.02,2.54Z" style="fill: #eaddb7;"/>
    <path d="M410.86,487.72c.35,1.27-.63,1.98-1.27,2.88.41.45,1,.5,1.48.84,3.08,2.18,3.82,4.2,5.92,7,.48.65.92.76,1.21,1.06.07.07-.03.99.02,1.25.36,1.87.13,3.16.33,4.45.04.24.35.43.36.74.02.68-3.9,6.56-4.61,7.35-.52.57-2.45,2.18-3.13,2.18-.43,0-.71-.36-.49-.77.11-.21,1.14-.55,1.48-.79.79-.55,1.4-1.27,2.09-1.93l1.16-2.05c-1.06-.32-2.21-.02-3.22-.09-1.49-.11-5.97-3.24-7.03-4.45-2.57-2.93-4.1-8.65-1.18-11.8-1,.45-2.08.45-3.14.25-.45-.08-1.37-.18-1.27-.87.09-.65,1.11.04,1.53.08,2.42.22,7.24-1.6,8.44-3.93.23-.44.18-.76.34-1.18l.98-.2ZM405.41,504.48c1.17,1.5,5.71,4.49,7.63,4.47,1.61-.01,3.8-.21,4.37-2.06.15-.48.49-2.9.48-3.44-.04-2.71-2.56-6.61-4.3-8.64-.87-1.02-3.4-3.44-4.71-3.54-.48-.04-1.17.98-1.66,1.21-1.63.78-1.93.57-3.11,2.38-1.7,2.6-.51,7.31,1.29,9.61Z" style="fill: #eaddb7;"/>
    <path d="M408.79,511.5c.41-.14.95.38,1.35.36,1.17-.08,2.43-1.32,3.26-.41-1.14,1.17-3.98,2.26-5.03.56,0-.13.28-.46.42-.51Z" style="fill: #eaddb7;"/>
    <polygon points="414.06 543.5 414.1 543.9 413.72 543.94 413.67 543.54 414.06 543.5" style="fill: #eaddb7;"/>
    <path d="M378.3,522.74c-.14-.13-.92-1.26-.71-1.48l.55-.47c1.32,2.88,4.47,1.56,6.68,1.93,1.54.26,2.84,1.56,4.5,1.05.48-.14.93-1.02,1.3-.03.03.28-.22.61-.46.72-.13.06-2.11.44-2.26.44-.4,0-2.1-.99-2.82-1.14-1.43-.3-2.85.13-4.21-.09-.26-.04-2.46-.85-2.56-.94Z" style="fill: #eaddb7;"/>
    <path d="M382.28,528.81l-.11-.77c1.88,0,5.13,1.23,6.77-.14.33-.27.08-1.07.51-1.27h.68c.81,1.02-.61,2.09-1.48,2.45-2.07.85-4.29.18-6.37-.26Z" style="fill: #eaddb7;"/>
    <path d="M381.62,532.16c2.25.5,3.18.98,5.5.05.71-.28,2.54-1.72,2.73-1.77.27-.07.49.17.53.43.12.6-.25.7-.65.94-1.24.74-4.47,2-5.84,1.87-.4-.04-2.66-1.07-2.28-1.52Z" style="fill: #eaddb7;"/>
    <polygon points="383.7 512.87 383.73 513.07 383.34 513.11 383.32 512.92 383.7 512.87" style="fill: #eaddb7;"/>
    <path d="M426.04,474.46c.29.23-.38,1.7-.33,2.17.07.76.88.5.68,1.31-1.21,1.2-1.56-.51-1.48-1.58.03-.39.57-2.35,1.13-1.89Z" style="fill: #eaddb7;"/>
    <path d="M412,501.62c.95-1.22,4.39.8,4.92,1.93.79,1.67-1.5,4.66-3.08,3.91-1.18-.56-2.8-4.62-1.85-5.84Z" style="fill: #eaddb7;"/>
  </g>
  <path d="M297.06,606.69l-.06.28c.12-.15.26-.27.41-.36-2.41-.31-4.82.16-7.15.81-2.52.71-2.22.73-4.2,2.27-.83.65-1.85,1.07-2.7,1.7-2.29,1.69-4.39,3.97-6.82,5.49-.57.36-4.53,2.47-4.88,2.52-.45.06-1.27-.45-1.46.32.65.23,1.73.23,2.37-.02.56-.22.96-.76,1.51-1.08,1.42-.82,2.58-1.12,4.05-2.21,3.98-2.97,8.22-7.53,13.07-8.78,1.05-.27,3.71-.87,4.5-.9.42-.01.9.21,1.36-.03Z" style="fill: #eaddb7;"/>
  <path d="M84.62,1255.72l-.09.46c.19-.24.42-.44.68-.59-3.98-.51-7.97.26-11.82,1.35-4.17,1.18-3.67,1.2-6.95,3.75-1.37,1.07-3.06,1.78-4.47,2.81-3.78,2.79-7.26,6.56-11.27,9.08-.95.59-7.49,4.08-8.07,4.16-.74.1-2.1-.74-2.42.53,1.07.39,2.86.38,3.92-.04.93-.37,1.58-1.26,2.49-1.79,2.35-1.35,4.27-1.84,6.69-3.66,6.59-4.92,13.59-12.46,21.61-14.52,1.74-.45,6.13-1.44,7.43-1.48.69-.02,1.49.36,2.25-.06Z" style="fill: #eaddb7;"/>
  <path d="M403.62,2047.63l-.09.46c.19-.24.42-.44.68-.59-3.98-.51-7.97.26-11.82,1.35-4.17,1.18-3.67,1.2-6.95,3.75-1.37,1.07-3.06,1.78-4.47,2.81-3.78,2.79-7.26,6.56-11.27,9.08-.95.59-7.49,4.08-8.07,4.16-.74.1-2.1-.74-2.42.53,1.07.39,2.86.38,3.92-.04.93-.37,1.58-1.26,2.49-1.79,2.35-1.35,4.27-1.84,6.69-3.66,6.59-4.92,13.59-12.46,21.61-14.52,1.74-.45,6.13-1.44,7.43-1.48.69-.02,1.49.36,2.25-.06Z" style="fill: #eaddb7;"/>
  <path d="M286.71,480.12l-.09.09c.08-.02.17-.01.25.01-.9-1.02-1.99-1.73-3.09-2.34-1.19-.65-1.07-.54-2.24-.65-.49-.05-1-.26-1.5-.32-1.33-.17-2.72-.04-4.06-.33-.32-.07-2.42-.69-2.57-.8-.2-.14-.41-.65-.67-.42.21.34.65.74.97.87.28.12.57.05.87.13.77.2,1.31.51,2.16.62,2.32.29,5.11.02,7.37,1.33.49.28,1.71,1.03,2.03,1.31.17.15.32.42.56.49Z" style="fill: #eaddb7;"/>
  <path d="M79.53,2175.32c.32-.29,1.13-1.92,1.8-2.17,3.91-2.31,5.48-6.4,7.59,1.64,1.83,6.95,2.96,11.61,6.01,17.64,1.26,2.48,4.91,6.37,6.93,6.38.75,0,1.49-.79,2.19-.24.33.26.48,1.17.79,1.56,1.36,1.65,2.64,2.41,4.07,3.63.51.44,1.31,1.86,1.75,2.05,1.92.85,3.67-.77,5.07-.72,1.05.03,4.23.89,5.41,1.22.67.19,1.33,1.31,2.35,1.53.75.16,2.33.19,3.07.05,3.53-.67,4.95-7.63,9.78-6.75.73.13,1.19.98,1.86,1.14.88.21,2.21-.34,3.24.44l.68,2.61c.52.5,1.61-.43,2.43-.21.42.11,2.05,1.66,2.47,2.16,2.57,3.08,3.87,8.14,5.79,11.64,1.26,2.3,3.48,6.01,5.02,7.7,1.09,1.2,8.67,6.03,10,6.39,2.61.7,7.2-.92,10.15-.2,1.87.45,3.35,3.63,5.4,3.95,3.42.52,4.47-1.71,7.4-2.9,4.14-1.67,5.75,1.03,9.46,2.68s5.91,1.34,9.64,1.79,5.83,2.03,10.01,1.15c1.11-.23,7.12-4.84,7.64-6.08.31-.74-.07-1.3.09-1.79.15-.46.82-.82,1.13-1.44,2.51-4.97,2.51-7.09,3.18-12.89.12-1.02.6-1.91.7-2.88.09-.91.3-5.06.26-5.88-.17-4.25-6.52-13.01-8.44-16.3-.33-1.68,1.41-6.92,2.17-8.39,1.88-3.63,6.96-5.59,9.86-8.57,5.86-6.04,9.7-11.04,10.26-22.61.08-1.6.22-3.15.29-4.65.23-5.09-.28-9.05-1.99-13.49-2.35-6.1-4.61-5.67-8.28-8.23-3.35-2.34-8.58-7.16-12.23-7.33-2.93-.14-5.71,2.3-8.86.61-4.03-2.18-6.15-3.68-10.68-3.37-4.47.3-10.09,3.84-14.27,4.19-4.51.38-8.41-2.7-11.59-7.52-3.36-5.09-3.45-10.74-8.34-13.66-1.46-.87-3.12-.99-4.57-2.07-1.09-.82-2.17-2.54-3.2-3.38-3.5-2.85-11.58-3.36-15.84-4.51-8.17-2.19-13.77-6.69-22.05-.89-3.16,2.21-3.34,5.96-7.34,2.97-3.75-2.8-7.18-8.23-10.69-11.64-1.12-1.09-5.35-4.83-6.39-5.2-1.72-.61-3.76-.54-5.63-1.23-2-.73-5.06-3.14-6.86-3.32-3.71-.37-6.55-.3-10.29.03-3.39.29-6.28-1.7-9.63.22-2.47,1.42-10.09,14.43-11.2,18.37s-.91,8.43-2.71,12.05c-5.69,11.48-20.23,9.77-25.09,20.73-1.23,2.78-2.37,10.99-2.68,14.45s-.63,6.33.07,9.76c.48,2.37.72,2.96,1.07,5.46.64,4.56,3.6,6.23,5.18,9.05.34.62.39,1.55.74,2.03.46.63,2.81,1.21,3.71,1.81.96.64,5.85,5.51,6.32,6.5.29.6.22,1.37.68,2.12,1.09,1.79,4.78,5.38,6.34,5.68,2.06.39,4.05,1.32,5.89,1.61,1.09.17,2.24-.34,3.02-.22,1.58.22,4.52,3.29,5.94,3.38,4.6.3,10.04-4.14,13.94-7.6ZM32.25,2154.43l-.34.08c-1.27-2.31-4.35-7.83-4.22-10.88.03-.64.5-1.14.52-2.34s-.43-2.12-.52-3.2c-.29-3.47,1.75-13.96,3.21-16.74,3.52-6.67,12.78-8.61,17.93-11.97,1.84-1.2,3.74-3.17,5.45-4.63,1.12-.96,2.94-4.52,2.98-6.57.06-3.04-.09-4.08.63-7.29,1.34-5.94,3.92-8.75,6.69-13.04,1.03-1.6,1.85-3.82,3.37-5.1,3.03-2.54,5.78-.56,8.71-.53.9.01,2.18-.65,3.09-.7,2.66-.17,6.81.35,9.48.81,1.86.32,3.95,2.33,5.81,2.96,1.69.58,3.35.49,5.1,1.25,5.78,2.51,11.24,11.06,16.28,16.09.78.78,2.67,2.86,3.48,2.98,2.09.32,3.02-2.36,4.39-3.88,7.01-7.76,16.26-2.63,23.9-.5,2.31.64,5.04.97,7.4,1.67,2,.6,5.48,1.33,7.09,2.94.72.72,1.39,2.19,2.26,2.84,1.89,1.42,4.82,1.44,6.63,3.25,2.61,2.61,3.11,6.3,4.9,9.47,1.16,2.06,3.5,5.7,4.99,6.96,2.19,1.85,4.78,3.09,7.07,4.48,7.67-1.74,15.47-6.71,23.29-3.71,1.7.65,3.9,3.16,5.3,3.35,1.76.24,4.51-1.1,6.39-1.18,4.63-.22,9.05,4.29,13.08,7.2,1.45,1.05,3.86,1.83,5.05,3.3,2.26,2.78,5.21,12.57,3.53,16.66-.5,1.22-1.07,3.01-1.2,4.7-.07.92.27,1.82.15,2.55-.22,1.31-2.22,3.71-2.86,4.71-1.95,3.09-4.03,7.14-6.49,9-3.36,2.53-8.81,3.81-11.56,7.34-.32.42-2.43,4.48-2.54,4.99-1.75,8.67,7.28,17.39,9.87,24.01.19.48.64,1.66.7,2.09.08.58-.11,6-.2,6.83-.23,2.13-2.87,9.9-3.92,11.37-4.22,5.87-18.16,6.88-23.6,5.42-3.33-.89-4.95-3.28-7.66-4.84-.51-.29-3.02-1.31-3.49-1.39-.82-.13-2.2,1.15-3.13,1.47-2.43.84-5.39,1.63-7.87,1.24-2.17-.34-4.48-2.23-6.69-1.88-1.5.24-2.98,1.57-4.66,1.57-7.03.02-11.88-6.68-16.21-14.26-3.37-5.9-5.87-13.39-11.23-15.55-3.24-1.3-9.95-1.66-12.87.94-.89.78-2.12,4.15-3.55,4.9-2.46,1.29-3.66-.93-5.53-1.34-2.76-.61-6.05-.33-8.72-.8-1.14-.2-3.03-.76-3.88-1.98-.55-.8-1.17-3.47-1.85-3.88-.31-.19-.79-.04-1.11-.27-2.58-1.85-2.34-.94-4.72-1.41-3.26-.65-5.42-7.13-7.19-10.93-.91-1.96-1.65-3.06-2.36-5.66-.91-3.33-1.02-8.22-3.47-9.69-3.15-1.88-6,2.18-8.58,4.23-4.06,3.22-6.4,3.85-10.84,4.26-.73.07-1.36.8-2.07.83-2.77.14-5.86-3.49-8.47-4-1.48-.29-4.03.85-5.63.79-.9-.03-2.22-.61-2.98-1.38-2.94-2.99-4.75-8.92-8.16-11.57-1.48-1.15-3.27-1.74-4.78-2.53-1.26-.66-2.8-2.35-2.51-4.65-.56,0-1.02-.29-1.07.72ZM147.32,2205.43c-.09-.24-.18-1.06.07-1.11l.9,1.97c-.18-.21-.94-.78-.97-.86ZM224.1,2234.24c-1.18,2.17-6.94,3.74-8.8,3.7-1.47-.03-3.02-1.24-4.4-1.58-2.26-.56-4.67.03-7.11-.53-3.75-.87-8.53-5.44-12.04-4.46-1.97.55-5.93,4.04-7.58,3.81-1.25-.18-2.95-2.57-4.25-3.38-3.27-2.06-4.65-1.07-7.85-.98-1.92.05-4.26.08-6.08-.94-.45-.26-1.27-.75-1.5-1.45,1.81.11,4,1.6,5.76,1.54,2.01-.08,3.17-1.88,5.94-1.53,2.37.3,5.88,3.3,7.72,3.19.28-.02.61,0,.79-.41l.13-1.57c2.73.29,5.79-2.4,8.34-2.01,1.97.3,4.9,3.51,7.03,4.62,6.08,3.16,17.22,2.04,23.34-1.04,1.55-.78,2.99-2.22,4.49-3.18.42.57-3.33,4.52-3.61,4.93-.2.29-.17,1-.32,1.27ZM239.09,2169.54c-.5,1.17-1.39,2.46-2.31,2.76.58-1.06,1.29-2.86,2.31-2.76Z" style="fill: #e7dcba;"/>
  <path d="M208.99,2253.33c.48.1.89,0,1.03-.78h-1.03s0,.78,0,.78Z"/>
  <path d="M224.1,2234.24c.15-.28.11-.98.32-1.27.29-.41,4.03-4.37,3.61-4.93-1.5.96-2.94,2.4-4.49,3.18-6.12,3.07-17.26,4.19-23.34,1.04-2.13-1.11-5.05-4.31-7.03-4.62-2.55-.39-5.61,2.29-8.34,2.01l-.13,1.57c-.18.41-.5.4-.79.41-1.84.11-5.35-2.89-7.72-3.19-2.77-.35-3.93,1.45-5.94,1.53-1.76.07-3.95-1.42-5.76-1.54.22.7,1.04,1.19,1.5,1.45,1.81,1.02,4.16.99,6.08.94,3.21-.09,4.58-1.08,7.85.98,1.3.82,2.99,3.21,4.25,3.38,1.64.23,5.61-3.26,7.58-3.81,3.51-.98,8.29,3.59,12.04,4.46,2.44.57,4.85-.03,7.11.53,1.38.34,2.92,1.55,4.4,1.58,1.86.04,7.62-1.53,8.8-3.7Z" style="fill: #e7dcba;"/>
  <path d="M147.32,2205.43c.03.08.79.65.97.86l-.9-1.97c-.25.06-.16.87-.07,1.11Z" style="fill: #fff;"/>
  <path d="M220.49,2216.05c1.47-2.08,1.79-7.39,1.29-10.24-2.68-15.22-16.09-20.59-24.62-26.2-1.06-.7-2.15-1.97-3.17-2.64-6.92-4.53-16.16-6.89-23.13-1.8-2.72,1.99-4.9,6.31-8.16,7.05.02.52.23.82.02,1.36-1.01,2.51-3.6,5.17-4.66,7.5-1.12,2.45-.93,7.4-.48,10.23,1.13,7.14,7.29,14.66,11.79,16.26,4.09,1.46,9.33,1.97,13.54,2.51,5.17.67,8.15-1.06,12.84-1.54,3.63-.37,3.69,1.1,6.56,2.56,5.16,2.64,14.09.72,18.18-5.06ZM217.63,2198.15c2.1,3.92,4.58,12.48,1.63,16.62-4.01,5.62-11.99,6.62-16.95,3.97-1.21-.65-2.06-1.92-3.48-2.17-4.29-.75-9.11,2.13-13.9,1.6-1.43-.16-2.94-1.02-4.37-1.2-7.86-.98-12.39,1.02-18.64-8.49-3.3-5.01-1.14-14.58,1.83-18.93,1.25-1.83,2.23-1.2,3.66-2.28,1.66-1.26,2.94-4.37,4.35-5.58,3.7-3.17,5.58-1.25,9.07-1.46s4.57-1.59,8.67-.31c4.07,1.27,7.02,3.23,10.74,5.23,1.53.82,7.82,2.94,8.5,4.34.2.4.25.91.24,1.4.47.19.63-.59.96-.73,1.26-.52,6.72,6.21,7.68,8Z" style="fill: #e7dcba;"/>
  <path d="M178.21,2128.94c.46-.96,1.25-1.01,1.41-3.19.23-3.13-1.04-3.77-1.87-5.65-1.36-3.08-4.85-12.7-6.84-14-1.08-.71-3.65-.56-4.94-1.1-1.8-.76-3.89-3.6-5.91-4.36-.98-.37-1.79-.07-2.62-.32-4.38-1.32-8.13-4.81-12.5-6.48-4.79-1.83-7.88-2.11-12.67-.1-5.91,2.48-12.55,9.06-10.09,20.05,3.39,15.15,11.61,18.24,20.65,22.03,5.93,2.49,14.44,5.84,20.52,6.06,1.23.04,5.01-.19,6.1-.5,1.52-.44,7.09-7.18,7.86-9.26.36-.98.47-2.27.9-3.17ZM124.68,2113.31c.15-1.63,2.25-9.39,3.04-10.36,1.63-2.02,5.75-4.68,7.84-4.95,5.47-.7,7.95,2.38,12.66,3.85,2.14.67,5.06.65,7.07,1.39,2.35.86,5.18,3.25,7.4,4.44,3.13,1.67,6.03,1.72,8.75,5.53,1.01,1.41,4.82,8.29,5.34,9.98.97,3.16-.4,7.98-2,10.19-2.68,3.7-5.7,6.38-9.4,6.14-9.38-.6-17.1-3.36-26.04-7.42-5.02-2.28-12.61-6.17-14.3-14.69-.23-1.16-.47-2.92-.36-4.09Z" style="fill: #e7dcba;"/>
  <path d="M71.97,2115.28c.29.43,3.82,3.05,4.51,3.54,5.85,4.22,13.45,8.48,19.99,8.05.82-.05,1.81-1.14,2.84-1.22.78-.06,1.71.53,2.24.33.64-.24,4.78-3.74,5.58-4.51,2.34-2.29,3.17-3.91,4.06-7.98,3.52-16.07-5.1-29.15-15-31.27-1.59-.34-3.73-.03-5.32-.53-1.49-.47-4.61-4.61-6.25-5.04-2.17-.57-5.56,2.17-8.1,1-.56-.26-.9-1.19-1.67-1.38-.59-.15-2.48-.17-3.02.06-.17.07-2.7,2.8-2.89,3.07-.83,1.2-.43,2.11-.69,3.28-.13.57-.57.85-.66,1.35-1.36,7.11-.84,20.5,2.31,26.73.47.94,1.43,1.82,1.61,2.27.26.64.15,1.79.47,2.25ZM100.76,2122.98c-.13.11-.13.86-.47,1.04-.52.28-1.37-.06-2,.1-6.53,1.67-13.39-1.75-19.37-5.89-2-1.39-7.11-6.72-8.31-9.36-1.69-3.73-2.95-15.17-2.15-19.52.75-4.04,4.58-6.99,7.15-6.35.74.18,1.19,1,2.07,1.17,2.68.52,4.55-1.57,7.26-.08.85.47,1.69,1.45,2.59,1.96,7.08,3.99,13.08.58,18.95,10.41.27.45,2.5,4.78,2.6,5.1.89,2.87.45,7.27.06,10.39-.12.95-.52,1.71-.65,2.56-.23,1.45.23,2.49-.59,3.83-.54.88-4.17,3.81-4.99,4.19-.66.31-1.94.28-2.14.47Z" style="fill: #e7dcba;"/>
  <path d="M109.62,2192.6c.26.24.79,1.4,1.28,1.77,1.97,1.47,6.22-.56,8.34.23,1.38.51,2.39,3.34,3.89,3.29,2.87-.09,4.18-2.41,6.38-3.67,4.85-2.76,10.47-4.18,15.11-8.4.89-.81,3.8-3.77,4.44-4.6,1.58-2.02,3.71-5.9,3.87-9.14,1.35-27.07-25.98-25.99-37.7-26.74l-.25-.71c-1.59,1-4.28.38-6.16.81-.83.19-7.21,4.39-7.49,5.12-.22.56.16,1.34.03,1.6-.1.21-1.37,1.03-1.94,2.15-1.47,2.87-1.97,9.73-2.29,13.48-.73,8.6-1.17,19.13,5.66,21.64,2.44.89,4.53,1.05,6.82,3.16ZM110.69,2190.19c-.16-.09-.5.35-.8.24-.41-.16-1.5-1.83-2.43-2.22-1.77-.73-5.16-.62-6.59-2.13-.42-.44-1.95-3.47-2.16-4.18-1.3-4.41-.22-10.02.19-14.54.22-2.47.05-6.2.83-8.6.08-.25,2.17-3.96,2.38-4.24,5.61-7.8,12.89-6.57,19.81-5.13.5.1,1.01-.05,1.51-.02.43,2.76,1.37,1.18,2.58,1.2,1.53.03,3.76,1.67,5.19,1.87.68.1,1.46-.41,2.48-.18,3.64.81,12.24,5.32,15.09,8.82,1.22,1.5,2.79,6.07,1.82,8.28l.78.81c-1.16,5.04-3.13,8.38-5.81,11.63-5.44,6.58-13.36,8.9-19.79,12.67-3.36,1.97-3.64-1.05-6.48-1.94-1.98-.62-4.84.49-6.6-.05-.13-.04-1.82-2.16-2.03-2.27Z" style="fill: #e7dcba;"/>
  <path d="M179.99,2146.5c-1,8.2,3.7,13.01,7.58,16.63,7.68,7.18,13.51,8.44,22.31,7.6,6.52-.62,11.4-2.03,16.94-7.6,2.67-2.68,7.75-10.17,9.06-14.54,2.49-8.35-.89-12.47-5.27-16.02-8.01-6.49-12.17-.5-19.43-1.76-2.11-.37-2.95-3.67-5.09-3.83-3.66-.27-9.39,2.34-12.92,4.2-1.72.9-4.75,2.57-6.31,3.75-.84.63-4.51,4.06-5.01,4.95s-1.71,5.4-1.86,6.62ZM181.22,2150.16c-.02-.87-.14-2.06.51-2.37l-.26,2.37h-.25ZM182.5,2146.61h-.77c.56-1.98.43-4.92,1.71-6.28.61-.65,2.84-1.05,2.92-1.25.4-.97-.39-1.02-.51-1.56,3.92-2.34,7.99-4.84,12.03-6.61,2.05-.9,7.52-2.63,9.37-1.28.26.19.66,1.39,1.31,2.04,2.97,2.92,6.2.65,9.31.33s7.1-.27,10.16,1.37c2.32,1.25,7.03,5.33,7.22,9.5.03.63,0,2.4-.53,2.56-.5-3.81-.4-6.33-2.96-7.91-5.21-3.23-11.37-5.08-16.94-4.28-2.34.33-5.74,2.06-7.98.29-1.73-1.37-.89-2.95-3.64-2.73-2.57.2-11.24,3.89-13.58,5.6-.99.72-4.87,4.09-5.43,5.1-1.33,2.41-1.74,6.03-1.17,9.07-.76.19-.42-.28-.53-.97-.17-1.11-.14-1.88.01-2.98ZM183.01,2155.3c-.9-.65-.21-2.74-.51-3.95,1.39-.58,1.57,2.61,2.18,4.35.4,1.14.92,2.12,1.42,3.15-1.83-.33-2.02-3.56-3.22-5.13l.13,1.58ZM183.85,2146.51c.53-5.08,6.92-9.53,9.91-10.47.78-.24,1.55-.01,2.39-.28,2.57-.82,4.99-3.53,7.84-3.22,1.3,1.74,2.01,3.38,3.87,3.75,3.68.72,7.91-1.73,11.54-1.56,1.3.06,10.59,3.82,11.85,4.74,2.05,1.51,2.46,7,2.19,10.12-.14,1.54-.62,1.39-1.04,2.35-5.99,13.55-15.54,16.35-25.58,16.82-7.63.35-12.5-1.1-18.27-8.71-2.06-2.72-5.15-9.26-4.7-13.54Z" style="fill: #e7dcba;"/>
  <path d="M45.59,2153.84c1.76,2.45,1.47,7.89,4.74,9.91,4.64,2.88,7.9-2.33,12.5,1.74.98.86,1.92,3.04,3.24,3.12,1.7.1,4.14-1.91,5.66-3.04,2.31-1.72,3.42-2.08,5.83-3.37,2.66-1.42,5.04-3.24,6.54-6.94,1.22-3.02,1.22-7.48.34-10.73-1.24-4.59-7.54-14.31-10.35-16.91-8.36-7.73-20.87-15.24-30.54-10.56-.45.22-3.84,2.59-4.05,2.87-.68.9-1.05,3.76-1.59,5.06-1.08,2.59-2.45,5.12-3.49,7.72-1.21,3.02.08,9.66,1.16,12.58.8,2.15,1.5,1.66,2.35,2.71.73.89.9,2.14,2.15,3.02,1.5,1.05,4.3,1.15,5.5,2.82ZM39.67,2146.74c-.67-.68-1.94-.55-2.36-1.32-.23-.42-1.78-6.41-1.82-7.08-.19-3.21,3.56-9.27,5.21-11.01,2.55-2.69,7.16-5.43,10.1-6.62,3.36-1.36,7.22.89,10.5,2.48,6.73,3.27,13.37,8.38,18.33,16.1,2.7,4.2,5.35,11.22,2.56,16.61-1.93,3.74-6.67,4.4-9.44,6.04-2.07,1.22-3.87,4.73-6.37,4.46-1.52-.17-2.43-2.23-3.64-3.14-4.04-3.06-5.89-.38-9.74-.85-2.38-.29-3.21-1.12-4.46-4.21-.67-1.67-1.01-4.17-1.84-5.48-1.63-2.58-3.69-2.1-5.39-3.58-.6-.52-1.27-2.02-1.64-2.4Z" style="fill: #e7dcba;"/>
  <path d="M188.68,2123.89c-.48,2.82,4.31,3.41,5.53,3.37,2.97-.09,6.16-3.54,8.99-2,.55.3.79,1.02,1.29,1.17,1.88.57,5.99-.56,4.89-4.74-.71-1.32-1.49-.31-2.29-.4-1.43-.16-3.17-.8-4.67-.73-1.69.08-5.25,3.65-6.96,3.88-1.35.19-4.6-.63-6.07-.91-.26-.05-.59-.37-.71.35Z" style="fill: #e7dcba;"/>
  <path d="M222.19,2215.51c-.67.87-1.69,3.99-.59,4.81s5.11-.86,6.16-2c1.36-1.49,3-6.84.8-7.9-1.94-.93-2.92,1.86-4.41,3.54-.58.66-1.49.95-1.95,1.54ZM228.02,2213.41c.13,3.82-3.16,5.08-5.14,4.74,1.01-2.54,3.22-4.36,5.14-4.74Z" style="fill: #e7dcba;"/>
  <path d="M188.67,2224.08c-2.4-.23-4.6.2-7.01-.49-.52-.15-1.05-.81-1.67-.99-.66-.19-2.69-.54-3.3-.46-.86.12-.85,1.98-.2,2.25.53.23,2.3-.11,3.04.11,1,.29,1.94,1.38,3.1,1.56.88.13,4.94-.38,5.6-.89.35-.27.53-.42.45-1.09Z" style="fill: #e7dcba;"/>
  <path d="M34.94,2152.81c.37.52,1.83,1.27,2.37,1.31.39.03.46.06.39-.61-.18-1.72-1.4-1.27-1.99-1.89-.21-.23-3.06-5.9-3.18-6.37-.27-.99-.35-4.36-1.64-3.78-1.04.46.65,4.63,1.04,5.51s2.64,5.31,3.02,5.83Z" style="fill: #fbf5ec;"/>
  <path d="M63.42,2084.55l.79-.24c.74-2.56,2.14-6.14,3.58-7.87.54-.65,2.13-1.57,2.21-1.75.52-1.14-.67-2.33-1.42-1.82-.17.11-2.45,3.31-2.71,3.76-.59,1.01-3.16,6.84-2.44,7.91Z" style="fill: #fbf5ec;"/>
  <path d="M170.91,2224.05l.02-1.15c-2.87.03-6.39-.49-8.4-3.93l-1.1,1.41c-.08.68.76,1.52,1.12,1.75.85.53,4.1,1.94,5.02,2.16,1.11.27,2.27.39,3.34-.25Z" style="fill: #e7dcba;"/>
  <path d="M145.73,2194.63c.41.84,1.07.65,1.66.59.77-.08,5.83-1.88,6.18-2.37.17-.24.39-.97.34-1.33l-.82-1.01c-1.86,3.31-4.97,2.51-7.36,4.12Z" style="fill: #e7dcba;"/>
  <path d="M184.3,2131.19c1.83-.57,3.15-2.17,5.14-1.58l-.23-2.14c-.6-1.29-3.75,1.59-4.39,2.36-.31.37-.62.66-.53,1.36Z" style="fill: #fbf5ec;"/>
  <path d="M182.5,2146.61c-.16,1.1-.18,1.87-.01,2.98.1.69-.23,1.16.53.97-.57-3.04-.16-6.66,1.17-9.07.56-1.01,4.44-4.38,5.43-5.1,2.34-1.71,11.01-5.4,13.58-5.6,2.76-.21,1.91,1.37,3.64,2.73,2.23,1.77,5.64.04,7.98-.29,5.57-.8,11.73,1.06,16.94,4.28,2.56,1.58,2.46,4.1,2.96,7.91.53-.16.56-1.94.53-2.56-.19-4.16-4.9-8.25-7.22-9.5-3.05-1.64-6.93-1.71-10.16-1.37s-6.34,2.59-9.31-.33c-.65-.64-1.05-1.85-1.31-2.04-1.85-1.35-7.32.39-9.37,1.28-4.04,1.77-8.12,4.27-12.03,6.61.12.54.91.59.51,1.56-.08.2-2.31.61-2.92,1.25-1.28,1.36-1.15,4.3-1.71,6.27h.77Z" style="fill: #e7dcba;"/>
  <path d="M181.22,2150.16h.25s.26-2.37.26-2.37c-.65.3-.53,1.5-.51,2.37Z" style="fill: #fff;"/>
</svg>