<?xml version="1.0" encoding="UTF-8"?>
<svg id="Layer_1" data-name="Layer 1" xmlns="http://www.w3.org/2000/svg" viewBox="0 0 873.35 663.58">
  <path d="M615.64,499.44c-1.04-.6-3.66-4.04-5.83-4.56-12.64-4.87-17.71-13.47-24.54,3.45-5.9,14.63-9.55,24.41-19.44,37.1-4.06,5.21-15.88,13.41-22.4,13.42-2.41,0-4.8-1.66-7.07-.51-1.05.54-1.54,2.47-2.56,3.27-4.41,3.48-8.54,5.07-13.15,7.64-1.66.93-4.25,3.9-5.66,4.31-6.19,1.78-11.87-1.61-16.4-1.52-3.4.07-13.66,1.88-17.47,2.56-2.16.39-4.28,2.76-7.59,3.22-2.41.33-7.52.39-9.92.09-11.42-1.42-16.01-16.05-31.6-14.2-2.36.28-3.84,2.06-6.01,2.39-2.86.43-7.13-.71-10.46.93l-2.2,5.49c-1.7,1.04-5.21-.9-7.85-.44-1.35.23-6.64,3.5-7.97,4.54-8.29,6.48-12.51,17.13-18.73,24.48-4.09,4.83-11.25,12.64-16.24,16.2-3.52,2.52-28.02,12.68-32.33,13.43-8.45,1.47-23.26-1.92-32.81-.43-6.05.95-10.82,7.64-17.47,8.3-11.05,1.1-14.44-3.6-23.92-6.09-13.39-3.52-18.59,2.16-30.58,5.63-12.23,3.54-19.11,2.83-31.16,3.75s-18.86,4.26-32.36,2.41c-3.6-.49-23-10.19-24.7-12.79-1.01-1.55.23-2.74-.28-3.76-.48-.96-2.64-1.73-3.66-3.04-8.12-10.45-8.11-14.91-10.29-27.12-.38-2.15-1.94-4.02-2.25-6.07-.29-1.92-.96-10.65-.85-12.37.55-8.95,21.08-27.36,27.28-34.29,1.06-3.53-4.57-14.56-7.02-17.64-6.08-7.64-22.5-11.75-31.86-18.02-18.95-12.7-31.35-23.22-33.17-47.55-.25-3.37-.71-6.63-.93-9.79-.74-10.71.89-19.04,6.43-28.38,7.61-12.84,14.89-11.92,26.76-17.31,10.82-4.91,27.72-15.05,39.53-15.41,9.47-.29,18.47,4.84,28.64,1.27,13.03-4.58,19.87-7.73,34.51-7.1,14.46.63,32.62,8.07,46.11,8.81,14.56.8,27.19-5.69,37.46-15.82,10.85-10.7,11.15-22.59,26.97-28.73,4.71-1.83,10.08-2.09,14.76-4.36,3.54-1.72,7.01-5.35,10.35-7.11,11.33-5.99,37.44-7.07,51.21-9.48,26.4-4.61,44.5-14.07,71.28-1.86,10.22,4.66,10.8,12.54,23.72,6.25,12.11-5.89,23.2-17.3,34.55-24.48,3.63-2.3,17.28-10.16,20.65-10.94,5.55-1.29,12.14-1.14,18.2-2.58,6.46-1.53,16.37-6.61,22.18-6.99,12.01-.78,21.18-.63,33.25.06,10.96.62,20.28-3.58,31.12.46,7.98,2.98,32.61,30.34,36.19,38.63,3.71,8.59,2.95,17.73,8.75,25.34,18.4,24.14,65.39,20.55,81.1,43.6,3.98,5.84,7.67,23.11,8.67,30.4s2.02,13.31-.23,20.53c-1.55,4.98-2.33,6.22-3.45,11.49-2.06,9.6-11.65,13.1-16.73,19.04-1.11,1.3-1.25,3.25-2.39,4.26-1.5,1.33-9.1,2.55-11.99,3.81-3.1,1.35-18.9,11.58-20.42,13.66-.93,1.27-.71,2.89-2.19,4.46-3.52,3.76-15.46,11.31-20.51,11.94-6.67.82-13.09,2.78-19.04,3.38-3.52.36-7.22-.71-9.76-.47-5.09.47-14.61,6.92-19.19,7.12-14.87.64-32.44-8.7-45.06-15.98ZM768.45,455.51l1.1.16c4.11-4.86,14.06-16.46,13.65-22.89-.08-1.35-1.63-2.39-1.67-4.93s1.39-4.46,1.68-6.74c.93-7.29-5.66-29.36-10.39-35.2-11.37-14.03-41.31-18.12-57.96-25.18-5.93-2.52-12.07-6.66-17.61-9.74-3.62-2.02-9.49-9.51-9.62-13.81-.19-6.39.29-8.57-2.05-15.34-4.33-12.5-12.68-18.41-21.62-27.43-3.33-3.36-5.97-8.03-10.89-10.73-9.79-5.35-18.67-1.19-28.16-1.11-2.92.02-7.05-1.36-9.98-1.48-8.59-.36-22,.75-30.63,1.7-6.01.66-12.76,4.9-18.78,6.23-5.46,1.21-10.84,1.04-16.49,2.64-18.69,5.29-36.34,23.27-52.61,33.85-2.53,1.65-8.63,6.02-11.24,6.27-6.74.67-9.77-4.96-14.2-8.16-22.64-16.33-52.54-5.53-77.26-1.06-7.46,1.35-16.3,2.04-23.92,3.51-6.48,1.25-17.73,2.8-22.91,6.18-2.33,1.52-4.5,4.6-7.32,5.98-6.1,2.99-15.56,3.03-21.42,6.84-8.43,5.49-10.06,13.26-15.84,19.91-3.76,4.33-11.3,11.98-16.12,14.64-7.08,3.9-15.44,6.5-22.85,9.43-24.8-3.65-50-14.12-75.29-7.81-5.51,1.37-12.61,6.64-17.14,7.04-5.68.5-14.59-2.3-20.64-2.49-14.98-.47-29.26,9.02-42.29,15.14-4.69,2.21-12.47,3.85-16.33,6.95-7.3,5.86-16.83,26.44-11.4,35.05,1.63,2.58,3.45,6.34,3.88,9.89.24,1.94-.88,3.82-.48,5.37.72,2.76,7.19,7.81,9.23,9.92,6.31,6.5,13.03,15.02,20.98,18.92,10.85,5.32,28.47,8.02,37.35,15.45,1.05.88,7.87,9.43,8.2,10.5,5.65,18.23-23.53,36.58-31.91,50.49-.61,1.01-2.08,3.49-2.27,4.41-.25,1.21.36,12.62.66,14.37.75,4.47,9.26,20.82,12.67,23.91,13.63,12.36,58.71,14.46,76.29,11.41,10.75-1.87,15.99-6.91,24.74-10.17,1.65-.61,9.76-2.76,11.29-2.92,2.65-.28,7.11,2.42,10.13,3.1,7.86,1.77,17.43,3.43,25.43,2.61,7-.72,14.49-4.68,21.63-3.96,4.86.49,9.64,3.3,15.06,3.31,22.71.05,38.4-14.05,52.38-29.99,10.89-12.41,18.97-28.17,36.3-32.7,10.46-2.73,32.15-3.49,41.61,1.97,2.86,1.65,6.85,8.74,11.48,10.31,7.96,2.71,11.82-1.95,17.89-2.82,8.93-1.28,19.54-.7,28.17-1.68,3.68-.42,9.81-1.6,12.53-4.17,1.78-1.68,3.78-7.29,5.97-8.16,1.02-.41,2.54-.08,3.59-.57,8.35-3.88,7.58-1.97,15.24-2.97,10.53-1.37,17.53-15,23.23-22.99,2.94-4.13,5.33-6.43,7.63-11.9,2.94-7.01,3.3-17.29,11.22-20.37,10.18-3.96,19.41,4.6,27.73,8.89,13.14,6.78,20.7,8.1,35.03,8.96,2.36.14,4.39,1.68,6.7,1.75,8.95.29,18.94-7.35,27.37-8.41,4.78-.6,13.03,1.78,18.19,1.65,2.91-.07,7.19-1.28,9.64-2.91,9.5-6.29,15.36-18.75,26.38-24.34,4.79-2.43,10.56-3.65,15.45-5.33,4.08-1.4,9.04-4.95,8.11-9.77,1.81,0,3.31-.61,3.46,1.5ZM396.52,562.77c.29-.5.57-2.22-.23-2.34l-2.91,4.15c.59-.44,3.04-1.65,3.13-1.81ZM148.37,623.37c3.81,4.57,22.44,7.87,28.44,7.79,4.76-.06,9.76-2.61,14.21-3.32,7.32-1.18,15.09.07,22.98-1.13,12.12-1.83,27.57-11.43,38.92-9.37,6.37,1.16,19.18,8.49,24.49,8.01,4.05-.37,9.52-5.4,13.73-7.12,10.58-4.34,15.02-2.25,25.38-2.06,6.2.12,13.78.17,19.64-1.97,1.47-.54,4.12-1.58,4.84-3.05-5.84.24-12.94,3.37-18.62,3.23-6.49-.16-10.23-3.95-19.2-3.22-7.66.62-19.02,6.95-24.96,6.71-.91-.04-1.96,0-2.54-.87l-.42-3.3c-8.82.6-18.72-5.04-26.97-4.22-6.38.63-15.83,7.38-22.71,9.71-19.64,6.64-55.64,4.28-75.43-2.18-5.01-1.64-9.66-4.66-14.5-6.69-1.34,1.19,10.75,9.5,11.68,10.37.66.61.53,2.1,1.02,2.68ZM99.92,487.28c1.62,2.46,4.5,5.17,7.48,5.8-1.89-2.24-4.18-6.02-7.48-5.8Z" style="fill: #eaddb7;"/>
  <path d="M197.18,663.51c-1.55.21-2.88,0-3.32-1.65h3.32s0,1.65,0,1.65Z"/>
  <path d="M148.37,623.37c-.49-.58-.36-2.07-1.02-2.68-.93-.87-13.02-9.18-11.68-10.37,4.84,2.03,9.49,5.05,14.5,6.69,19.78,6.46,55.79,8.82,75.43,2.18,6.88-2.33,16.33-9.07,22.71-9.71,8.25-.82,18.15,4.82,26.97,4.22l.42,3.3c.58.86,1.63.83,2.54.87,5.94.24,17.3-6.09,24.96-6.71,8.96-.73,12.7,3.06,19.2,3.22,5.68.14,12.78-2.99,18.62-3.23-.72,1.47-3.37,2.51-4.84,3.05-5.86,2.14-13.44,2.08-19.64,1.97-10.36-.19-14.8-2.28-25.38,2.06-4.2,1.72-9.68,6.75-13.73,7.12-5.31.49-18.12-6.85-24.49-8.01-11.35-2.06-26.81,7.55-38.92,9.37-7.89,1.19-15.66-.06-22.98,1.13-4.45.72-9.45,3.26-14.21,3.32-6,.08-24.63-3.21-28.44-7.79Z" style="fill: #eaddb7;"/>
  <path d="M396.52,562.77c-.09.16-2.55,1.37-3.13,1.81l2.91-4.15c.8.12.52,1.84.23,2.34Z" style="fill: #fff;"/>
  <path d="M160.03,585.12c-4.77-4.38-5.8-15.54-4.17-21.54,8.65-32,52.02-43.31,79.56-55.11,3.41-1.46,6.95-4.15,10.24-5.55,22.37-9.52,52.22-14.5,74.76-3.78,8.79,4.18,15.83,13.27,26.38,14.82-.08,1.1-.76,1.73-.06,2.86,3.25,5.27,11.62,10.86,15.06,15.77,3.61,5.15,3.01,15.57,1.56,21.53-3.66,15.02-23.56,30.83-38.12,34.21-13.23,3.07-30.15,4.14-43.76,5.29-16.7,1.41-26.35-2.22-41.49-3.23-11.72-.78-11.93,2.31-21.19,5.39-16.67,5.55-45.54,1.52-58.78-10.64ZM169.26,547.45c-6.77,8.25-14.81,26.26-5.27,34.95,12.98,11.82,38.75,13.93,54.79,8.35,3.93-1.36,6.65-4.03,11.24-4.56,13.88-1.58,29.45,4.49,44.92,3.36,4.62-.34,9.51-2.15,14.12-2.52,25.39-2.07,40.04,2.14,60.26-17.86,10.65-10.54,3.69-30.66-5.92-39.82-4.05-3.86-7.22-2.53-11.83-4.8-5.38-2.64-9.49-9.18-14.07-11.74-11.96-6.67-18.04-2.63-29.33-3.07-11.64-.45-14.77-3.34-28.02-.65-13.15,2.67-22.68,6.79-34.73,10.99-4.95,1.73-25.26,6.18-27.47,9.12-.63.84-.82,1.92-.78,2.95-1.51.4-2.05-1.25-3.1-1.53-4.06-1.1-21.73,13.06-24.82,16.82Z" style="fill: #eaddb7;"/>
  <path d="M296.69,401.9c-1.48-2.01-4.06-2.13-4.57-6.71-.74-6.57,3.35-7.93,6.03-11.88,4.38-6.48,15.69-26.72,22.09-29.45,3.5-1.49,11.81-1.18,15.97-2.32,5.83-1.6,12.58-7.56,19.09-9.18,3.17-.79,5.77-.14,8.47-.67,14.15-2.77,26.29-10.11,40.41-13.62,15.47-3.85,25.47-4.44,40.95-.2,19.09,5.22,40.57,19.05,32.61,42.18-10.97,31.87-37.53,38.36-66.73,46.33-19.16,5.23-46.67,12.29-66.31,12.74-3.96.09-16.19-.4-19.71-1.06-4.91-.92-22.9-15.09-25.41-19.49-1.17-2.06-1.51-4.77-2.9-6.67ZM469.69,369.02c-.5-3.43-7.28-19.74-9.83-21.79-5.28-4.25-18.58-9.85-25.34-10.41-17.68-1.47-25.69,5.01-40.93,8.09-6.93,1.4-16.36,1.38-22.85,2.92-7.59,1.8-16.73,6.84-23.92,9.34-10.1,3.52-19.49,3.61-28.28,11.63-3.26,2.98-15.57,17.44-17.25,20.99-3.15,6.65,1.29,16.78,6.45,21.44,8.65,7.79,18.41,13.41,30.39,12.91,30.31-1.27,55.27-7.07,84.15-15.6,16.24-4.8,40.77-12.99,46.23-30.9.74-2.44,1.52-6.14,1.17-8.6Z" style="fill: #eaddb7;"/>
  <path d="M640.06,373.17c-.95.9-12.36,6.42-14.56,7.46-18.9,8.88-43.48,17.84-64.6,16.93-2.66-.12-5.85-2.4-9.19-2.57-2.52-.12-5.52,1.11-7.23.7-2.07-.5-15.46-7.86-18.02-9.49-7.56-4.82-10.26-8.23-13.14-16.79-11.39-33.81,16.47-61.32,48.48-65.77,5.14-.71,12.05-.05,17.18-1.1,4.81-.98,14.9-9.7,20.19-10.61,7.01-1.2,17.99,4.57,26.17,2.1,1.8-.54,2.89-2.5,5.41-2.91,1.92-.31,8.03-.36,9.75.13.55.16,8.74,5.89,9.34,6.45,2.69,2.51,1.39,4.45,2.24,6.9.42,1.2,1.84,1.79,2.15,2.84,4.4,14.96,2.72,43.11-7.47,56.22-1.53,1.97-4.61,3.82-5.21,4.76-.85,1.34-.5,3.75-1.52,4.73ZM547.01,389.36c.4.24.43,1.81,1.51,2.18,1.69.59,4.42-.13,6.47.21,21.12,3.51,43.29-3.67,62.6-12.39,6.45-2.92,22.99-14.13,26.87-19.69,5.46-7.85,9.55-31.91,6.95-41.05-2.42-8.49-14.82-14.71-23.12-13.36-2.38.39-3.86,2.11-6.68,2.46-8.67,1.1-14.71-3.31-23.45-.18-2.75.99-5.47,3.05-8.36,4.11-22.89,8.4-42.28,1.21-61.24,21.89-.86.94-8.09,10.06-8.4,10.72-2.86,6.04-1.45,15.3-.21,21.84.38,1.99,1.67,3.61,2.11,5.37.75,3.04-.73,5.25,1.91,8.06,1.73,1.85,13.47,8.02,16.12,8.82,2.14.65,6.26.59,6.93.99Z" style="fill: #eaddb7;"/>
  <path d="M518.37,535.79c-.84.51-2.54,2.95-4.15,3.73-6.38,3.08-20.12-1.18-26.96.48-4.45,1.08-7.73,7.03-12.58,6.93-9.27-.19-13.5-5.08-20.61-7.71-15.67-5.81-33.84-8.79-48.85-17.68-2.87-1.7-12.27-7.94-14.34-9.67-5.09-4.24-11.99-12.4-12.51-19.23-4.36-56.94,83.98-54.66,121.86-56.24l.8-1.5c5.14,2.09,13.85.8,19.9,1.71,2.7.4,23.29,9.24,24.22,10.77.72,1.18-.51,2.81-.11,3.37.31.44,4.43,2.17,6.28,4.52,4.75,6.03,6.36,20.47,7.39,28.36,2.35,18.09,3.78,40.24-18.31,45.51-7.89,1.88-14.66,2.2-22.04,6.66ZM514.9,530.71c.53-.19,1.62.74,2.58.5,1.32-.34,4.84-3.85,7.86-4.66,5.73-1.54,16.68-1.3,21.3-4.48,1.35-.93,6.32-7.3,6.99-8.8,4.19-9.27.7-21.07-.63-30.58-.72-5.2-.15-13.04-2.69-18.1-.26-.53-7.03-8.32-7.7-8.93-18.13-16.4-41.65-13.83-64.04-10.8-1.61.22-3.28-.1-4.89-.05-1.4,5.8-4.43,2.47-8.36,2.53-4.93.06-12.16,3.5-16.78,3.94-2.2.21-4.72-.86-8.01-.38-11.76,1.7-39.57,11.19-48.77,18.56-3.95,3.17-9.03,12.76-5.89,17.41l-2.54,1.71c3.74,10.6,10.11,17.63,18.78,24.45,17.59,13.84,43.19,18.71,63.96,26.65,10.86,4.15,11.76-2.2,20.93-4.07,6.39-1.3,15.64,1.03,21.33-.11.42-.08,5.89-4.55,6.55-4.78Z" style="fill: #eaddb7;"/>
  <path d="M290.94,438.83c3.24,17.25-11.97,27.36-24.5,34.98-24.84,15.11-43.66,17.75-72.12,15.98-21.07-1.31-36.84-4.26-54.75-15.98-8.63-5.65-25.06-21.39-29.27-30.58-8.03-17.55,2.86-26.23,17.03-33.7,25.88-13.64,39.34-1.05,62.81-3.71,6.82-.77,9.52-7.71,16.44-8.05,11.82-.57,30.37,4.93,41.76,8.83,5.55,1.9,15.36,5.42,20.38,7.89,2.71,1.33,14.57,8.55,16.19,10.41s5.54,11.37,6.02,13.93ZM286.96,446.53c.05-1.82.46-4.34-1.65-4.98l.83,4.98h.81ZM282.81,439.06h2.5c-1.81-4.16-1.38-10.34-5.52-13.2-1.96-1.36-9.18-2.22-9.44-2.63-1.3-2.04,1.27-2.14,1.64-3.28-12.66-4.91-25.84-10.18-38.89-13.9-6.62-1.89-24.3-5.53-30.28-2.7-.83.4-2.14,2.93-4.24,4.28-9.59,6.14-20.03,1.38-30.1.69-10.44-.71-22.96-.57-32.83,2.89-7.49,2.63-22.71,11.21-23.33,19.97-.09,1.32,0,5.05,1.71,5.39,1.62-8.02,1.29-13.31,9.55-16.64,16.84-6.79,36.75-10.68,54.77-9.01,7.56.7,18.57,4.32,25.79.61,5.59-2.88,2.86-6.2,11.78-5.75,8.32.42,36.33,8.18,43.91,11.78,3.19,1.52,15.73,8.59,17.54,10.72,4.31,5.08,5.62,12.68,3.78,19.08,2.46.4,1.37-.58,1.7-2.04.54-2.33.47-3.95-.05-6.27ZM281.16,457.34c2.9-1.36.69-5.77,1.65-8.31-4.5-1.23-5.07,5.49-7.05,9.16-1.3,2.41-2.97,4.47-4.59,6.63,5.9-.7,6.52-7.5,10.4-10.8l-.41,3.32ZM278.46,438.84c-1.72-10.68-22.38-20.05-32.02-22.02-2.51-.51-5.02-.03-7.73-.59-8.31-1.72-16.14-7.42-25.35-6.77-4.21,3.67-6.51,7.11-12.52,7.88-11.88,1.52-25.56-3.64-37.29-3.28-4.2.13-34.23,8.03-38.31,9.98-6.62,3.17-7.96,14.73-7.07,21.29.44,3.24,2,2.93,3.37,4.94,19.37,28.49,50.23,34.39,82.68,35.37,24.65.75,40.39-2.32,59.06-18.32,6.67-5.72,16.63-19.48,15.18-28.48Z" style="fill: #eaddb7;"/>
  <path d="M725.33,454.27c-5.7,5.14-4.74,16.59-15.31,20.85-15,6.05-25.53-4.89-40.39,3.67-3.15,1.82-6.21,6.4-10.46,6.56-5.48.2-13.39-4.02-18.3-6.39-7.46-3.61-11.05-4.38-18.86-7.08-8.61-2.98-16.3-6.82-21.14-14.6-3.96-6.36-3.95-15.72-1.1-22.57,4.02-9.65,24.37-30.1,33.44-35.56,27.01-16.25,67.47-32.05,98.71-22.21,1.46.46,12.42,5.45,13.09,6.03,2.2,1.89,3.39,7.9,5.15,10.65,3.49,5.45,7.91,10.78,11.28,16.23,3.91,6.35-.26,20.32-3.76,26.47-2.58,4.52-4.85,3.49-7.61,5.69-2.34,1.87-2.91,4.51-6.96,6.34-4.86,2.21-13.88,2.42-17.77,5.93ZM744.45,439.32c2.15-1.43,6.26-1.15,7.62-2.79.74-.89,5.76-13.49,5.89-14.9.62-6.75-11.5-19.49-16.83-23.16-8.24-5.66-23.14-11.41-32.64-13.92-10.88-2.87-23.35,1.88-33.92,5.22-21.76,6.88-43.21,17.61-59.24,33.86-8.72,8.84-17.29,23.59-8.28,34.94,6.25,7.87,21.56,9.26,30.53,12.7,6.69,2.57,12.51,9.96,20.59,9.38,4.91-.35,7.87-4.68,11.75-6.6,13.06-6.45,19.03-.8,31.47-1.78,7.7-.6,10.39-2.36,14.41-8.86,2.17-3.5,3.26-8.77,5.94-11.52,5.27-5.43,11.94-4.42,17.41-7.53,1.93-1.1,4.1-4.25,5.32-5.06Z" style="fill: #eaddb7;"/>
  <path d="M262.85,391.28c1.54,5.92-13.93,7.18-17.86,7.1-9.59-.19-19.91-7.45-29.07-4.2-1.76.63-2.57,2.15-4.18,2.47-6.08,1.19-19.36-1.19-15.79-9.97,2.3-2.77,4.81-.65,7.39-.84,4.61-.34,10.24-1.69,15.1-1.54,5.45.17,16.98,7.67,22.51,8.17,4.35.39,14.88-1.33,19.62-1.92.84-.1,1.89-.77,2.29.73Z" style="fill: #eaddb7;"/>
  <path d="M154.53,583.97c2.17,1.83,5.48,8.39,1.92,10.13s-16.53-1.81-19.9-4.21c-4.4-3.14-9.7-14.4-2.59-16.61,6.29-1.95,9.43,3.9,14.25,7.44,1.89,1.39,4.83,1.99,6.32,3.25ZM135.67,579.55c-.41,8.03,10.21,10.69,16.62,9.96-3.27-5.34-10.4-9.18-16.62-9.96Z" style="fill: #eaddb7;"/>
  <path d="M262.87,602c7.76-.49,14.88.42,22.65-1.04,1.68-.32,3.38-1.7,5.4-2.08,2.12-.4,8.69-1.15,10.67-.97,2.78.24,2.73,4.16.66,4.74-1.71.48-7.44-.23-9.83.22-3.23.61-6.28,2.91-10.01,3.28-2.83.28-15.96-.8-18.1-1.87-1.13-.56-1.72-.87-1.45-2.29Z" style="fill: #eaddb7;"/>
  <path d="M759.75,452.1c-1.21,1.09-5.93,2.68-7.65,2.76-1.24.06-1.49.12-1.26-1.27.59-3.61,4.54-2.68,6.42-3.98.69-.48,9.88-12.41,10.29-13.4.86-2.08,1.12-9.17,5.31-7.96,3.36.97-2.11,9.73-3.35,11.58s-8.53,11.16-9.76,12.27Z" style="fill: #fdf6ec;"/>
  <path d="M667.72,308.53l-2.55-.51c-2.39-5.38-6.9-12.92-11.56-16.55-1.75-1.36-6.87-3.31-7.13-3.68-1.69-2.39,2.18-4.9,4.59-3.82.54.24,7.91,6.95,8.77,7.92,1.91,2.13,10.2,14.38,7.88,16.63Z" style="fill: #fdf6ec;"/>
  <path d="M320.28,601.93l-.06-2.42c9.26.07,20.65-1.03,27.14-8.26l3.56,2.97c.25,1.43-2.44,3.21-3.61,3.68-2.75,1.13-13.25,4.09-16.23,4.55-3.6.56-7.34.81-10.8-.53Z" style="fill: #eaddb7;"/>
  <path d="M401.68,540.06c-1.33,1.77-3.47,1.36-5.37,1.24-2.48-.16-18.84-3.95-19.96-4.98-.55-.51-1.26-2.04-1.11-2.79l2.66-2.13c6.01,6.96,16.05,5.28,23.79,8.67Z" style="fill: #eaddb7;"/>
  <path d="M276.99,406.63c-5.92-1.2-10.19-4.56-16.62-3.33l.74-4.5c1.94-2.7,12.12,3.34,14.18,4.96.99.78,2,1.38,1.71,2.86Z" style="fill: #fdf6ec;"/>
  <path d="M282.81,439.06c.51,2.31.58,3.93.05,6.27-.33,1.46.76,2.44-1.7,2.04,1.84-6.4.53-14.01-3.78-19.08-1.81-2.13-14.35-9.21-17.54-10.72-7.58-3.61-35.59-11.37-43.91-11.78-8.92-.45-6.18,2.88-11.78,5.75-7.22,3.71-18.22.09-25.79-.61-18.01-1.67-37.93,2.22-54.77,9.01-8.27,3.33-7.94,8.62-9.55,16.64-1.71-.34-1.8-4.07-1.71-5.39.62-8.76,15.84-17.34,23.33-19.97,9.87-3.46,22.39-3.6,32.83-2.89,10.07.69,20.5,5.46,30.1-.69,2.1-1.35,3.41-3.89,4.24-4.28,5.98-2.83,23.65.81,30.28,2.7,13.06,3.72,26.23,8.99,38.89,13.9-.37,1.15-2.94,1.24-1.64,3.28.26.41,7.48,1.27,9.44,2.63,4.13,2.86,3.71,9.04,5.52,13.19h-2.5Z" style="fill: #eaddb7;"/>
  <path d="M286.96,446.53h-.81s-.83-4.98-.83-4.98c2.11.64,1.7,3.16,1.65,4.98Z" style="fill: #fff;"/>
  <path d="M823.33,17.44c-.49,8.05-14.45,7.2-19.93,4.96-6.12-2.5-7.78-4.04-8.36-10.86-.36-4.21,1.27-7.77,4.36-10.57,2.49-2.26,9.14.07,12.04.61,4.86.9,8.26-.54,10.19,4.76.86,2.35,1.85,8.65,1.7,11.1ZM817.74,5.74c-1.93-1.23-3.28.1-4.29-.13-.65-.15-.88-1.24-1.55-1.58-2.09-1.08-7.51-2.13-9.71-1.15-5.29,2.36-6.85,11.6-2.36,15.31,4.7,3.88,17.38,5.43,20.73-.16,1.37-2.28-.29-10.69-2.81-12.29Z" style="fill: #ecdbb1;"/>
  <path d="M873.33,640.44c-.49,8.05-14.45,7.2-19.93,4.96-6.12-2.5-7.78-4.04-8.36-10.86-.36-4.21,1.27-7.77,4.36-10.57,2.49-2.26,9.14.07,12.04.61,4.86.9,8.26-.54,10.19,4.76.86,2.35,1.85,8.65,1.7,11.1ZM867.74,628.74c-1.93-1.23-3.28.1-4.29-.13-.65-.15-.88-1.24-1.55-1.58-2.09-1.08-7.51-2.13-9.71-1.15-5.29,2.36-6.85,11.6-2.36,15.31,4.7,3.88,17.38,5.43,20.73-.16,1.37-2.28-.29-10.69-2.81-12.29Z" style="fill: #ecdbb1;"/>
  <path d="M28.33,650.44c-.49,8.05-14.45,7.2-19.93,4.96-6.12-2.5-7.78-4.04-8.36-10.86-.36-4.21,1.27-7.77,4.36-10.57,2.49-2.26,9.14.07,12.04.61,4.86.9,8.26-.54,10.19,4.76.86,2.35,1.85,8.65,1.7,11.1ZM22.74,638.74c-1.93-1.23-3.28.1-4.29-.13-.65-.15-.88-1.24-1.55-1.58-2.09-1.08-7.51-2.13-9.71-1.15-5.29,2.36-6.85,11.6-2.36,15.31,4.7,3.88,17.38,5.43,20.73-.16,1.37-2.28-.29-10.69-2.81-12.29Z" style="fill: #ecdbb1;"/>
</svg>