<?xml version="1.0" encoding="UTF-8"?>
<svg id="Layer_1" data-name="Layer 1" xmlns="http://www.w3.org/2000/svg" viewBox="0 0 954.53 869.13">
  <path d="M820.18,665.56c.07-9.92-1.09-19.59.26-29.7.62-4.68,2.89-9.44,2.6-14.24-.15-2.49-1.85-10.76-2.78-13.06-2.55-6.25-14.68-11.38-19.3-17.01-4.74-5.78-5.98-12.88-8.97-19.26-5.11-10.93-14.22-30.38-21.27-39.56-1.94-2.53-5.45-4.19-6.81-6.27-.99-1.51-1.1-3.98-1.75-4.76-.96-1.15-3.26-.54-4.76-1.08-2.38-.85-6.03-4.25-8.85-5.69-7.16-3.66-15.21-6.37-23.31-5.85-19.93,1.29-26.59,9.7-47.57-2.19-20.44-11.57-23.45-32.38-32.78-51.28-3.74-7.56-20.66-15.11-28.71-16.4-30.98-4.97-59.57-17.31-75.26-45.63-8.28-14.93-15.79-30.18-24.67-44.71-16.74-27.41-39.99-46.53-56.92-72.89-5.15-8.01-13.87-20.53-17.89-28.48-3.5-6.92-6.01-16.31-9.54-23.02-1.8-3.42-5.71-7.84-7.9-11.67-2.45-4.29-4.29-9.84-6.95-14.04-15.13-23.82-48.86-37.35-74.63-45.39-8.45-2.63-19.08-8.49-26.9-1.52-6.19,5.52-5.18,23.88-9.41,27.77-2,1.84-5.89,1.89-8.49,3.08-1.56.71-6.03,3.25-7.37,4.22-8.25,5.94-9.59,15.97-11.94,25.19-1.91-1.79-2.41-3.91-4.32-5.83-8.26-8.29-25.26-17.41-35.26-25.11-2.24-1.72-4.63-4.93-6.99-6.77-15.55-12.07-45.89-13.37-64.78-10.35-5.19.83-4.01,4.98-4.99,8.1-5.34,16.97-5.41,46.93-.58,64.26,6.18,22.2,29.31,43.85,42.84,62.26,14.28,19.45,15.52,42.58,20.29,65.73,2.75,13.36,5.45,27.12,9.39,40.44,2.07,7.01,6.03,21.86,9.27,27.61.95,1.68,3.48,3.69,4.92,5.96,2.48,3.9,4.2,9.04,6.55,13,7.39,12.47,17.53,19.19,26.9,29.7,17.28,19.39,34.95,44.75,50.31,65.71,10.33,14.1,13.18,25.86,20.07,41.46,1.28,2.89,3.58,5.56,5.04,8.72,4.34,9.38,6.46,23.2,6.89,33.54,1.31,32.06,1.17,65.04,1.32,97.35.09,18.56-.86,37.54,3.73,55.65.98,1.54,1.35,3.25,1.65,5.07.37,2.23.95,4.4,1.62,6.56.85,2.75,1.75,5.49,2.32,8.29l.26-.38c.32,2.46.86,4.95,1.77,7.26,8.76,22.21,30.45,38.17,51.74,47.74,20.24,9.1,41.59,7.94,63.24,9.07,14.97.79,32.34,3.23,47.07,1.07,8.31-1.22,16.8-3.78,24.97-5.36.04,0,.07-.01.11-.02,1.03-.52,2.08-1,3.15-1.42l-.15-.15c.2-.02.41-.03.62-.03,2.28-.87,4.64-1.54,7.01-2,2.73-.53,5.39-1.05,8.05-1.89,2.49-.79,4.97-1.56,7.58-1.83,2.87-.3,5.68-.46,8.52-1.09,2.6-.58,5.16-1.36,7.66-2.26,3.95-1.42,7.94-3.05,11.76-4.9.03-.03.06-.06.09-.09,0,.01,0,.03.01.04,1.05-.51,2.08-1.02,3.1-1.56,2.35-1.25,4.61-2.6,7.11-3.54.82-.31,1.68-.55,2.53-.77,3.53-2.78,6.04-5.54,10.94-8.15,7.31-3.89,19.89-11.4,27.24-13.3,13.36-3.46,29.05-3.56,43.03-6.03,1.73-.3,3.55.21,5.49-.3,1.45-.39,1.35-1.88,1.8-1.87,10.07.22,20.69.06,30.8-.46l-.74,1.44,2.89.76c.22-1.16-.54-2.12-1.64-2.21,2.48-.05,6.7.27,7.7.11.55-.08.55-1.19,1.03-1.45,5.13-2.83,7.73-2.69,11.01-8.42,11.82-20.64,5.87-46.59,20.02-68.22,7.31-11.18,19.09-15.35,26.95-26.04,3.07-4.17,1.71-5.23,2.8-8.86.32-1.08,1.93-1.58,2.09-3.05.16-1.38-2.63-9.26-2.86-12.31-.45-6,.9-11.8.94-17.44ZM291.97,188.69c5.11-3.8,13.79-4.61,17.1-8.23,4.21-4.6,2.74-9.01,4.1-14.5,1.71.04.06,2.61.18,3.32.12.7,1.47.8,1.72,1.25.65,1.12,2.16,8.83,2.26,10.45.33,4.98-2.16,3.87-4.36,6.37-1.39,1.59-1.54,3.58-3.68,5.04-2.76,1.87-7.93,3.31-10.9,5.38-1.45-1.83,7.85-8.28,9.26-9.26,2.7-1.88,3.41-.16,5.11-5.05,1.53-4.39-2.77,1.17-3,1.35-10.97,8.47-14.76,8.26-19.8,23.06-2.03,5.96-1.52,8.45-1.92,14.14-.06.8.35,2.43-1.11,1.79-1.39-.61-5.19-6.51-5.4-8.37-.93-8.23,3.64-21.68,10.45-26.74ZM458.8,359.29c1.47,2.32,3.8,3.73,5.07,5.81,3.03,4.96,3.14,11.74,4.85,17.27-2.27,4.26-8.35,11.92-13.71,10.18-3.96-1.28-12.35-8.8-16.32-11.33-5.2-.19-17.14-9.08-20.18-9.67-16.02-3.08-29.68,7.16-46.77,1.36-11.39-3.86-23.78-14.73-33.72-21.56-1.58-1.09-4.04-1.38-6-2.74-10.38-7.19-25.12-30.58-28.23-42.79-4.15-16.27-6.65-34.99-8.98-51.65-.59-4.25-3.58-9.81-4.45-14.35-1.08-5.63-.25-18.82.83-24.85.74-4.13,2.53-11.87,6.23-14.16,3.2-1.99,8.33-2.48,11.09-4.1.47-.27,8.06-6.41,8.4-6.83.87-1.08.96-2.23,1.23-3.51l3.62-.39c1.45-12.24,24.56-6.63,32.47-3.96,21.8,7.36,29.96,23.75,43.74,39.77,3.5,4.07,8.05,7.62,11.54,11.69,17.87,20.88,23.55,61.72,35.66,87.33,1.47,3.11,6.48,9.57,7.29,12.28.75,2.52-.66,4.7-.66,7.06,0,3.81,4.81,15.71,6.98,19.11ZM471.08,381.11c-.37-3.79-1.74-11.39-3.35-14.75-1.8-3.78-5.02-6.11-6.89-9.07-3.44-5.44-6.65-14.58-6.05-21.04,8.56,7.07,12.79,17.87,20.83,25.23,6.08,5.56,13.62,8.75,19.92,13.89,6.68,5.45,16.21,18.06,18.06,26.52,1.09,4.99,1.48,8.65-4.66,9.54-10.9,1.57-21.13-1.36-31.28-5.14-3.58-1.33-14.66-7.32-16.84-10.08-.81-1.02-.81-.47.01-1.48.82-1.01,3.11-2.19,4.42-3.56,2.5-2.61,6.2-6.34,5.84-10.05ZM818.08,692.02c-1.93,4.55-.59,3.55-1.31,8.18-1.35,8.65-12.42,14.74-18.48,20-11.51,10-17.93,22.9-20.96,37.98-2.37,11.8-3.69,31.44-10.26,41.54-6.5,9.98-16.73,7.65-26.89,7.79-15.44.22-20.19,2.71-34.21,5.49-15.67,3.11-32.23-.56-46.84,7.28-20.17,10.83-34.76,21.02-56.95,28.47-18.47,6.2-43.63,12.42-62.98,15.76-22.29,3.85-58.81-.06-81.83-2.66-23.7-2.68-51.99-14.4-66.19-34.25-.02-.02-.03-.05-.04-.07-1.89-.99-3.62-2.73-4.88-4.75h-.03c-.03-.07-.07-.14-.1-.22-.46-.76-.84-1.56-1.15-2.36-1.77-3.35-3.92-6.49-5.34-10.04-6.76-16.84-11.36-37.39-11.69-55.4-.55-29.76-1.85-60.14-2.26-90-.33-23.39,3.06-46.92-6.76-68.95-7.94-17.81-16.88-41-28.49-56.22-20.14-26.41-40.61-52.05-63.72-75.93-21.22-21.93-32.81-62.6-38.62-91.98-1.64-8.3-3.54-16.6-5.33-25-3.79-17.78-3.98-30.34-14.63-46.09-14.56-21.53-39.47-43.06-45.44-69.07-3.03-13.18-3.13-46.67,1.66-59.15,2.31-6.03,7.42-3.91,10.13.74,2.54,4.35-.03,3.15-1.11,5.51-1.59,3.49-5.68,15.6-5.26,18.9.24,1.88,1.99,3.17,2.33,4.77,4.11,19.11,10.22,42.77,20.84,59.43,9.45,14.81,24.33,28.31,35.08,42.54,11,14.57,23.76,47.24,24.92,65.49.42,6.58-1.7,14.44-.87,20.3.45,3.21,3.41,11.99,4.52,15.72,7.06,23.63,20.99,49.93,46.37,57.35,5.37,1.57,5.56,1.04,10.03-.81,1.49-.62,3.65.21,4.37-2.14.97-3.17,1.33-9.7,1.91-13.43,3.81-24.52-12.49-54.04-22.72-75.97-7.97-17.09-11.53-41.4-10.8-60,.9-23-7.62-42.25-17.19-62.95-5.47-11.82-10.55-25.73-23.17-31.21-8.44-3.66-11.52-3.44-19.09-10.02-9.08-7.9-18.74-18.91-28.5-25.97-8.14-5.89-19.7-5.03-23.78-15.12,2.72,1.2,4.94-.5,7.63-.66,11.21-.67,36.2,2.4,45.66,8.35,4.12,2.59,7.98,7.48,11.95,10.56,8.71,6.75,19.34,12.4,28.05,19.21,7.67,6,20.47,22.68,22.26,32.17,3.27,17.34,6.66,34.84,10.27,52.47,1.84,8.97,2.45,18.13,5.45,27.04,3.92,11.64,14.25,21.15,20.97,31.42,12.5,7.46,24.59,18.06,37.03,25.29,3.73,2.17,15.97,7.04,19.76,7.05,11.36.05,24.58-6.75,36.97-3.81,1.78.42,3.58,3.3,5.83,4.33,2.4,1.1,4.93,1.3,7.2,2.28,12.16,5.26,23.76,16.45,35.14,23.03,5.46,3.16,22.56,9.54,28.69,10.65,4.86.88,23.92.7,22.87-6.58-3.33-11.85-8.17-23.47-17.14-32.18-7.95-7.73-20.52-12.18-27.81-20.88-1.26-1.5-10.84-14.77-11.19-15.67-.53-1.36.35-2.16-.55-3.7-1.29-2.19-6.75-5.67-9.02-9.17-14.48-22.26-20.63-57.61-32.5-82.51-4.8-10.06-10.73-13.58-17.62-21.19-12.7-14.03-19.45-28.98-37.2-38.65-9.58-5.22-33.4-12.12-43.29-7.07-1.52.77-.81,3.08-2.88,2.46l-1.32-9.39c.9-1.04,19.27-.85,22.11-.63,9.35.73,18.54,3.67,26.64,8.36,6.9,3.99,12.34,10.16,19.15,14.28,3.07,1.85,7.03,3.06,9.74,4.82,4.45,2.89,6.5,8.84,11.28,10.86.2-1.34,0-2.14-.66-3.31-.27-.47-6.68-7.5-7.27-7.97-4.2-3.3-10.89-5.64-15.38-8.63-15.78-10.5-21.78-18.78-42.79-20.55-5.59-.47-13.86.82-18.84-.18-2.84-.57-2.57-4.46-6.17-1.49-3.19-15.15,8.85-14.43,19.87-12,21.54,4.76,59.02,20.93,73.53,37.83,5.01,5.84,6.19,11.07,9.56,16.9,4.07,7.04,14.22,20.16,15.93,27.94.37,1.7-.64,2.94-.4,3.9.22.88,1.71.98,2.13,1.7,2.3,3.92,2.92,7.35,6.11,11.81,11.99,16.71,22.35,35.24,35.79,51.19,5.34,6.34,11.84,12.01,17.18,18.35,11.1,13.19,21.04,30.02,29.42,45.26,13.52,24.59,15.73,39.03,41.12,55.31,13.24,8.49,27.95,14.82,43.48,17.71,6.3,1.17,11.35.38,17.76,3.41,16.51,7.78,18.16,17.89,24.06,33.22,6.02,15.65,22.42,32.07,38.87,36.65,14.76,4.11,28.04-4.67,42.59-3.02,5.51.63,22.37,8.21,26.7,11.7.5.4,6.74,7.37,8.09,8.8,5.44,5.79,18.07,30.37,21.59,38.53,3.14,7.28,3.93,13.77,9.17,20.51,4.7,6.05,16.94,12.03,19.69,17.36,4.86,9.44.38,25.98-.24,36.18-.63,10.46-1.03,26.74-.3,37.08.23,3.22,2.23,6.91,1.02,9.76ZM285.71,351c4.78,20.85,17.04,38.67,24.03,59.17,3.67,10.77,6.52,24.27,5.48,35.64-.41,4.45-1.48,8.97-2.35,13.34-14.3.21-21.78-15.19-26.7-26.51-5.29-12.16-8.35-24.91-15.95-36.15-2.89-4.27-8.8-8.95-11.43-13.24-1.14-1.87-1.26-4.43-2.21-5.75-.67-.94-2.37-1.25-2.85-2.24-.59-1.19-.68-10.9-1.18-13.96-2.49-15.24-13.64-43.73-22.57-56.28-15.24-21.41-36.88-37.91-46.28-63.2-3.28-8.82-6.07-18.72-8.49-27.65-2.76-10.2-4.94-23.56.35-33.31,2.3-4.24,5.32-4.83,9.73-3.24,7.58,2.73,20.76,14.01,27.16,19.73,6.71,5.99,11.48,14.05,19.96,18.16,13.67,6.62,17.18,4.56,25.4,19.66,9.27,17.06,24.84,50.77,24.77,69.82,0,1.89-1,3.39-1.02,4.87-.21,14.04,1,27.37,4.15,41.15ZM253.33,381.06c6.74,7.08,13.32,14.25,18.26,22.71,10.48,17.97,12.65,40.97,29.01,55.34-23.05-6.59-36.48-30.1-42.92-51.73-1.36-4.56-4.73-16.78-4.93-21.07-.08-1.75.84-3.46.59-5.25Z" style="fill: #eaddb7;"/>
  <path d="M830.22,203.07c.55.84,3.6,8.28,3.94,9.47,1.75,6.16-3.34,28.64-6.43,34.74-7.97,15.75-15.2,23.2-18.26,42.25-.2,1.27.65,2.55.48,3.44-.62,3.35-6.33,5.01-8.58,6.58-.34.23-5.68,5.37-5.86,5.74-.82,1.69,1.96.67,2.17,1.46.44,2.81-5.02,9.74-7,11.93-13.11,14.49-25.63,16.14-41.77,4.34-5.42-3.96-13.04-15.7-18.77-19.68-1.93-1.34-10.54-5.02-12.78-5.42-9.31-1.68-15.86,5.81-24.65,6.8-20.45,2.31-33.99-18.68-38.83-35.81-3.73-13.19-1.82-27.91-6.74-40.9-7.98-21.09-23.12-55.22-45.77-63.7-15.73-5.89-32.26,4.61-48.14-4.48-3.83-2.19-6.59-6.06-9.88-8.28-15.84-10.68-39.7-20.61-53.33-32.5-11.62-10.13-9.08-16.88-15.43-28.03-2.4-4.22-6.35-7.21-8.19-11.39-1.45-3.29-3.85-13.36-2.75-16.54,6.69-4.86,16.48.51,23.02,3.8,19.16,9.65,37.53,22.68,59.2,26.77,1.93.36,3.22.19,2.82-2.04-.7-3.91-2.83-9.28-4.34-13.06-6.27-15.72-15.63-23.34-14.66-41.88.39-7.54,1.49-17.62,2.59-25.32.67-4.7,3.54-10.25,8.55-11.07,7.64-1.25,11.16,1.66,16.49,6.48,8.79,7.95,16.88,20.27,25.48,28.94,26.23,26.42,58.96,32.88,88.69,53.16,4.55,3.1,8.49,6.94,13.24,10.01,8.83,5.7,18.14,8.37,26.61,14.86,12.85,9.84,17.08,22.03,27.36,32.85,9.31,9.8,28.26,26.26,40.41,31.53,8.04,3.48,19.51,4.65,26.57,7.7,5.12,2.21,21.65,12.89,24.53,17.26ZM580.89,37.94c-4.26-6.61-10.49-11.52-15.73-17.29-5.95-6.55-11.79-18.46-22.39-17.65-6.64.51-5.47,4.47-7.67,9.4,3.38.33,5.21,4.54,7.92,6.98,7.5,6.73,15.7,9.3,22.73,15.08s13.71,14.02,20.15,20.48c1.05,1.05,8.88,13.16,9.34,14.6.37,1.15,1.14,4.45,1.09,5.49-.14,2.99-3.12,3.4-.33,8.1,2.56,4.31,8.34,8.76,10.56,12.71,3.74,6.65,3.15,15.71,9.94,20.47,3.68,2.58,13.96,6.98,18.43,8.57,1.2.43,3.51.29,3.77.5,2.04,1.66.49,3.82-2.71,2.71-7.5-2.6-14.59-7.4-22.29-9.76-7.72-7.92-5.83-19.55-14.62-26.66-3.65-2.95-7.74-4.11-11.36-6.11-19.05-10.48-28.15-17.38-31.76-40.04-.77-4.83-.14-10.51-1.6-15.35l-18.21-14.13c-1.46-.2-.96.03-1.09,1.06-1.56,12.04-5.03,20.53-1.34,33.02,2.79,9.44,9.64,18.13,13.33,27.21,1.55,3.83,3.45,14.6,4.88,16.8.87,1.33,6.61,4.02,8.62,5.93,5.8,5.51,9.68,11.01,16.89,15.78,10.91,7.21,19.05,5.22,30.24,9.14,1.36.48,11.52,4.16,9.2,6.42-4.48.01-7.98-3.71-12.26-4.86-3.44-.92-7.72-.65-11.1-1.32-8.92-1.76-18.41-6.84-25.39-12.49-3.38-2.73-9.16-11.2-12.15-12.5-2.37-1.03-4.53-.14-6.56-.75-1.09-.33-2.34-2.35-4.1-3.16-2.46-1.14-4.8-.86-7.12-1.64-10.13-3.4-21.45-8.59-31-13.42-7.96-4.02-28.29-17.76-35.98-17.09-2.66.23-2.78,2.23-6.2-.81-1.51,1.91,5.91,7.46,7.7,7.92l11.11-1.23-1.48,3.61c8.97,1.04,18.52,7.15,25.97,12.26,12.69,8.72,17.47,16.48,27.06,27.39,1.44,1.63,8.15,6.5,8.26,7.04.17.87-1.26,2.41-2.19,2.15-1.01-.28-2.57-1.92-4.09-2.5-18.12-6.84-40.68-9.28-51.85-26.76-2.72-4.26-5.07-13.08-7.96-15.93-3.53-3.48-5.51.63-2.79,2.74,3.46,2.68,5.93,1.95,6.03,8.47-3.16,1.68-2.98-2.77-4.36-4.35s-4.37-2.07-5.64-4.53c-1.72-3.34.15-4.85-.16-6.38-.25-1.23-4.66-3.17-4.16-.9,1.93,8.68,9.45,13.74,12.64,22.13,1.2,3.17,1.54,6.66,2.65,9.63,5.68,15.23,29.85,25.5,43.13,33.18,8.67,5.01,18.47,13.11,27.11,18.69,21.38,13.8,41.55-5.62,62.8,13.11,18.03,15.89,36.09,53.39,38.85,76.98.33,2.82-.32,5.88,0,8.64,2.26,19.63,14.43,49.44,38.48,47.18,10.84-1.02,14.97-8.85,28-6.02,1.15.25,12.12,4.42,12.64,4.84,1.16.93,1.58,2.84,2.52,3.84,10.18,10.83,28.12,31.2,44.33,20.41,1-.67,9.58-8.37,9.91-8.95,1.28-2.2.55-4.49,1.2-6.83,1.71-6.21,11.7-12.24,16.12-16.55,1.88-14.31,7.98-28.66,14.85-41.27,4.39-8.07,6.85-8.65,8.45-19.23,2.32-15.42,2.76-24.98-10.57-34.8-14.94-11-26.48-9.8-41.7-16.58-12.35-5.5-33.7-23.88-42.78-34.24-10.1-11.52-14.39-22.83-27.68-32.53-6.63-4.84-14.52-7.12-21.54-11.21-11.04-6.42-20.6-16.44-32.49-22.04l-52.54-25.71,4.31,6.19c5.47,5.61,9.19,12.46,16.06,16.6,9.08,5.47,15.97,5.97,23.48,15.06.93,1.13,2.89,3.89,1.89,5.35-3.29-3.26-5.71-7.3-9.48-10.11-5.67-4.23-12.39-5.51-18.09-8.85-7.25-4.24-13-14.33-18.56-20.62-2.62-2.97-9.71-5.22-3.22-6.91l-16.32-13.82ZM590.46,78.2c-1.96-15.66-11.82-29.69-23.62-39.76-1.74-1.49-6.09-5.29-8.28-4.76-1.37.73-.69,1.13-.67,1.98.1,5.72,2.23,25.27,7.33,28.14.91.51,2.75.35,3.26,1.11.71,1.05-.27,2.96.73,3.76,2.24,1.81,8.57,2.82,11.64,4.23,1.45.67,8.88,6.08,9.61,5.3ZM534.98,116.94c-8.93-11.05-17.69-22.21-29.56-30.32-2.91-1.99-20.73-12.41-23.1-10.03.07,7.62,5.66,16.67,10.73,22.21,6.69,7.31,20.35,10.5,29.46,13.5,4.23,1.39,8.28,3.18,12.47,4.64Z" style="fill: #eaddb7;"/>
  <path d="M182.5,342.37l-1.25.32c.84.2,1.61.54,2.3,1.01-3.69-10.68-10.53-19.84-17.98-28.25-8.07-9.12-7.51-7.84-17.87-13.03-4.34-2.18-8.17-5.59-12.47-7.89-11.57-6.19-25.17-10.41-36.36-17.52-2.64-1.68-19.35-13.99-20.26-15.36-1.17-1.74-.78-6.2-4.3-5.47.37,3.18,2.62,7.7,4.97,9.87,2.05,1.9,5.08,2.47,7.5,4.14,6.23,4.3,9.84,8.55,17.31,12.49,20.29,10.7,47.57,19.3,62.6,37.07,3.27,3.86,11.16,13.77,12.88,17,.92,1.73.98,4.2,2.93,5.62Z" style="fill: #eaddb7;"/>
  <path d="M262.07,796.2c-1.88-.77-5.4-.9-7.39-.57-1.21.2-2.04,1.27-3.66,1.44-1.67.18-3.42-.61-4.85-.44-5.55.66-8.44,10.71-8.55,15.37-.14,5.42,6.59,13.48,11.85,14.6,3.1.66,12.83.65,15.25-1.38,4.16-3.49,3.61-26.46-2.65-29.02ZM264.42,819.01c.02.64-.02,1.21-.12,1.73.05.2.04.52-.08,1.05-.06-.03-.12-.05-.19-.07-.51,1.35-1.49,2.19-2.73,2.65v.3s-1.04,0-1.04,0c-1.67.32-3.65.13-5.57-.34-.9.29-1.71.45-2.35.34-.23-.52-.47-.96-.72-1.33-.92-.37-1.76-.78-2.46-1.18-.38-.22-.74-.45-1.11-.68.3.84.73,1.61,2.37,1.67.18.95-.29.79-1.09.72-4.67-.36-9.1-7.2-8.97-11.7,0,0,.02-.01.03-.02-.41-1.34-.76-3.03.04-4.26.6-.92,1.43-1.19,2.31-1.12,1.9-2.22,3.61-4.97,5.89-6.31,2.53-1.49,9.81-3.36,12.44-1.82,3.97,2.32,4.92,15.84,3.93,19.76-.07.28-.29.47-.58.62Z" style="fill: #eaddb7;"/>
  <path d="M465.22,124.36l-6.52-1.14c4.33,4.58,12.24,12.45,18.79,8.51-.3,3.13-3.56,2.98-5.85,2.54-7.21-1.38-21.5-13.89-24.62-20.44-2.14-4.48-2.75-10.56-5.02-14.49-2.53-4.4-14.73-18.29-19.22-19.92-.83-.3-2,.42-3.1.16-1.62-.37-4.17-1.95-4.89-3.53,2.09-.43,3.53,3,5.06,1.85-2.64-4.4-7.02-2.27-10.51-4.79-.18-4.57,5.84-1.27,8.13-.08,8.13,4.22,22.77,17.19,27.04,25.24,2.72,5.11,2.98,13.48,6.65,17.94.33.41,5.05,4.64,5.37,4.79,2.46,1.13,8.29-.16,8.66,3.35Z" style="fill: #eaddb7;"/>
  <path d="M789.82,24.66c-.51,1.99-1.16,4.03-.77,6.14.35,1.91,2.28,2.15,2.13,4.03-7.54-3.8-4.68-10.56.92-14.81,7.15-5.43,14.48-7.62,22.96-3.28,4.52,2.32,11.51,9.66,10.96,15.02-.75,7.31-12.56,12.96-19.26,11.86-2.27-.37-11.22-5.87-12.7-7.66-2.67-3.21-1-8.67-4.24-11.3ZM792.73,23.22l2.9,1.14c-6.2,8.19,7.41,18.67,14.66,17.87,3.03-.34,11.79-5.44,12.69-8.37,2.99-9.72-10.54-19.05-19.32-17.51-3.59.63-7.19,3.9-10.46,5.38l-.47,1.5Z" style="fill: #eaddb7;"/>
  <path d="M906.99,732.76c-2.41-2.96-7.4-6.31-11.37-5.1-1.79.55-1.66,2.57-2.75,3.79-2.5,2.78-4.58,2.72-4.32,7.88.52,10.28,5.92,16.77,16.79,15.04,5.83-6.13,7.27-14.73,1.66-21.61ZM895.29,750.03c-4.34-3.62-4.37-9.67-2.4-14.55l1.35.31c.55-1.17,1.41-2.12,2.55-2.7l-.25-1.2c2.94-.99,4.87-.27,6.12,1.39,1.58.81,2.78,2.19,3.18,3.85l.82-.81c3.84,7.21-2.35,21.24-11.37,13.71Z" style="fill: #eaddb7;"/>
  <path d="M348.37,10.32c10.2-1.7,14.59,14.17,7.66,20.23-.83.73-5.13,2.96-6.18,3.22-7.89,2-11.44-6.97-13.56-13.08,2.17-3.65,7.73-9.65,12.08-10.37ZM354.74,28.89c4.42-4.3,1.3-14.27-4.4-16.55-5.43.18-10.43,5.57-9.73,10.99.29,2.24,3.83,8.29,5.99,8.62,1.37.21,7.22-2.16,8.14-3.06Z" style="fill: #eaddb7;"/>
  <path d="M11.02,95.22c-1.72-2.32-5.54-1.7-7.97-1.52,4.43-5.92,12.97,1.28,14.51,6.26s.37,10.83-2.33,15.28c-7.73,1.74-16.75-.55-15.01-10.13.71-3.92,6.42-10.52,10.8-9.89ZM11.07,100.2c-1.12-5.25-7.01,1.64-8.04,4.11-3.08,7.4,3.15,10.33,9.67,9.09,3.69-.7,5.37-14.83.49-16.7.76,2.24,1.04,4.06-2.12,3.5Z" style="fill: #eaddb7;"/>
  <path d="M854.93,436.55c.64.73,2.07,1.08,2.63,2.1.29,1.77-1.31,1.2-2.18.7-3.31-1.94-7.51-9.61-10.76-12.45-8.52-7.45-19.54-1.09-29.95-2.93-3.01-.53-16.48-6.97-15.69-10.47l1.46-.74c1.21,2.56,3.4,3.74,5.67,5.23,10.79,7.1,15.5,3.62,27.26,3.37,2.4-.05,5.38-.18,7.67.43,4.88,1.31,10.45,10.85,13.9,14.76Z" style="fill: #eaddb7;"/>
  <polygon points="736.89 812.61 736.89 813.32 733.26 814.02 733.27 812.58 736.89 812.61" style="fill: #eaddb7;"/>
  <path d="M954.53,565.38c-1.31.23-2.37-1-2.89-2.19,1.31-.23,2.37,1,2.89,2.19Z" style="fill: #eaddb7;"/>
  <path d="M769.98,711.92c25.32-33.94-15.91-49.16-28.31-74.3-4.26-8.63-6.28-21.82-9.99-31.22-1.75-4.44-4.77-7.34-6.41-11.7-1.15-1.38-4.88-.4-5.82.72-.53.63-3.05,9.46-3.14,10.57-1.3,16.96,20.61,48.95,33.01,60.09,5.79,5.2,12.08,7.12,14.82,14.95,1.64,4.69,3.1,11.39.46,15.92-1.19,2.03-3.73,2.88-5.35,4.81-2.13,2.56-6.73,11.29-7.64,14.2-2.3,7.37-.52,20.56-3.28,28.41.26.37.4.85.3,1.41-.54,3.1-1.6,8.29-4.64,9.96-1.1,1.82-3.58,5.62-4.04,6.21-2.1,2.72-5.92,4.56-7.57,6.56-1.02,1.24-7.3,11.59-7.75,12.98-.4,1.24-.95,2.32-.52,3.69,5.99,5.34,16.96-1.68,19.25-8.07.5-1.4.11-3.14.73-4.38.46-.93,2.3-1.42,3.2-2.61,3.19-4.25,10.57-18.15,11.13-23.12.43-3.79-.97-9.17-.6-13.74,1.03-12.56,5.72-12.74,12.13-21.34ZM755.93,725.45c-2.63,13.66,2.35,25.66-8.03,37.7-.08.24-.21.48-.42.71-.48.52-.99,1.01-1.5,1.49.02.34-.04.69-.23,1.01-1.34,2.37-2.67,4.62-4.32,6.79-.42.55-.82,1.11-1.23,1.66-.04,1.16-.15,2.22-.5,2.96-1.16,2.51-10.02,8.33-11.22,4.55-.79-2.49,1.78-3.39,2.77-5.09,1.45-2.47,2.4-3.93,3.24-4.97,1.79-3.55,4.08-7.37,7.85-8.37.4-.41.81-.81,1.22-1.22,3.22-5.33,7.53-14.35,8.22-17.28,1.33-5.59.82-19.52,2.89-26.67-.1-.22-.16-.48-.17-.78-.03-4.03,2.94-7.84,5-11.1,1.95-3.09,4.58-5.42,7.44-7.55.03-.2.06-.41.1-.62.32-1.72,1.57-3.21,1.87-4.68,1.29-6.22-2.54-17.77-7.29-22.02-15.62-13.98-25.13-20.55-34.99-40.46-4.55-9.19-9.98-21.6-6.09-31.7,1.15-.78,4.83,1.42,5.51,2.39,4.81,6.85,9.23,23.78,11.97,32.51,5.82,18.53,21.22,25.32,31.53,40.26,5.65,8.2,6.29,19.84,1.78,28.8-3.77,7.49-13.84,13.52-15.41,21.66Z" style="fill: #eaddb7;"/>
  <path d="M493.87,563.49c30.67,31.52,75.55,84.31,86.45,127.01,2.44,9.54,2.2,17.96,1.26,27.55-2.03,20.73-7.38,40.68-13.17,60.54-1.3,4.46-3.2,8.49-6,12.2-1.86,2.46-5.39,4-5.45,7.28l-1.82-.73c-1.58-2.43,4.55-7.04,5.84-8.73,5.89-7.77,6.39-17.59,9-26.72,1.6-5.6,4.54-10.55,5.5-16.37,2.14-13.02,6.14-40.02,3.19-51.96-11.12-45.02-59.39-101.64-91.59-134.56-10.3-10.53-22.62-22.96-34.24-31.84-7.2-5.5-16.26-10.03-23.7-15.57-38.94-28.99-67.73-62.28-84.89-108.02-4.34-11.56-5.87-26.31-19.19-32.25-1.41-.63-11.93-2.48-7.77-5.37,2.25-1.57,3.48,1.12,4.83,1.77,19.7,9.59,18.6,19.85,25.54,38.24,15.9,42.14,44.59,75.62,80.34,102.41,8.85,6.64,18.94,11.89,27.71,18.82,14.17,11.2,25.63,23.43,38.14,36.29Z" style="fill: #eaddb7;"/>
  <path d="M616.54,794.2c2.14,1.95-10.65,6.12-11.47,6.27-9.56,1.71-15.13-3.2-26.5.88-9.54,3.42-14.16,18.24-21.8,23.96-3.01,2.26-6.41,3.55-10.21,3.17.53,4.8,1.89,10.07,2.09,14.86.05,1.3.38,5.98-1.88,5.46l-1.81-1.84,1.47-2.05c-1.71-6.48-1.08-12.2-4.09-18.41s-14.13-13.34-14.53-18.92c-.1-1.47,1.2-2.22,1.26-2.86.07-.77-7.23-11.28-8.38-12.92-14.98-21.42-37.56-49.95-58.73-65.52-4.34-3.19-10.68-5.82-13.89-9.96l2.41-1.83c2.22,2.21,3.67,4.19,6.29,6.1,14.21,10.33,27.37,22.37,39.86,34.95,18.34,18.46,30.14,43.2,45.33,64.13,5.01,6.91,11.44,5.05,16.66-.54,1.94-2.08,2.99-5.43,4.78-7.59,7.38-8.91,11.9-14.94,24.42-15.43,4.86-.19,9.26,1.77,13.77,1.6,5.01-.19,10.07-2.68,14.94-3.51Z" style="fill: #eaddb7;"/>
  <path d="M623.79,566.73c2.5,3.2,4.78,6.88,7.23,9.81,3.11,3.73,12.54,11.44,14.2,14.83,6.07,12.35,6.14,25.95,10.08,39.05,3.32,11.06,8.85,20.81,15.32,30.29.32,1.74-1.38,1.22-2.2.72s-9.38-15.11-10.4-17.13c-4.81-9.63-6.6-17.76-8.72-28.14-1.48-7.21-2.24-14.93-5.69-21.76-2.87-5.67-9.75-9.79-13.67-14.63-10.39-12.8-19.31-26.93-29.8-39.81-7.46-9.16-14.38-18.74-24.18-25.9-13.85-10.11-29.12-17.32-44.2-24.92-10.76-5.42-15.2-7.94-23.69-16.31-1.68-1.66-3.79-.09-2.83-4.77l3.67.35c1.21,5.13,5.39,8.66,9.79,11.25,15.46,9.12,32.11,15.62,47.88,25.63,19.45,12.34,27.71,23.25,41.81,40.95,5.32,6.69,10.16,13.78,15.4,20.49Z" style="fill: #eaddb7;"/>
  <path d="M762.5,612.45c-.41.37-2.62-.89-2.18,1.06.16.72,6.71,11.7,7.55,12.74,1.05,1.29,6.87,6.78,8.21,7.76,3.4,2.5,9.23,3.87,13.05,5.52-.7-3.06,1.73-4.56,4.37-3.58l-1.45,5.72,10.79,7.05c.3,1.49-.73,1.23-1.78,1.03-2.28-.43-9.78-5.95-10.77-5.79-5.96,4.96-8.08,9.21-4.77,16.76,1.64,3.74,9.24,10.41,9.2,14.78-.02,2.01-2.62,4.23-2.9,6.71-.71,6.35-.24,10-2.83,16.82-1.94,5.13-5.54,8.12-6.19,14.2s2.14,9.81,3.42,15.56c-6.53-6.15-7.71-14.13-4.3-22.31,1.2-2.88,4.03-5.99,4.8-8.29,1.61-4.81,4.5-22.83,2.93-27.14-1.02-2.78-4.57-5.54-6.18-8.32-5.13-8.9-2.51-13.43,3.46-20.67-2.87-2.3-6.26-2.03-9.65-4.21-9.11-5.87-12.22-12.16-17.43-21.01-1.54-2.61-7.02-7.65-2.38-8.48l5.02,4.08Z" style="fill: #eaddb7;"/>
  <path d="M456.76,421.43c1.24.92,4.92,5.79,6.68,7.5.76.74,2.1.98,2.18,1.08.47.54.23,1.69-1.1,1.45-2.61-.48-6.08-5.07-8.47-6.8-16.45-11.87-37-5.89-56.38-10.06-3.35-.72-24.55-7.96-24.56-10.39,0-.28,1.58-1.78,2.41-1.68.74.09,1.56,1.11,2.38,1.16,6.75.45,11.38,2.5,18.05,3.24,19.71,2.18,41.94,1.96,58.82,14.51ZM431.65,413.02l-46.41-6.19c.18,1.27,1.47,1.24,2.32,1.67,10.49,5.18,29.66,7.29,41,5.38,1.59-.27,3.53,1.82,3.09-.86Z" style="fill: #eaddb7;"/>
  <path d="M723.18,729.46c-.05-.27-.05-.52,0-.75-.04-.26-.08-.53-.1-.79-.72-9.12-.36-19.49-4.49-27.99-2.09-4.3-5.79-6.76-10.66-5.69-12.93,2.83-18.01,26.63-16.84,37.78.18,1.72,6.21,17.14,7.09,18.23,2.61,3.21,12.26,5.73,16.16,3.94.94-.43,2.05-1.61,3.19-3.19,1.59-7.21,7.18-13.86,5.65-21.53ZM700.8,749.11c-2.38-2.14-7.18-16.49-7.49-19.99-.54-6.15,2.17-20,6.25-24.74,2.87-3.32,6.46-2.6,8.07-3.73,1.13-.79-.66-3.76,2.98-3.74,7.03.03,8.85,13.53,9.58,18.73,1.7,12.15,3.03,24.11-4.96,34.31-2.91,3.72-11.17,2.09-14.43-.84Z" style="fill: #eaddb7;"/>
  <path d="M738.23,529.76c.21.1.36.87.8,1.18,8.24,5.74,9.78,15.52,14.21,24.01,2,3.82,5.24,9.01,8.14,12.16.27.3,7.35,5.93,3.28,4.7-4.6-1.39-11.52-12.28-13.93-16.55-3.5-6.21-7.87-20.45-14.64-23.04-1.91-.73-7.17-1.14-9.59-1.36-13.46-1.25-27.62-.36-40.62-1.8-17.53-1.94-34.44-13.01-48.76-22.52l1.14-1.86c2.87-.69,2.89,1.88,4.23,2.98,4.44,3.64,18.5,11.68,23.94,13.89,19.81,8.04,38.89,5.1,59.4,6.37,3,.18,10.08.75,12.4,1.85Z" style="fill: #eaddb7;"/>
  <path d="M463.14,821.98c-1.46.17-1.2.14-1.63-.91-1.4-3.37.02-9.43-.41-13.27-.67-5.96-17.66-21.91-23.09-25.53s-13.23-3.64-18.03-8.19c-5.33-5.05-10.33-19.04-9.62-26.25.19-1.91,2.69-4.55,4.03-2.11-.64.55-1.25,1.07-1.28,2-.34,10.97,4.27,23.28,15.05,27.67,1.7.69,3.57.63,5.26,1.3,7.29,2.91,30.55,23.36,30.54,31.23,0,1.07-.73,1.86-.73,2.09l-.1,11.98Z" style="fill: #eaddb7;"/>
  <path d="M633.39,617.47c-.57-1.3-1.01-2.67-1.33-4.09-.13-.07-.23-.17-.26-.31-.08-.35-.09-.84-.06-1.4-.02-.16-.05-.32-.07-.48-.61-4.47-.4-9-.93-13.47-1.81-1.7-3.27-3.9-5.33-5.57-1.43-1.15-4.63-3.81-6.44-3.02,5.04,7.26,10.52,6.46,10.36,16.8-.03,1.67-1.09,3.12-.95,4.89.28,3.67,3.43,10.99,4.47,15.06.33,1.32-1.12,4.11,1.99,4.24,4.71.2-.03-6.37-.69-8.4-.51-1.59-.67-2.95-.74-4.25Z" style="fill: #eaddb7;"/>
  <path d="M421.87,674.2l-.34.79c-2.56-6.62-.09-12.58,1.49-19.07-1.26-2.07-3.46-3.4-4.93-5.27-.52-.66-5.62-9.2-7.19-7.68l9.01,13.83c-.33,4.28-2.21,8.88-1.81,13.24.15,1.62,2.99,11.99,3.73,12.93,1.02,1.31,2.54.76,3.39-.35-.87-2.81-2.68-5.61-3.34-8.42Z" style="fill: #eaddb7;"/>
  <path d="M231.69,185.61c.43,2.08-1.02,1.5-2.57,1.45-4.47-.14-14.63-3.32-18.95-5.13-7.83-3.27-14.06-10.33-23-10.53-3.91-.09-10.05,3.64-9.07-2.2,7.79.7,15.86.7,22.98,4.39,1.71.89,3.18,2.69,5.05,3.67,7.93,4.2,16.52,7.67,25.56,8.34Z" style="fill: #eaddb7;"/>
  <path d="M465.06,852.49c.07,2.87-3.26,2.32-5.29,1.96-2.79-.5-13.06-4-15.95-5.19-5.78-2.39-4.61-4.98-7.07-9.61-.66-1.24-4.7-4.34-1.95-6.21,4.57-3.13,5.14,10.83,8.27,12.24,6.99,2.6,14.72,5.9,21.99,6.81Z" style="fill: #eaddb7;"/>
  <path d="M380.08,592.62l-2.55-.72c-.13-4.98-1.49-8.32-4.3-12.33-2.08-2.96-4.68-4.5-6.75-7.04-3.15-3.86-5.69-8.55-9.36-11.7l3.3-4.65c1.81,1.35.7,3.5,1.22,5.27,2.77,9.43,20.72,18.53,18.44,31.17Z" style="fill: #eaddb7;"/>
  <path d="M166.9,194.39l-2.79.82c-.38-.42.59-9.96.84-11.21.2-1,5.68-10.27,6.57-9.05-.57,6.98-6.1,11.62-4.62,19.45Z" style="fill: #eaddb7;"/>
  <path d="M775.58,194.64c.3-.38,3.47-2.21,3.95-2.28,4.36-.66,7.01,10.68,10.69,13,1.88,1.19,6.94,1.67,9.48,2.91,6.94,3.38,11.53,14.03,10.04,21.47-.63,3.15-3.36,8.14-4.11,11.19-1.06,4.33-3.21,25.76-6.68,26.89-3.01.97-5.51-1.26-7.05-3.64-4.65-7.22-2.24-18.8-4.15-26.88-1.51-6.39-8.36-14.4-11.03-20.83-2.15-5.15-4.76-17.21-1.14-21.84ZM798,265.02c1.45-5.95,2.95-11.95,4.34-17.92.47-2.03-.05-4.16.38-6.2.7-3.32,4.45-9.78,4.9-13.38s-3.21-12.45-5.91-14.75c-5.06-4.31-13.61-2.98-18.05-10.33-1.4-2.32-1.01-6.22-4.68-6.54-3.24,5.47-3.21,8.77-1.55,14.82,2.77,10.08,14.36,22.66,14.74,33.02.1,2.75-.86,6.01-.64,9.26.24,3.59,2.27,11.74,6.45,12Z" style="fill: #eaddb7;"/>
  <path d="M670.84,193.56c1.61.23.15,3.02.84,4.21.24.43,3.93,2.03,4.85,2.78,5.93,4.78,8.73,14.69,13.35,20.72.79,1.97-.14,7.5-1.91,8.37h-3.7c-.87-.63-.61-3.25-1.18-4.59-1.6-3.74-17.2-9.57-20.61-13.57-7.55-.89-19.07-13.19-17.78-20.64s11.95.53,15.44,2.06c1.3.57,2.75.5,4.08,1.02,1.43.56,4.27,3.53,5.9,2.23l.7-2.59ZM656.14,195.77c-1.41-.81-5.95.08-7.8-3.12-.35,2.04.25,3.35,1.01,5.12,4.38,10.26,25.45,16.82,34.36,23.82,1.28,1.01,1.64,3.73,4.28,3.32.94-.9-9.96-19.53-11.79-21.16-.22-.19-4.24-2.78-4.5-2.85-1.28-.35-3.22,2.14-8.4.42-4.65-1.55-5.68-4.69-7.16-5.54ZM669.33,199.36l-9.41-2.99c-.42,1.93.48,1.25,1.41,1.81,1.73,1.04,6.73,4.11,7.99,1.17Z" style="fill: #eaddb7;"/>
  <path d="M758.86,257.44l-1.47,2.16-2.14-1.1c2.67-4.53,10.16-17.1,16.33-14.71,6.53,2.53,15.64,20.47,12.93,26.9-.99,2.35-4.39,6.58-7.29,6.54-6.08-.08-19.13-12.79-18.36-19.79ZM764.97,248.27c-1.16,1.05-3.16,7.18-3.23,8.85-.24,5.36,4.55,10.99,8.69,13.79,5.09,3.43,9.3,5.82,11.93-1.71,1.59-4.56-6.51-21.5-11.76-22.99-1.3-.22-4.71,1.25-5.62,2.07Z" style="fill: #eaddb7;"/>
  <path d="M736.91,253.85c.43.26.79,1.53,1.81,2.16,3.88,2.41,13.57,7.5,11.76,13.01-3.1,9.42-22.14-1.53-26.84-5.36-1.02-.84-6.94-6.65-7.25-7.31-1.92-4.24,3.42-3.02,5.01-3.12,3.95-.24,12.08-1.46,15.51.62ZM747.87,268.93c2.03-2.91-11.43-12.06-14.38-12.83-.69-.18-8.97-.53-9.82-.46-1.1.1-1.86.12-2.53,1.14-.68,3.12,21.83,17.17,26.74,12.16Z" style="fill: #eaddb7;"/>
  <path d="M700.91,135.21c.13.07.1,1.12.63,1.24,3.04.7,4.83-.22,8.72,1.39,11.62,4.83,16.68,17.54,23.65,26.41,2.3,2.93,20.42,15.41,23.95,16.04,2.24.4,4.57-.17,6.72.59-2.68,2.07-7.36,1.13-10.36.12-4.93-1.67-20.39-12.93-23.6-17.1-5.32-6.93-13.08-21.77-22.13-24.31-3.01-.85-7.25-.54-10.37-1.32-1.9-1.2,1.02-4.04,2.79-3.06Z" style="fill: #eaddb7;"/>
  <path d="M580.4,154.34c-5.82-.76-9.23-8.65-14.43-9.97-2.34-.6-4.59,1.02-6.94,1.11-5.43.21-5.3-2.92-8.74-5.07-6.9-4.31-17.21-3.13-25.08-7.01-1.58-.78-8.12-5.1-7.72-6.75.91-3.81,6.73,3.26,8.27,4.05,6.85,3.54,14.58,2.7,21.6,5.4,4.83,1.86,7.94,6.49,13.21,6.35,1.47-.04,2.62-1.06,3.8-1.17,3.58-.34,12.26,7.61,14.61,10.52.67.82,1.75,1.19,1.43,2.55Z" style="fill: #eaddb7;"/>
  <path d="M674.83,243.01c.18-.19,3.48-1.07,3.48.44.05,6.58-.53,12.83,4.68,17.72,3.54,3.32,10.97,6.28,15.75,5.03,1.88-.49,3.04-2.49,6.01-2.71,4.46-.34,11.01,1.53,13.7,5.28.91,1.26,7.56,12.68,7.54,13.45-.01.49-.8,1.31-1.81.36-4.58-4.31-5.71-12.31-11.34-14.77-1.25-.55-6.28-2.03-7.41-2.01-2.33.05-5.58,3.26-8.06,3.47-5.46.46-16.16-4.62-18.98-9.33-.77-1.29-4.15-16.3-3.55-16.93Z" style="fill: #eaddb7;"/>
  <path d="M678.53,138.45c.51,1.9-1.93,1.67-2.21,2.66-1.44,5.23,3.48,14.44,7.2,17.98,9.65,9.19,28.14,2.75,39.81,6.92.73,1.4,7.86,3.06,7.2,4.42-1.54,3.18-6.98-1.7-9.37-2.29-15.73-3.91-34.22,3.96-44.09-13.51-2.19-3.87-7.56-19.75,1.45-16.19Z" style="fill: #eaddb7;"/>
  <path d="M737.34,226.04c-8.15-2.56-19.08-12.92-21.41-21.05-3.1-10.8.97-23.83-8.61-32.57-1.9-1.73-4.5-.78-2.83-3.94.97-.17,2.13-.2,3.05.11,1.18.4,7.36,10.44,8.03,12.27,3.45,9.49-.31,18.63,5.37,28.56,4.38,7.66,9.18,9.01,14.77,14.27.77.73,2.02.77,1.64,2.34Z" style="fill: #eaddb7;"/>
  <path d="M798.65,274.46c.12,5.86-.1,11.56-6.99,12.28-9.4.98-20.22-2.24-28.34,4.13-3.81,2.99-3.65,8.1-8.99,9.89s-10.78.45-15.35-2.51c.36-5.59,5.73.86,9.09,1.19,1.3.13,5.44-.67,6.65-1.21,3.11-1.4,3.49-6.12,6.03-8.51,1.49-1.4,7.45-4.61,9.47-5.01,6.6-1.3,16.84,1.23,22.59-.46,4.17-1.23,3.79-5.44,4.41-8.71.23-1.2-.45-1.25,1.44-1.08Z" style="fill: #eaddb7;"/>
  <path d="M631.78,174.37l-2.16-.02c-.28-5.85-7.45-11.01-12.3-13.47-1.22-.62-2.84-.25-3.98-1.12-1.99-1.51-1.08-4.5,1.88-3.3,2.38.97,12.64,8.26,14.48,10.24,2.31,2.49,2.37,4.34,2.09,7.67Z" style="fill: #eaddb7;"/>
  <path d="M752.09,287.15c.21,1.15-.25,1.58-1.27,2-4.43,1.82-11.95,1.39-16.64,3.65-2.87.33-4.77-3.97-1.31-4.39,1.11-.14,2.32.56,3.48.52,5.41-.19,10.42-1.62,15.74-1.78Z" style="fill: #eaddb7;"/>
</svg>