<?xml version="1.0" encoding="UTF-8"?>
<svg id="Layer_1" data-name="Layer 1" xmlns="http://www.w3.org/2000/svg" viewBox="0 0 253.79 169.37">
  <path d="M201.98,19.14c-.14,6.03-.44,14.37-1.17,24.27-1.04,14.05-1.88,25.48-4.7,39.2-3.69,17.97-8.8,30.32-11.74,37.33-4.38,10.43-8.99,21.4-17.62,31.73-3.62,4.33-9.24,11.07-17.62,14.93-7.01,3.24-10.75,2.06-34.06,1.87-3.37-.03-6.9,1.35-11.74,0-1.21-.34-7.41-2.17-14.09-9.33-1.79-1.92-6.47-7.28-10.57-16.8-1.22-2.83-4.87-11.89-7.05-31.73-1.11-10.13-.47-10.63-1.17-42.93-.43-19.65-.93-31.81-1.17-37.33-.42-9.46-.86-17.23-1.17-22.4" style="fill: #43489b;"/>
  <path d="M.02,17.94c.06-6.36,24.87-10.87,39.64-13.56C64.87-.21,87.33-.17,131.21.09c0,0,15.18.09,46.51,3.48,22.9,2.48,30.42,4.45,31.41,8.56,1.55,6.43-13.54,15.14-15.49,16.27-20.5,11.84-36.51,7.41-80.44,6.54-37.86-.75-46.37,2.13-72.66-2.53C32.51,30.99-.07,25.22,0,17.93h.02Z" style="fill: #43489b;"/>
  <path d="M9.21,19.44c.14,6.03.44,14.37,1.17,24.27,1.04,14.05,1.88,25.48,4.7,39.2,3.69,17.97,8.8,30.32,11.74,37.33,4.38,10.43,8.99,21.4,17.62,31.73,3.62,4.33,9.24,11.07,17.62,14.93,7.01,3.24,10.75,2.06,34.06,1.87,3.37-.03,6.9,1.35,11.74,0,1.21-.34,7.41-2.17,14.09-9.33,1.79-1.92,6.47-7.28,10.57-16.8,1.22-2.83,4.87-11.89,7.05-31.73,1.11-10.13.47-10.63,1.17-42.93.43-19.65.93-31.81,1.17-37.33.42-9.46.86-17.23,1.17-22.4" style="fill: #43489b;"/>
  <path d="M200.25,34.16c6.57,1.61,12.18,2.69,16.43,3.43,10.1,1.74,15.19,1.96,23.01,4.8,7.87,2.86,11.96,4.43,13.51,9.23,2.11,6.55-1.95,14.67-3.85,18.45-2.93,5.85-6.44,9.3-12.21,14.87-4.43,4.28-7.96,7.04-11.86,10.06-13.83,10.71-23.4,17.69-24.42,18.44-19.34,14.1-22.07,15.82-23.57,14.34-2.42-2.41-.23-11.82,3.85-18.45,5.97-9.73,15.1-12.05,21.93-14.68,33-12.7,36.95-23.8,38.49-28.33.47-1.38,2.25-6.62.49-10.59-2.18-4.95-8.53-4.97-14.36-5.13-7.26-.2-17.5-.7-30.44-2.07" style="fill: #43489b;"/>
  <path d="M87.01,54.21l-3.65.09c-.05-.39-.25-.71-.6-.97-.35-.25-.78-.38-1.31-.38-.46,0-.86.09-1.17.28-.32.18-.48.43-.48.75,0,.25.1.46.3.65.2.19.56.33,1.09.44l2.41.45c1.25.23,2.18.62,2.8,1.18.61.55.92,1.29.92,2.21,0,.86-.25,1.61-.75,2.25s-1.19,1.13-2.06,1.48c-.87.35-1.87.53-2.99.53-1.79,0-3.2-.37-4.23-1.11s-1.62-1.73-1.77-2.97l3.94-.09c.09.46.32.8.69,1.04s.83.35,1.39.35c.52,0,.94-.1,1.26-.29s.48-.44.48-.75c0-.53-.51-.89-1.53-1.09l-2.19-.43c-1.25-.24-2.18-.66-2.8-1.27-.62-.61-.93-1.39-.93-2.36,0-.85.23-1.56.68-2.16.45-.59,1.09-1.05,1.93-1.36s1.82-.48,2.95-.48c1.7,0,3.04.36,4.02,1.07.98.71,1.51,1.69,1.61,2.93h-.01Z" style="fill: #eaddb7;"/>
  <path d="M90.64,48.93c-.56,0-1.04-.19-1.45-.56s-.61-.83-.61-1.36.2-.98.61-1.35c.4-.37.89-.56,1.45-.56s1.05.18,1.45.56c.4.37.6.82.6,1.35s-.2.99-.6,1.36-.89.56-1.45.56ZM88.65,62.93v-12.56h4v12.56h-4Z" style="fill: #eaddb7;"/>
  <path d="M98.53,55.77v7.15h-4v-12.56h3.95v2.31h.1c.28-.76.74-1.37,1.36-1.81.62-.44,1.4-.66,2.33-.66s1.65.2,2.3.59,1.16.94,1.52,1.65c.36.71.54,1.53.54,2.48v8h-4v-7.21c0-.7-.18-1.24-.53-1.63s-.85-.59-1.48-.59c-.42,0-.79.09-1.1.27s-.56.44-.74.78-.26.75-.26,1.23h.01Z" style="fill: #eaddb7;"/>
  <path d="M114.34,67.89c-1.79,0-3.19-.36-4.2-1.09-1.01-.73-1.59-1.64-1.73-2.74l3.77-.21c.07.26.2.49.39.68s.44.34.76.44.69.16,1.11.16c.67,0,1.23-.16,1.67-.49.44-.33.66-.89.66-1.69v-2.21h-.15c-.16.38-.4.73-.72,1.03-.32.31-.72.55-1.2.72-.48.18-1.02.26-1.65.26-.91,0-1.75-.21-2.51-.64s-1.37-1.09-1.82-1.99-.68-2.06-.68-3.48.23-2.69.7-3.63c.47-.95,1.08-1.65,1.85-2.11.76-.46,1.58-.69,2.46-.69.66,0,1.22.11,1.7.34s.86.51,1.18.87.55.72.71,1.11h.11v-2.16h3.94v12.61c0,1.05-.27,1.95-.8,2.68-.54.73-1.28,1.29-2.24,1.66-.95.37-2.06.56-3.32.56h.01ZM114.46,59.85c.73,0,1.29-.28,1.7-.85.41-.57.61-1.36.61-2.36,0-.68-.09-1.27-.28-1.76-.18-.49-.45-.88-.79-1.14s-.76-.4-1.25-.4-.91.14-1.26.42-.6.66-.78,1.16c-.18.49-.26,1.07-.26,1.74s.09,1.24.27,1.72.44.85.78,1.11.76.39,1.25.39v-.03Z" style="fill: #eaddb7;"/>
  <path d="M126.6,46.19v16.73h-4v-16.73s4,0,4,0Z" style="fill: #eaddb7;"/>
  <path d="M134.36,63.16c-1.32,0-2.45-.26-3.4-.78s-1.68-1.26-2.18-2.23-.76-2.12-.76-3.46.25-2.43.76-3.4,1.23-1.73,2.16-2.27,2.02-.81,3.28-.81c.89,0,1.71.14,2.45.42.74.28,1.39.69,1.93,1.24.54.54.96,1.21,1.26,2,.3.79.44,1.71.44,2.75v.99h-10.9v-2.3h9.01l-1.86.54c0-.58-.09-1.07-.26-1.48s-.43-.72-.76-.95-.76-.34-1.26-.34-.92.11-1.27.34-.61.54-.79.94-.27.87-.27,1.42v1.65c0,.58.1,1.09.31,1.52.21.43.5.75.88.98s.81.34,1.31.34c.34,0,.66-.05.94-.15s.53-.24.73-.43.36-.42.46-.69l3.66.1c-.15.82-.48,1.54-.99,2.14-.51.61-1.18,1.08-2,1.41s-1.78.5-2.88.5h0Z" style="fill: #eaddb7;"/>
  <path d="M70.64,71.71v-7.14h4v12.56h-3.82v-2.34h-.13c-.27.76-.74,1.37-1.4,1.83s-1.47.68-2.41.67c-.85,0-1.6-.19-2.25-.58s-1.15-.94-1.52-1.65c-.36-.71-.54-1.53-.54-2.48v-8.01h4v7.23c0,.67.18,1.21.53,1.6.36.39.84.59,1.45.58.4,0,.75-.09,1.07-.26s.57-.43.75-.77.28-.75.28-1.24h0Z" style="fill: #eaddb7;"/>
  <path d="M87.46,68.41l-3.65.09c-.05-.39-.25-.71-.6-.97-.35-.25-.78-.38-1.31-.38-.46,0-.86.09-1.17.28-.32.18-.48.43-.48.75,0,.25.1.46.3.65.2.19.56.33,1.09.44l2.41.45c1.25.23,2.18.62,2.8,1.18.61.55.92,1.29.92,2.21,0,.86-.25,1.61-.75,2.25s-1.19,1.13-2.06,1.48c-.87.35-1.87.53-2.99.53-1.79,0-3.2-.37-4.23-1.11s-1.62-1.73-1.77-2.97l3.94-.09c.09.46.32.8.69,1.04s.83.35,1.39.35c.52,0,.94-.1,1.26-.29s.48-.44.48-.75c0-.53-.51-.89-1.53-1.09l-2.19-.43c-1.25-.24-2.18-.66-2.8-1.27-.62-.61-.93-1.39-.93-2.36,0-.85.23-1.56.68-2.16.45-.59,1.09-1.05,1.93-1.36s1.82-.48,2.95-.48c1.7,0,3.04.36,4.02,1.07.98.71,1.51,1.69,1.61,2.93h-.01Z" style="fill: #eaddb7;"/>
  <path d="M94.97,77.36c-1.32,0-2.45-.26-3.4-.78s-1.68-1.26-2.18-2.23-.76-2.12-.76-3.46.25-2.43.76-3.4,1.23-1.73,2.16-2.27,2.02-.81,3.28-.81c.89,0,1.71.14,2.45.42s1.39.69,1.93,1.24c.54.54.96,1.21,1.26,2s.44,1.71.44,2.75v.99h-10.9v-2.3h9.01l-1.86.54c0-.58-.09-1.07-.26-1.48s-.43-.72-.76-.95-.76-.34-1.26-.34-.92.11-1.27.34-.61.54-.79.94-.27.87-.27,1.42v1.65c0,.58.1,1.09.31,1.52s.5.75.88.98.81.34,1.31.34c.34,0,.66-.05.94-.15s.53-.24.73-.43c.2-.19.36-.42.46-.69l3.66.1c-.15.82-.48,1.54-.99,2.14-.51.61-1.18,1.08-2,1.41s-1.78.5-2.88.5h0Z" style="fill: #eaddb7;"/>
  <path d="M74.42,85.41l-3.65.09c-.05-.39-.25-.71-.6-.97-.35-.25-.78-.38-1.31-.38-.46,0-.86.09-1.17.28-.32.18-.48.43-.48.75,0,.25.1.46.3.65.2.19.56.33,1.09.44l2.41.45c1.25.23,2.18.62,2.8,1.18.61.55.92,1.29.92,2.21,0,.86-.25,1.61-.75,2.25s-1.19,1.13-2.06,1.48c-.87.35-1.87.53-2.99.53-1.79,0-3.2-.37-4.23-1.11s-1.62-1.73-1.77-2.97l3.94-.09c.09.46.32.8.69,1.04s.83.35,1.39.35c.52,0,.94-.1,1.26-.29s.48-.44.48-.75c0-.53-.51-.89-1.53-1.09l-2.19-.43c-1.25-.24-2.18-.66-2.8-1.27-.62-.61-.93-1.39-.93-2.36,0-.85.23-1.56.68-2.16.45-.59,1.09-1.05,1.93-1.36s1.82-.48,2.95-.48c1.7,0,3.04.36,4.02,1.07.98.71,1.51,1.69,1.61,2.93h-.01Z" style="fill: #eaddb7;"/>
  <path d="M84.15,88.71v-7.14h4v12.56h-3.82v-2.34h-.13c-.27.76-.74,1.37-1.4,1.83s-1.47.68-2.41.67c-.85,0-1.6-.19-2.25-.58s-1.15-.94-1.52-1.65c-.36-.71-.54-1.53-.54-2.48v-8.01h4v7.23c0,.67.18,1.21.53,1.6.36.39.84.59,1.45.58.4,0,.75-.09,1.07-.26s.57-.43.75-.77.28-.75.28-1.24h0Z" style="fill: #eaddb7;"/>
  <path d="M95.88,94.36c-1.33,0-2.46-.27-3.4-.82s-1.67-1.3-2.17-2.27-.75-2.09-.75-3.37.25-2.42.75-3.39,1.23-1.73,2.17-2.27c.95-.55,2.08-.82,3.4-.82,1.16,0,2.17.21,3.03.63s1.53,1.01,2.02,1.77.75,1.66.77,2.69h-3.73c-.05-.43-.17-.79-.34-1.1-.18-.31-.41-.54-.7-.71-.29-.17-.62-.25-1-.25-.46,0-.87.13-1.22.39s-.62.64-.81,1.15c-.19.51-.29,1.13-.29,1.87s.1,1.37.29,1.88c.19.51.46.9.8,1.17s.75.4,1.22.4c.55,0,1-.19,1.37-.56.37-.37.59-.89.67-1.56h3.73c-.04,1.03-.3,1.94-.77,2.71-.48.78-1.15,1.38-2,1.8s-1.87.64-3.05.64v.02Z" style="fill: #eaddb7;"/>
  <path d="M103.09,94.12v-16.73h4v16.73h-4ZM106.69,90.83l.03-4.77h.55l3.52-4.49h4.54l-5.24,6.45h-1.06l-2.34,2.82h0ZM110.89,94.12l-3.28-5.21,2.63-2.84,5.26,8.05h-4.61Z" style="fill: #eaddb7;"/>
  <path d="M127.05,85.41l-3.65.09c-.05-.39-.25-.71-.6-.97-.35-.25-.78-.38-1.31-.38-.46,0-.86.09-1.17.28-.32.18-.48.43-.48.75,0,.25.1.46.3.65.2.19.56.33,1.09.44l2.41.45c1.25.23,2.18.62,2.8,1.18.61.55.92,1.29.92,2.21,0,.86-.25,1.61-.75,2.25s-1.19,1.13-2.06,1.48c-.87.35-1.87.53-2.99.53-1.79,0-3.2-.37-4.23-1.11s-1.62-1.73-1.77-2.97l3.94-.09c.09.46.32.8.69,1.04s.83.35,1.39.35c.52,0,.94-.1,1.26-.29.32-.19.48-.44.48-.75,0-.53-.51-.89-1.53-1.09l-2.19-.43c-1.25-.24-2.18-.66-2.8-1.27-.62-.61-.93-1.39-.93-2.36,0-.85.23-1.56.68-2.16.45-.59,1.09-1.05,1.93-1.36s1.82-.48,2.95-.48c1.7,0,3.04.36,4.02,1.07s1.51,1.69,1.61,2.93h-.01Z" style="fill: #eaddb7;"/>
  <path d="M91.3,122.63v-7.5h1.72v.94h.06c.07-.17.17-.33.3-.48.13-.16.3-.28.5-.38s.45-.15.74-.15c.38,0,.74.1,1.06.3.33.2.59.51.8.92s.31.94.31,1.58-.1,1.14-.29,1.55-.46.73-.79.94-.7.31-1.1.31c-.27,0-.51-.05-.71-.14s-.37-.21-.51-.36-.24-.3-.31-.47h-.04v2.93h-1.74ZM94.01,119.31c.21,0,.4-.06.54-.18s.26-.29.34-.51.11-.47.11-.76-.04-.55-.11-.76c-.08-.22-.19-.39-.33-.51s-.33-.18-.55-.18-.39.06-.54.18-.26.28-.34.5c-.08.22-.12.47-.12.77s.04.55.12.76c.08.22.19.39.34.51s.33.18.54.18h0Z" style="fill: #eaddb7;"/>
  <path d="M99.14,113.31v7.28h-1.74v-7.28h1.74Z" style="fill: #eaddb7;"/>
  <path d="M101.5,120.68c-.35,0-.66-.06-.93-.18s-.48-.3-.64-.54-.23-.54-.23-.9c0-.3.05-.56.16-.77s.25-.38.44-.51.4-.23.65-.3c.24-.07.5-.12.78-.13.31-.03.56-.06.75-.09s.33-.08.41-.14.13-.15.13-.26v-.02c0-.18-.06-.32-.19-.42s-.29-.15-.51-.15-.42.05-.55.15-.23.24-.27.41l-1.6-.05c.05-.33.17-.63.36-.89.2-.26.47-.47.82-.62s.77-.22,1.26-.22c.35,0,.66.04.96.12s.55.2.77.36.39.35.51.57c.12.22.18.48.18.77v3.71h-1.64v-.77h-.04c-.1.19-.23.35-.38.47s-.32.22-.52.29c-.2.07-.43.1-.68.1h0ZM102.04,119.54c.19,0,.35-.04.51-.12.15-.08.27-.18.36-.31s.13-.29.13-.47v-.51s-.11.05-.18.07-.15.04-.23.06-.17.04-.26.05-.17.03-.25.04c-.17.02-.31.06-.42.12-.12.06-.2.13-.26.21s-.09.19-.09.31c0,.18.06.32.19.41s.29.14.49.14h.01Z" style="fill: #eaddb7;"/>
  <path d="M110.34,116.8l-1.59.04c-.02-.17-.11-.31-.26-.42s-.34-.17-.57-.17c-.2,0-.37.04-.51.12s-.21.19-.21.33c0,.11.04.2.13.28s.25.14.48.19l1.05.2c.54.1.95.27,1.22.51s.4.56.4.96c0,.37-.11.7-.33.98s-.52.49-.9.64-.81.23-1.3.23c-.78,0-1.39-.16-1.84-.48-.45-.32-.71-.75-.77-1.29l1.71-.04c.04.2.14.35.3.45.16.1.36.15.61.15.22,0,.41-.04.55-.12s.21-.19.21-.32c0-.23-.22-.39-.66-.47l-.95-.19c-.54-.1-.95-.29-1.22-.55s-.4-.61-.4-1.03c0-.37.1-.68.3-.94s.48-.46.84-.59c.36-.14.79-.21,1.28-.21.74,0,1.32.15,1.75.46s.66.73.7,1.27h-.02Z" style="fill: #eaddb7;"/>
  <path d="M114.13,115.13v1.28h-3.44v-1.28s3.44,0,3.44,0ZM111.41,113.83h1.73v5.04c0,.15.04.26.11.33s.18.11.34.11c.06,0,.13,0,.2-.02s.14-.03.18-.04l.26,1.26c-.2.06-.38.1-.54.12-.17.03-.33.04-.5.04-.58,0-1.02-.14-1.32-.41-.3-.28-.45-.67-.45-1.19v-5.23h-.01Z" style="fill: #eaddb7;"/>
  <path d="M115.6,114.5c-.24,0-.45-.08-.63-.24s-.26-.36-.26-.59.09-.43.26-.59c.18-.16.39-.24.63-.24s.46.08.63.24c.17.16.26.36.26.59s-.09.43-.26.59-.38.24-.63.24ZM114.74,120.58v-5.46h1.74v5.46h-1.74Z" style="fill: #eaddb7;"/>
  <path d="M119.84,120.69c-.58,0-1.07-.12-1.48-.36s-.72-.57-.94-.99-.33-.91-.33-1.47.11-1.05.33-1.47.53-.75.94-.99.9-.36,1.48-.36c.5,0,.94.09,1.32.28.37.18.67.44.88.77.21.33.32.72.34,1.17h-1.62c-.02-.19-.07-.34-.15-.48s-.18-.24-.3-.31-.27-.11-.44-.11c-.2,0-.38.06-.53.17s-.27.28-.35.5-.12.49-.12.81.04.59.12.82c.08.22.2.39.35.51s.33.18.53.18c.24,0,.44-.08.6-.24.16-.16.26-.39.29-.68h1.62c-.02.45-.13.84-.34,1.18s-.5.6-.87.78-.81.28-1.33.28h0Z" style="fill: #eaddb7;"/>
  <path d="M127.39,120.69c-.58,0-1.07-.12-1.48-.36s-.72-.57-.94-.99-.33-.91-.33-1.47.11-1.05.33-1.47.53-.75.94-.99.9-.36,1.48-.36c.5,0,.94.09,1.32.28.37.18.67.44.88.77.21.33.32.72.34,1.17h-1.62c-.02-.19-.07-.34-.15-.48s-.18-.24-.3-.31-.27-.11-.44-.11c-.2,0-.38.06-.53.17s-.27.28-.35.5-.12.49-.12.81.04.59.12.82c.08.22.2.39.35.51s.33.18.53.18c.24,0,.44-.08.6-.24s.26-.39.29-.68h1.62c-.02.45-.13.84-.34,1.18-.21.34-.5.6-.87.78s-.81.28-1.33.28h0Z" style="fill: #eaddb7;"/>
  <path d="M132.26,117.47v3.11h-1.74v-7.28h1.67v2.82h.06c.12-.33.33-.6.61-.79s.62-.29,1.04-.29c.38,0,.71.09,1,.26.28.17.51.41.66.72.15.31.23.67.23,1.08v3.48h-1.74v-3.13c0-.3-.08-.54-.23-.71-.15-.17-.37-.26-.65-.26-.18,0-.34.04-.48.12s-.25.19-.32.34c-.08.15-.11.33-.11.53h0Z" style="fill: #eaddb7;"/>
  <path d="M138.17,120.68c-.35,0-.66-.06-.93-.18-.27-.12-.48-.3-.64-.54s-.23-.54-.23-.9c0-.3.05-.56.16-.77s.25-.38.44-.51.4-.23.65-.3c.24-.07.5-.12.78-.13.31-.03.56-.06.75-.09s.33-.08.41-.14.13-.15.13-.26v-.02c0-.18-.06-.32-.19-.42s-.29-.15-.51-.15-.42.05-.55.15-.23.24-.27.41l-1.6-.05c.05-.33.17-.63.36-.89.2-.26.47-.47.82-.62s.77-.22,1.26-.22c.35,0,.66.04.96.12s.55.2.77.36.39.35.51.57c.12.22.18.48.18.77v3.71h-1.64v-.77h-.04c-.1.19-.23.35-.38.47s-.32.22-.52.29c-.2.07-.43.1-.68.1h0ZM138.7,119.54c.19,0,.35-.04.51-.12.15-.08.27-.18.36-.31s.13-.29.13-.47v-.51s-.11.05-.18.07c-.07.02-.15.04-.23.06s-.17.04-.26.05-.17.03-.25.04c-.17.02-.31.06-.42.12-.12.06-.2.13-.26.21s-.09.19-.09.31c0,.18.06.32.19.41s.29.14.49.14h0Z" style="fill: #eaddb7;"/>
  <path d="M143.98,117.47v3.11h-1.74v-5.46h1.72v1.01h.04c.12-.33.32-.59.59-.79s.61-.29,1.01-.29.72.09,1,.26c.28.17.5.41.66.72.16.31.23.67.23,1.08v3.48h-1.74v-3.13c0-.3-.08-.54-.23-.71-.15-.17-.37-.26-.64-.26-.18,0-.34.04-.48.12s-.24.19-.32.34-.11.33-.11.53h.01Z" style="fill: #eaddb7;"/>
  <path d="M150.86,122.74c-.78,0-1.39-.16-1.83-.47s-.69-.71-.75-1.19l1.64-.09c.03.11.09.21.17.29.08.08.19.15.33.19s.3.07.48.07c.29,0,.53-.07.73-.21.19-.14.29-.39.29-.73v-.96h-.06c-.07.17-.17.32-.31.45s-.31.24-.52.32-.45.11-.72.11c-.4,0-.76-.09-1.09-.28s-.59-.47-.79-.87c-.2-.39-.3-.9-.3-1.51s.1-1.17.31-1.58c.2-.41.47-.72.8-.92s.69-.3,1.07-.3c.29,0,.53.05.74.15s.38.22.51.38c.14.15.24.31.31.48h.05v-.94h1.71v5.48c0,.46-.12.85-.35,1.17s-.56.56-.97.72-.9.24-1.44.24h0ZM150.91,119.25c.32,0,.56-.12.74-.37s.27-.59.27-1.03c0-.3-.04-.55-.12-.77s-.19-.38-.34-.5-.33-.18-.54-.18-.4.06-.55.18-.26.29-.34.5-.11.47-.11.76.04.54.12.75.19.37.34.48.33.17.54.17h-.01Z" style="fill: #eaddb7;"/>
  <path d="M157,120.69c-.57,0-1.07-.11-1.48-.34-.41-.23-.73-.55-.95-.97s-.33-.92-.33-1.5.11-1.06.33-1.48.53-.75.94-.99c.4-.24.88-.35,1.43-.35.39,0,.74.06,1.07.18.32.12.6.3.84.54.24.24.42.53.55.87s.19.74.19,1.2v.43h-4.74v-1h3.92l-.81.23c0-.25-.04-.46-.11-.64s-.19-.31-.33-.41-.33-.15-.55-.15-.4.05-.55.15-.26.23-.34.41c-.08.17-.12.38-.12.62v.72c0,.25.04.47.13.66s.22.33.38.43c.16.1.35.15.57.15.15,0,.29-.02.41-.06s.23-.1.32-.19c.09-.08.15-.18.2-.3l1.59.04c-.06.36-.21.67-.43.93s-.51.47-.87.61c-.36.15-.77.22-1.25.22h-.01Z" style="fill: #eaddb7;"/>
</svg>