<?xml version="1.0" encoding="UTF-8"?>
<svg id="Layer_1" data-name="Layer 1" xmlns="http://www.w3.org/2000/svg" viewBox="0 0 678.5 661.2">
  <g>
    <path d="M4.54,562.3c-.28.2-.43.4-.28.65.1-.22.19-.44.28-.65Z" style="fill: #2c2d26;"/>
    <path d="M650.3,147.56c-.92-.35-1.59.22-2.26.04-6-1.62-9.17-4.47-14.3-7.4-7.69-4.4-15.72-8.55-23.26-12.69-5.63-3.09-11.12-6.5-16.71-9.49-1.54-.83-3.71-1.13-5.11-1.95-2.71-1.59-2.45-2.08-5.82-3.46-3.72-1.52-7.73-5.32-11.05-7.54-1.88-1.26-3.67-1.47-5.37-2.43-1.04-.58-1.95-2.35-3.52-2.4-4.65,2.56-6.49,6.29-4.93,11.48,1.82,6.04,5.92,2.88,10.27,3.73,1.02.2,4.06,1.3,4.94,1.8,16.92,9.64,34.2,18.64,50.92,29.01,1.19.74,1.9,1.81,3.1,2.54,2.54,1.56,7.56,2.65,9.68,4,1.97,1.25,7.27,8.52,7.97,10.88.29.97-.62,2.52-.76,3.74-.23,2.05,1.02,3.25.55,5.71-.97,5.12-4.44,9.45-5,14.73l-5.56,13.18c-.49.46-6.33.26-7.44.41-2.58.35-8.61,1.2-10.94,1.81-2.38.62-4.32,2.22-6.46,3-5.15,1.88-10.76,2.83-15.68,5.3-6.4,3.2-12.23,7.02-18.81,10.15-10.26,4.87-22.79,12.59-32.03,19.24-1.44,1.03-2.84,2.6-4.36,3.72-3.66,2.72-8.21,5.14-10.84,8.84-2.73-.37-5.61-3.99-8.14-3.79-.81.06-1.6.79-2.09.78-1.11-.02-14.03-7.12-16.75-8.22-6.08-2.46-13.25-3.7-19.27-6.45-32.34-14.79-60.3-21.54-94.9-27.15-3.02-.49-15.99-3.4-17.8-3.11-.63.1-.94.81-1.48.94-3.12.77-10.49.46-14.17.51-12.49.19-25.03-.13-37.4.94-15.14,1.31-30.86,2.05-45.87,5.12-3.8.78-8.32,2.28-12.16,2.89-3.44.54-7.47.39-10.92,1.19-1.09.25-1.73,1.15-3.25,1.41-1.16.19-3-.36-3.45-.21-1.49.48-3.43,2.75-6.24,3.26-1.37.25-3.28-.23-4.2.05-.96.29-1.88,1.47-3.13,1.98-1.52.62-4.1.18-4.53.38-1.3.62-2.9,2.41-5.02,3.31-4.54,1.92-4.51,1.37-9.09,4.31-1.87,1.2-6.21,1.72-8.42,2.97-5.86,3.31-11.57,6.85-17.54,10.03-8.33,4.43-18.89,11.56-25.91,17.73-5.42,4.77-11.33,9.26-16.95,14.03-12.27,10.41-28.43,26.14-36.92,39.51-2.12,3.34-3.78,5.04-6.02,7.88-1.16,1.47-1.96,3.51-3.14,4.83-.18.21-.4.37-.63.51-.63.88-1.32,1.71-2.03,2.52.03.35.03.71-.13,1.03-.55,1.11-2.27,2.37-3,3.44-5.42,7.9-12.42,17.13-17.04,25.19-.61,1.06-.45,2.44-1.41,3.91-.36.54-1.22,1.68-2.04,2.7-.8,1.71-1.83,3.37-3.15,4.73.06.26.04.55-.11.89-.37.84-1.86,1.97-2.57,3.12-8.85,14.41-16.04,29.25-22.76,44.33-5.84,13.11-11.38,26.35-15.69,39.82-1.07,3.34-4.73,18.92-6.31,20.25-.8.68-2.56.68-2.81,2.37,3.99,5.06,10.15,6.44,15.46,9.33,5.76,3.13,10.76,7.04,16.06,10.65.8.54,2.23.64,3.02,1.5-2.45,2.16-4.51,4.58-7.12,6.57-6.44,4.91-13.2,9.05-16.93,16.46-1.05,2.08-1.83,5-3.16,7.17-.66.73-1.55,1.44-2.52,2.14-.7.79-1.48,1.5-2.35,2.08-.06.1-.15.2-.27.29-.97.74-1.97,1.48-2.8,2.38-.24.49-.54.97-.9,1.43-.15.19-.31.38-.46.57-.43.85-.74,1.76-.99,2.68-.65,2.38-.97,4.9-1,7.36-.02,2.55.18,6.42-1.39,8.78-.65,2.92-2.95,5.53-4.33,8.02-1.22,2.21-2.18,4.54-3.16,6.86-.04.09-.08.18-.11.26-.24,1.69-.12,3.4.66,4.98,1.67,3.36,5.31,4.83,7.77,7.49,1.47.62,2.84,1.55,4.02,2.52,1.77,1.46,3.66,3.16,4.86,5.21.03,0,.05.01.08.01-.02.01-.03.02-.05.03.45.78.81,1.61,1.01,2.5.65,2.86.01,5.86-.58,8.67-.58,2.8-1.31,5.82-.42,8.63.54,1.69,1.69,3.26,2.83,4.6,1.36,1.58,2.98,2.9,4.98,3.57.21.07.37.18.49.32,1.79.3,3.63.37,5.4.28,4-.2,8.43-1.3,11.47-4.05.5-.45,1.09-.33,1.48.03.74-.51,1.39-.99,1.76-1.32,5.94-5.44,14.35-15.43,19.45-21.82,1.34-1.68,2.94-3.58,4.47-5.47.03-.09.07-.18.13-.27l.5-.78c.1-.15.21-.27.34-.35,1.36-2,2.31-4.24,3.32-6.45,1.17-2.55,2.56-4.98,4.13-7.3,1.71-2.53,3.49-5.11,5.46-7.5.21-.35.46-.7.76-1.06,6.9-8.37,14.12-16.92,21.3-25.15,1.1-1.27,7.16-8.55,7.68-8.81.5-.25,1.52.11,2.3-.21.99-.4,1.54-1.39,2.23-1.7,7.55-3.39,13.72-3.33,21.57-5,12.84-2.72,25.35-6.36,38.39-8.16,12.52-1.73,27.86-2.02,39.7-6.65,3.13-1.23,6.51-3.33,9.68-4.59,6.39-2.54,13.13-4.03,19.71-6.14,1.7-.55,3.64-1.79,5.35-2.17,1.12-.25,2.76.09,3.38-.1.76-.24,1.63-1.34,2.68-1.74,5.33-2.02,10.91-3.71,16.22-5.88,1.33-.54,4.96-2.9,5.65-3.03.57-.11,1.41.47,1.7.34.38-.18.73-1.21,1.41-1.65,7.53-4.78,18.41-7.23,26.82-10.61,9.18-3.69,17.98-8.5,27.07-12.41,14.42-6.2,29.4-11.09,43.86-17.08,4.29-1.78,9.32-5.91,13.05-6.92.2-.05.44-.09.69-.1,1.27-.89,2.6-1.71,3.93-2.46,2.06-1.17,4.41-2.41,6.83-2.88.11-.18.26-.36.47-.53.71-.56,2.56-.86,3.6-1.45,3.01-1.69,6.48-3.59,8.87-6.05,1.3,2.88.29,6.16.57,9.11.52,5.56,3.04,12.56,4.07,18.22,2.27,12.43,5.02,29.09,3.19,41.44-.93,6.3-4.08,14.27-5.45,20.67-.95,4.44-1,8.95-2.16,13.45-3.36,12.95-8.6,25.51-10.76,38.72-.72,4.42-.57,9.17-1.85,13.71-2.45,8.67-7.62,14.39-11.22,22.28-2.79,6.11-5.74,12.54-7.9,18.95-.99,2.94-1.44,7.22-2.71,10.01-1.64,3.59-4.39,7.7-6.16,11.43-.96,2.02-3.62,7.25-4.01,9-1.03,4.62,4.76,6.28,8.45,3.64,10.13-7.22,18.45-17.31,27.13-26.64,5.16-5.55,10.19-11.57,15.71-16.81,2.32-2.2,5.28-3.81,7.39-6.1,4.4-4.77,8.09-11.91,12.05-17.2,6.72-8.98,14.25-17.61,21.03-26.49,2.8-3.66,5.04-9.34,8-13.42,1.74-2.39,4.19-4.5,5.93-6.83,8.53-11.39,16.25-23.25,23.9-35.17,2.91-4.53,8.62-9.15,11.23-13.57.76-1.28.81-3.87,1.47-5.45,1.33-3.19,4.01-6.53,5.41-9.64.96-2.13,2.02-6.12,3.02-8.78,3.81-10.09,6.95-18.99,11.67-28.79,4.11-8.54,3.83-11.67,5.62-20.46.9-4.43,2.21-8.86,3.36-13.23.27,1.2,1.12,2.66,1.32,3.76.52,2.88,1.35,11.84,1.21,14.65-.14,2.71-1.43,4.6-1.73,6.87-.21,1.6.29,4.48.15,6.45-.35,5.02-1.28,8.94-1.98,13.74-2.21,15.07,2.31,28,7.02,41.89,4.66,13.72,9.59,27.68,13.27,41.79,1.99,7.63,1.91,15.35,3.15,22.97.53,3.22,4.46,17.38,6.17,19.38,2.13,2.48,6,5.79,9.43,3.97.57-.3,5.02-4.52,5.24-4.95,1.26-2.43,2.39-8.59,3.29-11.46,3.93-12.49,6.48-18.27,4.75-31.54-.99-7.59-.49-10.83.84-18.02.2-1.07-.3-3.37-.01-5.19,3.05-18.97,13.18-37.45,18.35-55.97.17-.61-.28-1.32-.11-1.92,2.79-10,8.21-17.13,9.28-27.69.8-7.87,5.13-21.17,4.06-28.14-2.39-15.5-9.34-36.69-20.75-47.9-1.61-1.58-3.67-2.75-5-4.07-.32-.32-.66-.83-1-1.42-.46-.44-.89-.94-1.36-1.48-1.21-1.35-2.66-2.44-4.2-3.37-2.1-1.27-4.36-2.26-6.54-3.38-.22-.03-.4-.07-.55-.11-3.43-1.07-6.66-2.65-10.59-3.84-1.77-.53-9.69-5.73-13.26-6.19,18.89-14.84,40.57-20.04,62.54-30.23,7.17-3.33,15.88-7.74,22.68-11.72,10.7-6.26,17.17-12.46,24.37-22.67,5.19-7.35,2.97-15-2.7-21.23-4.72-5.18-8.79-7.58-14.25-11.41-3-2.11-6-4.37-8.84-6.7-.19-4.41,2.29-8.87.85-13.24-1.33-4.04-4.6-7.13-7.82-9.77,2.86-6.81,4.84-13.95,7.93-20.74,1.95-4.29,4.5-7.56,6.34-11.2.48-.95-.05-2.39.22-3.24.76-2.38,2.21-3.5,2.68-6.76.75-5.14-2.72-6.31-5.84-9.72-1.36-1.49-1.06-2.93-3.84-4ZM622.98,206.01c.42-.41,3.12-.5,3.22-.07-.64,1.19-2.34.69-3.22.07ZM610.04,216.36l-4.97,5.32c-.72-.33.19-1.08.46-1.55,1.1-1.91,2-4.12,4.51-3.77ZM615.13,231.28c.38.39.87.14.22.91-3.41.54-6.54.71-9.93-.21,2.27-2.36.99-2.69.74-4.55-.56-4.2,6.35-8.32,9.88-8.85-2.78,5.33-5.83,7.68-.91,12.7ZM618.63,229.16c-.28.26-.76.35-1.1.25-.39-.12-.64-.27-.91-.58-.27-.3-.33-.63-.27-.93-.07-.32-.11-.62-.12-.92-.72-2.35.94-6.32,3.32-5.92.14-.01.29,0,.47.05,2.38.68.7,6.64-1.4,8.05ZM570.44,227.79c-.09-.48,3.8-2.55,4.66-2.34,0,1.17-4.43,3.55-4.66,2.34ZM524.84,260.49c-.89,4.98-3.67,13.7-5.35,18.7-1.86,5.55-5.46,14.99-10.39,18.18-.13.08-2.19.46-2.91.77-11.97,5.15-23.99,2.31-35.81,12.4-1.9,1.62-3.59,4.72-5.52,6.49-1.56-.56-5-.38-6.23-1.22-.91-.62-4.03-5.29-3.07-6.2,2.91-.58,4.48-2.27,7.01-3.54,2.54-1.27,5.62-1.72,8.14-2.75,16.56-6.71,31.49-14.48,41.64-29.97,2.7-4.13,5.43-10.03,8.24-13.89,2.17-2.98,4.93-2.86,4.24,1.02ZM475.07,235.66c3.65,1.55,19.74,10.59,22.07,10.28.72-.1,1.35-.89,2.11-.71,1.78.42,8.06,3.27,10.02,4.22,1.38.67,6.09,3.07,7.05,3.84,2.71,2.18,1.73,4.95.54,7.68-1.81,4.18-7.38,11.93-10.28,15.58-12.69,15.98-26.88,19.02-44.45,26.18-6.22,2.54-12.58,6.43-18.82,8.65-3.49,1.24-2.89-1.32-4.28-2.52-.69-.59-1.89-.55-2.97-1.65-1.08-1.09-2.3-3.5-3.46-5.86-.64-.68-1.26-1.37-1.87-2.08-3.52-4.14-6.89-8.9-8.57-14.12-.18-.57.09-.99.5-1.18-1.81-3.02-3.5-6.47-4.79-9.66-1.07-2.64-3.14-6.96-1.51-9.39.7-1.06,9-7.39,10.51-8.31,11.7-7.16,22.61-7.41,35.13-16.94,2.53-1.93,4.52-4.36,7.25-6,1.8.83,4.06,1.28,5.8,2.02ZM181.2,386.42c.32-.09.64-.32.95-.58.03-.07.07-.14.1-.21.18-.33.43-.5.7-.54.24-.22.44-.41.6-.48,5.47-2.51,8.2-3.67,13.49-7.11,19.31-12.54,38.78-25.19,59.06-36.16,6.45-3.49,26.65-14.59,33.05-14.65,1.08-.01,2.38.63,2.97.58.58-.05,6.94-1.47,8.11-1.76,3.75-.93,7.9-3.52,11.33-4.46.53-.15.7-.28,1.17.19-1.92,2.57.84,5.78,1.63,8.23,2.37,7.31,5.03,15.04,7.03,22.43.78,2.87.17,3.98,1.79,7.38,2.78,5.84,6,11.54,8.7,17.51,1.52,3.35,3.5,6.49,4.72,9.98l-3.3,5.54c-7.74,8.3-18.17,12.34-28.24,16.68-7.17,3.09-16.67,4.03-24.23,5.46-23.14,4.36-41.59,10.73-61.38,24.28-4.72,3.23-7.42,6.27-10.99,10.36-7.08,8.13-15.02,14.86-22.16,22.77-1.14,1.26-1.64,3.18-3.7,3.74-.51-4.24.35-9.03-.37-13.21-.41-2.36-1.71-3.79-2-6.36-1.07-9.63-.81-28.67.85-38.13.62-3.55,3.46-11.86,2.44-15.14-.59-1.89-.45-1.56-.79-3.39-.17-.94-1.69-5.66-.93-6.65-.65-1.95-.72-4.07-.03-6.01-.15-.09-.34-.19-.58-.29ZM278.4,284.33c.36-.63,1.24-.99,1.57-1.64.44-.85-.28-1.85.4-2.73,1.32-1.73,4.13-3.64,5.62-5.26,10.67-11.62,18.04-17.36,31.67-25.2,15.67-9.02,29.02-11.3,46.39-14.43,1.14-.21,2.91-1.7,3.96-.59.56.59,1.26,2.91,1.84,3.84,3.24,5.21,12.68,17.83,17.44,21.1,1.55,1.06,3.45,1.6,5.2,2.71,1.66,1.06,2.73,3.06,4.88,3.14l-.1.99c-1.75.65-4.71-.39-5.85-.06-1.26.36-2.68,2.28-4.21,2.95-1.63.72-4.18.6-5.77,1.02-9.16,2.42-24.46,14.89-32.52,20.68-7.19,5.17-14.27,10.66-21.48,15.65-7.64,5.3-15.07,11.36-24.03,14.38-1.2.4-11.26,3.09-11.9,2.04l-1.23-10.12c-1.69-8.07-8.04-8.76-11.15-14.38-.51-.92-3.13-7.9-3.14-8.7,0-.65,0-1.05.49-1.57l1.53,1.76c-.99-1.97-.72-3.67.37-5.6ZM437.09,312.5c-4.09,2.01-8.58,2.09-12.84,3.5-15.36,5.09-28.43,15.39-41.1,24.93-15.56,11.72-27.21,20.57-38.12,37.1-1.48,2.24-4,3.7-5.32,5.96-.62-.25-.86-.69-1.21-1.19-1.85-2.65-3.66-8.92-5.23-12.13-3.85-7.86-6.38-11.32-8.92-20.06-2.14-7.38-6.72-17.38-8.11-24.46-.46-2.37,1.31-4.94-1.54-6.31,6.34-4.71,12.6-9.58,19.06-14.15,7.44-5.26,15.08-10.19,22.44-15.71,7.84-5.88,20.62-16.18,30.12-18.32,4.65-1.05,10.49-2.19,15.11-2.78,3.75-.48,7.21.04,10.67-1.68,1.11,4.16,3.23,7.93,4.85,11.83.47,1.14.42,2.58.9,3.69,3.12,7.15,9.18,14.9,13.03,21.74.93,1.65,1.31,4.46,2.42,5.65,1.13,1.22,2.93.95,3.8,2.38ZM273.41,292.26c1.06,4.01,3.75,9.16,6.65,12.14,2.31,2.37,4.95,3.17,6.23,6.72.56,1.54-.01,2.52.22,3.52.4,1.73,3.45,8.49,1.42,9.43-2.27.12-5.04.55-7.17,1.31-3.01,1.09-6.99,3.5-10.07,5.02-19.16,9.43-38.42,21.22-56.93,31.88-1.13.65-2.87,2.62-3.94,2.52-.45-.04-.96-1.06-1.79-.56l1.39,1.15c-1.99.18-2.27,1.66-3.49,2.51-2.94,2.05-7.07,3.37-10.14,5.43-2.98,2-5.6,4.17-8.73,5.92-1.53.85-5.99,2.83-7.54,2.54-3.65-.66-5.49-4.62-8.58-6.22-.39-.2-3.08-1.02-3.79-1.24-3.06-.94-6.8-1.28-9.97-1.82-.09-.54,1.91-2.45,2.25-3.1,5.29-10.27,11.86-23.42,13.72-35,.47-2.92.04-6.34.75-9.25,1.95-8.02,7.18-19.09,12.63-25.36,1.16-1.34,2.89-1.08,2.53-3.31-.12-.71-.96-1.1-.56-1.65l15.3,3.91c8.32-.57,16.45,1.46,24.51,2.31,9.28.98,17.25-3.85,25.68-7.03,2.61-.98,6.49-1.66,9.11-2.75,3.56-1.49,6.42-4.38,10.2-5.15-.68,1.55-.33,4.45.11,6.13ZM338.67,394.45l-1.38-1.67c.85-1.42,2.77-2.34,3.71-3.45.12-.14,1.89-2.8,1.97-2.96,7.74-15.4,22.07-27.98,35.82-38.67,10.54-8.2,22.44-15.53,33.15-22.94,1.26-.87,4.04-2,5.57-2.66,10.93-4.77,22.76-5.14,33.36-10.44l6.2,8.07c-.17,1.24-1.44,2.38-2.43,3.1-.57.42-5.06,2.37-5.75,2.55-3.75.97-10.39,1.1-14.4,1.52-12.35,1.29-18.95.76-29.01,9.56-9.22,8.06-19.14,16.65-26.12,26.8-3.72,5.41-6.68,12.67-10.66,17.65-3.48,4.36-7.14,8.55-10.76,12.96-1.88,2.29-5.06,8.1-8.08,8.73-.59.12-1.23-.27-1.66-.18-3.51.71-4.42,1.69-7.62-.97-2.48-2.06-4.16-4.14-1.91-7.01ZM404.24,214.75c.76-.05,5.52.52,6.66.67,11.83,1.61,28.09,6.8,39.65,10.58,5.04,1.65,10.14,3.7,15.05,5.71-4.43,5.35-10.85,9.83-17.07,12.85-5.97,2.9-13.62,4.4-19.77,7.29-8.31,3.91-12.77,11.23-22.42,13.63-.58.14-3.92.26-4.34.02-.68-.39-1.11-1.58-1.86-2.17-4.82-3.75-13.36-7.57-16.88-11.8-3.91-4.71-6.35-8.56-9.18-13.67-.53-.97-2.97-2.33-2.91-4.38,3.57-1.15,6.94-2.78,10.41-4.21,8.64-3.55,10.9-5.43,17.86-11.53,1.11-.97,2.63-.96,3.57-1.6.61-.41.67-1.38,1.25-1.41ZM266.58,217.87c2.56-2.62,6.34-1.34,9.55-1.85,10.97-1.72,21.6-3.41,32.76-4.3,7.37-.59,18.22-1.7,25.38-1.1.69.06,1.34.7,1.62.7.05,0-.02-.75.57-.9,3-.79,11.14-.11,14.6-.12,4.87-.02,11.91-.58,16.51-.14,3.25.31,4.97,2.24,7.65-.92l22.94,4.26.49.91c-1.27,1.15-2.15,3.01-3.27,4.11-3.89,3.81-14.79,8.5-19.99,10.7-.74.31-3.3,1.26-3.93,1.35-1.39.2-2.31-1.5-4.2-1.41l-.89.53-.22,1.68c-.65.42-1.43-.32-1.84-.29-.07,0-.09.73-.9.94-9.59,2.45-21.68,3.36-30.98,6.66-7.53,2.67-14.08,8.01-20.83,11.3-1.6.78-2.68-.56-3.76,2.02l-9.34,6.12c-.94-.33-.49-2.41-.77-3.15-.53-1.45-4.73-8.31-5.87-9.3-1.84-1.61-3.13-1.64-4.86-2.78-3.96-2.6-7.28-6.12-11.38-8.84-3.66-2.43-7.82-11.89-9.03-16.17ZM148.43,274.09c-.69-1.86.87-1.57,1.65-2.46,7.55-8.63,27.14-21.94,37.42-27.03,18.09-8.97,35.8-17.46,55.25-22.7,5.06-1.37,10.56-2.72,15.86-3.03,1.31-.08,2.19.64,3.48-.28.58,1.62,1.94,2.77,2.73,4.25,1.97,3.69,4.27,9.61,7.4,12.62,1.46,1.41,3.56,2.13,5.08,3.41.64.54.83,1.41,1.48,1.94,5.98,4.83,10.16,6.47,14.39,13.33,1.17,1.9,1.79,4.27,3.18,6.09-5.44,2.9-8.82,8.53-13.03,12.8-2.52,2.56-5.53,5.3-8.12,7.48-5.51,4.63-11.87,7.04-18.54,9.64-8.57,3.34-20.19,7.92-29.47,7.45-3.25-.17-5.16-.8-8.79-.9-12.15-.31-28.88-3.59-40.39-7.33-7.96-2.58-15.8-5.88-23.03-9.93-2.42-1.35-5.43-2.3-6.56-5.34ZM67.76,371.36c.36-.78,1.3-1.16,1.72-1.84,4.98-8.01,9.21-15.85,14.48-23.63,4.69-6.92,10.41-15.38,16.14-22.48,2.98-4.92,5.8-9.98,9.86-14.11.04-.04.08-.07.12-.1,1.95-2.34,4.9-5.25,6.05-6.58,7.11-8.18,12.71-13.62,21.03-20.54,1.2-.99,6.71-6.73,7.65-6.47,4.56,5.5,10.58,7.93,16.72,11.05,7.9,2.98,15.54,6.57,23.96,7.86l-12.29,21.06c-.83,5.62-3.27,11.38-3.66,17.04-.08,1.08,1.79,2.73-.99,3.6,1.28,1.23-.34,4.18-.81,5.86-1.08,3.83-2.99,10.19-4.74,13.7-2.62,5.25-7.47,10.52-8.37,16.42-4.91-.03-9.68-1.52-14.6-1.68-17.56-.6-33.55,4.15-50.54,5.29-.79.05-4.65.85-5.17.65-.83-.33-1.82-1.97-3.52-2.51-2.28-.74-6.76-.36-9.3-1.01-.59-.15-3.69-1.31-3.76-1.59ZM20.23,479.56c2.33-4.68,2.82-10.08,4.3-15.06,4.16-14.05,9.14-25.36,14.95-38.68,2.83-6.5,5.59-12.92,8.69-19.45,1.68-3.55,3.92-8.91,6.28-13.65.19-1.85,1.27-3.52,2.28-5.08-.04-.24,0-.5.17-.78,1.37-2.17,2.64-4.39,4.15-6.47.8-1.1,2.19-3.26,3.8-3.99-.04-.05-.08-.1-.12-.16l.82-1.03c3.26,1,8.43.82,11.43,1.82,1.7.57,2.63,1.56,4.05,2.18.57.25,10.78-.02,12.3-.11,11.65-.73,23.38-4.69,35.17-5.14,10.92-.41,31.66.89,41.44,5.54,2,.95,7.1,5.91,7.57,7.97.14.63-.32,1.22-.22,1.74.43,2.41.68,3.32,1.02,5.95.41,3.14,1.86,7.85,2.03,10.57.06.93-2.94,16.43-3.41,17.96-.04.14-.13.28-.23.41-.03.56-.08,1.13-.13,1.69.15.21.26.47.28.81.53,11.18-.48,22.86.71,34.22.27,2.55.38,2.82,1.01,5.27.16.62.66,1.14.72,1.8-.15.26-.31.33-.47.27.09.73.12,1.48.11,2.22.6,2.24.57,5.16.17,5.94-.44.84-5.01,3.39-6.13,3.89-12.72,5.64-27.56,7.62-40.6,12.77-11.91,4.71-23.66,12.2-35.77,16.29-6.22,2.1-11.69,1.33-17.43-1.85-6.63-3.67-10.52-10.89-16.17-15.55-2.05-1.7-10.68-8.17-12.66-9.14-1.2-.58-4.15-.81-5.86-1.43-6.1-2.21-9.26-5.13-16.45-3.95-2.04.33-4.47,1.87-6.29,2.31-.59.14-.95.39-1.49-.14ZM43.52,497.55c-1.59-1.22-3.87-2.13-5.32-3.35-1.12-.96-1.68-2.78-3.48-3.37h0s-1.11-.63-1.11-.63c-4.23-2.82-9.65-2.31-13.66-6.03l7.94-2.93c1.9.01,4.21-.77,6.06-.47,2.29.37,12.22,4.38,14.55,5.61,5.12,2.71,11.53,7.84,15.64,11.78,1.82,1.75,3.81,5.69,5.67,7.49,2.16,2.1,6.99,3.73,8.61,6.11.32.48-2.97,7.13-4.73,9.66-11.17-6.49-19.64-15.81-30.16-23.86ZM81.81,526.68c.46-3.01-1.99-2.11-3.56-2.85-.95-.45-1.88-.93-2.79-1.42l5.04-8.79c2.1-.34,3.83.97,5.82,1.31,8.67,1.5,37.82-14.82,47.71-18.71,9.9-3.9,20.34-5.75,30.4-9.11,4.54-1.52,9.3-4.18,13.97-5.31.74-.18,1.36.41,2.37.06,2.14-.75,5.6-4.31,7.26-6l.19.2c.47-1.14,1.35-2.18,2.11-3.04.96-1.09,2.03-2.09,3.12-3.06.61-.67,1.33-1.25,2.09-1.8,3.81-3.3,7.08-7.16,10.59-10.79,2.97-3.79,5.95-7.69,9.26-10.82,9.76-9.21,32.69-21.01,45.84-24.17,4.06-.97,8.22-1.75,12.36-2.74,8.54-2.05,17.07-2.4,25.78-5.09,7.09-2.18,13.95-5.36,20.46-8.57,5.27-2.6,9.75-4.79,13.59-9.57.47-.09,1.58,3.83,2.03,4.57,2.17,3.56,5.42,5.46,9.27,6.85-3.48,5.51-10.43,6.75-15.91,9.34-7.17,3.39-14.19,7.21-21.57,10.15-1.1.44-3.64.59-4.77,1.11-25.02,11.46-52.69,18.77-76.45,33.77-8.76,5.53-17.87,13.04-26.48,19.37-1.06.78-1.9,2.26-3.05,2.61-.55.62-1.18,1.14-1.92,1.54-1.28,1.93-4.77,2.95-6.48,4.1-6.66,4.45-10.27,7.36-18.26,9.74-8.85,2.64-19.34,4.85-28.66,6.69-5.03.99-8.3,1.02-13.35,2.65-12.05,3.88-22.65,11.8-34.25,16.54-2.31.94-9.72,2.78-11.72,1.22ZM91.68,555.71c-3.25-6.46,1.38-10.67,7.75-8.86l-7.75,8.86ZM247.8,499.01c.5.42,1.33.36.6,1.15-9.27,2.33-18.25,5.6-27.17,9.04-3.09,1.19-5.86,3.03-9.17,3.95-11.81,3.28-27.25,4.11-39.68,6.02-3.77.58-5.7.73-9.53,1.63-13.36,3.14-26.73,6.44-40.44,7.69l-.8-.7c2.49-3.64,7-5.45,10.13-8.39.67-1.49-1.55-3.47-3.02-3.31-1.07.12-4.62,4.89-5.81,5.94-1.45,1.28-6.22,4.9-7.79,5.79-.08.05-.17.09-.26.14-.66,1.24-1.4,2.45-2.18,3.62-1.11,1.65-2.33,3.32-3.82,4.65-2,2.75-4.61,5-7.09,7.35l-.61.07c-2.27-3.74-10.64,1.13-12.54,3.5-.36.45-1.76,2.78-1.83,3.21-.06.37,1.53,6.42,1.88,7.32l-1.26,2.63c.15,2.1-2,4.16-3.39,5.44-.27.24-.54.48-.81.71-1.33,1.48-2.69,2.94-3.87,4.49-2.57,3.39-4.72,6.85-6.8,10.52-7.12,12.58-17.65,25.24-28.46,34.91-3.42,3.06-7.66,6.56-11.84,6.56-1.74.46-3.75.11-5.44-.38-1.94-.56-3.68-1.91-4.84-3.56-.46-.65-.79-1.35-1.03-2.08l-.31-.31c.03-.13.08-.24.13-.32-.53-2.24-.18-4.71.48-7.04-.11-.16-.18-.37-.19-.6-.1-3.28.92-6.44.1-9.7-.67-2.67-2.41-4.87-3.52-7.37-1.37-1.51-3.34-2.69-5.04-4.06-2.67-1.61-5.38-3.19-7.43-5.23-2.95-2.93,1.92-8.9,3.12-11.4,1.35-2.8,4.3-12.15,4.7-15.32.39-3.1-1.14-5.61.8-9.76,1.87-4,6.23-3.94,8.38-7.05,3.8-5.49,4.9-10.76,9.84-15.77,4.07-4.14,8.44-6.37,12.75-9.71,1.21-.94,5.16-5.67,6.55-4.85,1.47,1.89,3.81,3.05,5.44,4.63,1.15,1.12,1.61,2.45,2.77,3.6,3.65,3.62,8.97,5.43,12.25,9.43l-.09.09c.46.38.94.73,1.41,1.1.11.09.2.19.28.3,1.01.43,1.9,2,3,2.48.82.36,3.1.11,4.32.35.87.17,1.63.88,2.52,1.11,7.12,1.77,30.45-12.79,37.87-16.28,15.51-7.3,34.26-6.66,50.16-12.14,5.12-1.77,9.54-4.88,14.71-5.92,4.35-.87,7.02-5.22,10.09-7.85,6.01-5.15,12.12-9.07,18.35-13.69,4.19-3.11,7.91-6.91,12.45-9.57.85,3.35,3.55,5.37,5.28,8.54,4.43,8.15,8.3,18.22,15.67,24.4ZM332.32,465.73l-25.14,11.56c-3.99,1.31-8.81,2.45-12.59,3.88-11.64,4.41-23.08,11.52-34.96,15.52-.72.24-5.82,1.66-6.13,1.59-.86-.21-5.11-3.03-5.88-3.77-.74-.71-5.15-7.07-6.03-8.38-2.96-4.4-4.82-10.16-7.33-14.58-1.43-2.51-3.56-4.01-4.1-6.94.4-.88.98-1.51,1.75-2.08,6.03-4.51,14.27-7.12,21.09-10.11,12.39-5.43,24.86-10.43,37.42-15.4,6.04-2.39,12.31-4.29,18.24-6.98.81.3,1.21,5.79,1.55,7.06,1.84,6.89,8.67,21.28,14.55,25.23,1.33.89,7.05,2.09,7.57,3.4ZM387.02,442.73c-1.75.96-3.39,2.41-5.27,3.29-1.56.73-3.79,1.03-5.3,1.65-11.92,4.81-23.67,9.73-35.66,14.6-.76.31-5.46,2.03-5.75,1.95-.77-.2-1.94-1.87-3.1-2.48-1.29-.67-2.35-.31-3.88-1.36-4.39-3.02-10.7-11.97-12.56-17-.56-1.52-2.97-10.45-2.95-11.66,0-.37.59-3.22.68-3.39.21-.39,3.77-2.11,4.52-2.46,6.77-3.08,14.2-6.37,20.85-9.74,4.17-2.12,7.24-4.98,10.99-7.44.73-.48,2.03-1.17,2.52-1.82,2.58-3.42,5.57-6.08,8.25-9.49,2.3-2.92,3.81-6.64,6.88-9.12,1.21-.15,2.2,3.7,2.56,4.76,1.25,3.69,2.88,7.52,4.55,11.3,3.56,8.04,6.56,16.99,10.83,24.82,2.02,3.7,5.21,7.16,7.12,11.06.06.61-4.52,2.12-5.29,2.54ZM583.43,315.84c-4.07,1.9-8.38,4-12.17,6.49-7.44,4.9-12.67,10.78-18.94,16.73-6.84,6.5-15.1,13.04-19.98,21.21-1.01,1.69-1.42,3.93.64,4.91,3.43-5.34,7.25-10.43,11.75-14.91,4.75-4.72,9.53-9.48,14.36-14.12,1.42-1.36,2.85-2.65,4.31-3.88.44.06.94.13.95.14,2.62.39,4.73,1.78,7.01,3.01,1.9,1.02,3.95,1.72,5.91,2.62.11,0,.22.03.33.08.75.3,1.49.62,2.19,1.01,1.6.29,3.22.69,4.61,1.21,1.15.28,2.29.71,3.39,1.02.34-.04.73-.02,1.63.44,1.43.44,2.75,1.08,3.99,1.87.54.24,1.02.54,1.37.95.68.51,1.34,1.06,1.98,1.65,1.61,1.47,3.05,3.1,4.49,4.73l1.82,1.7c.88.82,1.7,1.73,2.37,2.73.84.78,1.69,1.54,2.46,2.38,1.25,1.36,2.37,2.83,3.53,4.27.2.25.27.51.26.77,4.87,7.26,9.12,18.14,11.39,25.16.76,2.35.26,5.24.74,7.36.72,3.16,2.46,6.58,2.2,10.21-.44,6.03-3.24,13.48-3.99,19.37-.19,1.52.16,3.04-.05,4.55-1.56,11.35-8.1,21.58-10.43,33.13-1.54,7.62-5.71,16.35-8.53,23.63-5.45,14.11-10.69,32.4-10.87,47.17-.02,1.56.84,3.74.94,5.32.46,7.36.83,15.1-1.03,22.26-.87,3.35-4.53,16.23-6.01,18.47-.91,1.38-3.1,2.52-3.82,4.37-5.11.71-7.06-5.5-8.27-9.4-3.45-11.13-2.61-22.07-5.3-32.54-5.21-20.29-13.22-40.06-18.96-59.97-3.69-12.81-2.3-19.28-.67-31.95.74-5.76.63-10.36,1.64-16.26.88-5.08.23-9.43-.37-14.51-.52-4.44-.76-7.83-2.53-12.08-.41-.98-1.33-1.48-1.7-2.54-1.32-3.81.14-10.16-.58-12.84-1.12-4.18-2.43-5.27-4.61-8.7-1.79-2.8-4.45-8.27-7.29-10.07-1.63-1.04-4.39-1.86-6.17-2.82-5.01-2.71-10.32-5.75-15.44-8.17-4.29-2.03-10.67-1.24-13.97-5.21,5.48-5.75,13.53-7.79,20.25-11.69,4.55-2.64,9.26-6.28,13.87-9.06,12.16-7.34,22.91-12.44,36.45-16.85,4.55-1.48,9.75-2.46,14.38-3.86l.44.54ZM564.15,331.66c0,.06-.08.12-.21.17.07-.06.14-.12.21-.17ZM562.94,332.23s-.02.04-.01.07c-.25-.07-.19-.08.01-.07ZM534.4,378.82c.28,1.04-7.23,1.48-7.95,1.42-4.49-.38-6.81-4.64-4.99-8.58,4.24,2.83,9.37,3.07,12.94,7.16ZM647.23,218.6c-.05,4-6.26,13.67-3.97,16.15,2.07,2.25,3.63-3.18,4.2-3.89,1.45-1.81,4.6,1.59,5.7,2.31,3.07,1.99,6.23,3.87,9.28,5.87-.68,1.75-2.46,1.81-3.77,2.7-6.73,4.59-7.74,9.16-12.46,15.37-1.97,2.59-7.34,8.28-10.17,9.64-1.69.81-7.78,1.62-8.45,2.89-.9,1.71,1.78,2.27,3.09,2.17,7.08-.54,13.07-5.57,17.35-10.92,3.81-4.76,5.58-9.7,10.15-14.1,1.59-1.53,6.91-4.61,8.99-3.17.97.67,6.18,7.01,6.92,8.22,1.13,1.86.69,7.21-.13,9.11-1.16,2.69-5.56,8.58-7.56,11.02-6.36,7.77-22.88,16.98-32.14,21.62-8.6,4.31-21.77,10.69-30.63,13.85-2.52.9-7.72,1.27-11.18,2.19-8.67,2.32-17.42,4.8-26.02,7.66-7,2.33-14.74,4.56-21.41,7.97-11.55,5.92-21.66,14.08-33.13,20.09-5.45,2.85-9.07,4.41-14.46,7.86-1.54.98-3.43.7-3.79,3.4,1.81,5.66,8.96,5.58,13.61,7.19,1.55.54,11.3,4.75,11.45,5.54-1.71,1.8-1.02,6.62,0,8.59,3.79,7.31,10.68,4.61,17.27,4.07,5.04,5.47,6.06,11.67,6.39,18.87.45,9.92-2.52,14.71-3.91,23.57-.53,3.37-.48,7.49-1.49,11.03-2.14,7.46-7.01,13.93-9.98,21.04-.79,1.88-1.05,4.97-1.78,6.88-2.96,7.75-6.28,15.79-9.71,23.31-7.77,16.99-21.76,32.96-31.84,48.86-6.12,7.29-11.57,14.73-16.63,22.85-9.32,14.94-21.71,28.51-31.99,42.77-6.55,9.09-12.71,13.87-20.44,21.75-10.01,10.22-20.55,24.04-31.65,32.54-1.28.98-2.65,2.18-4.23,1.41-.82-.4-.48-.33-.21-.91.46-1,1.31-1.85,1.77-2.99,2.1-5.28,4.87-9.19,6.76-13.83,2.97-7.29,3.46-16.17,7.4-23.08,3.83-6.73,7.26-13.94,11.08-20.92,5.87-10.74,4.15-15.25,6-25.98,2.11-12.26,7.77-25.01,10.74-37.09,2.05-8.34,3.09-17.69,5.16-26.12.42-1.71,1.8-4.04,2.24-6.01,3.46-15.53-2.3-31.37-3.7-46.64,0-.02-.02-.04-.03-.06-.94-2.1-1.33-4.3-1.59-6.52l-.27-.17c.54-2.81-1.28-5.38-1.67-8.22-.19-1.39-.56-9.15-.41-10.29.15-1.13.96-2.24.93-3.13-.04-1.21-1.18-1.73-.8-4.68,1.14-8.97,5.12-14.99,7.75-23.13.13-.41.27-.85.4-1.31.05-.63.03-1.36-.13-1.96-.66.02-1.31.1-1.92.3-.88.29-1.55.93-2.11,1.67.11.32.17.69.06,1.14-.76,3.04-3.12,7.46-4.19,10.66-1.96,5.88-3.53,11.6-3.11,17.85-6.59,6.15-15.33,8.9-23.06,13.26-2.26-1.77-3.08-4.19-4.46-6.44-5.83-9.54-10.42-20.06-14.66-30.45-2.14-5.24-4.91-10.49-5-16.07-.01-.82-.57-1.88-.49-2.48.25-1.87,2.02-2.8,2.94-4.2,3.46-5.28,6.2-11.24,9.93-16.54,5.89-8.36,15.29-16.59,23.02-23.29,13-11.29,25.48-7.99,40.78-10.11,4.72-.65,6.51-2.75,10.19-4.14.18-.07.37-.11.56-.13.66-.84,1.5-1.58,2.42-2.25,2.4-1.73,5.73-3.08,7.27-5.73.38-.66,1.09-.63,1.57-.28,4.09-4.12,8.98-7.64,14.31-9.66,8.03-3.06,17.86-.97,24.93-3.77,10.79-4.27,14.16-28.26,18.61-38.5,1.28-2.95,5.51-6.31,2.01-9.19l-.09-.87c4.65-2.59,8.46-6.35,12.74-9.42,3.44-2.47,7.41-5.36,10.95-7.62,1.34-.85,3.23-.71,4.2-1.54,1.43-1.22,1.96-3.49,4.32-3.9.63-.11,1.42.36,1.83.22.54-.17,1.01-1.22,1.64-1.37.5-.12,3.91,1.12,5.57,1.01,6.47-.45,6.78-5.56,10.16-9.7l16.63-9.03c.7.33-.42,1.6-.7,1.94-1.74,2.07-3.93,3.44-5.06,6.31-.9,2.27,2.53,5.76,4.85,2.98.68-.82.16-4.3,1.07-5.59l4.8-3.03c-2.83,5.78-4.77,17.1,3.15,19.91,1.32.47,8.13.28,9.71-.06,9.31-2,11.92-13.35,6.3-20.24-1.73-2.12-7.27-4.57-9.94-4.8-.97-.09-1.19.76-1.59.84-.78.15-6.62.66-6.79.11,2.41-1.27,5.14-1.67,7.69-2.56,1.4-.49,5.28-2.99,6.89-2.36.64.25,2.28,2.02,3.55,2.66,2.2,1.11,6.42,1.62,8.44.07.33,4.64,7.59,4.48,10.25,2.28,1.44-1.2,1.15-2.72,2.39-3.81,1.35,3.18,4.58,7,4.54,10.66ZM616.15,217.59l.72-1.13c1.38.89.67,2-.72,1.13ZM649.87,174.56c-1.89,5.41-4.45,11.06-6.53,16.7-.97,2.63-2.58,7.81-3.73,9.94-.34.62-.47,1.03-1.32.75l10.05-29.02,2.18-1.92c1.72,1.04-.26,2.44-.64,3.54ZM652.15,162.4c-.91.46-2.69-.43-2.44-1.76,1.26-.75,2.59-2.12,4.07-1.86.66.48-1.01,3.3-1.62,3.61ZM645.21,150.8c-.25,3.03,1.32,3.74,3.61,5.35l-2.11,1.23c-2.34-8.29-12.69-8.81-19.08-12.63-1.37-.82-3.01-2.42-4.66-3.46-1.68-1.06-4.4-3.17-5.53-3.79-.74-.41-2.06-.06-3.27-.69-1.38-.71-2.18-2.02-3.49-2.79-1.21-.72-3-.95-4.29-1.66-10.04-5.54-19.57-12.13-29.8-17.29-1.86-.94-4.59-1.12-6.34-3.02,4.28-1.61,9.56,3.26,13.34,5.29,17.95,9.63,36.71,18.72,53.94,29.45.78.49,1.22,1.34,1.99,1.79,1.55.9,3.6,1.26,5.3,1.78l.4.43Z" style="fill: #2c2d26;"/>
    <path d="M584.41,366c-1.35,2.61-6.62,8.06-9.8,7.78-3.7-.33-7.35-5.66-5.6-9.06,2.16-4.21,8.58-5.11,12.59-3.29,1.47.67,3.73,2.8,2.82,4.57ZM580.92,365.98c.45-1.44-4.8-2.2-5.88-1.91-5.07,1.33-3.78,7.65,1,5.93.86-.31,4.68-3.36,4.88-4.02Z" style="fill: #2c2d26;"/>
    <path d="M593.1,490.73c-1.02,2.02-4.08,6.47-6.77,5.39-3.75-1.52-3-6.03-1.71-9.01.66-1.51,2.15-3.23,2.48-4.44.17-.64-.38-1.43-.2-1.9.58-1.54,5.83-3.22,6.46-.47.42,2.72,1.61,4.8.88,7.59-.04.15-1.07,2.69-1.15,2.84ZM587.45,493.09c1.84-.02,6.15-7.95,2.79-9.34-.57.81-1.41,1.36-1.96,2.19-.79,1.18-3.1,7.16-.83,7.15Z" style="fill: #2c2d26;"/>
    <path d="M593.29,410.84c6.47,2.65,5.52,10.56-1.13,12.02-11.2,2.45-4.29-13.82-.31-14.45,1.74-.28,2.3,1.08,1.44,2.43ZM591.76,420.39c.38-.11,2.45-1.39,2.67-1.66,1.6-2-.46-6.27-3.17-5.66-1.68.38-4.85,8.82.5,7.32Z" style="fill: #2c2d26;"/>
    <path d="M575.12,441.64c-2.23,4.76-8.7,8.35-10.52,1.7-1.26-4.58,3.33-7.77,7.05-9.24,1.83-.72,2.69-.48,4.02,1.26,1.16,1.51.19,4.71-.54,6.28ZM573.44,438.61c-2.72-2.67-8.1,2.57-5.86,5.06,3.18,2.06,4.94-2.63,5.86-5.06Z" style="fill: #2c2d26;"/>
    <path d="M616.15,217.59l.72-1.13" style="fill: #2c2d26;"/>
    <path d="M592.99,257.62c.11-.07.64.21.87.06,3.36-2.17,5.21-3.57,9.44-3.94.74-.07,6.77.02,7.16.14,3.8,1.23,2.62,4.72.25,6.94s-13.9,3.48-16.72,2.12c-2.19-1.05-3.06-3.94-1-5.31ZM600.62,259.91c2.12-.26,3.67-1.08,5.77-1.03l1.44-1.51c-1.89-.23-3.47-.51-5.33.06-1.62.5-6.95,3.09-1.88,2.48Z" style="fill: #2c2d26;"/>
    <path d="M555.4,247.01c.02-.14-.56-.48-.44-.75,2.07-4.49,8.99,1.19,8.04,5.72-.41,1.95-2.8,5.63-4.75,6.23-.23.07-4.62.2-4.85.11-1.32-.52-2.23-1.63-2.55-2.98-.9-3.84,4.18-5.36,4.55-8.33ZM558.52,249.93c-.31,0-4.81,3.21-3.69,4.53,3.58,1.98,6.47-4.6,3.69-4.53Z" style="fill: #2c2d26;"/>
    <path d="M511.68,436.1c1.67-1.24,2.07-2.07,4.48-2.51,6.06,3.78,2.89,10.94-1.43,14.74-4.42,3.89-8.99-2.27-7.96-5.78M512.08,447.36c1.2-1.47,7.38-6.99,4.13-8.55-4.48-1-9.69,5.94-4.13,8.55Z" style="fill: #2c2d26;"/>
    <path d="M487.74,479.28c3.16-.84,5.42.66,6.49,3.68s-4.99,9.37-7.79,10.13c-5.26,1.44-9.62-7.6-3.57-11.64.39-.26,4.38-2.04,4.87-2.17ZM491.57,484.52c.46-1.82-3.85-2.13-5.14-1.68-7.3,2.5-2.79,12,3.06,5.01.58-.7,1.88-2.55,2.08-3.33Z" style="fill: #2c2d26;"/>
    <path d="M522.35,401.78c-1.04,2.69-7.57,8.58-10.59,7.22-2.07-.93-3.48-5.9-2.56-7.86.3-.64,3.58-4.41,4.26-5,2.99-2.59,10.83.63,8.89,5.64ZM516.32,399.49c-.75.18-1.43-.19-2.34.42-3.11,2.09-3.35,8.19,1,5.93,1.89-.98,8.05-7.16,3.28-7.09-.66,0-1.31.59-1.94.74Z" style="fill: #2c2d26;"/>
    <path d="M540.03,414.18c-2.83-.53-6.94-.25-9.05-2.65-.25-.28-1.11-2.66-1.03-3.01,1.27-5.35,13.15-8.94,11.55-2.88-.93,3.54-3.91.1-5.06.45-1.53,1.03-3.56,2.9-1.89,4.63,2.09.65,4.95-.17,6.05,2.24l-.57,1.23Z" style="fill: #2c2d26;"/>
    <path d="M46.9,598.13c-.06-.1-.6-2.17-.59-2.29.23-2.24,5.4-5.88,7.15-7.42.61-.65-.57-1.21-.4-1.9.41-1.63,3.54-3.62,5.36-3.29,2.5.47,3.44,2.16,3.58,4.55.24,4.36-2.22,10.61-6.23,12.64-3.54,1.79-6.89,1.37-8.88-2.31ZM50.63,596.98c3.82,1.79,4.26-1.64,5.86-4.23-.3-1.37-3.05.47-3.52.93-.99.97-1.62,2.14-2.34,3.3Z" style="fill: #2c2d26;"/>
    <path d="M26.16,562.67c-.74-.87-1.75-1.4-2.52-2.16-.62-.1-1.24-.21-1.83,0-1.89.68-2.21,2.33-3.3,3.52-.02.03-.07.04-.14.04-.21.64-.49,1.25-.88,1.82.81,2.48-.52,5.69.61,8.02.49,1.02,2.42,2.88,3.35,3.5,4.24,2.83,11.01-3.04,9.11-8.55-.86-2.5-3.1-4-4.11-5.93-.1-.06-.21-.14-.3-.25ZM26.46,571.28c-.1.16-1.61,1.23-1.72,1.23-1.55,0-2.24-3.86-1.96-5.14.84-.86,5.05,1.77,3.68,3.92Z" style="fill: #2c2d26;"/>
    <path d="M50.51,564.9c-.07-.25-.33-2.54-.31-2.69.26-1.94,3.96-7.44,5.63-8.02,1.18-.41,3.77.25,4.65,1.02.75.66,1.25,6.26.95,7.42-1.45,5.68-8.97,9.44-10.92,2.27ZM58.39,560.55c-5.55-2.97-4.64,7.04-1.64,3.44.73-.88.74-2.52,1.64-3.44Z" style="fill: #2c2d26;"/>
    <path d="M327.59,355.54c-.48-.72-.76-1.51-1.09-2.3.24,1.02.87,2.37,1.03,2.34.02,0,.04-.02.06-.04Z" style="fill: #2c2d26;"/>
    <path d="M78.03,518.47c-.08-.13-.21-.24-.39-.31-.1,0-.19,0-.28.02.23.09.45.18.67.29Z" style="fill: #2c2d26;"/>
    <path d="M437.44,306.71c.24.19.53.35.9.48.04-.06.07-.12.09-.17-.33-.09-.66-.2-.99-.31Z" style="fill: #2c2d26;"/>
  </g>
  <path d="M191.04,488.19l-1.88,2.78c-4.06-2.73-7.25-6.54-9.25-11l3.06-1.37c1.72,3.84,4.58,7.24,8.07,9.59Z" style="fill: #2c2d26;"/>
  <rect x="198.42" y="567.48" width=".32" height=".22" transform="translate(-386.99 430.86) rotate(-57.57)" style="fill: #2c2d26;"/>
  <path d="M116.25,242.88l-.16.85c.36-.45.78-.82,1.26-1.11-7.51-.78-14.98.79-22.17,2.92-7.79,2.32-6.86,2.34-12.93,7.14-2.55,2.02-5.69,3.37-8.29,5.33-7.01,5.26-13.4,12.3-20.86,17.07-1.76,1.12-13.93,7.77-15.01,7.94-1.38.22-3.97-1.28-4.53,1.06,2.03.67,5.4.58,7.38-.22,1.73-.71,2.93-2.38,4.62-3.37,4.36-2.56,7.95-3.55,12.44-6.96,12.2-9.27,25.09-23.36,40.09-27.45,3.26-.89,11.48-2.88,13.93-3,1.31-.07,2.82.59,4.23-.19Z" style="fill: #2c2d26;"/>
  <path d="M340.79,615.5l-.16.85c.36-.45.78-.82,1.26-1.11-7.51-.78-14.98.79-22.17,2.92-7.79,2.32-6.86,2.34-12.93,7.14-2.55,2.02-5.69,3.37-8.29,5.33-7.01,5.26-13.4,12.3-20.86,17.07-1.76,1.12-13.93,7.77-15.01,7.94-1.38.22-3.97-1.28-4.53,1.06,2.03.67,5.4.58,7.38-.22,1.73-.71,2.93-2.38,4.62-3.37,4.36-2.56,7.95-3.55,12.44-6.96,12.2-9.27,25.09-23.36,40.09-27.45,3.26-.89,11.48-2.88,13.93-3,1.31-.07,2.82.59,4.23-.19Z" style="fill: #2c2d26;"/>
  <path d="M542.91,3.96c-.88-2.5-4.11-4.32-6.75-3.9-1.2.19-2.45.92-2.82,2.12-.39,1.28-.74,5.77-.37,7,.91,3.03,6.96,5.36,8.81,2.55,1.27-1.93,1.91-5.54,1.12-7.76ZM541.27,9.85c.05,1.08-1.23,1.68-2.25,1.52-.64.09-1.58.21-1.71.2-1.85-.08-3.63-3.22-3.55-5,.16-3.72.79-5.84,5.05-4.99,1.8.36,3.28,2.63,3.34,4.37.02.5-.55,3.16-.88,3.89Z" style="fill: #2c2d26;"/>
  <path d="M508.13,67.5c-.88-2.5-4.11-4.32-6.75-3.9-1.2.19-2.45.92-2.82,2.12-.39,1.28-.74,5.77-.37,7,.91,3.03,6.96,5.36,8.81,2.55,1.27-1.93,1.91-5.54,1.12-7.76ZM506.49,73.38c.05,1.08-1.23,1.68-2.25,1.52-.64.09-1.58.21-1.71.2-1.85-.08-3.63-3.22-3.55-5,.16-3.72.79-5.84,5.05-4.99,1.8.36,3.28,2.63,3.34,4.37.02.5-.55,3.16-.88,3.89Z" style="fill: #2c2d26;"/>
  <path d="M349.41,555.11c-1.11-3.16-5.18-5.44-8.51-4.92-1.51.24-3.09,1.16-3.55,2.67-.5,1.62-.94,7.27-.47,8.82,1.15,3.82,8.77,6.76,11.11,3.21,1.6-2.43,2.4-6.99,1.42-9.78ZM347.34,562.53c.06,1.36-1.56,2.12-2.84,1.91-.81.12-1.99.26-2.15.26-2.34-.1-4.57-4.07-4.48-6.31.2-4.69.99-7.37,6.37-6.29,2.27.46,4.14,3.31,4.21,5.51.02.63-.69,3.98-1.11,4.91Z" style="fill: #2c2d26;"/>
</svg>