<?xml version="1.0" encoding="UTF-8"?>
<svg id="Layer_1" data-name="Layer 1" xmlns="http://www.w3.org/2000/svg" viewBox="0 0 950.46 812.37">
  <g>
    <path d="M950.38,172.17c-1.26,6.27-9.96,2.61-12.67-.62.76,11.8-7.9,11.86-14.55,4.65-4.69,1.2-2.81,7.03-5.73,9.08-2.34,1.65-9.91,1.28-13.61,3.12-2.41,1.2-8.45,4.52-10.52,5.93-1.32.9.09,2.03-.44,2.48-8.43,7.24-21.46,27.64-25.02,39.45-14.52,48.15-45.36,105.65-86.71,135.58-8.45,6.11-17.54,6.88-26.46,11.67-2.59,1.39-2.87,4.29-6.46,3.39,2.15,10.33-11.37,21.04-19.23,25.8-8.43,5.1-14.09,8.23-21.96,15.19-28.85,25.51-56.98,45.25-89.85,65.5-2.91,1.79-5.34,3.8-7.76,5.29-4.82,2.96-11.76,2.57-16.07,5.59s-2.4,9.65-5.72,13.26c-1.73,1.87-11.77,7.7-14.44,8.96-2.17,1.03-15.74,4.53-19.05,5.36-18.58,4.64-42.78,4.25-62.95,6.63-14.76,1.75-18.92-1.95-29.79,11.59-6.7,8.35-9,19.67-11.83,29.57-2.89,10.11-4.49,21.1-14.25,27.31-3.74,2.38-6.53.77-9.19,1.92-2.51,1.09-.27,2.35-1.7,3.41-1.98,1.47-4.64,1.53-6.9,3.56-3.94,3.56-6.24,13.83-9.5,18.19-8.05,10.77-23.91,18.01-34.1,26.42-4.73,3.9-9.29,12.68-13.36,15.51-7.73,5.38-18.29,9.06-26.76,12.97-3.1,1.44-9.19,5.62-11.72,6.68-1,.42-4.2.05-6.4.8-12.53,4.25-18.83,21.53-26.52,31.44l4.26-2.91c.47,1.57-.37,3.25-1.31,4.43-3.37,4.22-17.83,14.13-23.18,15.69-.92.27-8.47,1.78-8.93,1.76-1.96-.09-.66-3.85-5.44-1.6-8.55,4.02-15.13,9.07-21.02,16.36l-1.86-1.94-12.84,11.01c-5.25-1.26-8.68,4.47-13.07,6.45-2.09.94-2.82-.5-3.8-.28-2.68.59-6.43,3.31-8.11,3.75-11.79,3.09-21.99,1.74-33.77.93-5.49-.38-11.5,3.25-17.52.28-3.57-1.77-3.81-5.07-5.59-7.93-2.97-4.77-6.84-10.35-9.4-15.78-1.91-4.05-.13-6.71-5.02-10.18-.71-.5-4.23-.96-6.49-2.77-8.8-7.03-5.05-10.33-7.87-19.09-4.82-15-22.25-17.98-29.27-31.49-1.98-3.83-1.47-13.89-3.56-19.5-1.8-4.82-9.47-16.33-13.07-19.85-2.4-2.35-7.82-3.82-10.71-6.4-10.86-9.7-13.73-38.26-22.48-51.85-8.05-12.49-22.77-10.75-27.13-27.92-.69-2.73.78-5.76-1.71-8.18l1.91-.23c-.86-1.21-1.83-2.35-2.11-3.87-.94-5.18,6.05-10.9,8.59-14.58,2.56-3.7,3.86-9.3,6.35-13.15,6.82-10.55,15.93-21.85,28.3-25.66,13.25-4.08,19.87.27,31.42-12.48.5-.56-.71-1.45.49-2.52,3.56-3.18,11.6-9.89,15.44-11.97,10.64-5.75,25.85,2.17,38.44-6.89,7.39-5.31,4.24-18.64,15.1-24.74.91-.51,6.55-2.52,7.37-2.53,1.57-.02,3.33,1.73,4.94,2.05,5.16,1.02,23.13,2.27,27.18-.18,1.37-.83,2.15-2.59,3.7-3.59,2.12-1.37,4.96-1.23,6.91-3,3.85-3.5,5.37-12.42,8.66-15.83,7.72-8,20.43-10.56,31.08-11.38,8.42-.65,14.11,2.49,21.11-4.56,2.13-2.14,3.67-7.55,5.57-8.93,1.52-1.1,12.1-3.63,14.5-3.97,9.11-1.29,20.38,1.31,30.49.46,5.39-.45,14.86-1.59,19.88-3.02,2.36-.67,10.05-3.17,10.91-5.02.26-.56-.76-2.39.59-3.98.87-1.02,2.75-.97,3.01-1.52.28-.58.58-10.98,1.05-12.98,3.24-13.7,25.11-54.08,35.46-62.79,5.51-4.64,19.62-14.13,26.5-15.65,5.01-1.11,16.25-.2,19.07-5.36.57-1.06.52-6.6,2.07-9.6,7.56-14.67,28.01-27.63,41.75-36.63,23.76-15.56,49-27.23,73.92-40.06,4.88-2.51,9.89-7.1,15.67-7.26,9.19-.26,17.14-2.81,26.15-3.37,3.58-.22,7.64,1.47,11.28-.06,3.77-4.68,6.08-12.51,10.5-16.66,2.03-1.91,5.95-4.31,8.45-5.82,51.33-31.15,128.98-34.93,188.22-30.31,18.12,1.41,43.81,3.9,57.15-12.39,4.97-6.07,1.51-7.45,1.81-13.42.43-8.59,9.34-6.68,15.17-5.14-.6-3.42,1.45-5.26,2.06-7.72,1.07-4.36-1.25-7.78,7.01-8.04,6.96-.22,23.79,16.14,27.92,21.82,2.21,3.04,3.09,6.22,5.15,9.25,4.13,6.09,9.1,11.86,13.55,18.31,4.51,6.54,21.72,29.55,20.37,36.29ZM929.93,141.81c-10.55-13.15-19.98-31.68-32.64-42.43-1.7-1.45-6.56-5.58-8.26-6.09-3.47-1.06,1.52,6.76,1.88,8.51.39,1.9-.56,3.54.22,5.68,4.49,12.36,12.39,19.82,21.47,28.37.81.76,1.79,1.23,2.83,1.53.3,2.34-2.61,2.2-4.01,1.57-2.24-1.01-7.86-6.13-9.84-8.11-8.81-8.84-13.68-22.71-18.79-33.78-.83-1.79-.24-3.43-1.35-4.96-5.29,3.35,1.8,10.93-1.27,14.51-4.49,5.22-11.2-2.39-14.85.73-2.67,2.28,1.3,10.55.14,13.21-1.07,2.45-5.35,2.76-6.11,5.68,0,1.37,7.34,11.59,8.85,13.71,3.07,4.29,9.1,7.81,6.53,14.08l-12.53-15.45-5.97-10.13c-7,4.38-14.47,7.66-22.55,9.19-2.64.5-10.43.51-11.96,1.11-1.34.53-2.64,2.99-4.85,2.86-1.14-.06-1.71-1.91-2.8-2.37-15.77-6.75-64-4.89-82.37-3.5-23.77,1.8-58.25,6.29-80.49,14.02-5.85,2.03-11.17,5.51-17.19,7.19,9.43,3.9,17.81,10.39,24.12,18.56,1.84-5.95,5.22-9.53,10.65-12.46,4.03-2.18,14.68-7,17.86-2.27-1.43,4.15-4.94,2.24-8.04,3.16-3.47,1.03-10.89,3.52-13.43,5.72-2.19,1.9-2.73,6.22-5.42,8.05.66,1.44,1.68,2.7,2.57,4.01,10.26,14.97,25.79,23.38,36.97,37.37,9.64,12.05,17.34,29.68,29.21,38.96,21.17,16.55,42.25,27.34,61.27,48.05,8.46,9.22,16.1,20.49,20.11,32.33,12.16-14.97,23.59-30.62,32.77-47.66,10.17-18.89,14.85-34.77,21.48-54.6,2.73-8.16,7.09-14.24,10.87-21.64,3.57-6.98,4.28-15.29,12.26-19.17-2.28-2.86-5.07-5.36-7.2-8.36-6.24-8.81-13.58-20.36-18.03-30.15-1.47-3.23,2.95-4.75,4.33-2.97,1.83,2.35.65,5.82,2.35,9.3,2.52,5.17,6.69,9.83,9.57,14.37,1.37,2.16,1.78,5.42,3.98,7.41l-.56-3.85c1.42,2.34,2.84,4.51,5.61,5.19l-.66,2.04-1.7-.96,3.91,4.28c.92.04,12.21-8.3,14.77-9.36,3.18-1.32,7.75.61,9.36-.31,3.17-1.82.63-4.18.7-4.51.2-.85,5.17-2.66,3-5.47-3.53-4.57-10.64-8.84-14.32-14.04-.94-1.33-6.49-11.64-6.53-12.5l2.63-2.36c3.74,6.11,6.33,12.66,11.42,18.1,1.76,1.88,7.12,6.73,9.14,7.94,1.61.96,3.41-.38,4.89.84,1.07.89,6.26,8.75,8.89,5.95,1.55-1.65-.83-6.38-1.06-8.37,1.81-5.25,9.79,2.62,13.09,2.29-.94-2.1-1.13-4.34-2.27-6.4-3.47-6.29-9.04-8.04-10.37-15.22l-1.18,1.33-9.61-12.56c1.8-1.73,1.48-.37,2.66.64,1.7,1.45,3.4,4.61,5.82,4.18ZM796.26,321.96c-1.52-8.2-34.16-35.81-42.34-41.93-11.44-8.56-30.11-17.29-37.95-28.8-7.7-11.31-14.27-23.38-23.16-34.08-7.73-9.29-19.97-15.33-27.07-23.01-3.75-4.06-7.16-12.35-10.84-16.81-6.42-7.75-26.17-24.86-33.52-10.72,1.53,8.04,9.07,12.53,13,18.8,3.09,4.94,4.13,10.61,8.15,16.08,13.82,18.79,40.79,33.62,48.6,54.76,3.91,10.57.92,12.8,10.66,22.23,8,7.75,19.34,9.71,27.69,16.08,13.1,9.99,20.04,28.32,36.85,32.88,4.79,1.3,11.89-.05,16.99.94,7.02,1.36,8.87,3.94,14.21,7.62.93.64,1.96-.06,2.14.04.3.18,1.39,2.9,2.58,3.34,1.96-5.83-2.29-10.97-4.64-15.94l.07,3.13c-2.95-1.94-1.34-4.21-1.42-4.62ZM751.96,379.69c17.32-4.55,27.68-10.41,40.97-22.41,4.1-3.7,7.54-7.88,11.33-11.85-5.81-3.65-10.91-7.54-17.13-10.52-1.44-.69-3.48-.37-4.71-1.08-.89-.52-1.14-3.1-3.13-2.13l.28,1.93c-4.22-3.06-9.74-1.95-14.7-3.25-17.18-4.5-23.21-21.6-36.7-31.97-8.74-6.71-23.52-9.28-29.83-18.11-3.23-4.52-1.75-1.97-3.24-3.32-6.96-6.28-6.39-21.87-14.21-31.57-3.62-4.49-8.23-6.67-11.91-10.17-19.12-18.17-31.33-35.18-46.09-56.38-2.41-3.46-4.81-8.13-6.9-11.74-6.15,2.34-10.59,6.8-13.62,12.64-7.29,14.07,3.97,27.07,3.85,40.87-.01,1.26,1.19,1.79-.91,2.61l-2.19-3.87-7.53-27c-10.88-2.23-21.83-.85-32.64.87-2.26.36-11.54,1.39-12.14,1.58-2.77.9-7.42,4.26-10.38,5.71-30.92,15.19-59.04,28.66-87.3,49.28-11.59,8.46-20.78,15.79-25.51,29.91l1.71,5c-3.89,3.02-2.97,9.49-1.54,13.79.47,1.42,11.35,22,7.29,21.79-4.23-2.48-4.23-6.52-6.09-10.28-.99-2.01-2.66-3.63-3.55-5.72s-3.41-14.76-4.16-14.91c-5.95,4.06-14.37,2.52-20.54,4.91-25.67,9.96-41.28,36.83-51.72,61.2-5.38,12.56-5.28,15.92-4.59,29.15.33,6.35.73,12.66,1.17,19.01-6.44-1.99-4.28-9.89-6.4-14.72-5.17,3.85-12.59,5.3-18.92,6.39-5.48.94-18.52,2.91-23.6,2.9-5.18-.02-11.36-2.04-17.17-1.67-8.15.52-17.13,3.2-21,11.11-.76,1.56-.15,2.94-.7,4.29-.8,1.97-2.59,3.21-3.11,4.96s-.1,10.29.16,12.56c.68,5.96,2.56,10.73,3.95,16.43-4.54,3.16-7.9-19.06-8.12-21.02-.28-2.47.87-7.93-.72-9.34-2.55-2.26-23.66-.79-27.57.31-18.75,5.29-15.34,13.32-25.74,24.61-2.85,2.25-9.02,7.87-10.49,11.07-1.68,3.64,1.06,17.99,4.16,21.47.47.63-1.15,1.52-1.52,1.59-5.9,1.12-8.77-21.01-6.14-25-6.39-.42-12.34,1.41-18.81.6-5.55-.7-12.39-4.4-17.86-1.35-6.76,3.78-5.31,12.45-8.97,17.98-2.04,3.09-8.08,7.38-7.94,10.95l18.85,43.83-3.01-.61-20.49-43.39c-.53-.52-6.92,1.34-8.81,1.49-14.58,1.15-16.28-3.46-30.04,7.57-5.82,4.67-13.7,15.58-19.55,18.72-3.08,1.65-18.35,1.51-23.1,3.16-.51.18-8.15,5.43-8.87,6.04-1.82,1.55-9.08,11.04-10.88,13.55-3.8,5.3-15.46,24.46-15.37,30.14.02,1.61,1.12,3.03,1.17,4.62.09,2.64-.7,6.46.17,8.85,3.31,9.11,19.24,11.98,24.11,20.7l3.5-17.77c.73-1.4-1.29-4.57-1.19-4.93.44-1.71,4.9-2.97,6.65-.87,1.9,2.28-.51,4.23-.68,6.75-.71,10.63-1.95,21.11.81,31.32.29,1.06,2.49,3.28,2.99,5.14s-.6,4.51.26,6.94c1.3,3.63,4.58,8.48,5.6,12.39.8,3.03-.22,6.54,1.67,9.77,2.43,4.16,7.44,5.16,11.11,7.82,7.13,5.18,14,17.49,17.57,25.73,3.14,7.25,4.98,17.4,9.63,24.16,1.01,1.46,8.46,8.15,10.2,9.53s6.7,3.29,7.79,4.68c2.2,2.8,5.53,13.61,6.21,17.5.11.63-.87,1.52-.77,2.48.47,4.38,9.08,14.03,11.98,6.93,3.72,6.28,9.13,9.83,15.51,12.69s24.43,6.77,31.41,5.73c7.49-1.11,14.69-6.56,17.95-13.37,1.32-2.76,2.08-14.4.55-17.41-1.68-3.32-7.81-8.42-4.43-11.21l3.66,3.86c-6.69-25.78-18.45-51.01-34.76-72.35-6.82-8.93-15.41-16.78-22.98-24.94-19.44-20.95-30.73-41.16-58.37-53.77-5.08-2.32-25.6-5.73-14.25-11.11,2.21,1.33,4.64,1.97,6.98,2.91,5.97,2.4,19.78,8.6,24.55,12.21.81.61.89,1.86,1.47,2.65l2.38-.99c.85,3.45,3.67,5.58,6.44,7.58,10.44,7.52,16.2,16.87,24.47,27.11,6.51,8.07,14.76,14.59,21.56,22.42,23.28,26.76,45.83,65.03,49.82,100.69.86,7.67-4.49,21.41-10.77,26.1-13.01,9.71-41.05,1.4-54.57-5.25.38,2.34,1.49,5.06,3.12,6.82s3.01,3.26,4.67,5.09c1.82,2.01,5.99,3.04,6.78,4.14.87,1.22.27,3.07.74,3.94.81,1.5,3.04.47,4.65.88,24.09,5.99,45.2.57,66.38-11.87,12.17-7.15,21.82-18.32,35.66-23.28l-16.19-8.83-8.56-11.45c5.2-4.09,8.28,5,11.67,8.01,2.33,2.07,11.7,6.98,14.82,7.82,14.51,3.92,25.31-6.38,33.57-17.04,6.24-8.04,9.91-18.56,19.51-23.37-5.52-1.89-17.12-1.78-20.62-6.62-.4-.55-1.48-2.5-1.04-3.04,3.01-3.64,4.6.91,7.1,2.15,1.13.56,15.95,3.26,17.52,3.2,10.94-.42,36.88-13.26,45.46-20.2,5.08-4.11,8.1-10.16,13.14-14.3,9.94-8.17,23.68-14.14,32.05-24.32,3.78-4.59,5.97-12.37,9.96-17.13-19.6-2.39-32.24-19.02-43.85-33.76l2.49-1.06c6.6,3.72,9.28,10.3,13.94,15.59,4.13,4.7,20.8,15.71,26.84,13.86,3.54-1.08,7.71-4.86,11.69-5.98,2.2-.62,3.39,1.49,6.15.42,11.25-4.37,12.58-20.02,16.17-30.34,4.05-11.63,7.39-21.64,16.26-30.59,2.01-2.03,5.41-2.81,5.69-5.75-5.31-1.55-20.15-6.53-23.06-10.85-1.57-2.32-.61-5.18,1.97-3.67,2.2,1.28,3.91,3.83,6.56,5.17,5.97,3.03,21.1,7.8,27.52,6.54,2.02-.39,4.88-2.53,6.62-2.12,1.57.37,1.95,2.19,3.43,2.56,2.61.64,24.67-3.35,29.83-3.69,4.27-.28,9.69,1.12,14.26.48,12.34-1.72,25.36-7.46,37.86-9.38,11.01-5.46,11.62-10.31,15.19-21-6.62-5.74-18.3-5.43-21.54-14.91,2.94-1.92,5.31,2.58,7.7,3.99,3.68,2.18,18.24,7.79,22.28,7.82,8.32.05,21.15-11.23,28.4-15.61,22.55-13.64,44.71-28.08,65.36-44.58,7.73-6.18,15.49-15.85,23.36-22.28,5.89-4.81,13.76-7.11,20.37-12.87,2.58-2.25,9.38-7.96,8.85-11.39-1.46-9.3-8.47-7.8-14.86-10.67-2.81-1.26-5.72-3.34-8.49-4.86-2.94-1.61-6.46-1.16-8.07-5.43.33-3.12,13.19,4.93,14.31,5.42,4.05,1.76,13.66,5.84,17.7,5.67,2.3-.1,3.8-1.37,5.81-1.79.57-.12,1.29.65,1.56.58ZM262.1,743.12c1.06,1.95,2.8,1.68,4.31.23l-4.31-.23Z" style="fill: #eaddb7;"/>
    <path d="M297.96,723.94l-1.48-2.17,2.12-1.45c1.13,1.16.85,2.93-.65,3.62Z" style="fill: #eaddb7;"/>
    <path d="M775.3,312.12c.49-3.22-6.16-2.51-7.87-3.07-5.47-1.78-8.91-11.41-12.66-16.4-1.06-1.41-9.32-10.32-10.31-10.33-1.89-.03-3.7,2.72-1.85,4.84,1.14,1.31,2.93.81,4.1,1.72,8.11,6.31,12.05,23.02,21.17,24.64,1.4.25,7.23-.14,7.42-1.4ZM688.11,231.18c-2.87-2.31-6.32-16.76-9.54-21.33-2.78-3.95-10.34-2.38-15.37-8.75-4.39-5.57-.1-6.8-.87-10.06-1.31-5.48-5.19.53-5.29,3.96-.36,12.3,16.19,13.2,20.58,21.62,5.03,9.65,1.86,11.66,12.34,19.99,1.84,1.46,6.53,6.21,8.11,3.48-3.25-2.43-5.5-6.14-8.27-8.97-.47-.48-1.53.2-1.69.07Z" style="fill: #eaddb7;"/>
    <path d="M60.98,584.17c-.59.7-.76,1.74-.72,2.66,2.17,5.27.54,10.62,5.12,14.51-7.53,2.25-10.37-12.7-11.62-18.29-5.45-24.3-4.18-48.94,17.85-63.52,10.55-6.98,22.63-12.26,33.79-18,1.24-.64,1.84-2.19,2.93-2.6,1.37-.52,9.01-.86,7.7,2.55-1.8,4.72-11.39,4.5-14.97,6.52-3.37,1.89-6.27,3.73-9.68,5.59-11.68,6.39-32.23,16.24-34.19,31-1.13,8.5-1.77,16.47-.21,25.33.6,3.39,2.25,11.65,3.98,14.26.34-.4,1.33-1.29,1.72-.56l2.66,3.94c-.89.61-4.06-2.9-4.38-3.38Z" style="fill: #eaddb7;"/>
    <path d="M406.44,327.79c.04,2.19-2.03,4.73-2.04,5.25-.02.8,1.27,1.86,1.22,2.08-.6,2.91-7.73-.47-6.08-4.33-11.3,8.26-14.63,20.22-18.1,33.04-.68,2.52-.28,5-.88,7.34-1,3.91-5.23,9.43-5.66,12.03-.46,2.76,2.99,5.3.34,6.64-7.91-8.3-1.62-11.15,1.01-18.27,1.23-3.33,1.12-7.94,2.16-11.47,4.71-16.05,7.25-20.65,18.95-32.56,1.59-1.62,3.33-5.18,4.72-5.98,3.52-2.01,4.31,3.62,4.36,6.24Z" style="fill: #eaddb7;"/>
    <path d="M668.71,426.66c2.48.29,4.69,2.62,7.76-.33.2-.19.94-5.11.92-5.58-.2-7.56-6.3-9.79,2.15-14.41,3.46-1.9,12.98-4.06,16.78-3.21,1.85.41,2.82,2.16,3.05,2.22.37.09,3.78-4.03,6.89-1.93l.44,4.33c-7.08-1.67-20.71-2.52-26.1,2.98-1.92,1.96.03,6.07.08,8.79.33,16.76-7.99,9.49-19.89,11.14-1.77-.85-.92-3.39.18-4.43.69-.47,6.3.26,7.74.43Z" style="fill: #eaddb7;"/>
    <path d="M86.57,618.95c.44.12,3.34,3.16,3.68,3.91.81,1.75.18,6.13.95,8.35,1.63,4.75,5.45,10.89,7.95,15.36.84,4.38-2.76,4.32-5,1.45-1.86-2.39-2.93-7.87-4.42-10.84-1.09-2.17-2.98-5.7-4.23-7.74-1.02-1.67-3.07-2.3-3.82-4.47-1.04-2.99,2.46-6.67,4.89-6.02Z" style="fill: #eaddb7;"/>
    <path d="M294.19,426.35c-.27.7.55,2.44.08,2.81-3.07.44-4.38-5.01-3.05-6.35,1.97-1.98,8.26-7,10.69-8.4,2.69-1.54,14.48-5.59,17.05-4.65s3.76,4.27,1.47,5.84c-1.77,1.21-4.09-1.05-6.06-1.08-4.72-.07-18.59,7.76-20.18,11.82Z" style="fill: #eaddb7;"/>
    <path d="M120.31,705.67c-3.68-.06-7.12.4-7.69-4.45,2.12-3.73,3.88-.75,7.03-.46,1.96.18,11.83.83,12.98.65,3.41-.54,4.64-4.79,8.23-5.07,2.56-.2,4.43,3.28,2.69,5.42-2.67,3.28-18.6,3.99-23.24,3.91Z" style="fill: #eaddb7;"/>
    <path d="M339.71,637.04c.07,3.14-20.26,12.46-23.97,13.73-3.15,1.08-15.24,4.12-16.79-.2s5.65-1.33,7.08-1.29c5.9.19,19.58-6.12,24.75-9.26,1.36-.83,8.8-8.65,8.93-2.98Z" style="fill: #eaddb7;"/>
    <path d="M577.2,234.56c-.07,2.04-1.1,1.72.58,4.8,2.41,4.41,14.23,18.91,14.14,22.12l-1.9,1.93c-2.67-2.73-3.38-6.65-5.41-9.59-3.2-4.64-7.82-8.21-10.38-13.9-1-2.24-1.85-14.01.39-14.36,4.42-.69,2.65,6.32,2.56,9Z" style="fill: #eaddb7;"/>
    <path d="M571.75,299.23c-1.4,1.48-1.28.58-2.23.16-6.85-2.98-8.71-15.9-11.22-22.57-1.16-3.07-6.36-8.41-1.83-10.69,6.74,10.41,6.58,23.66,15.28,33.09Z" style="fill: #eaddb7;"/>
    <path d="M80.82,654.51c-.63,2.5-4.81.33-5.97-1.6-2.25-3.72.29-6.91.85-10.07.31-1.71-1.99-3.75,1.13-5.65,8.88-5.4,3.02,11.03,2.95,14.31-.03,1.43,1.09,2.86,1.05,3.01Z" style="fill: #eaddb7;"/>
    <path d="M142.37,746.26l-1.05-3.03c1.07-2.98,13.25-2.4,16.23-5.07l2.07,3.07c1.61,5.6-14.58,1.72-17.24,5.02Z" style="fill: #eaddb7;"/>
    <path d="M256.31,430.7l1.71-.3-.12-1.87c1.66,1.6,4.52,11.62,3,12.79-2.26-.09-1.86-.63-2.33-2.32-.72-2.58-.7-5.74-2.27-8.3Z" style="fill: #eaddb7;"/>
    <path d="M820.85,148.32c-.52,2.59-11.46.2-14.07.24-9.45.15-20.33,2.62-29.86,3.02-19.2.82-46.62-4.63-64.42.92-2.29.72-8.83,5.12-9.83,2.72-.01-2.78,1.12-3.56,3.31-4.83,14.74-8.63,51.34-2.56,69.18-2.88,14.52-.26,27.71-2.05,42.63-1.18,1.33.08,3.31.78,3.07,2Z" style="fill: #eaddb7;"/>
    <path d="M688.11,231.18c.15.12,1.22-.55,1.69-.07,2.77,2.83,5.02,6.54,8.27,8.97-1.58,2.73-6.27-2.01-8.11-3.48-10.48-8.33-7.31-10.34-12.34-19.99-4.39-8.42-20.94-9.32-20.58-21.62.1-3.43,3.99-9.44,5.29-3.96.78,3.26-3.52,4.5.87,10.06,5.03,6.37,12.59,4.81,15.37,8.75,3.22,4.57,6.66,19.02,9.54,21.33Z" style="fill: #eaddb7;"/>
    <path d="M775.3,312.12c-.19,1.27-6.02,1.65-7.42,1.4-9.12-1.62-13.05-18.33-21.17-24.64-1.18-.92-2.97-.42-4.1-1.72-1.84-2.12-.03-4.87,1.85-4.84.99.01,9.25,8.92,10.31,10.33,3.75,4.99,7.19,14.62,12.66,16.4,1.71.56,8.36-.16,7.87,3.07Z" style="fill: #eaddb7;"/>
  </g>
  <path d="M694.88,435.09c1-5.53,1.01-11.88,2-17.19.63-3.4,4.11-11.15,2.53-14.04-2.59-4.74-11.9-4.9-16.82-6.28-15.98-4.48-43.06-13.4-59.02-9.13-12.7,3.4-24.06,20.1-34.16,28.87-6.92,6.01-14.15,6.75-23.03,7.92-6.98.92-37.73,2.94-42.95.63-.8-.35-.88-1.31-1.56-1.74-1.96-1.26-6.68-1.28-8.97-2.92-4.31-3.09-10.53-12.02-13.71-16.64-2.13-3.1-4.05-6.34-6.04-9.52,1.13-.84,2.12.98,2.72,1.02.35.02,1.29-.99,2.1-1.13,6.28-1.14,9.49.65,15.13,1.36,3.22.4,7.13-.28,10.45-.05,4.86.34,10.44,1.64,15.13,1.88,2.81.14,5.9-.84,8.5-.45,1.46.22,2.51,1.08,3.9,1.21,1.42.13,7.19-.75,7.36-2.44l-.88-1.98c6.56-4.06,10.28-10.9,14.8-16.8,1.78-2.32,4.14-4.65,5.86-7.05,1.72-2.42,11.81-18.97,12.99-18.98,2.9,3.07,5.29,5.99,8.71,8.53-1.91,2.25-4.09,5.02-5.45,7.63-3.67,7.05-6.25,13.38-10.92,20.33-3.15,4.69-8.98,13.53-13.37,16.36-3.34,2.15-4.64,1.43-7.69,2.13-14.25,3.28-28.71,3.29-43.25,3.68-1.97.05-4.35.96-6.17.87-1.67-.08-4.54-1.71-5.07-1.61-1.81.34-2.34,3.21-.02,3.81,17.1-.61,34.12-1.25,51.1-3.64,3.41-.48,8.41.14,11.56-1.99,1.4-.95,5.04-4.23,6.1-5.53,4.3-5.26,13.12-19.56,16.41-25.82,1.4-2.67,2.1-6.51,3.83-8.99,1.58-2.25,3.86-4,5.67-6.04,1.85,2.46,4.66,1.6,6.82,2.18,13.24,3.58,26.6,3.55,40.16,5.22,2.63.32,6.03,1.41,8.75,1.76,2.24.28,9.54,1.48,10.8.03,2.15-3.1-.78-4.39-2.1-6.66-4.85-8.38-6.43-12.38-12.7-20.59-1.21-1.58-3.07-5.37-4.08-6.25-2.06-1.8-3.26.09-5.07.11-1.04,0-1.89-.77-2.73-.8-11.68-.43-30.12.2-41.32,3.5-1.73.51-8.21,2.85-9.17,3.83-.95.98-.81,3.27-1.53,4.66-.44.85-1.74,1.53-1.88,2.74l-1.1-.38c-2.89,9.18-10.88,17.78-16.82,25.43-6.23,8.03-7.63,12.14-17.03,17.23-.65.35-.79,1.3-1.49,1.58-1,.41-2.75-.43-3.89-.35-9.79.65-15.19,0-24.78-.66-3.43-.23-8.04.58-11.22.08-4.32-.68-5.67-1.32-10.48-1.59-2.82-.16-7.26-1.58-9.08.71-.84.04-6.91-12.49-7.31-14.19-.33-1.39.64-2.96-.21-4.33-1.52-2.45-3.25-.24-4.23.38-.42.26-1.04-.56-1.26-.32-.56.61-.13,1.73-1.03,2.75-1.51,1.69-6.97,4.58-9.19,6.38-3.64,2.95-6.8,6.82-10.23,9.65-6.12,5.06-12.02,8.48-17.44,14.97-2.32,2.78-8.56,13.84-11.28,14.5-.79.19-1.74-.74-2.54-.75-2.66-.03-6.02.77-8.7,1.08-4.63-6.2-5.89-12.86-13.88-15.62-15.38-5.32-41.53,9.98-54.94,17.06-14.75,7.8-31.95,16.43-44.24,27.75-4.92,4.52-11.38,12.11-4.04,17.75l-4.56,3.92c-.74.02-7.35-14.81-8.33-5.99,4.31,5.28,8.5,10.75,12.44,16.3.3.42,1.03,1.32.43,1.74-4.11-2.85-9.48-5.8-13.21-9.09-1.82-1.61-3.08-5.78-5.49-3.41-1.32,1.3-1.17,2.56-2.18,3.85-2.4,3.11-15.45,12.2-19.41,14.8-.87.57-2.62.91-2.94,1.31-.63.78-.29,2.88-.97,3.93-.81,1.26-2.01,1.41-2.81,2.32-2.03,2.31-5.2,11.49-3.99,14.45,1.54,3.77,5.23,5.26,7.9,7.43.06.04.13.09.18.15.07.06.14.12.22.18.45.4.79.51.27.91.02.44-.15.89-.59,1.21-1.07.78-2.42,1.2-3.44,2.03-.38.41-.77.79-1.16,1.11-9.13,7.57-25.56,15.37-36.27,21.26-6.35,3.49-12.14,5.87-18.75,9.09-9.81,4.79-23.61,12.34-31.26,20.21-3.16,3.25-6.12,7.58-9.41,10.6-3.48,3.2-6.94,5.09-9.81,8.63-4.21,5.19,1.07,6.27,5.48,5.84,1.03.5-.04.98.09,1.61.65,3.22,4.61,2.46,5.3,3.14.24.24.16,1.26.59,1.84,3.09,4.1,7.89-.23,12.09,1.38,2.04-.91,4.18-4.4,5.36-5.29.4-.3,3.72.74,5.27.06,9.4-4.13,1.18-12.35,5.31-19.71,3.79-6.76,17.01-15.35,23.98-19.26,15.26-8.58,34.13-15.42,51.47-16.68.81-.06,1.58-.78,2.1-.74,3.74.29,2.9,3.79,4.17,6.25,1.75,3.37,3.67,3.29,5.95,4.96,2.98,2.19,4.73,6.25,7.94,8.53,3.06,2.17,17.59,6.46,21.22,6.12.41-.04,7.56-1.77,7.93-1.96,1.04-.55,1.12-1.73,1.83-1.97.58-.2,1.73.42,2.77.25,7.56-1.19,17.95-14.13,21.55-20.63,2.57-4.64,2.44-11.73,4.83-16.59,3.01,2.76,18.91,19.64,16.88,23.07-6.31,4.04-11.47,11.31-18.96,12.79-16.78,11.57-38.93,11.14-56.39,21.16-11.06,6.35-21.93,17.03-27.04,29.02-1.36,3.18-1.28,4.9.87,7.79h1.45c-.18,4.85,2.99,5.04,6.2,7.41l3.45-1.82c1.96,4.94,7.76.75,9.62-2,3.12,4.96,6.32,1.84,8.32-2.19,4.2-8.46,2.91-15.42,10.72-22.98,4.67-4.53,21.9-10.7,28.65-12.61,6.31-1.78,13.42-1.99,19.26-3.35,6.06-1.41,23.47-6.21,28.43-8.76,8.57-4.41,17.37-16.87,15.11-26.94-1.68-7.48-8.33-18.09-12.4-24.88-.67-1.13-5.46-7.04-4.84-7.76,5.25-2.37,10.06-5.81,15.27-8.48,11.73-5.99,23.96-8.59,36.39-12.34.83-.25,2.23.5,3.35-1.05l2.55,1.71c1.81-.29,1.77-2.79,2.38-3.44.51-.54,13.29-4.14,14.09-4.11.81.03,1.49.86,1.74.85.23-.01,2.41-2.08,3.62-2.66,2.03-.98,5.32-1.45,7.68-2.41,6.41-2.6,16.59-7.38,21.81-11.63,1.05-.86,1.65-2.41,2.6-2.87,1.5-.72,4.62-.42,6.28-.74,13.2-2.51,26.5-4.2,39.63-5.97,2.57-.35,6.59-.32,8.74,1.29l1.12-1.14c-4.46-6.74-8.75-13.52-12.27-20.79,6.2-.15,12.31.37,18.57-.13,5.2-.42,10.41-1.86,15.42-2.39,10.69-1.13,30.23-.44,38.13-7.61,6.57-5.96,12.18-14.83,16.51-22.34,1.16-2.01,4.67-9.37,6.35-9.79.58-.15,9.95,3.58,11.32,4.2,12.11,5.53,26.22,13.53,37.99,20.09,3.11,1.73,16.73,10.82,18.82,10.83,2.31,0,2.82-4.31,3.17-6.25ZM602.38,341.77c12.19-3.5,21.48-2.4,33.61-2.26,1.11.01,2.19-.92,3.46-.84,1.3.09,7.77,1.54,8.95,2.1,1.23.59,3.07,1.1,2.77,2.91-3.19-.88-6.17.47-9.26.82-3.23.37-7.78.12-10.81.82-.76.18-1.26.27-1.71,1.01l1.76,2.16c7.21-2.42,15.4-2.9,23-1.93,4.78,5.71,9.57,12.9,9.83,20.47-.65,1.16-3.69.83-4.89.75-6.24-.39-12.76-1.95-19.02-2.61-11.64-1.22-30.76-.92-40.05-8.71-8.54-7.17-8.33-11.64,2.37-14.72ZM511.44,425.55c.69.08,1.24-.26,1.75.58-6.92,5.01-14.47,9.17-21.54,13.93-13.31,8.97-26.02,18.73-40.01,26.7-4.23,2.41-3.23,2.36-6.44,5.09-1.58,1.35-3.44,1.15-4.63,1.86-.71.42-4.38,3.88-4.74,3.91-1.34-3.01-4.47-3.79-6.48-6.31-.6-.94,1.87-3.29,2.56-3.9,12.33-10.79,27.47-19.22,40.74-28.87,1.28-.93,2.14-2.42,3.41-3.35,2.9-2.13,9.35-7.13,12.19-8.54,2.12-1.06,20.02-1.48,23.19-1.1ZM422.67,470.02c.1-.11.2-.2.31-.26.05-.07.1-.14.16-.21.21-.25.54-.37.88-.39,0-.01,0-.02.01-.03.01,0,.02.02.03.03.26,0,.51.05.71.17,1.94,1.16,3.22,3,4.72,4.65.21.24.35.54.39.84.02.04.05.08.07.12-.02.03-.04.05-.06.08,0,.33-.12.66-.38.91-1.32,1.26-2.61,2.56-3.85,3.9-.86.93-1.72,1.92-2.87,2.5-2.39,1.2-5.28-.15-7.25-1.69-.83-.65-2.11-1.57-2.16-2.74-.04-1.01.69-1.44,1.42-1.9,1.38-.86,2.52-2.07,3.88-2.97,1.4-.93,2.84-1.72,3.96-3ZM495.4,402.63c4.51,6.76,9.04,13.62,14.99,19.23l-8.28,1.41c-13.59.6-27.32,2.3-40.48,6.08l1.8,2.83c5.24-3.54,11.88-4.46,18.08-4.32-.18.2-.36.41-.56.61-9.75,9.84-22.7,17.42-33.86,25.43-6.64,4.77-13.53,9.28-19.59,14.81-2.66-1.85-2.1-3.99-3.05-6.44,4.45-2.05,8.51-4.58,11.84-8.19,3.86-4.17,4.82-6.93,7.24-11.38,3.68-6.79,8.67-7,13.89-10.65,11.25-7.85,20.89-18.36,31.89-26.58,1.15-.86,5.17-3.69,6.08-2.84ZM407.35,470.64c.83-.6,1.85-.78,2.78-1.17,1.15-.48,2.23-1.1,3.37-1.59,1.73-.75,3.38-1.7,5.12-2.41.27-.13.54-.26.81-.42.3-.17.59-.21.85-.17,1.57-.32,2.21,2.21.58,2.71-.22.07-.44.14-.66.22-3.89,2.4-7.47,6.48-12.5,5.37-.86-.19-1.13-.98-.94-1.68-.04-.1-.08-.21-.1-.33.11-.07.23-.13.35-.19.09-.13.2-.24.33-.33ZM483.63,393.76c.82-.69,4.32-3.38,5.25-2.69.5,2.05,4.82,7.18,4.05,8.86-.99,2.18-3.91,3.03-5.58,4.4-9.11,7.5-17.84,15.36-27.35,22.33-3.13,2.29-4.54,3.28-7.6,5.79-2.23,1.83-6.07,2.26-7.83,4.98-1.22-.75-.1-1.78-.33-2.63-.49-1.82-2.36-3.41-1.05-5.28,6.79-6.93,14.98-12.2,22.24-18.52,6.18-5.38,11.89-11.95,18.18-17.23ZM452.12,401.7c3.62-3.35,8.28-6.17,12.17-9.4,5.56-4.6,9.79-9.65,16.69-13.31.52-.28.82-.61,1.53-.43l4,9.75c-4.89,4.62-10.1,8.91-15.06,13.43-6.33,5.77-11.15,9.93-17.84,15.28-3.5,2.79-5.59,5.19-8.71,8.17-1.12,1.07-2.55,1.85-3.8,2.75l-6.87-4.47c5.82-7.63,10.77-15.16,17.9-21.76ZM440.21,431.8c.98,1.39,1.84,4.56,1.51,6.23-.97,4.99-2.11,8.14-5.52,12.11-5.15,6-12.37,9.99-19.03,13.6-10.15,5.51-20.9,10.11-31.01,15.71-6.44,3.57-12.66,8.28-19.08,11.6-2.8,1.45-17.25,7.25-19.55,6.37-.6-.23-.75-1.57-1.99-1.64-.89-.05-1.57.81-2.11.85-2.34.18-2.83-5-3.82-6.97-.24-.48-3.74-6.33-4-6.62-1.32-1.46-3.35-1.72-3.12-3.47.23-1.74,1.24-3.9,2.47-5.12,4.45-4.43,13-10.81,18.27-14.53,15.54-10.97,32.24-19.97,49.67-27.51,10.85-4.69,28.36-13.3,37.33-.61ZM309.78,545.97c1.01-4.7.12-9.48-.95-14.1,5.84-2.07,12.12-6.21,18-7.87,2.15-.61,3,.21,4.66,0,2.74-.35,1.51-3.4,2.24-5.45.42-1.19,1.63-2.01,1.77-3.33.51-4.86-2.12-7.27-4.13-10.69-1.01-1.72-1.16-3.78-2.58-5.25l2.64-1.95-2.79-4.29,2.29-1.57c.5,2.38,4.36,3.85,4.93,5.2.75,1.79,1.19,11.29,1.11,13.67-.41,11.92-7.75,34.82-16.04,43.27-4.51,4.6-7.93,5.08-13.6,5.69-3.99.43-7.99,1.15-11.99.19,1.22-1.44,3.3-.68,4.81-1.12,4.19-1.21,8.71-8.13,9.64-12.41ZM335.15,530.62c.07-.78,2.56-9.33,2.94-9.66l4.52-.51c.67.41.37.96.3,1.55-.16,1.3-.61,3.42-.99,5.15,0,.03,0,.05-.01.08,0,.02,0,.03-.01.05-.06.29-.13.56-.19.82-.13.92-.04,1.86.07,2.81.08.74-.66,1.38-1.35,1.37-.28,0-.53-.09-.74-.23l-4.17-.29c-.56-.28-.4-.67-.36-1.15ZM338.67,517.4c1.13-1.3.4-8.63.62-9.02,1.08-1.89,5.13.25,6.33,1.32l-2.66,8.32-4.29-.61ZM340.73,505.15c-2.7.5-1.44-4.39-1.52-6.31,1.43,1,2.89.92,4.46.56-.09,2.07,2.41,4.15.73,6.03-1.7-1.66-2.25-.54-3.67-.28ZM302.79,462.39c3.42-1.4,1.8-3.41,2.55-4.89,2.32-4.56,22.18-17.71,27.61-20.76,4.55-2.55,9.55-4.51,14.16-6.98,15.55-8.33,37.74-22.53,55.84-19.92.37.05,4.08,1.64,4.49,1.93,3.8,2.69,7.05,8.22,7.99,12.71l-24.1,10.1c-18.79,9.27-37.03,20.63-53.39,33.72-1.79,1.43-6.82,6.79-8.16,7.35-.14.06-.66-.33-1.04-.17-3.58,1.45-14.67,6.4-18,4.6,2.86-6.96-1.47-14.51-7.94-17.68ZM302.41,479.54l1.72-.91-.24-1.43c2.31,2.85,4.57,6.72,8.67,6.7,2.48-.01,10.29-2.25,12.9-3.17.69-.24,1.23-.8,1.71-1.33.69.49.8,1.19.92,1.95.26,1.64.18,3.72,1.08,5.46l-2.94,2.33-3.21-5.37-3.28,2.87,7.07,10.68c-.03,1.16-3.68.32-4.45-.02-5-2.16-13.42-6.85-18.03-9.85-1.29-.84.85-.86,1.52-1.87,1.2-1.83-2.46-4.23-3.44-6.06ZM282.1,480.01l3.85-.91,35.5,21.39c-3.67,3.42-8.72,4.22-13.31,5.31-13.13-9.48-29.04-8.73-44.08-11.23l18.04-14.56ZM255.21,513.92c-3.14-5.29,1.15-14.16,7.2-15.13l4.05-.33c-2.83,2.88-6.98,5.69-6.55,10.37.32,3.42,6.53,9.05,9.88,8.11.2-.06,3.51-1.82,3.65-1.97.5-.49,2.45-4.24,2.66-5.06.24-.95-.27-4.56-.79-5.06-1.72-1.68-4.15-4.56-5.94-5.81-.34-.24-2.16-.29-2.14-.57,1.3-1.48,3.26.06,4.84.17,13.74.95,40.61,4.18,42.69,21.98.51,4.37-2.15,6.96-6.02,8.07-3.99,1.14-18.35.61-22.46-.53-.2-.06-3.03-1.1-3.18-1.2-1.26-.8-2.32-3.04-4.32-2.09-.95.45-1.73,2.03-3.08,1.76-7.24-3.9-15.97-5.05-20.51-12.69ZM270.82,508.77c.84-1.51-.9-2.35.45-3.32,3.24,2.25.57,8.49-2.9,8.39-2.52-.07-7.97-4.81-5-6.98.05,4.25,5.67,5.12,7.45,1.92ZM261.59,547.39c-9.42,1.33-18.05,3.22-26.93,6.61-13.9,5.3-35.55,15.89-45.83,26.63-1.05,1.1-1.09,2.5-1.89,3.47-.71.86-1.81,1.1-2.45,1.92-.73.94-.89,5.65-.81,7.03.22,3.79,3.21,9.15-2.85,9.71-.49-1.93-.99-3.93-2.42-4.49-.51.22-.52,1.2-.61,1.61-.1.49-.27.97-.48,1.44,0,.32-.04.63-.13.95-.38,1.23-1.48,2.32-2.35,3.22-.11.12-.23.2-.35.27-.94,1.04-1.99,1.97-3.06,3.01-1.26,1.21-3.22-.74-1.96-1.96,1.91-1.83,4-3.53,5.11-5.97-.02-.15-.06-.31-.1-.47l-.17-.17c-.06.15-.16.29-.3.42-1.66,1.63-3.6,2.92-5.25,4.55-.08.08-.16.14-.24.19-.51.52-1.02,1.04-1.53,1.57-.49.51-1.13,1.02-1.6,1.58-.04.05-.07.09-.11.14-.04.05-.08.11-.12.16-.12.17-.26.31-.41.4-.32.23-.67.27-.99.19-.87-.15-1.61-1.02-1.02-1.93.06-.14.15-.28.27-.41.47-.52.8-1.13,1.21-1.7.41-.57.97-.99,1.38-1.54.12-.17.27-.31.43-.43,1.95-2.27,6.37-4.56,8.34-7.17l.11-1.58c-1.01-2.45-5.7,3.61-6.46,4.24-2.02,1.67-4.97,3.33-7.28,4.99-.54.39-1.07.74-1.54.63-.95.26-2.14-.43-1.72-1.59.43-1.2,1.18-1.93,2-2.86.91-1.04,1.73-2.13,2.77-3.04.58-.5,1.2-.97,1.86-1.38,1.14-1.07,2.41-1.96,3.64-2.98,1.45-1.21,2.88-1.73,4.64-2.05,1.22-1.23,2.22-2.74.38-2.98-2.9-.39-17.59,13.42-19.45,11.82l2.96-4.29c8.57-8.94,16.94-18.35,27.14-25.34.06-.15.16-.3.3-.43.01-.01.03-.03.04-.04.14-.28.38-.52.72-.67,1.19-1.03,2.51-1.9,3.81-2.78.75-.51,1.51-1.07,2.32-1.49.68-.35,1.49-.47,2.1-.94.21-.16.43-.24.63-.26.13-.07.27-.14.4-.2,1.74-.81,3.71-1,5.41-1.86.15-.13.31-.25.48-.36,6.53-4.52,15-6.7,21.81-10.64,10.6-6.14,21.59-12.2,31.29-18.87,2.89-1.99,6.16-3.73,8.67-6.1l-.15-2.13,2.35,1.54c-3.76,2.57-6.08,5.31-6.52,9.98-.52,5.55,1.75,7.39,4.49,11.68.37.57,1,.41.04,1.15ZM275.75,557.48c-1.25-.72-2.62-1.89-3.37-3.12-.09-.15-1.14-3.13-1.1-3.3.13-.65,3.72-4.07,4.61-4.55.82-.45,3.65-.53,4.63-.39.97.13,5.69,1.7,6.23,2.1,3.93,2.9-4.64,12.91-10.99,9.28ZM283.46,564.63l-2.4-3.89c2.64-.62,4.89-2.1,6.87-3.93,3.22,3.91-2.66,5.12-4.47,7.82ZM289.51,554.46c2.97-8.58-2.88-10.95-10.23-11.32-5.09-.25-5.89,1.5-9.34,5.09-7.07-2.15-13.5-12.38-7.92-18.76.65-.74,5.31-3.19,6.06-3.15,2.16.13,6.5,4.09,9.76,3.1.3.18.43,4.06.36,4.63-.41,3.41-3.7,6.17.13,8.7,4.75-2.5,6.73-7.39,7.44-12.43,1.75.94,4.02,1.04,5.94,1.18,4.21.31,8.59.15,12.81.47,5.74,8.49,2.63,21.18-7.91,23.69-1.31.31-6.73.08-7.1-1.21ZM286.62,566.96c.95-3.1,2.6-3.21,5.1-4.9l5.25,1.33c-2.45,2.34-1.26,4.37-.81,7.21l-9.55-3.64ZM298.31,570.79c.06-.05.11-.1.16-.16-.4-.2-.71-.59-.71-1.18,0-.98-.18-1.91.23-2.84.42-.95,1.25-1.47,2.03-2.05.34-.56.67-1.03,1-1.25.56-.36,7.09-.86,7.16-.39-1.41,1.49.48,2.44.85,3.71,2.28,7.83-6.22,4.67-10.72,4.16ZM322.76,565.96c-3.82,2.69-5.6,1.93-10.04,2.08-1.53-.82-.92-3-2.02-4.37-.04-.04-.08-.09-.12-.14-.22-.24-.49-.44-.85-.61.17-.19.36-.32.55-.41.02-.17.07-.34.17-.49.66-1.02,2.05-1.31,3.17-1.48.68-.1,1.48-.19,2.2-.03.14-.1.28-.19.42-.27,1.76.13,4.17,8.13,7.45,4.17-.02-.38-4.13-1.92-2.93-6.43.14-.52.57-1,1.14-1.49.94-1.33,2.28-2.38,3.44-3.53.3-.29.64-.41.96-.39.33-.01.67.1.97.4.49.48,1.02.93,1.4,1.5.04.07.09.14.13.21l3.22,1.89c-3.13,3.14-5.61,6.83-9.26,9.4ZM333.14,554.5l-6.27-3.75,3.45-5.24,7.84.31c-1.08,3.16-2.27,6.57-5.03,8.68ZM337.93,543.95c-7.3-1.31-5.37-3.12-3.7-8.83.05.04.1.07.14.1.16-.45.48-.82.9-1.06,1.07-.59,2.58-.43,3.72-.11.24.07.44.18.59.32.32-.02.66.01,1.02.12-.45,1.66-1.16,9.04-2.67,9.45ZM273.3,631.56c1.81-2.84,3.97-5.45,6.32-7.86,1.22-1.26,3.18.7,1.96,1.96-.87.89-1.71,1.8-2.51,2.75l-.32.76-1.04.91c-.71.92-1.38,1.87-2.01,2.85-.94,1.48-3.34.11-2.4-1.37ZM420.98,498.39c-4.57,3.57-17.53,5.9-24.12,8.69-8.52,3.6-17.61,8.32-25.03,13.79l-9.58-13.09c-.89.11-2.55,1.74-2.04,2.53,1.2,1.2,2.65,1.67,3.82,2.97,2.1,2.33,3.79,7.43,5.68,9.75,5.68,7,9.37,11.92,13.63,20.19,4,7.75,7.13,15.3,3.06,23.76-1.04,2.17-1.8,2.84-2.62,3.28-.89,1.3-1.61,2.71-2.73,3.83-1.44,1.42-3.28,2.39-5.04,3.34-3.39,1.82-6.84,3.63-10.45,4.99-.52.19-.94.06-1.23-.23-4.41,1.17-8.88,2.23-13.26,3.45-13.42,3.72-43.65,9.67-53.27,18.6-5.74,5.33-6.75,9.15-8.99,15.91-.06.19-.24.6-.5,1.12-.07.54-.17,1.08-.31,1.62-.54,1.98-.8,4.49-1.99,6.18-.01.02-.03.03-.04.05-.01.16-.05.32-.13.48-.12.26-.24.52-.34.78-.43,1.03-1.86.78-2.38-.01-.74-1.13-.13-2.59.31-3.7.14-.36.28-.72.41-1.09.31-1.83.7-3.66,1.06-5.45.1-.49.17-.99.23-1.5,0-.59-.04-1.18-.13-1.77-.08-.54-.28-1.07-.36-1.6-.02-.13-.06-.2-.09-.24-.07.04-.15.09-.22.14,0,.01-.02.02-.03.03,0,0,0,0,0,0-.12.09-.22.18-.28.23-.08.06-.17.11-.25.15-1.38,2.2-2.94,4.47-4.56,6.2-.21.22-.42.42-.63.59-.05.2-.16.4-.34.58-1.51,1.57-2.82,3.33-4.3,4.94-.73.8-1.51,1.55-2.36,2.23-.85.67-1.85,1.16-2.66,1.88-1.31,1.16-3.27-.8-1.96-1.96.88-.78,1.93-1.31,2.86-2.03.17-.14.34-.28.51-.42,3.14-3.68,8.28-9.17,10.08-12.85.26-.53.28-1.2-.27-1.55l-.63-.05c-1.15.56-1.79,1.78-2.49,2.8-1.52,2.23-3.53,4.08-5.41,5.99-.14.15-.3.25-.46.31-1.93,2.03-4.04,3.92-5.5,6.32-.91,1.5-3.31.13-2.4-1.37,1.84-3.03,4.55-5.3,6.88-7.93.18-.21.39-.33.59-.39.8-.82,1.6-1.64,2.39-2.47,1-1.06,1.74-2.27,2.6-3.44.76-1.03,1.64-1.91,2.83-2.41.64-.27,1.32-.43,2-.6l1.22-1.27c-.47-1.96-5.07-.06-6.02.78-.8.7-2.99,4.57-4.09,5.74-2.6,2.77-6.06,5.17-8.82,7.93-.08.24-.14.48-.19.72-.31,1.75-2.96,1.02-2.66-.71.47-2.62,2.59-4.75,4.08-6.82.82-1.14,1.51-2.37,2.39-3.46.42-.52.89-.99,1.37-1.45,4.07-5.98,9.16-11.15,15.39-15.19,18.77-12.2,41.16-12.02,60.23-22.17,7.89-4.2,12.92-9.26,19.78-14.7,1.17-.93,3.68-.34,3.37-3.56-.25-2.62-2.81-2.98-4.33-4.62-5.47-5.92-9.56-11.51-15.49-17.46-4.11-4.12-2.14-4.93-1.37-9.38.72-4.15,2.01-10.42,2.25-14.44.1-1.64-1.39-9.02-.52-9.66,1.23-.65,3.83.49,4.67.26.85-.23,1.46-1.18,2.29-1.54,3.39-1.48,7.02-2.57,10.35-4.15,13.35-6.34,25.28-16.37,39.38-21.53,1.98,3.09,5.62,4.54,8.18,7.02,1.78,1.72,3.77,4.98,5.63,6.98,2.7,2.9,5.81,5.47,8.53,8.35-4.03-.94-3.41,1.36-5.21,2.77ZM431.02,496.19l-2.16-2.54c-.06-1.53,7.51-4.07,8.07-4.66.34-.36.52-1.19.53-2.03-.07-.08-.13-.16-.2-.24-.3-.37-.62-.72-.94-1.07-.15-.16-.33-.34-.45-.52-.06-.07-.13-.14-.19-.2-.06.06-.12.12-.19.18-.21.19-.44.36-.66.53-.51.39-1.03.75-1.57,1.1-.15.1-.3.19-.45.28-1.81,1.37-5.98,4.31-6.33,4.23-.36-.08-.64-.25-.87-.49-1.54-.34-2.75-2.14-3.64-3.32-.35-.47-.18-1.28.2-1.65.44-.43.88-.7,1.42-.98.13-.07.26-.11.39-.14l9.16-6.6c.28.19.43.43.51.68.08.05.16.12.24.2,2.65,2.61,5.62,4.92,7.6,8.12.21.34.25.66.19.95,1.26,1.58,2.6,3.08,4.16,4l-14.82,4.19ZM477.82,477.88c-2.87,2.26-8.17,5.56-11.44,7.23-1.65.84-15.25,6.07-16.11,5.96-3.97-.48-9.06-9.19-12.45-11.5-.02-1.04,10.33-6.71,12.01-7.87,17.96-12.39,40.56-30.49,59.43-40.29,3.41-1.77,7-.85,5.86-5.67,2.86-.39,6.63,11.86,7.9,14.21-1.32,1.16-2.15,3.05-3.38,4.21-1.6,1.5-6.24,4.62-8.4,6.26-6.42,4.88-12.77,8.28-19.45,12.5-9.31,5.88-14.72,11.67-26.4,12.78-3.74.35-8.41-.84-11.28,2.1,2.74-.18,5.83-.58,8.47.25,5.04-.49,10.9-.35,15.99-1.63,1.23.1-.43,1.22-.74,1.47ZM527.31,450l8.46,15.78-55.91,7.71c6.34-3.15,11.87-7.78,17.72-11.75,5.28-3.59,10.77-6.81,16.01-10.56,1.42-1.02,8.65-7.81,10.3-6.19-.72,3.33,2.12,3.26,3.43,5.01ZM610.43,423.45c-2.94,3.95-9.51,11.59-13.19,14.55-.3.24-6.15,2.75-6.9,2.96-5.67,1.61-11.83.77-17.38,1.41-13.73,1.59-27.89,5.43-41.71,3.4-1.05-.15-2.08.06-3.12-.03l-7.08-14.98c1.4-.17,3.21-2.51,3.97-2.61,1.81-.25,6.67,1.09,8.96,1.19,9.33.4,22.99-.84,32.46-1.76,2.43-.24,5.92-1.44,8.11-1.59.85-.06,1.28,1.18,2.12,1.18,1.21-.01,4.86-1.89,6.74-2.02.98-.07,2.08.5,3.1.42,1.56-.12,7.97-.33,8.48-1.25l-.41-1.56c-.89-.19-7.6.51-7.56-.55l26.86-26.26c1.76,1.11.45,2.98,1.47,4.47,1.27,1.83,3.38,2.53,4.82,4.06-2.27,6.29-5.73,13.57-9.74,18.96ZM687.72,436.17c-12.5-7.34-25.56-13.55-38.38-20.18-2.48-1.28-5.06-3.53-7.85-4.97-5.91-3.03-18.26-5.89-21.87-11.01-.9-1.28-.9-3.67-2.58-4.85.91-1.55,1.89-2.53,3.5-3.32,12.58-6.17,42.96,1.96,56.25,6.13,3.74,1.18,13.77,4.16,16.06,6.67.99,1.08.46,2.05,1.38,2.94l.73-1.56c.72.52.82,1.35.96,2.13.2,1.11-1.55,11.45-1.98,12.87-.18.6-.43.98-.92,1.37-1.61-1.38-4.07-2.48-6.08-3.27-5.1-2.02-11.36-4.87-16.4-6.43-1.33-.41-4.12-1.75-4.96-.11-1.62,3.2,3.37,2.32,4.24,2.46,4.63.73,7.64,3.04,11.72,4.87,2.47,1.11,11.43,3.76,12.17,6.39.04.13-.49,2.14-.62,2.53-.78,2.43-2.38,4.76-2.79,7.45l-2.59-.12Z" style="fill: #eaddb7;"/>
  <path d="M183.3,575.31c4.68-3.75,10.46-6.87,15.61-9.94l-.72-.9c-1.4.43-2.84.77-4.14,1.5-.52.29-1,.61-1.46.94,0,0-.01.02-.02.03-1.3,1.27-2.87,2.29-4.51,3.13-1.97,1.38-6.26,3.33-7.46,4.74-1.07,1.26-.12,3.47,1.23,2.61.54-.34.77-1.54,1.48-2.11Z" style="fill: #eaddb7;"/>
  <path d="M203.68,300.31c-.49,8.05-14.45,7.2-19.93,4.96-6.12-2.5-7.78-4.04-8.36-10.86-.36-4.21,1.27-7.77,4.36-10.57,2.49-2.26,9.14.07,12.04.61,4.86.9,8.26-.54,10.19,4.76.86,2.35,1.85,8.65,1.7,11.1ZM198.09,288.61c-1.93-1.23-3.28.1-4.29-.13-.65-.15-.88-1.24-1.55-1.58-2.09-1.08-7.51-2.13-9.71-1.15-5.29,2.36-6.85,11.6-2.36,15.31,4.7,3.88,17.38,5.43,20.73-.16,1.37-2.28-.29-10.69-2.81-12.29Z" style="fill: #eaddb7;"/>
  <path d="M396.36,392.49c.69,1.28-.76,2.58-1.66,3.34-4.17,3.56-15.72,3.51-21.55,5.65-3.01,1.1-9.57,4.51-12.24,6.26-1.7,1.12-3.18,4.87-5.24,1.17-1.53-2.76,1.61-2.13,2.88-2.7,4.45-1.98,8.11-5.1,12.61-6.91,8.03-3.24,17.76-1.96,25.19-6.8Z" style="fill: #eaddb7;"/>
  <path d="M283.49,422.34c4.5,3.13,7.56,9.25,2.23,12.88-2.15,1.46-8.36.91-10.46-.59-4.2-3.01-8.31-13.94-1.12-14.82,1.83-.22,7.79,1.45,9.34,2.54ZM274.78,422.22c-2.98.3-2.44,5.5-1.24,7.4,2.67,4.23,8.82,6.18,12.13,1.9.95-1.23.76-4.15-.26-4.98-.38-.31-1.49.14-2.22-.24-.96-.51-1.61-1.61-2.76-2.18-.77-.38-5.15-1.94-5.65-1.89Z" style="fill: #eaddb7;"/>
  <path d="M175.78,554.25c.16-.08,2.95.23,2.94-1.52,0-.29-1.24-1.15-1.77-1.33-2.62-.92-3.75,1.93-5.34,3.12-1.78,1.33-3.86,2.13-5.33,3.91-2.89,3.51-3.63,9.16-7.65,11.95l-.03-.08c-.83.73-1.82,1.17-2.82,1.64-1.34.62-2.77,1.15-4.06,1.85-1.05.57-1.92,1.3-3.05,1.72-.21.08-.4.1-.57.08-1.95.86-4.52,1.92-1.07,3.23,3.69-2.85,9.89-4.38,13.38-7.14,5.89-4.67,6.25-12.96,15.39-17.43Z" style="fill: #eaddb7;"/>
  <path d="M295.49,414.09c-.56-.79-4.4-2.58-2.91-.18-4.36,1.01-12.5-3.69-11.21-8.51.98-3.66,5.43-8.55,9.68-7.86,1.13.18,7.62,2.09,8.04,2.66,1.08,1.45.91,6.28.3,7.84-.29.73-1.16.9-1.51,1.55-.4.75-2.08,4.49-2.39,4.5ZM283.16,407.14c.49,3.86,10.21,7.09,12.46,3.28.99-1.68,2.9-6.58,1.59-8.27-.51-.66-8.89-1.68-9.35-1.44-1.49.78-4.92,4.69-4.69,6.43Z" style="fill: #eaddb7;"/>
  <path d="M262.35,463.4c1.04,9.53-15.79,7.35-17.41-.69.37-1.95,11.07-8.49,11.81-8.44,3.37.24,3.01,3.37,3.81,5.43.45,1.17,1.67,2.61,1.79,3.7ZM247.94,463.48c6,7.76,18.25,2.93,7.92-5.79-1.33.69-8.31,4.46-7.92,5.79Z" style="fill: #eaddb7;"/>
  <path d="M314.57,797.76c1.7,1.34,1.94,10.09.71,11.53-4.27,5.01-13.2,3.82-14.74-3.02-1.23-5.48,8.35-6.83,11.71-8.95.75-.16,1.7-.05,2.32.44ZM313.57,802.02c-4.84-2.32-15.9,2.61-7.59,7.35,4.3,2.45,9.88-2.69,7.59-7.35Z" style="fill: #eaddb7;"/>
  <path d="M240.96,522.76c.09.72,1.43,3.21,1.19,3.31-2.4.33-1.8-2.13-2.98-3.29-5.05,6.51-14.35-2.82-10.27-8.36.32-.44,4.64-3.5,5.16-3.75,4.02-1.92,6.71,6.83,7.21,9.56.18.99-.38,1.89-.3,2.53ZM238.63,520.05c-1.05-4.42-3.95-2.33-6.22-5.43-5.74,4.38,2.17,11.63,6.22,5.43Z" style="fill: #eaddb7;"/>
  <path d="M543.54,365.94c-.02.34-5.77,2.52-6.32,2.59-1.86.23-6.36-1.42-8.93-1.45-4.33-.06-6.88,1.91-10.77,2.57-3.27.56-9.05,1.23-11.07-1.95,3.06-3.16,6.25.52,10.63-.3,2.66-.5,4.52-2.41,6.51-2.77,2.83-.52,10.1.99,13.56.79,2.31-.14,5.26-2.22,6.39.53Z" style="fill: #eaddb7;"/>
  <path d="M176.2,622.91c-.05.53-1.14,5.8-1.29,6.07-1.05,1.88-5.63,5.28-6.72,6.83-.56.79.63,3.13-1.02,3.92-3.2-2.94-2.26-5.72.08-8.77,1.79-2.33,5.74-4.53,5.54-7.83-.12-1.98-4.75-6.11,2.22-5.48,1.15.94,1.32,3.85,1.19,5.26Z" style="fill: #eaddb7;"/>
  <path d="M528.38,489.42c.7-.63,4.05-1.04,3.03-2.78-1.92-3.28-6.84,3.96-8.77,5.15-3.27,2-9.86,1.43-13.85,3.26-1.99.91-4.7,2.66-6.79,3.9.01.09.03.18.04.27.12.67.28,1.32.41,1.98,2.93-1.58,5.4-3.48,8.69-4.59,4.73-1.59,10.69-.1,14.64-3.69,1.24-1.13,1.72-2.7,2.6-3.5Z" style="fill: #eaddb7;"/>
  <path d="M916.3,5.77c.65,5.7-5.75,9.59-10.57,5.75-4.81-3.83-1.3-8.38,2.77-10.76,3.93-2.3,7.34,1.01,7.8,5.01ZM914.06,6.55c-.1-1.27-3.57-3.6-4.73-3.29l-3.79,4.34c1.17,4.84,8.83,2.86,8.52-1.04Z" style="fill: #eaddb7;"/>
  <path d="M672.73,440l.42,2.19c-5.82-.05-9.31-4.47-14.08-7.11-1.72-.96-5.58-2.74-7.43-3.5-2-.82-7.06-.45-2.81-4.47.89-.23,14.47,7.51,16.45,8.7,2.43,1.47,3.94,3.92,7.45,4.18Z" style="fill: #eaddb7;"/>
  <path d="M269.76,439.43c4.91.22,7.08,6.7,3.54,9.34-5.72,4.26-15.68-2.09-9.9-6.84.94-.77,5.14-2.56,6.36-2.5ZM272.99,445.41c-2.03-2.47-4.91-3.94-7.61-1.67-4.25,3.58,5.76,5.84,7.61,1.67Z" style="fill: #eaddb7;"/>
  <path d="M201.78,596.65c-3.18-1.92.77-6.77,2.71-8.32,3.56-2.85,8.71-1.52,11.91-3.83,1.84-1.33,2.2-2.98,3.74-4.41,1.32-.68,3.65,1.63,2.43,2.95-.52.56-5.73,4.53-6.48,4.98-2.6,1.55-8.23.53-10.8,2.63-1.9,1.55-2.36,4.02-3.51,6.01Z" style="fill: #eaddb7;"/>
  <path d="M538.19,402.61c.12,1.63-12.61.8-13.92.35-1.53.03-9.19.99-9.87.63-1.71-.9-1.72-2.84.33-3.04,4.62.51,9.31.52,13.94.67,2.91.09,7.08-1.32,9.51,1.39Z" style="fill: #eaddb7;"/>
  <path d="M554.43,401.74c-.02-.09.76-1.49.95-1.62.78-.56,2.74.26,3.84-.33s4.09-3.18,4.14-4.55c.04-1.15-1.83-2.01.29-3.9,1.33-1.18,2.93.45,3.21,1.95.4,2.14-3.97,7.3-5.67,8.56-1.24.92-6.47,1.55-6.77-.11Z" style="fill: #eaddb7;"/>
  <path d="M709.96,452.71c-3.34-2.82-1.67-7.52-2.04-10.7-.2-1.68-3.11-7.16.26-7.48,5.14.8,1.12,7.08,1.42,10.97.22,2.88,3.11,5.24.35,7.21Z" style="fill: #eaddb7;"/>
  <path d="M403.4,531.03c-1.86.03-3.6-2.92-2.24-3.83.34-.23,3.88.37,5.44.06,4.71-.95,7.7-4.13,11.86-5.67-1.84,6.3-10.07,6.7-15.06,9.44Z" style="fill: #eaddb7;"/>
  <path d="M361.93,595.77c-3.2,4.7-9.19,6.88-14.73,6.9,1.2-5.08,2.71-3.26,6.09-4.15,2.33-.61,4.73-2.63,6.89-3.13.78-.18,1.17-.47,1.75.39Z" style="fill: #eaddb7;"/>
  <path d="M311.43,419.08c-1.01,1.99-4.02.9-5.15,1.54-1.94,1.1-4.67,4.16-6.44,5.73-3.53-2.36,1.6-4.47,2.96-5.67,2.68-2.34,5.94-7.28,8.63-1.6Z" style="fill: #eaddb7;"/>
  <path d="M265.59,409.19c1.37-1.95,4.24-1.33,5.87-3.01,1.83-1.89.41-5.19,2.8-6.78,3.89,1.89-.1,7.84-2.29,9.6-1.4,1.13-5.31,2.38-6.38.19Z" style="fill: #eaddb7;"/>
  <path d="M665.5,377.93c1.78,3.37-5.52,1.97-7.31,1.96-1.2,0-5.88.53-6.19.47-1.44-.31-1.8-2.71-.47-3.16,2.9-.98,10.42,1.69,13.97.73Z" style="fill: #eaddb7;"/>
  <path d="M580.66,381.71c-2.56-2.87.34-3.65,1.43-5.66,1.45-2.65,1.22-5.94,3.28-8.01,4.03,1.58-3.94,13.61-4.72,13.66Z" style="fill: #eaddb7;"/>
  <path d="M229.79,451.1c2.78-2.66,7.03-4.17,5.41-8.81,2.25-1.29,3.63.9,3.07,3.11-.63,2.54-4.24,4.96-5.94,6.94l-2.54-1.24Z" style="fill: #eaddb7;"/>
  <path d="M224.56,509.99c-3.5-.13,2.4-8.79,3.15-9.59,1.91-2.04,3,1.02,2.57,1.96-.9,1.97-5.08,4.64-5.72,7.63Z" style="fill: #eaddb7;"/>
  <path d="M368.47,568.64c.53-1.72.32-3.4-1.62-1.94-1.42,1.08-3,3.55-4.89,4.89-2.22,1.57-11.46,4.72-12.93,7.61.35.71.89,1.35,1.43,1.52.7.22,1.53-.31,2.25-.87.04-.08.08-.17.14-.25,1.44-1.98,3.59-3.47,5.97-4.28,1.21-.97,2.58-1.75,4-2.31.96-.38,1.96-.6,2.94-.87,1.32-1.13,2.35-2.35,2.7-3.5Z" style="fill: #eaddb7;"/>
  <path d="M381.29,550.82c-4.21,4.89-2.86-1.27-4.18-3.28-.97-1.48-2.66-2.46-3.72-3.88-1.47-1.98-2.6-4.32-4.18-6.25-.64-.79-1.87-1.08-2.17-1.54-.89-1.33,1.18-3.99,2.93-2.33,1.42,2.33,3.31,6.67,5.04,8.55,1.17,1.28,2.62,1.67,3.96,3.48,1.14,1.54,1.39,3.6,2.31,5.24Z" style="fill: #eaddb7;"/>
  <path d="M380.25,448.6l1.04.14c11.83-5.06,22.5-13.18,34.73-17.48,3.23-1.14,7.29-2.58,8.94,1.81,1.13,3.02-5.38,6.73-7.55,8.1-8.98,5.66-29.17,14.71-39.46,16.91-2.58.55-5.66.6-6.54-2.49-1.28-4.49,6.55-4.55,8.85-6.98ZM377.28,454.57c2.25-.37,6.3-.83,8.28-1.59,8.76-3.39,22.14-8.45,29.87-13.6.93-.62,6.49-4.37,5.28-5.51-1.73,0-3.32-.15-5.01.37-5.53,1.71-11.72,5.93-16.83,8.54-7.29,3.73-14.91,7.01-21.59,11.79Z" style="fill: #eaddb7;"/>
  <path d="M367.3,458.23c.83-.04,1.63-.46,2.51-.3.76,3.98.42,4.31-2.55,6.92-3.67,3.24-17.65,12.38-22.13,13.31-3.19.66-6.73-2.59-4.75-5.29.37-.5,5.44-4.15,6.45-4.88,5.71-4.09,13.54-9.43,20.47-9.76Z" style="fill: #eaddb7;"/>
  <path d="M354.84,437.67c-2.11.03-4.18-1.15-4.09-3.52.13-3.27,4.21-3.52,6.79-5,8.17-4.69,16.18-11.62,24.8-15.23,2.03-.85,6.05-2.73,8.08-1.91,3.01,1.22,4.43,4.23,2.11,6.83-1.8,2.02-10.86,7.96-13.56,9.62-5.46,3.36-17.77,9.13-24.14,9.21Z" style="fill: #eaddb7;"/>
  <path d="M341.97,439.92c.65.53,1.38,2.61,1.19,3.34-.51,1.94-6.46,5.84-8.36,6.25-2.82.61-4.84-4.15-2.89-6.12.33-.34,6.52-4.26,6.91-4.38.81-.26,2.52.4,3.16.92Z" style="fill: #eaddb7;"/>
  <path d="M557.2,438.76c0,2.81-15.11,1.14-17.19,1.04-1.75-.08-3.08,1.25-4.69-.29-1.27-1.23-.98-2.72.75-3.2.37-.1,1.45,1.24,2.71,1.55,4.8,1.15,11.31-.12,16.27.33.8.07,1.56-.33,2.14.57Z" style="fill: #eaddb7;"/>
  <path d="M585.43,433.54l.32,1.15-1.78-1.03-1.91,2.04h-1.14s-1.18-1.15-1.18-1.15l.07-1.47c2.6-.43,3.53-2.82,5.61-4.08l2.79,2.37-2.78,2.17Z" style="fill: #eaddb7;"/>
  <path d="M610.24,406.1l1.41,2.06c.21,1.24-6.74,5.18-6.99,7.71-1.43-.53-.95-3-.28-3.7l5.86-6.07Z" style="fill: #eaddb7;"/>
  <path d="M659.87,410.5l-1.52,1.57,1.86,2.54-.12,1.04-1.25.65c-3.44-4.97-10.58-7.59-16.26-9.17-1.12-.31-2.91,0-3.51-.35-.82-.48-1.9-2.85-1.63-3.76.9-3.04,3.18-.68,5.04-.25,5.16,1.18,6.27,1.97,10.93,4.28,2.24,1.11,4.85.96,6.47,3.45Z" style="fill: #eaddb7;"/>
  <path d="M670.93,404.05c-.56-.08-1.39.61-2.11.39-2.15-.66-2.06-2.53-.28-3.68,2.03,1.54,4.54,1.84,6.83,2.7,3.52,1.32,12.88,4.88,15.63,6.63,3.2,2.04,2.69,4.06-1.1,2.54-5.38-2.15-13.17-7.77-18.96-8.58Z" style="fill: #eaddb7;"/>
  <path d="M690.89,431c-.1.67-1.2,1.24-2.1.82-3.93-1.84-7-5.68-11.77-6.94-1.77-.47-3.98.38-4.65.06-1.63-.79-3.49-3.44-1.26-4.42,1.58-.69,3,1.24,4.3,1.8,4.9,2.12,7.46,3.1,12.13,6.1.73.47,3.59,1.01,3.34,2.59Z" style="fill: #eaddb7;"/>
  <path d="M222.51,555.04c-.36.05-1.67-.39-1.42-1.17.59-2.35,4.71-2.72,6.9-3.75,2.74-1.28,8.56-4,10.74-5.66,1.94-1.48,4.13-6.51,5.76-.45l-1.1,1.4-20.89,9.63Z" style="fill: #eaddb7;"/>
  <path d="M627.58,356.89c-.17.86-1.51,1.57-2.37,1.81-.58.16-11.41.21-11.99.07-3.21-.81-2.38-4.01.28-4.93,3.67.61,9.31-1.94,12.43.57.49.39,1.74,2.06,1.66,2.48Z" style="fill: #eaddb7;"/>
  <path d="M660.16,355.93c.08,1.85-7.51.68-8.68.71-2.13.06-6.26.08-8.12.42-1.52.28-3.91,1.65-4.6,1.6-1.01-.08-2.57-1.33-2.41-2.41.3-2.12,3.08-.74,4.27-.81,5.66-.33,11.36-.71,16.99-1.32l2.55,1.8Z" style="fill: #eaddb7;"/>
  <path d="M301.28,509.96c.04.14.52,2.58.52,2.72-.02.43-.67.98-.69,1.74-.05,2.82,1.85,2.1-.67,5.86-3.21,4.78-11.31,2.98-13.8-1.47-.54-.97.62-9.27,1.1-10.18,2.5-4.67,11.7-4.46,13.54,1.33ZM296.95,511.54c.71-1.46-.53-1.71-1.61-2.32l-.37.38,1.98,1.94ZM290.78,512.35l2.05-3.32c-1.66-.19-3.68,1.84-2.05,3.32ZM290.06,514.7c-2.52,3.41,2.98,5.58,5.75,5.6l2.43-2.92-5.2.6-2.98-3.28Z" style="fill: #eaddb7;"/>
</svg>