<?xml version="1.0" encoding="UTF-8"?>
<svg id="Layer_1" data-name="Layer 1" xmlns="http://www.w3.org/2000/svg" viewBox="0 0 63.27 199.15">
  <path d="M32.74,146.65c-.17,0-.34,0-.51-.02-7.62-.52-12.13-12.39-19.44-33.33-4.31-12.33-10.2-29.21-12.03-51.12-1.45-17.47-.5-37.04-.03-44.64.01-.23.02-.37.02-.41v-.12s.07-.11.07-.11C2.61,13.81,9.46,3.55,23.17.65c1.62-.34,16.17-3.08,27.42,6.1,9.51,7.77,10.87,19.24,12.18,30.33,1.07,9.02.31,13.78-1.19,23.25-.79,4.95-1.77,11.12-2.81,19.87-.97,8.16-1.51,14.54-1.95,19.68-1.04,12.26-1.57,18.42-6.1,27.49-2.66,5.32-9.63,19.29-17.97,19.29ZM1.76,17.28c0,.08-.01.18-.02.31-.47,7.58-1.42,27.09.02,44.5,1.81,21.79,7.69,38.6,11.97,50.88,6.52,18.67,11.23,32.17,18.56,32.67h0c7.95.54,15.14-13.96,17.52-18.72,4.45-8.9,4.93-14.61,6-27.13.44-5.14.98-11.54,1.95-19.71,1.04-8.77,2.03-14.95,2.81-19.91,1.49-9.38,2.24-14.09,1.19-22.97-1.29-10.9-2.63-22.16-11.82-29.67C39.07-1.37,24.95,1.29,23.37,1.62,10.22,4.41,3.57,14.18,1.76,17.28Z"/>
  <path d="M35.61,199.15c-2.61,0-4.78-.66-5.97-1.03-5.05-1.54-7.92-4.65-10.23-7.14-3.46-3.73-6.45-6.96-6.13-11.38.24-3.36,2.33-6.51,6.2-9.37,2.99-2.21,5.94-2.82,7.19-3.09,6.31-1.34,11.98-.27,16.4,3.09,2.17,1.65,7.22,6.25,7.2,13.4-.02,6.23-3.85,12.18-9.31,14.46-1.87.78-3.7,1.05-5.35,1.05ZM31.79,167.59c-1.58,0-3.22.18-4.92.54-1.2.25-3.99.83-6.81,2.91h0c-1.35,1-5.46,4.03-5.8,8.63-.29,3.99,2.43,6.92,5.87,10.62,2.23,2.41,5,5.4,9.78,6.86,2.02.62,6.19,1.89,10.66.02,5.1-2.13,8.67-7.7,8.69-13.54.02-6.7-4.75-11.04-6.8-12.6-3.01-2.28-6.64-3.45-10.68-3.45Z"/>
  <path d="M21.72,121.94c-3.93-10-7.24-20.31-9.86-30.73,3.93,10,7.24,20.31,9.86,30.73h0Z"/>
</svg>