<?xml version="1.0" encoding="UTF-8"?>
<svg id="Layer_1" data-name="Layer 1" xmlns="http://www.w3.org/2000/svg" viewBox="0 0 1019.9 1453.21">
  <path d="M943.76,1207.97c-2.49-6.14-5.68-11.82-7.43-18.4-.81-3.05-.63-6.57-2.03-9.45-.73-1.5-3.89-6.17-5.05-7.35-3.17-3.2-11.97-3.27-16.26-5.57-4.4-2.36-6.98-6.42-10.45-9.59-5.95-5.44-16.54-15.11-23.23-18.98-1.84-1.07-4.43-1.2-5.8-2.13-1-.68-1.69-2.18-2.3-2.49-.89-.46-2.15.5-3.21.55-1.69.08-4.81-1.08-6.92-1.25-5.35-.43-11.01-.05-15.88,2.35-11.97,5.89-13.93,12.78-29.92,10.8-15.57-1.92-22.74-13.99-33.33-23.27-4.24-3.71-16.61-4.05-21.91-2.79-20.39,4.84-41.18,4.53-58.1-8.94-8.92-7.1-17.45-14.59-26.64-21.29-17.33-12.64-36.56-18.5-53.75-30.45-5.22-3.63-13.81-9.13-18.32-13-3.93-3.37-7.88-8.53-11.77-11.77-1.98-1.65-5.53-3.38-7.86-5.19-2.61-2.03-5.16-4.98-7.88-6.89-15.42-10.83-39.7-10.57-57.65-8.95-5.89.53-13.94-.37-16.99,5.93-2.41,4.99,2.9,16.06,1.29,19.54-.76,1.64-3.15,2.67-4.45,4.07-.78.84-2.89,3.55-3.47,4.49-3.57,5.77-1.84,12.3-.93,18.59-1.64-.62-2.48-1.8-4.16-2.49-7.22-3.01-20.03-4.3-28.18-6.49-1.82-.49-4.12-1.86-6.05-2.39-12.68-3.48-31.73,3.47-42.62,10.16-2.99,1.84-1.2,4.1-1.01,6.27,1.04,11.84,8.65,30.34,16.05,39.81,9.49,12.12,29.29,19.57,42.34,27.48,13.78,8.35,20.45,22.32,29.31,35.38,5.11,7.54,10.29,15.34,16.13,22.56,3.07,3.8,9.3,11.95,12.77,14.67,1.02.8,3.09,1.39,4.56,2.42,2.53,1.77,4.9,4.51,7.36,6.35,7.75,5.81,15.72,7.36,24.19,11.46,15.62,7.55,33,18.69,47.83,27.7,9.98,6.06,14.74,12.59,22.97,20.46,1.53,1.46,3.63,2.51,5.34,4.09,5.08,4.68,9.92,12.67,12.82,18.94,9,19.45,17.34,39.84,25.68,59.74,4.79,11.43,9.06,23.39,16.52,33.39,1,.7,1.66,1.66,2.31,2.71.8,1.28,1.71,2.47,2.67,3.63,1.23,1.48,2.48,2.94,3.55,4.53l.06-.3c.83,1.44,1.79,2.83,2.95,4.03,11.08,11.47,28.54,15.78,44.13,16.25,14.81.45,27.7-5.73,41.35-10.55,9.44-3.34,20.78-6.27,29.32-11.36,4.82-2.87,9.41-6.62,14.04-9.69.02-.01.04-.03.06-.04.5-.58,1.03-1.15,1.58-1.68l-.13-.05c.12-.07.24-.12.37-.18,1.18-1.12,2.47-2.13,3.82-3.03,1.55-1.03,3.06-2.02,4.48-3.22,1.33-1.13,2.67-2.23,4.21-3.07,1.7-.92,3.39-1.73,4.98-2.85,1.46-1.02,2.84-2.15,4.15-3.35,2.08-1.89,4.12-3.91,6.01-6.03.01-.03.02-.05.03-.08,0,0,.01.02.02.02.52-.58,1.02-1.16,1.51-1.76,1.13-1.37,2.18-2.78,3.48-4,.43-.4.9-.77,1.37-1.12,1.47-2.61,2.31-4.96,4.67-7.82,3.52-4.27,9.36-12.12,13.41-15.17,7.36-5.55,17.02-9.62,25.02-14.71.99-.63,2.25-.78,3.31-1.59.8-.61.36-1.5.64-1.61,6.27-2.44,12.78-5.25,18.89-8.15l-.09,1.07,1.98-.27c-.16-.77-.87-1.17-1.58-.94,1.52-.67,4.2-1.55,4.78-1.9.32-.19.04-.87.27-1.16,2.44-3.06,4.08-3.63,4.65-8.01,2.03-15.76-8.28-30.25-5.07-47.21,1.66-8.77,7.86-14.35,9.98-22.95.83-3.36-.28-3.66-.53-6.18-.07-.75.79-1.47.51-2.42-.26-.89-3.99-5.04-4.91-6.87-1.81-3.59-2.46-7.51-3.87-11ZM495.97,1048.59c2.18-3.65,7.33-6.37,8.45-9.45,1.42-3.92-.61-6.26-1.18-10,1.06-.41.7,1.6.96,2.01.25.4,1.11.12,1.38.33.68.52,3.59,4.9,4.06,5.87,1.47,2.99-.35,2.94-1.06,5.05-.46,1.34-.04,2.61-.99,4.05-1.23,1.86-4.05,4.06-5.35,6.11-1.36-.76,2.73-7.12,3.35-8.08,1.18-1.85,2.06-.97,1.86-4.42-.18-3.1-1.41,1.43-1.51,1.6-4.6,8.03-7,8.87-6.33,19.29.27,4.2,1.22,5.6,2.42,9.22.17.51.84,1.41-.22,1.39-1.01-.02-4.87-2.69-5.47-3.79-2.68-4.84-3.29-14.31-.38-19.17ZM642.51,1111.27c1.5,1.05,3.3,1.33,4.61,2.29,3.14,2.29,4.94,6.44,7.41,9.42-.31,3.21-2.11,9.49-5.86,9.79-2.77.22-9.87-2.27-12.96-2.82-3.25,1.21-12.9-1.23-14.92-.81-10.67,2.19-16.49,12-28.51,12.79-8.01.52-18.44-3.02-26.31-4.69-1.25-.27-2.85.18-4.4-.16-8.24-1.79-23.31-12.46-28.35-19.2-6.72-8.98-13.04-19.89-18.73-29.58-1.45-2.47-4.71-5.14-6.41-7.72-2.11-3.2-4.96-11.55-5.83-15.55-.6-2.74-1.47-7.97.23-10.33,1.47-2.04,4.51-3.66,5.79-5.36.22-.29,3.34-6.01,3.44-6.36.26-.89.03-1.62-.14-2.48l2.14-1.16c-2.23-7.93,13.46-10.36,19.03-10.74,15.33-1.03,24.56,7,37.15,13.37,3.2,1.62,6.92,2.64,10.11,4.27,16.36,8.32,30.3,32.07,44.31,44.79,1.7,1.54,6.45,4.25,7.63,5.71,1.11,1.37.79,3.07,1.4,4.53.98,2.35,6.98,8.46,9.19,10.01ZM655.65,1121.6c-1.19-2.25-3.99-6.58-5.84-8.25-2.08-1.87-4.66-2.49-6.57-3.84-3.51-2.48-7.83-7.3-9.11-11.44,7.09,2.18,12.46,7.76,19.3,10.25,5.17,1.88,10.64,1.92,15.84,3.48,5.51,1.66,14.62,7,17.92,11.75,1.95,2.8,3.13,4.96-.44,7.08-6.33,3.75-13.38,4.56-20.62,4.82-2.55.09-10.92-.77-12.97-1.92-.76-.42-.62-.08-.37-.91.25-.83,1.36-2.15,1.82-3.33.88-2.25,2.21-5.49,1.03-7.7ZM949.22,1224.83c-.03,3.3.54,2.34,1.28,5.39,1.38,5.68-3.9,12.27-6.3,17.06-4.55,9.11-5.21,18.71-3.23,28.79,1.55,7.89,5.75,20.34,4.28,28.26-1.46,7.82-8.37,8.99-14.6,11.68-9.47,4.08-11.77,6.83-19.71,12.13-8.88,5.92-20.03,7.88-27.05,16.46-9.68,11.84-16.08,21.85-27.88,32.12-9.81,8.54-23.75,18.81-34.84,25.81-12.77,8.07-36.31,14.99-51.18,19.26-15.31,4.4-35.76,4.39-49.6-4.23-.02,0-.03-.02-.05-.03-1.42-.13-2.93-.76-4.22-1.69h-.02s-.08-.06-.12-.1c-.48-.35-.92-.74-1.31-1.17-1.95-1.62-4.08-3.01-5.86-4.83-8.47-8.67-16.56-20.17-21.37-31.2-7.94-18.23-16.5-36.64-24.39-54.97-6.18-14.35-10.1-29.74-21.79-40.83-9.45-8.96-20.89-20.99-31.94-27.42-19.18-11.15-38.36-21.75-58.72-30.58-18.7-8.11-36.24-30.25-47.33-46.9-3.13-4.71-6.42-9.34-9.68-14.06-6.88-10.01-10.2-17.71-20.8-24.71-14.49-9.57-35.35-16.49-45.68-31.02-5.23-7.36-13.85-28-14.08-36.93-.11-4.31,3.58-4.31,6.44-2.13,2.68,2.04.78,1.95.72,3.68-.09,2.56.48,11.08,1.58,13.01.63,1.1,2.04,1.45,2.66,2.35,7.42,10.74,17.23,23.78,28.04,31.35,9.61,6.73,22.25,11.26,32.51,17.29,10.51,6.18,26.73,23.08,32.11,34.05,1.94,3.96,2.64,9.34,4.65,12.75,1.1,1.86,5.17,6.53,6.8,8.54,10.39,12.78,25.71,25.45,43.26,23.55,3.72-.4,3.7-.78,5.99-3.06.76-.76,2.31-.8,2.15-2.44-.21-2.2-1.66-6.33-2.25-8.78-3.91-16.1-21.51-30.16-33.42-41.08-9.28-8.51-17.69-22.6-21.99-34.27-5.32-14.42-15.5-24.13-26.69-34.46-6.39-5.9-13.08-13.19-22.27-13.34-6.14-.1-7.99.82-14.34-1.31-7.62-2.55-16.4-6.88-24.22-8.75-6.53-1.55-13.44,1.93-18.54-3.26,1.98.05,2.92-1.57,4.54-2.36,6.75-3.28,22.95-7.77,30.31-6.51,3.21.55,6.83,2.58,10.08,3.46,7.1,1.94,15.1,2.71,22.22,4.69,6.27,1.74,18.43,8.77,21.96,14.17,6.45,9.86,13.01,19.8,19.74,29.76,3.43,5.07,6.14,10.56,10.27,15.3,5.39,6.19,14.2,9.41,20.96,14.03,9.62,1.41,19.79,4.86,29.32,6.15,2.86.39,11.65.26,14-.7,7.02-2.87,13.45-10.44,21.84-11.8,1.2-.19,3.05,1.12,4.7,1.19,1.76.07,3.37-.46,5.03-.43,8.85.14,18.86,4.08,27.57,5.24,4.18.55,16.36.13,20.43-.75,3.22-.7,14.94-5.68,12.43-9.9-5.08-6.47-11.04-12.4-18.79-15.48-6.88-2.74-15.78-2.28-22.5-5.78-1.16-.61-10.46-6.35-10.91-6.81-.67-.7-.34-1.42-1.29-2.14-1.35-1.02-5.61-1.78-7.91-3.36-14.62-10.04-27.45-30.28-41.13-42.62-5.53-4.98-10.09-5.64-16.29-8.58-11.42-5.41-19.41-12.92-32.83-14.35-7.24-.77-23.71,1.05-28.52,6.69-.74.86.29,2.1-1.15,2.26l-3.22-5.46c.29-.87,11.68-5.45,13.49-6.03,5.96-1.94,12.38-2.47,18.57-1.65,5.28.7,10.21,3.12,15.47,3.92,2.37.36,5.12.1,7.24.49,3.49.65,6.27,3.8,9.73,3.82-.22-.88-.54-1.33-1.25-1.87-.29-.22-6.04-2.92-6.52-3.06-3.44-.97-8.16-.7-11.7-1.4-12.42-2.45-18.24-6.03-31.66-1.75-3.57,1.14-8.35,4.05-11.68,4.7-1.9.37-2.73-2.09-4.19.66-5.84-8.53,1.78-11.17,9.2-12.48,14.51-2.57,41.77-2.16,55.04,4.56,4.58,2.32,6.65,5.25,10.22,7.99,4.31,3.31,13.92,8.81,16.97,13.17.66.95.35,1.98.75,2.51.36.48,1.31.17,1.75.5,2.42,1.83,3.68,3.79,6.79,5.73,11.67,7.25,22.8,16.04,35.17,22.45,4.91,2.55,10.38,4.39,15.29,6.94,10.22,5.31,20.66,13.15,29.71,20.41,14.62,11.72,19.68,20.07,39.51,23.63,10.34,1.86,21.04,2.01,31.36-.17,4.19-.89,7.1-2.66,11.83-2.44,12.17.58,15.78,6.4,23.33,14.35,7.72,8.12,22.03,14.06,33.35,12.69,10.16-1.23,16.11-10.05,25.52-12.74,3.56-1.02,15.9-.65,19.47.4.41.12,6.04,2.82,7.24,3.36,4.84,2.18,18.91,14.13,23.16,18.26,3.8,3.69,5.94,7.49,10.89,10.31,4.45,2.53,13.53,3.1,16.58,5.68,5.41,4.59,6.87,15.93,9.09,22.39,2.28,6.62,6.2,16.77,9.29,22.96.96,1.93,3.14,3.69,3.12,5.76ZM533.56,1150.37c8.27,11.65,20.39,19.51,29.94,30.38,5.02,5.71,10.22,13.31,12.49,20.59.89,2.85,1.38,5.91,1.96,8.84-8.77,3.78-17.32-3.81-23.25-9.54-6.37-6.16-11.51-13.24-19.08-18.23-2.87-1.9-7.71-3.27-10.43-5.25-1.18-.86-1.91-2.41-2.83-2.98-.65-.41-1.78-.17-2.33-.65-.67-.59-3.2-6.56-4.29-8.32-5.43-8.77-19.59-23.51-28.31-28.97-14.88-9.32-32.44-13.98-44.7-27.18-4.28-4.61-8.53-10-12.3-14.89-4.31-5.59-9.07-13.28-8.29-20.65.34-3.2,2.05-4.34,5.17-4.49,5.37-.25,16.39,3.34,21.8,5.24,5.67,1.98,10.67,5.74,16.96,6.11,10.12.59,11.77-1.58,20.69,5.65,10.08,8.16,28.3,24.99,33.12,36.76.48,1.17.25,2.35.62,3.27,3.46,8.72,7.61,16.64,13.07,24.33ZM521.26,1177.19c5.97,2.65,11.86,5.39,17.07,9.35,11.06,8.41,18.27,22.05,32.04,26.74-15.91,1.82-30.2-9.25-39.7-20.96-2-2.47-7.2-9.15-8.43-11.74-.5-1.06-.36-2.35-.98-3.39Z" style="fill: #eaddb7;"/>
  <path d="M467.67,1171.4l-.69.52c.57-.09,1.13-.08,1.68.04-5.01-5.65-11.57-9.55-18.31-12.84-7.31-3.57-6.64-2.92-14.35-3.48-3.24-.24-6.47-1.36-9.71-1.68-8.72-.86-18.19,0-26.91-1.53-2.06-.36-15.51-3.69-16.43-4.3-1.16-.77-2.07-3.63-4.05-2.28,1.04,1.87,3.58,4.08,5.59,4.82,1.75.65,3.77.23,5.69.64,4.95,1.06,8.26,2.77,13.87,3.29,15.26,1.42,34.28-.24,48.1,6.88,3,1.55,10.41,5.64,12.29,7.2,1.01.83,1.68,2.34,3.24,2.72Z" style="fill: #eaddb7;"/>
  <path d="M697.41,201.1l-.69.52c.57-.09,1.13-.08,1.68.04-5.01-5.65-11.57-9.55-18.31-12.84-7.31-3.57-6.64-2.92-14.35-3.48-3.24-.24-6.47-1.36-9.71-1.68-8.72-.86-18.19,0-26.91-1.53-2.06-.36-15.51-3.69-16.43-4.3-1.16-.77-2.07-3.63-4.05-2.28,1.04,1.87,3.58,4.08,5.59,4.82,1.75.65,3.77.23,5.69.64,4.95,1.06,8.26,2.77,13.87,3.29,15.26,1.42,34.28-.24,48.1,6.88,3,1.55,10.41,5.64,12.29,7.2,1.01.83,1.68,2.34,3.24,2.72Z" style="fill: #eaddb7;"/>
  <path d="M632.7,1431.15c-1.35,0-3.56.82-4.71,1.54-.7.43-.94,1.3-1.89,1.83-.98.54-2.27.5-3.1.97-3.25,1.83-2.47,8.76-1.35,11.67,1.3,3.38,7.51,6.64,11.04,5.98,2.08-.39,8.08-2.88,9.06-4.75,1.68-3.22-4.53-17.25-9.05-17.23ZM639.98,1444.63c.18.39.3.76.37,1.1.08.11.15.31.22.67-.04,0-.09,0-.13,0,.03.97-.36,1.73-1.01,2.33l.07.18-.64.26c-.95.63-2.22,1.01-3.52,1.21-.48.41-.94.71-1.37.81-.28-.26-.54-.47-.78-.64-.66,0-1.28-.03-1.82-.1-.29-.04-.57-.08-.86-.13.4.44.86.81,1.89.43.35.54.02.56-.49.73-2.98.97-7.46-2.12-8.53-4.93,0,0,0-.01,0-.02-.6-.72-1.24-1.68-1.06-2.64.13-.72.58-1.1,1.14-1.28.61-1.85.96-3.99,2.03-5.4,1.18-1.56,5.2-4.58,7.22-4.3,3.04.42,7.08,8.52,7.47,11.19.03.19-.06.36-.2.53Z" style="fill: #eaddb7;"/>
  <path d="M586.46,964.64l-4.31.96c3.84,1.72,10.73,4.56,13.77.45.62,2.01-1.43,2.75-2.96,3.06-4.8.99-16.82-3.08-20.42-6.33-2.47-2.22-4.4-5.81-6.8-7.66-2.69-2.07-13.76-7.53-16.95-7.38-.59.03-1.13.77-1.87.89-1.1.18-3.07-.14-3.92-.93,1.18-.8,2.94.95,3.6-.15-2.75-2.04-4.91.39-7.71-.27-1.28-2.77,3.28-2.27,5-2.12,6.1.53,18.44,4.79,23.14,8.67,2.98,2.46,5.28,7.56,8.69,9.37.31.16,4.3,1.58,4.54,1.59,1.8.07,5.08-2.22,6.2-.14Z" style="fill: #eaddb7;"/>
  <path d="M852.03,853.95c-.17,1.36-.43,2.77,0,4.14.39,1.24,1.69,1.23,1.75,2.49-5.31-1.89-3.99-6.6-.63-9.89,4.28-4.2,8.96-6.26,14.94-4.09,3.19,1.16,8.44,5.44,8.52,9.03.11,4.91-7.23,9.64-11.77,9.47-1.53-.06-7.92-2.95-9.06-4.01-2.04-1.9-1.39-5.66-3.75-7.14ZM853.84,852.75l2.02.51c-3.43,5.95,6.48,11.75,11.21,10.61,1.98-.48,7.36-4.59,7.71-6.61,1.16-6.69-8.58-11.74-14.27-9.99-2.33.72-4.44,3.19-6.48,4.44l-.19,1.03Z" style="fill: #eaddb7;"/>
  <path d="M172.82,8.23c-.17,1.36-.43,2.77,0,4.14.39,1.24,1.69,1.23,1.75,2.49-5.31-1.89-3.99-6.6-.63-9.89,4.28-4.2,8.96-6.26,14.94-4.09,3.19,1.16,8.44,5.44,8.52,9.03.11,4.91-7.23,9.64-11.77,9.47-1.53-.06-7.92-2.95-9.06-4.01-2.04-1.9-1.39-5.66-3.75-7.14ZM174.62,7.03l2.02.51c-3.43,5.95,6.48,11.75,11.21,10.61,1.98-.48,7.36-4.59,7.71-6.61,1.16-6.69-8.58-11.74-14.27-9.99-2.33.72-4.44,3.19-6.48,4.44l-.19,1.03Z" style="fill: #eaddb7;"/>
  <path d="M1014.5,1227.26c-2.24-1.21-6.18-2.01-8.32-.24-.97.8-.37,2.01-.73,3.04-.83,2.35-2.13,2.85-.65,5.97,2.95,6.21,7.93,8.84,14.2,4.99,2.03-5.27.72-10.95-4.5-13.76ZM1011.69,1240.91c-3.6-1.13-5.17-4.85-5.2-8.37l.91-.15c.04-.86.33-1.67.88-2.32l-.46-.68c1.56-1.36,2.94-1.41,4.13-.7,1.18.1,2.28.64,2.95,1.56l.3-.71c4.21,3.47,3.97,13.71-3.51,11.36Z" style="fill: #eaddb7;"/>
  <path d="M558.26,881.07c6.62-1.98,10.85,8.17,6.77,12.77-.49.55-3.15,2.39-3.83,2.65-5.06,1.98-8.17-3.66-10.08-7.53,1.13-2.6,4.31-7.04,7.14-7.89ZM564.04,892.84c2.57-3.22-.34-9.56-4.3-10.6-3.58.57-6.44,4.57-5.53,8.1.38,1.46,3.23,5.17,4.69,5.21.92.02,4.6-2.04,5.14-2.71Z" style="fill: #eaddb7;"/>
  <path d="M66.75,622.72c6.62-1.98,10.85,8.17,6.77,12.77-.49.55-3.15,2.39-3.83,2.65-5.06,1.98-8.17-3.66-10.08-7.53,1.13-2.6,4.31-7.04,7.14-7.89ZM72.54,634.49c2.57-3.22-.34-9.56-4.3-10.6-3.58.57-6.44,4.57-5.53,8.1.38,1.46,3.23,5.17,4.69,5.21.92.02,4.6-2.04,5.14-2.71Z" style="fill: #eaddb7;"/>
  <path d="M298.71,1062.68c-1.66-.99-3.86.36-5.31,1.1,1.22-4.78,8.33-2.53,10.55.15s3,6.59,2.46,10.03c-4.33,3.05-10.48,3.94-11.85-2.42-.56-2.6,1.27-8.13,4.14-8.86ZM300.01,1065.74c-2.03-2.95-3.91,2.81-3.91,4.59,0,5.36,4.58,5.57,8.29,3.14,2.1-1.38-.47-10.53-3.96-10.43,1.04,1.19,1.68,2.24-.41,2.7Z" style="fill: #eaddb7;"/>
  <path d="M906.71,1057.76c.58.28,1.55.14,2.16.62.63,1.02-.5,1.08-1.16.99-2.54-.35-7.09-4.01-9.82-4.94-7.16-2.42-12.34,4.32-19.24,5.84-2,.44-11.95-.09-12.36-2.45l.71-.83c1.4,1.27,3.05,1.44,4.83,1.78,8.47,1.63,10.49-1.72,17.68-4.88,1.47-.65,3.27-1.49,4.84-1.69,3.35-.44,9.22,4.03,12.35,5.56Z" style="fill: #eaddb7;"/>
  <polygon points="929.92 1319.99 930.1 1320.43 928.04 1321.79 927.68 1320.9 929.92 1319.99" style="fill: #eaddb7;"/>
  <path d="M1001.08,1111.83c-.75.48-1.72-.01-2.34-.61.75-.48,1.72.01,2.34.61Z" style="fill: #eaddb7;"/>
  <path d="M924.62,1249.4c6.96-27.41-22.38-26.28-36.45-38.62-4.83-4.24-9.45-11.86-14.14-16.71-2.21-2.29-4.81-3.31-6.94-5.58-1.06-.56-3.11,1-3.41,1.93-.17.52.54,6.62.77,7.33,3.53,10.8,25.23,24.95,35.72,28.65,4.9,1.73,9.27,1.31,12.96,5.44,2.21,2.48,4.82,6.24,4.35,9.7-.21,1.56-1.57,2.73-2.07,4.34-.66,2.12-1.27,8.68-1.09,10.71.46,5.14,4.93,12.82,5.23,18.37.26.16.46.42.55.79.46,2.05,1.13,5.53-.32,7.34-.21,1.41-.77,4.38-.91,4.87-.6,2.21-2.49,4.33-2.99,5.98-.31,1.03-1.54,9.01-1.47,9.99.07.87,0,1.68.62,2.41,5.06,1.77,10.04-5.37,9.82-9.89-.05-.99-.73-1.97-.67-2.89.05-.69,1.06-1.46,1.31-2.42.88-3.44,1.89-13.9.97-17.11-.7-2.45-2.94-5.41-3.88-8.33-2.57-8.02.28-9.33,2.04-16.27ZM919.4,1261.34c1.87,9.1,8,15.23,4.68,25.32.01.17,0,.35-.08.54-.16.44-.35.87-.54,1.31.1.2.15.44.12.68-.22,1.8-.47,3.53-.93,5.29-.12.45-.22.89-.34,1.34.27.73.47,1.41.45,1.95-.07,1.85-4.06,7.7-5.76,5.68-1.12-1.33.23-2.54.41-3.85.26-1.9.48-3.04.73-3.9.2-2.65.63-5.59,2.71-7.17.14-.35.29-.71.44-1.06.63-4.12.98-10.78.66-12.77-.61-3.79-4.48-12.25-5.03-17.2-.12-.11-.22-.25-.3-.44-1.05-2.48-.19-5.59.25-8.12.42-2.4,1.44-4.52,2.66-6.56-.04-.13-.07-.27-.1-.41-.24-1.14.15-2.38-.04-3.36-.79-4.16-6.11-10.32-10.12-11.73-13.21-4.64-20.76-6.26-31.93-16.03-5.16-4.51-11.67-10.78-11.86-18.01.51-.78,3.34-.36,4.01.07,4.72,3,11.77,12.32,15.69,17,8.32,9.95,19.56,10.2,29.74,16.79,5.58,3.61,8.95,10.64,8.46,17.32-.41,5.59-5.09,11.88-3.98,17.31Z" style="fill: #eaddb7;"/>
  <path d="M716.31,1228.33c26.98,11.62,68.16,32.73,85.79,56.3,3.94,5.26,5.95,10.52,7.82,16.68,4.04,13.31,5.84,26.99,7.34,40.72.34,3.08.2,6.06-.58,9.06-.52,1.99-2.3,3.84-1.5,5.88h-1.31c-1.6-1.08,1.01-5.49,1.37-6.87,1.65-6.3-.55-12.48-1.27-18.79-.44-3.86.11-7.67-.78-11.51-2-8.58-6.43-26.27-11.3-32.88-18.36-24.95-62.62-47.56-90.89-59.64-9.05-3.87-19.82-8.39-29.26-10.9-5.85-1.56-12.59-2.04-18.6-3.56-31.44-7.94-57.71-21.14-79.98-44.98-5.63-6.02-10.34-14.74-20.08-15-1.03-.03-7.99,1.52-6.17-1.33.99-1.54,2.43-.2,3.44-.14,14.61.89,16.55,7.5,25.53,17.08,20.58,21.95,46.84,35.28,75.74,42.68,7.16,1.83,14.72,2.5,21.91,4.54,11.61,3.29,21.81,7.91,32.81,12.65Z" style="fill: #eaddb7;"/>
  <path d="M850.94,1339.37c1.82.66-5.01,6.5-5.48,6.8-5.46,3.5-10.16,1.89-16.13,7.31-5.02,4.55-4.08,14.87-7.33,20.35-1.28,2.16-3.05,3.83-5.49,4.56,1.55,2.83,3.74,5.73,5.08,8.64.37.79,1.76,3.59.24,3.85l-1.58-.67.38-1.64c-2.71-3.56-3.78-7.25-7.22-10.32s-12.13-4.62-13.8-7.97c-.44-.88.17-1.68.04-2.09-.15-.49-7.34-5.11-8.47-5.83-14.71-9.39-35.94-21.23-52.98-25.43-3.49-.86-8.08-.86-11.12-2.6l1.02-1.74c1.93.8,3.34,1.65,5.44,2.16,11.41,2.74,22.6,6.82,33.53,11.39,16.03,6.71,29.64,18.96,44.36,28,4.86,2.98,8.35.2,10.14-4.59.67-1.78.46-4.12,1.01-5.9,2.28-7.38,3.53-12.26,11.13-15.76,2.95-1.36,6.17-1.27,8.91-2.53,3.04-1.39,5.53-4.23,8.32-5.98Z" style="fill: #eaddb7;"/>
  <path d="M797.31,1197.14c2.36,1.34,4.71,3.03,6.97,4.21,2.88,1.51,10.66,3.86,12.55,5.52,6.9,6.07,10.42,14.45,16.19,21.53,4.88,5.98,10.78,10.59,17.19,14.78.64.99-.54,1.1-1.17,1s-9.65-6.93-10.79-7.92c-5.43-4.71-8.61-9.28-12.57-15.14-2.75-4.07-5.19-8.64-9.07-11.97-3.22-2.77-8.52-3.55-12.18-5.54-9.68-5.24-18.8-11.68-28.56-16.96-6.94-3.75-13.66-7.89-21.54-9.81-11.13-2.7-22.4-3.25-33.65-4.09-8.02-.59-11.41-1.02-18.78-4.02-1.46-.59-2.36.91-2.96-2.22l2.36-.72c2.06,2.85,5.54,3.97,8.91,4.44,11.87,1.68,23.8,1.44,36.09,3.59,15.15,2.65,23.04,7.27,36.26,14.59,4.99,2.77,9.79,5.91,14.74,8.71Z" style="fill: #eaddb7;"/>
  <path d="M894.59,1189.92c-.16.33-1.84.12-1.07,1.21.29.4,7.13,5.51,7.91,5.93.97.53,5.97,2.43,7.05,2.69,2.73.67,6.69.03,9.47.07-1.21-1.71-.1-3.26,1.78-3.33l.57,3.9,8.46,1.6c.57.84-.14.95-.83,1.09-1.51.32-7.56-1.17-8.13-.82-2.41,4.58-2.63,7.75,1.34,11.56,1.97,1.89,8.36,4.06,9.45,6.77.5,1.24-.54,3.28-.08,4.88,1.18,4.1,2.41,6.23,2.55,11.1.11,3.66-1.34,6.42-.19,10.34s3.83,5.51,6.08,8.73c-5.6-2.13-8.37-6.75-8.35-12.67,0-2.08.96-4.73.85-6.34-.23-3.38-3.06-15.24-5.12-17.5-1.34-1.46-4.24-2.25-5.94-3.56-5.44-4.18-4.98-7.65-3.14-13.64-2.36-.69-4.38.35-7.03-.13-7.12-1.29-10.65-4.38-16.13-8.52-1.62-1.22-6.29-2.93-3.64-4.63l4.14,1.24Z" style="fill: #eaddb7;"/>
  <path d="M657.12,1150.13c1,.25,4.52,2.32,6.04,2.92.66.26,1.55.07,1.62.11.43.21.58.99-.31,1.17-1.73.37-5.04-1.58-6.96-2.03-13.18-3.12-24.34,5.82-37.37,8.2-2.25.41-17.18,1.36-17.81-.14-.07-.17.52-1.5,1.06-1.65.48-.14,1.24.29,1.77.11,4.28-1.45,7.67-1.36,11.96-2.61,12.72-3.69,26.38-9.5,40-6.07ZM639.47,1151.36l-30.22,8.04c.43.74,1.22.39,1.86.43,7.8.52,20.17-3.08,26.67-7.15.91-.57,2.64.22,1.69-1.32Z" style="fill: #eaddb7;"/>
  <path d="M900.22,1272.18c-.1-.15-.16-.31-.2-.46-.09-.15-.18-.31-.26-.46-2.77-5.44-5.2-11.93-9.92-16.13-2.39-2.12-5.3-2.69-8.03-.79-7.26,5.05-4.31,21.04-.74,27.62.55,1.01,8.21,8.99,9.03,9.44,2.43,1.32,9.03.41,10.98-1.7.47-.51.86-1.52,1.16-2.78-.86-4.86.89-10.39-2.01-14.73ZM891.42,1290.03c-2.01-.71-8.65-8.34-9.73-10.43-1.91-3.66-3.77-12.9-2.46-16.86.92-2.78,3.32-3.26,4.03-4.36.49-.77-1.37-2.15.88-3.07,4.35-1.78,8.92,6.09,10.69,9.11,4.15,7.07,8.03,14.1,5.7,22.44-.85,3.04-6.36,4.14-9.12,3.17Z" style="fill: #eaddb7;"/>
  <path d="M858.5,1145.1c.16,0,.44.45.79.52,6.55,1.44,10,7.08,14.9,11.19,2.21,1.85,5.54,4.22,8.13,5.42.24.11,6.05,1.78,3.22,2.06-3.19.32-10.25-4.63-12.82-6.65-3.74-2.94-10.08-10.61-14.92-10.48-1.36.04-4.72,1.13-6.27,1.61-8.63,2.66-17.14,6.84-25.53,9.27-11.31,3.28-24.58.77-35.84-1.44l.23-1.44c1.59-1.16,2.26.42,3.37.76,3.67,1.11,14.4,2.48,18.32,2.45,14.28-.1,25.3-6.78,38.29-11.24,1.9-.65,6.41-2.11,8.13-2.03Z" style="fill: #eaddb7;"/>
  <path d="M763.37,1395.7c-.85.48-.7.39-1.24-.15-1.73-1.72-2.4-5.82-3.64-8.09-1.93-3.51-16.49-9.01-20.77-9.86s-9.09,1.13-13.22-.45c-4.58-1.75-11.24-9.11-12.64-13.74-.37-1.23.5-3.5,1.95-2.33-.26.5-.5.98-.28,1.56,2.6,6.86,8.58,13.28,16.36,13.23,1.22,0,2.36-.53,3.58-.54,5.24-.06,24.82,6.61,26.83,11.47.27.66.02,1.33.08,1.48l3,7.42Z" style="fill: #eaddb7;"/>
  <path d="M816.2,1226c-.68-.66-1.3-1.39-1.87-2.19-.1-.01-.19-.05-.24-.12-.14-.2-.27-.5-.4-.85-.06-.09-.11-.18-.17-.27-1.52-2.6-2.55-5.45-4.02-8.08-1.55-.59-3.01-1.57-4.71-2.07-1.17-.34-3.83-1.17-4.75-.22,4.97,3.19,8.14,1.3,10.69,7.72.41,1.03.13,2.2.66,3.26,1.11,2.19,4.92,5.9,6.6,8.15.54.73.36,2.82,2.31,2.11,2.96-1.08-1.65-3.93-2.57-5.01-.72-.85-1.17-1.65-1.54-2.44Z" style="fill: #eaddb7;"/>
  <path d="M700.15,1315.04v.58c-3.28-3.43-3.28-7.74-3.96-12.15-1.31-.96-3.01-1.21-4.39-1.99-.49-.27-5.82-4.24-6.4-2.9l9.09,6.24c.89,2.73.9,6.04,2.27,8.63.51.96,4.91,6.63,5.6,7.03.96.55,1.76-.18,2-1.08-1.25-1.51-3.09-2.78-4.21-4.35Z" style="fill: #eaddb7;"/>
  <path d="M457.98,1062.09c.79,1.17-.25,1.19-1.22,1.55-2.79,1.06-9.88,1.69-13,1.67-5.67-.02-11.32-2.79-16.89-.62-2.43.94-5.27,4.81-6.16.96,4.99-1.56,9.97-3.62,15.3-3.16,1.28.11,2.65.85,4.05.98,5.97.57,12.15.51,17.9-1.38Z" style="fill: #eaddb7;"/>
  <path d="M772.35,1414.04c.78,1.75-1.42,2.27-2.76,2.56-1.85.4-9.08.87-11.17.87-4.18,0-4.12-1.9-6.82-4.12-.72-.6-4.01-1.48-2.79-3.34,2.02-3.1,5.94,5.37,8.23,5.44,4.98-.18,10.59-.12,15.31-1.41Z" style="fill: #eaddb7;"/>
  <path d="M653.52,1275.37l-1.76.2c-1.35-3.04-3.05-4.76-5.8-6.51-2.04-1.3-4.03-1.58-5.97-2.62-2.93-1.58-5.7-3.82-8.76-4.83l.85-3.71c1.46.37,1.33,1.98,2.1,2.94,4.12,5.12,17.52,6.14,19.34,14.53Z" style="fill: #eaddb7;"/>
  <path d="M420.24,1084.06l-1.52,1.22c-.34-.16-2.18-6.3-2.34-7.13-.13-.67.88-7.79,1.74-7.26,1.43,4.45-.8,8.73,2.12,13.18Z" style="fill: #eaddb7;"/>
  <path d="M665.33,954.05c-3.79,1.02-7.91-2.98-11.45-2.47-1.59.23-2.57,1.8-4,2.46-3.3,1.52-4.02-.45-6.69-.9-5.36-.9-11.42,2.47-17.27,2.08-1.18-.08-6.45-1.4-6.63-2.52-.41-2.58,5.12.62,6.27.71,5.13.43,9.69-2.06,14.71-2.19,3.45-.09,6.56,1.97,9.78.54.9-.4,1.34-1.33,2.04-1.69,2.12-1.12,9.51,1.57,11.71,2.76.62.34,1.38.29,1.53,1.21Z" style="fill: #eaddb7;"/>
  <path d="M702.15,953.28l-1.34.54c-1.67-3.54-7.41-4.89-11.03-5.17-.91-.07-1.81.57-2.74.33-1.61-.43-1.81-2.5.32-2.51,1.72-.01,9.91,1.87,11.55,2.62,2.06.94,2.57,2.07,3.25,4.2Z" style="fill: #eaddb7;"/>
  <path d="M935.84,131.16c.46.36,3.45,3.87,3.85,4.46,2.03,3.04,2.8,16.16,2.02,20.02-2.01,9.97-4.97,15.29-3.6,26.19.09.72.79,1.27.85,1.78.19,1.93-2.84,3.84-3.88,5.09-.16.19-2.4,3.92-2.45,4.15-.2,1.06,1.24.02,1.5.41.72,1.45-1.3,6.18-2.08,7.72-5.2,10.19-12.18,13.29-23.48,9.71-3.79-1.2-10.15-6.24-14.13-7.4-1.34-.39-6.93-.87-8.3-.7-5.67.73-8.23,5.95-13.15,8.04-11.46,4.86-22.77-4.17-28.41-12.64-4.34-6.52-5.67-14.85-10.66-21.05-8.11-10.06-22.52-25.96-37.04-26.58-10.08-.43-17.92,8.18-28.63,6.04-2.58-.52-4.81-2.13-7.09-2.76-10.94-3.02-26.49-4.51-36.35-8.57-8.41-3.47-8.05-7.58-13.57-12.53-2.09-1.87-4.87-2.81-6.62-4.75-1.38-1.53-4.44-6.59-4.32-8.51,3.07-3.82,9.63-2.63,13.96-1.99,12.69,1.87,25.57,6.02,38.8,4.42,1.18-.14,1.89-.46,1.29-1.6-1.05-2-3.17-4.55-4.67-6.34-6.23-7.45-12.91-9.94-15.41-20.19-1.02-4.17-2.05-9.84-2.68-14.23-.39-2.67.36-6.2,3.12-7.53,4.22-2.02,6.74-1.06,10.62.62,6.41,2.78,13.12,8.05,19.54,11.25,19.56,9.75,39.58,7.5,60.16,13.29,3.15.89,6.06,2.28,9.33,3.11,6.06,1.55,11.89,1.36,17.87,3.4,9.07,3.09,13.53,8.97,21.28,13.04,7.01,3.69,20.71,9.3,28.62,10.03,5.23.48,12.07-.9,16.66-.49,3.33.3,14.67,3.2,17.06,5.07ZM764.14,85.25c-3.56-2.84-7.98-4.42-11.97-6.63-4.53-2.52-9.88-7.96-15.88-5.66-3.76,1.44-2.43,3.39-2.89,6.46,2.01-.41,3.77,1.55,5.74,2.4,5.46,2.34,10.63,2.29,15.66,4.2s10.26,5.21,15.05,7.59c.78.39,7.32,5.59,7.82,6.29.4.56,1.39,2.22,1.54,2.79.41,1.65-1.25,2.4,1.15,4.46,2.2,1.89,6.28,3.3,8.21,5.05,3.26,2.96,4.42,7.99,9.14,9.38,2.56.75,9.24,1.34,12.09,1.42.77.02,2.08-.46,2.27-.39,1.46.54.91,1.99-1.12,1.95-4.78-.09-9.67-1.46-14.52-1.38-5.78-2.95-6.61-9.6-12.87-11.92-2.6-.96-5.16-.88-7.59-1.32-12.77-2.34-19.17-4.49-25.01-16.18-1.24-2.49-1.82-5.69-3.46-8.07l-12.88-4.48c-.88.15-.55.19-.46.77,1.09,6.82.48,12.05,4.68,18.19,3.17,4.64,8.58,8.16,12.22,12.45,1.53,1.81,4.41,7.33,5.6,8.28.72.57,4.49,1.02,5.97,1.71,4.27,1.98,7.43,4.28,12.39,5.61,7.51,2,11.9-.51,19.02-.35.87.02,7.36.23,6.39,1.87-2.59.79-5.23-.61-7.9-.48-2.14.1-4.58,1-6.65,1.24-5.46.61-11.8-.48-16.77-2.32-2.41-.89-7.16-4.48-9.1-4.65-1.54-.14-2.65.72-3.92.75-.69.01-1.74-.86-2.9-1-1.61-.19-2.92.38-4.39.36-6.43-.07-13.93-1.18-20.26-2.13-5.28-.79-19.32-4.68-23.67-2.96-1.5.59-1.24,1.7-3.72.65-.56,1.31,4.66,3.02,5.77,2.95l6.23-2.62-.26,2.22c5.37-1.01,11.91.63,17.07,2.1,8.79,2.51,12.93,6.17,20.28,10.42,1.1.64,5.8,2.1,5.95,2.37.24.44-.33,1.53-.92,1.56-.63.03-1.8-.59-2.78-.64-11.62-.53-25.18,1.83-34.54-5.71-2.28-1.84-5.1-6.22-7.24-7.26-2.62-1.27-3.09,1.31-1.16,1.98,2.45.85,3.76.02,4.89,3.54-1.55,1.47-2.18-.98-3.25-1.6s-2.87-.35-4.02-1.47c-1.55-1.51-.71-2.66-1.15-3.44-.35-.62-3.22-.9-2.56.24,2.55,4.38,7.75,5.8,10.98,9.81,1.22,1.51,1.99,3.35,3.13,4.77,5.81,7.28,21.59,8.9,30.55,10.74,5.85,1.2,12.86,3.88,18.79,5.39,14.67,3.74,23.14-10.37,38.54-3.93,13.07,5.47,29.73,22.68,35.22,35.02.66,1.48.79,3.26,1.43,4.7,4.55,10.27,16.53,24.34,30.08,18.88,6.11-2.46,7.21-7.45,15.23-8.2.71-.07,7.75.27,8.12.41.82.3,1.39,1.27,2.09,1.64,7.69,4.1,21.45,12.02,29.05,3.29.47-.54,4.16-6.24,4.26-6.61.38-1.42-.42-2.54-.43-3.93-.04-3.68,4.75-8.71,6.6-11.84-1.28-8.11-.12-16.99,1.78-25.05,1.21-5.16,2.54-5.91,1.71-11.94-1.2-8.79-2.53-14.07-11.87-17.06-10.47-3.35-16.96-.67-26.89-1.67-8.06-.82-23.46-7.05-30.44-11.09-7.76-4.49-12.1-9.88-21.41-12.82-4.64-1.47-9.58-1.32-14.33-2.3-7.46-1.55-14.65-5.31-22.46-6.27l-34.68-4.74,3.52,2.61c4.1,2.09,7.38,5.16,12.05,6.2,6.16,1.38,10.24.44,16.09,4.06.73.45,2.32,1.61,1.98,2.57-2.44-1.19-4.51-2.96-7.16-3.83-3.98-1.3-8.08-.82-11.94-1.63-4.9-1.03-9.9-5.5-14.16-7.95-2.01-1.15-6.49-1.13-3.01-3.19l-11.74-4.64ZM776.34,105.46c-3.72-8.17-11.75-14.06-20.25-17.46-1.26-.5-4.4-1.8-5.58-1.13-.67.64-.21.73-.06,1.19,1,3.09,5.47,13.35,8.9,14.01.61.12,1.65-.29,2.07.03.58.45.33,1.66,1.04,1.92,1.6.59,5.43.03,7.44.25.95.11,6.15,1.74,6.44,1.19ZM750.6,136.29c-7-4.44-14.01-9.25-22.22-11.57-2.02-.57-14.06-3.1-15.04-1.39,1.3,4.13,6.03,8.07,9.88,10.19,5.08,2.8,13.52,2.13,19.3,2.15,2.68.01,5.41.56,8.08.62Z" style="fill: #eaddb7;"/>
  <path d="M882.96,41.26c.03,1.17,0,2.4.57,3.48.52.98,1.67.77,1.9,1.82-5-.74-4.46-4.92-1.92-8.21,3.24-4.21,7.13-6.69,12.76-5.82,3,.46,8.27,3.23,8.83,6.24.77,4.11-5.13,9.26-9.19,9.84-1.38.2-7.47-1.22-8.62-1.93-2.08-1.28-2.01-4.54-4.32-5.4ZM884.41,39.97l1.87.11c-2.24,5.55,7.38,8.85,11.44,7.14,1.7-.72,5.93-5.03,5.97-6.79.12-5.81-9.25-8.51-14.09-6.12-1.98.97-3.52,3.39-5.17,4.77l-.02.9Z" style="fill: #eaddb7;"/>
  <path d="M902.8,136.19c.11-.26,1.65-1.81,1.91-1.94,2.42-1.12,5.82,4.57,8.34,5.19,1.29.31,4.29-.31,5.97-.09,4.58.62,9,5.6,9.36,9.91.15,1.82-.6,5.02-.53,6.81.1,2.54,2.4,14.57.57,15.79-1.58,1.06-3.4.29-4.68-.74-3.89-3.11-4.4-9.83-6.85-13.88-1.93-3.21-7.22-6.36-9.83-9.38-2.09-2.42-5.6-8.52-4.27-11.67ZM927.41,170.51c-.14-3.49-.26-7.02-.45-10.51-.06-1.19-.72-2.25-.8-3.44-.14-1.93.96-6.1.63-8.14s-3.92-6.21-5.86-6.98c-3.65-1.45-8.37.78-12.16-2.44-1.2-1.02-1.61-3.2-3.79-2.73-.98,3.54-.41,5.33,1.55,8.33,3.27,4.99,12.06,9.79,14,15.36.51,1.48.5,3.42,1.16,5.15.73,1.91,3.25,5.98,5.72,5.39Z" style="fill: #eaddb7;"/>
  <path d="M841.95,154.04c.97-.16.59,1.61,1.18,2.14.21.19,2.61.41,3.27.66,4.22,1.56,7.48,6.45,11.15,8.92.78.93,1.16,4.1.28,4.89l-2.14.66c-.61-.2-.89-1.67-1.44-2.29-1.55-1.75-11.54-2.18-14.18-3.75-4.52.85-13.23-3.82-13.71-8.1s7.01-1.82,9.28-1.6c.85.08,1.68-.21,2.53-.16.92.05,3.06,1.17,3.79.17l-.02-1.53ZM833.8,157.83c-.95-.19-3.43,1.09-5.04-.32.13,1.17.7,1.78,1.43,2.61,4.23,4.81,17.52,4.67,23.84,6.9.91.32,1.57,1.74,3.03,1.05.4-.66-9-8.87-10.32-9.43-.16-.07-2.92-.77-3.08-.76-.8.03-1.51,1.73-4.79,1.7-2.95-.02-4.07-1.55-5.07-1.75ZM842.03,157.46l-5.94.03c.08,1.12.48.6,1.12.74,1.17.26,4.58,1.05,4.82-.77Z" style="fill: #eaddb7;"/>
  <path d="M903.49,173.28l-.5,1.43-1.42-.22c.8-2.94,3.06-11.09,7.03-10.87,4.2.23,12.44,8.38,11.93,12.35-.19,1.45-1.45,4.35-3.14,4.84-3.54,1.03-13.19-3.59-13.9-7.53ZM905.51,167.22c-.5.78-.64,4.46-.41,5.38.75,2.96,4.45,5.18,7.31,5.97,3.51.97,6.35,1.53,6.62-3.03.17-2.76-7.32-10.55-10.61-10.43-.79.11-2.52,1.51-2.92,2.11Z" style="fill: #eaddb7;"/>
  <path d="M890.18,175.19c.29.07.71.69,1.4.86,2.65.63,9.1,1.69,8.96,5-.24,5.67-13.08,3.07-16.43,1.81-.73-.27-5.12-2.39-5.4-2.7-1.81-1.97,1.48-2.25,2.39-2.58,2.25-.82,6.75-2.92,9.09-2.39ZM899.02,181.47c.69-1.94-8.61-4.55-10.45-4.45-.43.02-5.28,1.29-5.77,1.48-.62.25-1.06.39-1.28,1.06.12,1.82,15.48,5.49,17.5,1.9Z" style="fill: #eaddb7;"/>
  <path d="M849.73,117.02c.09.02.24.59.57.57,1.88-.16,2.76-.97,5.28-.78,7.53.58,12.56,6.6,18.07,10.2,1.82,1.19,14.37,4.79,16.52,4.51,1.37-.18,2.62-.9,3.99-.86-1.21,1.6-4.07,1.91-5.98,1.89-3.13-.04-13.95-3.44-16.5-5.15-4.23-2.83-11.17-9.53-16.84-9.32-1.88.07-4.29.98-6.22,1.1-1.3-.32-.08-2.38,1.11-2.16Z" style="fill: #eaddb7;"/>
  <path d="M783.09,148.63c-3.5.61-6.78-3.08-10.01-2.88-1.45.09-2.49,1.36-3.84,1.83-3.11,1.07-3.55-.65-5.9-1.22-4.71-1.13-10.49,1.33-15.68.6-1.05-.15-5.63-1.63-5.68-2.6-.1-2.23,4.52.87,5.55,1.03,4.55.72,8.89-1.1,13.4-.87,3.1.16,5.67,2.13,8.7,1.13.85-.28,1.34-1.04,2.01-1.31,2.02-.81,8.36,1.98,10.2,3.15.52.33,1.21.34,1.25,1.14Z" style="fill: #eaddb7;"/>
  <path d="M852.43,180.22c.07-.14,1.84-1.2,2.09-.37,1.12,3.57,1.81,7.07,5.64,8.81,2.6,1.18,7.39,1.49,9.96-.04,1.01-.6,1.35-1.89,3.03-2.53,2.53-.97,6.63-1.1,8.81.46.73.53,6.47,5.56,6.59,5.99.07.27-.25.85-.99.51-3.37-1.54-5.34-5.69-9.01-6.03-.82-.08-3.97,0-4.62.21-1.34.44-2.7,2.76-4.09,3.3-3.09,1.21-10.12.33-12.54-1.73-.66-.56-5.1-8.13-4.85-8.58Z" style="fill: #eaddb7;"/>
  <path d="M837.3,122.72c.61.94-.84,1.25-.84,1.84.03,3.1,4.4,7.24,7.14,8.51,7.11,3.3,16.75-3.45,24.2-3.24.65.63,5.06.28,4.9,1.13-.36,2-4.32.31-5.8.4-9.76.64-19.17,8.18-27.77.41-1.91-1.72-7.64-9.41-1.83-9.06Z" style="fill: #eaddb7;"/>
  <path d="M885.84,160c-5.14.05-13.18-3.67-15.88-7.68-3.58-5.33-3.37-13.13-10.37-16.19-1.38-.61-2.74.37-2.29-1.64.53-.26,1.2-.48,1.79-.48.75,0,5.99,4.38,6.68,5.26,3.57,4.55,2.9,10.18,7.83,14.59,3.8,3.39,6.8,3.28,10.91,5.16.57.26,1.3.06,1.34.99Z" style="fill: #eaddb7;"/>
  <path d="M929.35,175.53c1.04,3.17,1.85,6.3-2.02,7.91-5.28,2.19-12.08,2.34-15.74,7.23-1.71,2.3-.77,5.05-3.57,6.96s-6.17,2.14-9.31,1.34c-.72-3.1,3.46-.54,5.46-.95.77-.16,3.04-1.32,3.65-1.83,1.57-1.31,1.01-3.94,2.09-5.69.63-1.02,3.55-3.82,4.66-4.39,3.61-1.87,9.96-2.29,13.01-4.23,2.21-1.4,1.3-3.63,1.12-5.51-.07-.69-.46-.6.65-.84Z" style="fill: #eaddb7;"/>
  <path d="M816.16,150.48l-1.26.37c-1.13-3.13-6.13-4.68-9.35-5.16-.81-.12-1.68.37-2.49.09-1.4-.47-1.37-2.26.54-2.12,1.54.11,8.69,2.27,10.08,3.02,1.75.94,2.09,1.94,2.48,3.8Z" style="fill: #eaddb7;"/>
  <path d="M904.48,190.63c.31.59.12.91-.4,1.31-2.26,1.77-6.69,2.86-9.04,4.91-1.61.69-3.42-1.32-1.49-2.16.62-.27,1.44-.11,2.1-.33,3.1-1.05,5.77-2.72,8.82-3.74Z" style="fill: #eaddb7;"/>
  <g>
    <path d="M.9,326.43c-.38-4.35-1.4-7.57-.6-12.53.05-.32.53-.29.68-.79,1.3-4.33,1.74-7.86,3.69-12.09,5-10.82,12.61-23.91,18.77-33.62,4.93-7.77,11.02-13.83,16.52-20.78,7.86-9.93,15.09-20.54,23.76-29.3,7.91-7.99,16.08-15.86,24.39-23.07l.33-.65c20.33-14.61,42.91-21.36,65.84-22.57,13.38-.71,21.11,1.66,32.82,9.31,17.51,11.44,29.73,29.06,44.89,44.65,6.16,6.33,17.78,14.63,21.74,23.08,2.48,5.3,5.41,13.56,6.88,19.59,1.73,7.08,1.03,14.24-.8,21.17-.55,2.07-1.8,5.58-3.42,6.36-2.74,1.31-2.45,1.42-4.78,3.29-1.14.91-7.93,5.3-8.16,5.84-.57,1.32,1.82,4.05,2.34,5.12,3.37,6.88,7,13.64,10.47,20.32,9.04,17.37,22.68,26.85,37.15,33.97,1.14.56,2.74,1.34,3.79,1.78,9,3.82,12.66,1.51,21.24-1.27,1.21-.39,2.69-.35,3.84-.73,5.03-1.64,14.39-8.69,17.56-14.26,1.43-2.51,5.7-11.91,5.98-14.7.08-.82.04-1.61-.02-2.36.39-2.22.64-4.46.58-6.78-.03-.91-.08-1.82-.16-2.72.02-1.46-.12-3.04-.64-5.04-.2-1.26-.42-2.52-.63-3.78-.32-1.87-.71-3.78-.86-5.69-.12-1.62.18-2.99.74-4.41.44-1.11.93-2.4,1.66-3.21.32-.35.69-.58,1.07-.75.71.48,1.53.43,2.26.87,4.24,2.57,7.77,14.53,7.76,20.47,0,3.03-.85,6.49-.39,9.54-.24,1.69-.08,3.57,0,5.16-.91,3.36-2.18,7.68-2.58,9-3.01,9.86-6.97,14.3-13,20.66-5.23,5.51-13.57,10.44-20.03,11.95-1.33.31-2.76-.07-4.1.14-2.17.34-3.08,1.44-5.72,1.15-.71-.08-1.23-.75-2.05-.69-1.43.1-3.09,1.72-4.67,1.84-2.28.17-3.37-.37-5.41-1.01-15.39-4.84-36.57-16.55-45.7-35-3.27-6.62-5.27-10.12-9.23-16.01-1.85-2.75-3.04-6.42-4.65-8.77-1.28-1.87-3.46-3.32-4.66-5.5-.81,2.68-1.31,5.91-2.1,8.55-.69,2.3-3.42,9.82-4.79,11.02-.37.32-.6.5-1.06.39-.86-1.22,3.35-10.04,3.96-11.94.45-1.4,2.77-10.12,2.35-10.87l-11.14,6.77c.24,3.89.9,7.15,1.98,10.75,2.37,7.9,5.77,17.2,8.51,25.12,5.25,15.18,14.44,24.27,21.44,36.93,2.96,5.34,7.98,10.72,10.61,16.17.45.94,2.23,7.32,2.72,7.31,1.52-4,3.29-1.02,5.5-.11,3.98,1.64,8.74,2.3,12.75,3.9,3.54,1.41,8.5,3.9,12.03,5.69,8.34,4.23,12.74,11.36,19.15,18.84,9.09,10.59,19.48,15.96,29.84,23.5,2.72,1.98,5.3,2.79,6.95,6.87,1.1,2.73.32,5.17-1.84,5.99-1.18.44-4.93.92-6.24.94-8.18.08-14.18-5.51-20.61-11.21-3.1-2.75-6.4-5.53-9.45-8.37-1.01-.94-1.53-2.78-2.57-3.85-.88-.9-2.33-1.55-3.27-2.5-1.08-1.1-1.96-2.85-3.05-4.01-5.49-5.85-13.25-10.76-19.63-14.53-1.01-.6-1.94-1.98-2.96-2.5-2.36-1.21-1.68-.99-3.55-2.52-2.62-2.14-6.32-3.42-9.22-4.61-.89-.36-1.57-1.14-2.47-1.34-.22,4.77-1.78,7.83-5.55,6.49-.94-.33-1.26-1.51-1.99-2.19-1.83-1.72-2.73-2.54-4.2-4.9-.74-1.19-.71-2.55-2.09-3.28-1.11-.58-4.24-.93-5.55-1.03-5.97-.45-12.08.15-18.05-.37-6.14-.54-17.91-7.11-22.34-12.89-3.4-4.44-6.48-9.83-8.16-15.83-1.83-6.54-3.01-12.76-4.28-19.45-1.34-7.03-3.67-17.47-6.86-23.28-.43-.78-1.46-1.73-1.95-2.65-3.24,2.2-5.13,6.62-7.33,10.32-2.08,3.49-2.18,3.42-3.84,7.42-.82,1.98-1.74,3.78-2.69,5.63,2,3.65,3.81,7.47,5.95,10.98,2.77,4.54,5.55,8.69,8.25,13.25.5.84,8.73,12.43,9.17,11.81l-9.91-17.72c-3.23-2.45-4.88-7.07-7.54-10.15-.67-.78-2.55-1.63-2.57-2.89-.02-1.04,1.2-2.41,2-1.64,1.23,2.52,3.75,4.04,4.21,7.14,1,.05,1.54-1.33,2.3-1.97,1.7-1.44,3.04-2.47,4.47-4.53.64-.92,2.8-5.29,3.15-5.54.53-.39,1.05.02,1.51.43,1.04,2.8-.8,3.14-1.81,4.48-2.68,3.54-3.36,6.07-7.12,7.87-.33.16-1.17.42-.98,1.09,6,6.87,10.12,16.21,15.08,24.39,7.63,12.59,17.36,22.68,28.71,28.68,12.2,6.45,22.89,8.62,29.64,25.81,3.77,9.59,5.1,14.72,11.81,21.88,5.92,6.31,9.3,5.35,16.14,6.23.56.07,1.15.34,1.68.63,1.94,2.01,4.49,2.6,6.78,3.59,1.63.7,3.29,1.3,4.8,2.41,1.3.96,2.54,2.16,4,2.58,1.84,1.74,4.01,3,5.72,4.82,3.12,3.31,5.5,7.38,9.13,10.43,2.41,2.03,5.16,3.27,7.62,5.15,3.93,2.99,7.96,6.86,12.01,9.38,3.69,2.3,7.72,3.51,11.45,5.69,2.62-.6,4.47-3.53,6.24-6.03,1.6-2.27,1.87-2.68,3.72-4.73,2.77-3.09,5.6-6.28,8.99-7.97,1.23-4.75,2.88-16.83,5.61-19.89.87-.98,2.39-1.54,3.31-2.44.67-.66,4.26-4.78,4.68-5.47.59-.98.5-1.82.87-2.49,2.46-4.46,3.19-4.44,3.91-10.58,2.04-17.47-.27-32.69,8.12-48.06.82-1.51,3.19-3.45,3.23-5.37-1.65-5.31-2-10.16-2.04-15.83-.03-4.46.02-9.29-.29-13.83-.26-3.81-1.92-7.91-2.11-11.8-.23-4.67.98-11.93,2.56-16.11.86-2.28,2.48-6.58,4.66-6.1-.47,2.83-2.17,4.73-3.05,7.46-1.42,4.39-1.71,9.2-2.07,13.92l.92,4.68c1.03-3.07,2.12-7.59,4.23-9.54.68-.62,1.5-.78,2.05-1.29,2.7-2.5,3.71-3.93,3.95-8.49.57-10.76-1.57-19.57,3.77-29.52.21-.39,3.53-4.89,3.75-5.08,2.19-1.96,5.05-2.62,7.3-3.95.83-.49,3.51-2.31,5.76-3.98.55-.2,1.1-.43,1.64-.68,1.73-.81,3.05-1.98,4.14-4,1.08-2,1.75-4.36,2.43-6.64.6-2.02,1.22-3.96,2.18-5.72l.73,3.07c-.05.22-.1.45-.16.67-2.23,2.14-2.52,6.62-4.2,9.4l.42-.21s-.02.04-.03.05c-1.76,1.64-3.18,3.91-5.08,5.3-1.45,1.06-3.11,2.04-4.36,3.57-.67.58-1.33,1.16-2,1.57-3.42,2.07-5.32,1.74-8.49,5.6-3.42,4.17-5.43,11.33-5.7,17.52-.2,4.56.73,10.22.22,14.56-.07.6-.86,4.8-.99,5.18-.22.69-1.09,1.28-1.52,1.81-2.6,3.2-4.54,3.09-6.49,7.7-.96,2.28-1.74,5.84-1.87,8.99-.98,3.72-.92,8.04-.48,12.05.03.37.08.73.13,1.09-.02.42-.03.83-.03,1.25.02,1.72.51,3.36.48,5.08,0,.21.05.4.14.56.01,1.22,1.45,1.19,1.5-.09.01-.33.03-.65.05-.97.34-1.38.5-2.81.79-4.23.27-1.31.67-2.61.61-3.97.17-1.35.41-5.21.61-6.14,1.98-9.37,7.57-18.09,11.34-26.58,5.49-12.34,10.41-25.59,15.05-38.58.17-.47.74-1.1.86-1.83.47-.58.95-1.12,1.48-1.56.49-.31,1-.59,1.51-.82-.29,1.08-1.25,1.82-1.56,2.75-.83,2.5-1.27,5.68-2.03,8.25-1.04,3.52-3.01,6.73-3.91,10.38,2.81-4.12,6.07-7.66,8.87-11.81,1.81-2.69,5.33-9.8,7.19-11.43.37-.32.6-.5,1.06-.39.29,1.87-.97,2.44-1.63,3.69-1.13,2.15-2.31,4.96-3.49,6.99-4.57,7.86-10.29,12.94-14.07,22.17-.34.84-.96,2.35-1.24,3.73-.5,1.33-.94,2.73-1.13,4.17l-.07-.41c-1.26,5.63-2.34,11.36-3.12,17.15-.48,1.78-.91,3.58-1.26,5.42-.75,3.95-1.16,8.02-1.2,12.1,0,.35.1.6.25.77-.19,2.71-.16,5.46.04,8.19l-1.04,18.9c.23,6.36.51,11.68,1.52,17.93.09.56-.26,1.18.45,1,1.33-2.13,2.04-4.79,3.21-7.06.4-.77,1.08-1.56,1.65-2.42,2.49-2.44,3.23-6.63,2.34-10.57-.05-.2-.12-.36-.22-.48-.45-2.9-1.47-6.21-2.26-7.87-.71-1.49-1.73-2.41-2.47-3.98-.79-1.69-1.24-3.38-1.65-5.11-.06-.68-.11-1.36-.14-2.04.22-.15.39-.44.39-.88,0-2.91.14-6.01,1.07-8.69.16-.45.61-2.28.97-2.69.22.19.4.43.53.72.46,1.89-1.37,3.69-1.17,5.61,0,.05.01.11.02.16-.16,1.18-.16,2.37-.04,3.55,0,2.03.18,4.07.97,5.65.4,1.1.91,2.22,1.45,3.3.6,1.53,1.24,3.01,1.92,4.48.06.14.12.28.19.42.39.85.79,1.69,1.18,2.53.1.2.22.34.36.41.26,1.04.53,2.08.81,3.12.12,2.64.22,5.3.69,7.79-.06,2.53-3.17,6.15-4.36,8.38-1.13,2.14-4.13,8.48-4.36,10.78-.94,9.18.86,17.3,2.01,26.15.65,5.07.23,5.59-.21,10.51-.45,5.07-.34,10.3-1.38,15.23-1.23,5.8-3.97,12.01-6.46,16.82-.69,1.32-6.16,8.39-7.22,9.44-.3.3-6.6,3.38-7.07,3.46-1.65.31-3.51-.92-5.32-.29-.24.08-.48.35-.73.6-2.3.26-4.6,2.22-6.48,3.84-1.62,1.39-3.34,2.9-4.75,4.73-1.39,1.06-2.88,2.22-3.5,2.46-2.01.79-6.37,2.3-8.42,2.84-2.2.58-4.57.26-6.76,1.02-1.65.58-3.37,1.99-5.22,2.29-7.41,1.2-15.89-1.73-22.74-5.34-9.39-4.95-16.35-14.36-26.36-18.03-6.29-2.3-12.18-.57-18.34-2.02-1.06-.25-2.44-1.37-3.17-1.46,0,0-.02,0-.02,0-.06-.03-.13-.06-.19-.08-.93-.4-1.91-.58-2.85-.91-1.2-.42-2.38-.92-3.55-1.46-3.83-1.76-7.66-3.89-11.68-4.57-.5-.41-1.01-.8-1.54-1.16-2.07-1.42-4.56-2.43-6.61-4.17-1.05-1.58-2.04-3.23-3.01-5.09-.99-1.9-2.78-5.48-3.47-7.51-.44-1.28-.67-3.69-.93-4.24-.14-.3-2.69-2.74-3.38-3.77-2.6-3.9-5.29-9.92-8.41-13.04-6.22-6.25-15.09-8.83-21.47-14.89-2.73-2.6-5.37-5.22-6.31-9.78-.79-3.81-.35-5.92-2.06-9.83-6.09-13.92-20.37-30.13-29.5-41.06-2.68-3.21-5.75-5.71-8.44-8.93-.6-1.46-.5-3.29.92-3.09-.39-1.55-1.21-2.46.19-3.64,1.55,1.64,3.23,3.47,4.77,5.27,2.59,3.05,5.26,6.25,7.96,9.17,6.99,7.57,13.03,15.03,18.8,23.79,2.12,3.21,3.47,5.34,6,8.17.37.42.85.89,1.36.81-4.25-5.37-8.16-11.03-11.84-17.14-.5-.82-.67-1.88-1.09-2.6-3.72-6.37-8.97-11.34-12.61-17.53-2.18-3.72-3.85-6.07-6.16-9.57-1.39-2.11-3.53-6.66-4.98-8.32-.26-.3-1.62-1.3-1.78-1.05,0,.71.05,1.44-.07,2.14-.52,3.12-2.27,9.71-3.65,12.37-.63,1.22-2.21,2.26-2.89,3.61l4.06,4.68c.96-1.66,1.94-4.96,3.78-3.08l.2,3.41c-.34.55-2.52,1.67-2.33,2.32.11.37,1.01,1.29,1.32,1.87,2.25,4.21,4.47,8.5,6.45,12.92.3.67.32,1.75.79,2.51.63,1.01,2.85,1.88,3.9,2.86,2.01,1.89,9.48,10.6,10.83,13.02,1.49,2.67,2.97,7.25,4.4,10.33,1.03,2.23,2.44,4.15,3.5,6.66,3.89,9.22,4.75,12.64,12.31,17.53,3.73,2.41,7.54,4.52,11.15,7.29,5.93,4.56,10.99,12.62,14.88,20.15,3.56,6.89,4.53,14.26,9.37,21.1,5.55,7.85,11.35,14.75,16.65,23.05,5.44,8.51,10.47,15.74,16.23,23.61,2.71,3.7,6.64,10.64,9.32,13.44,3.4,3.55,12.05,9.76,16.08,11.2,1.9.68,4.97,1.56,6.74.63,3.05-1.59,2.76-1,5.86-1.43,13.07-1.8,23.65-.12,36.27,4.2,5.37,1.84,11.59,3.02,16.82-.25,4.22-2.64,8.41-4.77,12.78-7.12,1.59-.86,3.13-3.02,4.7-4.22,3.04-2.34,5.95-3.29,8.89-6.28,3.6-3.66,4.38-7.83,7.53-11.78,2.43-3.04,4.34-6.07,6.61-8.97,1.33-1.69,6.23-4.84,6.57-5.58.02-.04.02-.09.02-.14.53-.35,1.04-.73,1.55-1.14.03.04.07.09.12.14,1.07-.87,2.19-1.63,3.25-2.52,2.06-1.72,5.32-4.57,7.12-6.64,1-1.15,5.38-7.52,5.84-8.78.61-1.68.1-4.22.19-4.41.11-.22,1.64-.98,1.99-1.41.91-1.1,2.23-5.39,3.82-4.74l.48.99c-.52.6-4.59,4.55-3.9,5.5l3.22-2.35,5.19-2.13c1.03,1.38-3.92,3.99-4.41,4.4-1.98,1.67-4.35,5.04-5.96,7.4-2.09,3.08-3.83,7.63-6.75,9.38l.15.81c1.61-.87,3.04.08,4.49,0,1.93-.1,6.49-1.38,8.15-.04,1.45,1.18.64,4.08-.92,4.07-.68,0-1.12-1-1.81-1.18-1.83-.47-10.33-.45-12.1.27-.18.07-.55.26-.95.49-.06,0-.11,0-.18.01-.58.12-1.09.56-1.6.94-.54.4-1.09.76-1.57,1.31-.63.73-1.05,1.68-1.11,2.7l-.07-.04c.09,3.22-1.19,6.16-1.24,9.15-.23.85-.61,1.69-.79,2.53-.28,1.29-.44,2.62-.65,3.92-.07.43-.15.87-.23,1.3-.2.74-.41,1.46-.7,2.04-1.34,2.65-3.85,4.43-4.97,6.29-.68,1.12-1.17,2.96-1.95,4.29-.18.31-.38.61-.6.91-.71.7-1.36,1.55-1.95,2.36-1.35,1.88-2.52,3.98-3.78,5.97-1.59,2.52-3.51,4.65-5.4,6.73-2.14,2.34-4.24,4.78-6.41,7.05-.85.89-1.74,1.72-2.59,2.6-.41.19-.79.46-1.05.69-.68.59-1.33,1.24-1.96,1.92-.37.34-.73.69-1.09,1.05-.21.17-.42.34-.63.51-2.07,1.69-4.14,3.27-6.26,4.82-.58.42-1.14.88-1.69,1.36-.35.25-.68.55-.92.82-.03.02-.05.05-.08.07-.12.08-.24.17-.36.26-.49.37-.98.74-1.46,1.11-.03.02-.06.04-.09.06-.6.18-1.18.48-1.78.71-.79.31-1.59.58-2.36.98-1.7.89-3.4,1.96-5.04,3.02-.61.39-.42,1.36.04,1.73-.06.04-.12.08-.18.11-3.83,1.77-6.76,2.31-10.65,2.67-3.33.31-6.5,3.1-9.57,4.55-4.29,2.04-7.57,2.48-11.75,5.66-3.97,3.02-10.35,11.44-13.12,16.43-.4.72-.73,1.56-.91,2.43,1.88.26,4.57,4.97,6.09,4.63,3.12-2.3,6.43-3.52,9.09-6.86,9.33-11.72,18.15-27.34,32.19-28.86,1.35-.15,6.97.19,7.02,2.6.03,1.18-2.25-.15-2.83-.23-6.1-.77-15.76,4.51-20.44,9.81-4.95,5.61-10.45,12.75-14.59,19.33-2.47,3.93-5.69,3.85-8.1,6.54-.53.59.54,1.58.89,2.03,1.98,2.51,4.48,4.25,6.53,6.65,9.81-3.1,20.32-4.29,30.26-1.53,3.99,1.11,7.94,2.95,11.82,4.34,1.12.4,2.65.16,3.81.92.83-1.41,1.67-3.42,2.58-4.69.69-.96,1.99-1.93,2.68-2.88,1.63-2.25,3.19-5.24,5.15-7.27.95-.98,2.68-2.58,3.88-2.07-1.47,1.46-3.67,3.02-4.2,5.5.17.23,4.03-2.33,4.37-2.84.67-1.01.58-2.7.99-3.96,2.66-8.17,8.14-20.53,13.43-25.79,1.63-1.63,3.65-2.71,5.4-4.09.94-7.01,3.29-12.77,5.98-18.69.03-.04.06-.08.08-.13.53-1.04,1.16-2.25,1.48-3.53.25-.69.46-1.34.6-1.63,3.02-6.04,5.09-7.23,8.98-11.45,2.76-2.99,4.95-5.73,7.82-8.54.64-.62,1.11-1.41,1.47-2.29.36-.15.54-.77.43-1.3.32-1.19.51-2.48.65-3.75-.06-.02-.12.05-.19.18.27-1.75.39-3.59,1.12-5.13.86-1.78,2.11-3.63,2.58-5.73l.08.09c1.39-2.9,2.9-6.03,4.52-8.75,2.32-3.9,4.17-5.56,5.96-10.25,2.45-6.43,4.68-13.46,4.62-20.83,2.22-1.96,2.32-.29,2.65,1.29,0,.22,0,.43,0,.65-.05,1.3-.4,2.57-.77,3.76-.84,2.68-1.76,5.21-1.86,8.17-.14.18-.44,1.83-.38,1.92.35.1.8-.32,1.13-.86.12,0,.24-.05.35-.12.17-.06.32-.2.42-.46.44-1.17,1.16-2.03,1.52-3.28.06-.21.07-.4.03-.57.3-.64.61-1.27.87-1.94.39-1,.65-2.07.81-3.16.39-1.42.68-2.87.8-4.17.19-2.06-.76-10.66,1.88-8.87,1.56,1.06-.03,3.19.58,4.41l.06.05c-.18,1.63-.46,3.24-.79,4.83-.53,2.64-1.3,5.23-1.71,7.92-.14.55-.29,1.1-.46,1.65-.23.78-.78,3.6-.86,3.76-.5.95-3.54,3.24-4.24,4.83-1.15.87-2.07,2.23-2.88,3.62-.86,1.49-1.73,3.01-2.54,4.54-.7,1.33-1.49,2.9-2.06,4.58-.06.04-.11.09-.15.17-.61,1.13-1.24,4.75-1.67,5.87-.52,1.35-2.55,4.5-2.75,5.6-.09.49-.01.98.06,1.41-.28.64-.55,1.29-.8,1.95-.09.08-.17.18-.23.29-.36.67-.54,1.45-.68,2.24-.69,1.92-1.4,3.83-2.05,5.78-.12.3-.24.6-.35.9-.05.14-.08.27-.08.4-.57,1.71-1.15,3.42-1.63,5.19-1.98,4.42-3.83,8.96-5.76,13.43-1.2,2.78-3.26,8.87-4.33,10.83-1.04,1.91-6.44,6.19-8.21,8.01-1.81,1.86-3.43,4-5.23,5.83-.03.02-.06.05-.09.07-.1.1-.2.2-.3.31-.07.07-.15.14-.22.21-1.46.39-2.25,1.96-2.66,3.85-.5,1.17-.7,2.57-.44,4.14-.02.52-.02,1.02-.02,1.48,0,.28.07.49.17.65-.22,2.68-.95,6.18-1.51,9.34-.33.73-.64,1.45-.94,2.11-.18.39-.36.78-.54,1.16-.02-.04-.05-.07-.1-.09-2.1,3.17-4.82,6.4-7.57,8.47-2.33,1.76-8.56,4.33-9.83,7.04-.64,1.36-.8,3.34-1.55,4.82-.7,1.39-1.98,2.7-3.07,3.92-.08.05-.16.12-.24.22-1.03,1.35-2.62,1.88-3.91,2.64-.77.45-1.56.84-2.36,1.12-.13.04-.26.08-.39.13-.31.09-.63.16-.95.24-.3.07-.71.29-1.01.22-.17-.04-.32-.02-.44.06-.06,0-.12,0-.18.02-.12.03-1.12,1.96-1.55,2.48-1.7,2.04-3.91,3.73-6.03,4.85-10.25-.99-22.89,3.6-32.24-3.09-2.54-1.81-5.08-5.16-7.47-7.4-1.66-.71-3.01,1.65-4.47,1.94-.84.17-3.48-.24-4.47-.4-3.12-.51-6.28-1.67-9.42-2.71-2.36-.78-4.59-.9-6.83-2.61-.55-.03-.76,1.44-1.54,2.03-2.07,1.57-5.14,3.39-7.41,4.95-.24.16-.16,1.23-1.22.83-1.55-3.92,1.7-3.87,3.33-4.82.23-.13,2.56-2.05,2.19-2.53-.78.52-2.21,1.43-3.07,1.15-.45-.15-1.08-1.07-1.73-1.36-1.09-.48-2.6-.48-3.81-.95-5.75-2.22-10.78-7.26-15.49-11.91-5.03-4.96-9.85-13.36-14.21-19.52-4.3-6.08-9.01-13.31-13.83-18.33-5.41-5.62-10.29-10.29-16.58-14.18-2.53-1.57-4.42-4.24-7.31-2.92-.3.41.92,3.32,1.15,3.94,1.87,4.96,5.72,10.5,7.29,14.97,4.74,13.56,12.11,25.21,17.58,38.06,2.04,4.79,4.61,9.11,4.04,14.94-.27,2.8-4.07,5.34-6.15,4.21-6.96-3.76-14.1-19.58-17.06-28.6-4.07-12.41-7.99-25.06-11.14-37.85-.37-1.5-1.42-4.92-2.2-5.98-.82-1.1-2.93-2.58-3.6-3.67-.6-.97-.55-2.51-1.04-3.07-2-2.29-6.98-2.11-8.82-3.93-.53-.53-.7-1.47-1.23-2-6.79-6.69-15.04-19.48-19.64-29.19-7.46-15.77-9.05-37.69-15.16-55.21-3.17-9.08-6.11-15.71-12.77-20.57-6.8-4.97-12.71-6.97-18.59-14.51-.96-1.23-2.03-3.48-2.99-4.7-4.97-6.32-10.22-11.42-14.06-19.23-.32-.65-2.95-8.18-3.78-7.29-.8,5.73-5.02,1.13-2.87-1.24.36-.4,1.81-.61,1.06-1.41-3.42-1.67-6.26-5.13-9.92-5.9,1.22,1.9,2.53,3.79,3.9,5.5,2.08,2.59,4.79,5.1,6.81,7.67,10.17,12.96,18.77,28.89,27.16,44.04,8.6,15.53,16.22,33.8,20.44,52.54,1.53,6.79,1.74,15.33,3.03,22.38,1.88,10.32,5.23,19.6,7.65,29.54.12.49.63.95.7,1.55.02.21-.58,3.18-.7,3.37-1.37,2.08-3.46.59-4.94-.66-.62-.52-5.47-6.75-6.04-7.69-4.82-7.82-6.67-22.72-8.56-32.39-1.62-8.29-3.64-16.33-5.32-24.6-2.09-10.36-5.32-16.04-9.01-25.22-4.58-11.37-7.96-20.79-13.95-31.2-8.04-13.99-16.7-23.66-26.28-35.26-.96-1.16-1.71-1.56-2.26-2.22-.41-.49-.39-1.41-.73-1.86-.55-.71-2.02-.52-2.6-1.77-2.7,1.3-3.69,5.32-5.36,8.09-1.09,1.81-2.71,3.52-3.91,5.28-2.02,2.96-3.87,6.08-6.15,8.76.59.88,1.25,1.88,2.22,1.82,5.24-1.25,10.49-2.37,15.5-4.88-1.45-.93.99-6.37.6-6.92-1.67.49-6.35,4.26-7.81,3.06-1.18-1.6-.19-3.04.61-4.48.63-1.14,3.23-5.43,3.88-6.15,1.31-1.44,2.34-.11,1.67,1.86-.31.93-2.74,3.53-3.45,4.69-.28.46-.73.66-.6,1.42,1.74-.2,6.38-5.04,7.75-3.98,2.02,1.56-1.44,7.92-1.74,10.09.28.45,6.56-5.38,7.44-5.62.58-.16,1.26.31,1.54,1l-.4,1.79c-6.93,5.47-14.66,9.21-22.71,10.16.86,3.78,3.34,6.46,5.05,9.64,9.81,18.26,19.53,38.6,26.76,59.04,2.98,8.44,2.07,13.89,3.6,22,.79,4.18,2.99,8.86,4.23,12.68.59,1.81.72,5.82,2.72,5.8l-.6,1.22c3.09-.13,2.89,6.76,4.51,8.76l.15.2.17-.78c1.41-.08.56,1.71.81,2.7,1.96,7.84,12.79,17.38,17.65,22.53,1.43,1.52,2.65,3.65,4.23,5.27,8.29,8.49,25.79,22.59,30.31,34.68,3.68,9.85,6.21,24.21,6.49,35.21.04,1.71-.47,3.19-.29,4.84.13,1.19.86,2.93,1.1,4.62,1.02,7.09,1.54,15.04,2.22,22.25.08.89.55,1.75.57,2.52.03,1.05-1.98,7.73-2.54,8.32-.34.36-1.02.41-1.21.78-.14.26.29,1.07-.14,1.47-.16.15-3.59.23-4,.1-3.44-1.07-4.26-12.4-4.8-16.31-.75-5.5-.88-8.11-1.11-13.56-.29-6.96-2.03-15.75-3.11-22.67-2.23-14.29-7.79-34.14-15.83-44.12-4.94-6.14-11.82-12.82-17.82-16.58-3.87-2.42-10.13-9.88-13.44-13.96-7.33-9-17.88-24.69-22.28-36.59-1.93-5.22-3.06-11.72-4.83-17.08-.67-2.04-2.15-4.53-2.78-6.82-1.01-3.68-.38-6.09-.79-9.53-.43-3.58-2.24-6.09-3.43-9.2-1.67-4.36-2.97-9.08-4.6-13.32-1.72-4.5-15.6-37.39-17.17-38.19-.6-.31-1.51.43-2.26-1.39-2.28,2.09-5.65,3.72-8.41,3.6-1.73-.08-4.91-.6-6.03-2.42-3.16-5.12-8.01-5.54-11.55-9.99-2.06-2.58-2.56-3.56-5.2-5.58-7.75-5.96-14.77-13.85-21.68-21.52-3.34-3.71-7.02-10.42-9.42-15.34-6.39-13.1-13.01-34.42-15.96-49.65-1.54-7.95-1.55-17.37-1.54-25.65,0-4.31.67-11.46.32-15.47ZM269.54,421.55c2.55-2.27,3.75.68,5.62,1.94,1.57,1.06,3.83,1.44,5.57,2.64.99.69,2.53,2.57,3.56,3.32,4.76,3.43,9.81,5.96,14.48,9.7,4.95,3.96,9.1,9.31,13.64,13.29,1.08.95,2.62,1.26,2.75,1.37.14.12,1.19,2.7,2,3.59,4.38,4.87,15.34,14.97,20.58,16.96.49.19,1.08-.24,1.16-.18.07.05.1.77.76,1.19.75.48,3.09,1.01,3.98,1.12,1.29.16,8.17.46,8.51-1.01-.32-2.92-2.4-4.69-4.1-6.19-8.26-7.27-18.15-11.38-26.63-19.29-8.5-7.93-14.15-19.2-24.38-24.38-4.02-2.03-9.25-4.38-13.38-5.9-2.6-.96-9.64-3.64-11.91-3.84-.99-.09-1.83.5-2.81.38l.61,5.29ZM200.9,419.47c-2.64-3.93-5.37-8.84-8.29-12.39-4.42-5.38-9.39-9.77-13.97-14.87-1.5-1.67-2.58-4.13-4.36-5.28-.98,1.7,5.09,6.86,6.01,7.94,7.78,9.15,14.99,19.22,22.68,28.53.43.52.4,1.2,1.06,1,.62-.99-2.7-4.29-3.12-4.93ZM353.97,533.97c1.4-.06,3.72,1.34,4.95,1.21.53-.05.97-.68,1.53-.78,2.24-.41,2.9,1.01,3.96-2.78.17-.62.02-1.48.22-2.14,1.19-3.89,2.93-7.55,3.46-11.8-5.7,3.91-9.94,9.89-14.12,16.29ZM375.61,497.11c-2.01,4.85-3.42,10.27-4.51,15.68,3.46-.88,4.18-5.94,5.55-9.38.42-1.05,1.15-2,1.48-2.88,1.32-3.47,2.18-7.26,3.79-10.54l-6.31,7.13ZM400.93,424.92c-.19-.42.01-.71-.68-.52-.29,2.52.29,5.14.32,7.53.02,1.59-.32,3.19-.27,4.84.28,9.96,2.6,19.38,4.43,29,.09.49.01,1.07,0,1.58l.28.07c.43,8.37-1,16.91.32,25.22.09.54.39.75.7.72.36.86,1.79-.55,2.18-.94.58-.58,3.14-4.1,3.32-4.87.36-1.54-.19-2.75-.2-4.3-.08-11.3-1.07-21.85-5.32-31.85-1.02-2.4-3.34-6.28-3.9-8.97-1.01-4.86.75-13.31-1.19-17.52ZM404.04,509.5l-.5-1.73c.04-.47-.52-.33-.71-.23-.87.46-2.19,4.56-2.89,5.65,1.02.39,1.36-.7,2.03-1.12,1.52-.95,3.59-1.48,4.58-3.36l-2.51.78ZM406.84,503.2c2.43-2.75,4.77-6.43,5.43-10.77-.38-.56-2.45,2.88-2.85,3.26-1.17,1.12-2.8,1.46-3.76,3.46-.95,1.97-.16,3.79-1.2,5.5,1.98.56,1.55-.49,2.38-1.44ZM413.98,442.65c-1.56-13.42-1.73-21.09-.81-34.74.8-11.89,1.54-25.39,3.38-36.97.39-2.49,1.24-5.05,1.42-7.64-2.68,5.09-4.88,10.61-7.38,15.86-.4.84-1.14,1.41-1.58,2.33-.26.54-1.65,4.17-2.05,5.64-2.11,3.34-2.8,7.87-2.98,12.24-.7,3.46-1.29,6.93-1.56,9.04-.22,1.77.79,3.76.47,5.92-.12.81-.64,1.42-.77,2.22-.12.75.2,5.28.39,6.21.42,2.08,2.42,6.81,2.54,8.42.13,1.94-.83,3.96-.9,6.05-.28,7.98,6.1,15.26,7.54,22.8l2.68,17.33c.38-2.55.92-5.77.93-8.34.02-7.65-.44-18.87-1.31-26.36ZM392.89,525.8c1.25-.07,2.64.79,4.19.41,6.42-1.58,13.66-12.82,16.45-20.46,2.48-6.78,2.27-9.66,2.95-16.78.33-3.53,1.47-8.71,1.05-12.03-.05-.42-.03-1.32-.45-1.21-.59,4.79-.71,9.55-1.29,14.35-.09.77-.6,1.53-.69,2.33-.12,1.03.34,2.4-.07,3.57-.54,1.55-1.11.84-1.56,1.51-.57.84-.84,2.47-1.37,3.47-.29.55-3.3,4.29-3.14,4.5,3.45.62-.09,4.68-1.36,6.11-.32.36-2.41,2.56-2.56,2.64-.2.12-.43.16-.65.18-2.19-.46-4.44.89-6.05,3.02-.55.06-1.29.68-1.81,1.15-1.4,1.28-2.12,3.33-3.19,4.64-1,1.22-2.85,1.91-3.62,3.85,1.13.15,2.11-1.19,3.16-1.25ZM386.82,525.55c.3-.42.96-.47,1.42-1.13.52-.75.76-2.17,1.19-3.06-4.14,1.33-5.58,7.25-8.71,10.58,2.84-.04,4.35-3.97,6.1-6.39ZM379.96,534.38l1.05-1.22-1.2.41.15.81ZM374.81,535.13c1.94-1.54,3.54-3.88,5.15-6.06,5.08-6.84,5.06-8.68,11.96-13.12,3.29-2.12,4.61-6.92,6.4-10.47.85-1.68,4.51-7.72,4.81-8.96.28-1.18.2-3.78.13-5.11-.54-10.54.09-21.2-1.93-31.6-.76-3.91-2.79-9.78-3.15-13.65-.41-4.49.08-10.35-.01-15.05-.04-1.86-.68-3.47-.02-5.48-1.43.75-1.3,2.54-1.83,3.83-4.07,9.8-4.36,12.46-5.11,23.62-.53,7.83-1.41,23.66-3.94,30.51-1.15,3.13-3.66,7.32-4.99,10.74-1.94,4.97-5.77,19.29-9.38,21.5-.64.39-1.41.19-2.02.73-1.02,4.41-2.7,8.54-3.91,12.83-.55,1.94-.98,6.83-2.26,7.56-.86.49-1.74-.22-2.76-.13-3.78.35-7.03,1.17-10.85-1.18l-9.14,1.6,19.08,3.27c4.8-.16,9.56-2.03,13.77-5.36ZM334.24,538.53c4.43,2.55,11.2,5.2,15.98,5.63,2.2.2,4.28-.36,6.46-.41l-2.59-.76c-7.85.13-14.82-4.93-22.35-6.97-.58.71,2.22,2.35,2.5,2.52ZM284.56,516.45c.21.29,5.45,2.04,5.86,2.04,2.23,0,4.73-.22,6.91,0,.22.02.6.65,1.05.4,0-.42-.29-.56-.52-.72-1.13-.8-6.93-3.42-8.05-3.38-.96.03-1.59.64-2.43.82-.82.17-3.04-.62-2.83.84ZM277.2,494.87c-1.21-.86-2.14-2.38-3.18-3.44-8.08-8.25-16.78-15.7-24.33-24.87-2-2.42-3.71-5.33-5.7-7.75-6.47-7.86-13.25-15.52-21.34-20.15,2.65,3.91,5.6,7.51,8.57,10.98,1.4,1.64,3.04,2.98,4.42,4.51,11.51,12.74,22.97,25.67,34.33,38.69,1.47,1.69,3.54,4.61,5.46,6.93,1.05,1.68,2.18,3.25,3.59,4.31.91.68,1.91,1.27,2.9,1.68.04.02.08.03.12.05.02.08.06.16.11.23.47.68,7.23,5.04,8.1,5.33,1.23.42,2.64.06,3.92.59l-8.37-8.07c0-.25-.06-.49-.21-.68-.44-.55-.91-1.07-1.38-1.56-.03-.15-.09-.29-.17-.42-1.78-2.78-4.29-4.71-6.86-6.09.04-.07.05-.17.01-.29ZM256.37,497.44c4.07,8.73,5.07,9.54,12.26,12.71,1.2.53,2.11,1.93,3.61,1.41-.58-.96-1.51-1.67-2.26-2.43-3.22-3.24-6.35-7.59-10.04-10.44l-4.83-4.63c-.2.28,1.02,2.88,1.26,3.38ZM215.67,452.01c.3.59.69.71.88,1.03,5.11,8.22,10.12,7.92,16.6,12.33.56.38.76,1.54,1.52,1.39-.46-2.27-2.17-2.94-3.15-4.07-4.67-5.38-10.01-13.02-15.22-17.25-.76-.62-1.81-1.42-2.67-1.68.3,3.26.66,5.51,2.03,8.26ZM205.98,426.85l-1.05-.81c.42.56.69,1.74,1.2,2.03l-.15-1.22ZM210.86,432.46c-.92-.31-1.83-1.41-2.92-1.12l3.45,6.12c9.91,8.95,18.35,19.61,27.04,30.55,3.53,4.44,7.73,7.87,10.98,12,2.31,2.93,2.48,6.47,4.2,8.96,1.47,2.13,6.53,6.47,8.51,8.42.14.14.28.28.41.42,1.01,1.33,2,2.7,3.04,3.97,1.97,2.41,4.04,4.76,6.23,6.79,1.18,1.09,2.52,1.83,3.72,2.87.32.27.64.53.98.76.34.33.7.6,1.09.78.09.19.2.34.36.45.2.13,3.97.62,4.35.59,1.01-.09,2.85-1.73,4.07-1.62.14-1.06-.11-.63-.43-.85-.65-.45-1.43-.82-2.2-1.19-.52-.53-1.07-.96-1.64-1.32-.21-.38-.45-.73-.68-1.03-.98-1.33-2.14-2.44-3.29-3.48-1.24-1.12-2.52-2.16-3.83-3.1-.57-.41-1.18-.87-1.8-1.22-4.02-4.78-7.98-10.17-11.37-14.09-10.25-11.82-21.15-22.67-31.26-34.61-4.37-5.16-11.62-16.76-16.81-18.76-.77-.3-1.5-.05-2.2-.28ZM203.57,414.22c1.67,2.69,3.33,5.01,5.15,7.48,2.61,3.55,6.73,9.24,9.81,11.76,2.29,1.87,5.43,2.95,7.94,4.72,6.43,4.54,11.91,11.03,17.22,17.39,11.22,13.45,22.45,25.09,34.46,37.2,7.67,7.73,15.33,15.89,23.52,22.7,6.49,5.4,13.93,8.9,21.06,12.59,3.74,1.94,7.41,4.05,11.29,5.47,3.74,1.37,8.59-.12,12.45.02-.09-.79-.65-.64-1.02-.85-5.3-2.96-9.89-4.9-15-9-4.87-3.91-9.9-7.4-14.67-11.51-3.32-4.92-6.55-10.12-11.18-12.3-.9-.93-1.96-1.66-2.87-2.33-2.24-1.66-4.52-3.07-6.94-4.18-2.63-1.2-5.36-2.21-8.1-2.81-1.24-.27-2.48-.45-3.73-.38-1.07.06-2.35.33-3.34-.37-.22-.16-.44-.15-.62-.05-1.03-.4-2.09-.65-3.14-1.23-5.26-2.88-13.51-13.26-16.18-20.03-.94-2.39-1.48-5.48-2.34-7.82-6.37-17.31-20.98-19.88-32.73-26.92-3.44-2.06-11.55-8.88-14.54-12.06-2.41-2.56-4.23-6.32-6.79-8.72-.49.41.1.9.3,1.22ZM428.64,618.28c3.03-3.36,6.42-7.14,8.99-11.02l9.79-22.77c-.6-.86-7.32,7.41-8.14,8.31-.94,1.04-2.27,1.8-3.18,2.82-.82.92-3.31,4.32-3.99,5.48-2.88,4.93-4.16,11.25-7.23,15.77l.08.02c-.47.8-.73,1.78-.75,2.91,0,.12,0,.22.03.32-.04.07-.07.15-.1.23-.3.83-.1,1.99-.76,2.83.43.45,4.58-4.14,5.25-4.89ZM403.55,658.2c.63.67,8.49-5.26,9.59-6.34,5.57-5.51,6.17-12.51,6.64-21.35-2.84,1.5-5.19,4.49-7.22,7.52-.76,1.15-5.08,8.35-4.82,9.52-1.68,2.32-3.27,4.81-3.93,7.9-.02.1-.03.19-.03.28-.02.06-.03.13-.04.19-.06.11-.1.23-.13.36-.3.41-.29,1.18.04,1.56-.03.12-.07.24-.1.37ZM390.6,674.24s.03,0,.04,0c1.01-.02,1.75-.64,2.58-1.34.32-.27.65-.52.96-.79.06-.03.11-.07.16-.1.71-.52,5.16-5.82,4.39-6.87-3.64,2.17-7.22,3.77-9.61,8.35.56.71,1.04.87,1.47.76ZM348.96,679.06c9.08,5.97,19.67,1.59,29.47,2.72,1.58-.02,6.23-2.9,6.5-5.04.12-.99-.33-.51-.76-.6-2.91-.57-3.34-1.5-5.48-2.36-1.83-.74-5.79-1.87-7.81-2.45-5.89-1.71-15.23-1.7-21.26-.91-2.22.29-4.77,1.82-7.06,2.04l6.4,6.59ZM236.31,310.74c.86,2.43,3.75,4.82,5.13,6.94,1.31,2.01,2.05,4.48,3.3,6.53,1.18,1.94,2.98,3.29,4.06,5.09,4.28,7.12,7.37,14.97,12.31,21.6,8.9,11.96,27.1,22.75,39.3,25.75,4.44,1.09,6.29-.97,10.14-1.53,3.16-.46,6.14.67,9.59-.03,5.57-1.13,10.83-4.14,15.9-7.37l11.47-12.74c1.6-.55,2.81-3.49,3.5-5.17,1.08-2.6,2.06-5.45,2.66-8.33.09-.41,0-.74-.18-.96,2.62-11.44,2.74-29.31-3.29-35.86-1.94-2.11-3.64-2.55-4.01,1.46-.27,2.89.27,5.8.9,8.7.08,1.56.27,3.11.46,4.66.35,2.85.5,5.6.44,8.45-.04.17-.06.34-.05.51,0,.07.02.13.03.19,0,.25-.01.5-.03.75-.15,3.44-.57,6.84-1.35,10.13-.15.63-.31,1.25-.47,1.86-.69,1.69-1.46,3.31-2.19,4.87-.26.56-.43,1.34-.64,2.07,0,0,0,.01-.01.02-.12.2-.18.41-.19.62-.08.24-.18.46-.29.65-.46.82-3.55,4.65-4.32,5.55-2.66,3.09-8.94,8.33-12.18,9.97-3.38,1.71-8.03,2.61-11.48,3.58-2.47.7-4.97,2.86-7.57,2.32-8.79-1.81-15.39-5.24-23.51-10.08-7.39-4.4-13.25-7.88-19.33-15.34-2.33-2.86-5.97-7.46-7.95-10.62-2.52-4.04-5.53-10.6-7.97-15.17-1.7-3.18-3.17-6.43-4.86-9.59-.78-1.46-1.88-2.56-2.5-4.31-.89,1.02-5.54,2.83-4.83,4.83ZM256.78,415.02c1.13,2.89,1.7,6.21,3.44,8.66.33.47,3.59,3.81,3.82,3.91.64.27,1.87-.04,2.3-.7.1-.15.74-3.49.77-3.94.21-2.58-.26-6.28-1.11-8.61-.38-1.04-1.1-1.18-1.2-1.43-.18-.44,0-1.28-.23-1.92-1.44-3.91-4.18-8.41-6.33-11.8-10.5-16.57-21.42-29.36-28.59-49.64-2.54-7.17-8.11-21.87-9.34-28.93-.13-.73.05-1.09.24-1.71l-1.79.84c1.14,3.03.06,5.34-.02,7.93-.09,3.01.69,8.23,1.36,11.19,3.67,16.29,12.44,27.83,20.13,40.75,1.94,3.25,5.14,7.6,6.72,10.84,3.37,6.96,6.89,16.98,9.83,24.55ZM216.93,328.9c-.15-1.06-1.08-1.95-1.14-2.54-.04-.34,1.29-3.88.08-5-6.03,3.72-12.16,7.45-17.54,12.81.89,1.49.82,3.79,1.2,5.68.31,1.51.87,2.93,1.16,4.53.72,3.96,1,8.04,1.83,11.98,1.17-.16,1.39-2.19,2.43-3.02,4.09-3.28,8.49-5.68,12.14-10.42,1.75-2.27.46-1.8.17-3.89-.44-3.19.05-7.33-.33-10.14ZM217.05,346.54c-3.3,2.88-5.69,5.47-9.22,8.27-.78.61-1.3,2.01-2.02,2.56-.66.51-1.94.69-2.66,1.51.27,1.18.2,2.46.41,3.63,4.52,25.77,17.82,45.33,38.49,45.63.94.01,1.79-.58,2.67-.43,1.06.17,2.85,1.77,4.32,1.95,1.17.14,2.02-.77,3.06.08.13-.22-.78-3.67-.97-4.18-5.89-15.67-14.32-27.27-22.36-40.77-1.78-2.98-4.19-6.52-5.63-9.68-.65-1.44-3.41-10.11-3.79-10.37-.77-.54-1.72,1.29-2.3,1.8ZM196.3,358.51c.71,2.82,1.28,6.17,1.84,9.09,2.56,13.2,5.08,27.67,13.09,37.05,3.44,4.02,12.06,9.32,16.53,10.59,9.12,2.59,18.25-.19,27.35,2.23l-1.37-5.24c-.9.08-2.4.82-3.22.67-.8-.14-2.91-1.2-4.26-1.56-8.78-2.38-16.24-1.7-24.6-8.21-7.54-5.87-14.46-18.11-17.65-29.02-1.15-3.92-1.44-8.88-2.39-13.05-.19-.81-.77-1.29-.83-1.68-.07-.5.31-1.45.23-2.36-.29-3.49-2.48-14.29-3.55-17.63-.38-1.18-1.28-1.91-.96-2.97-.64-.54-4.82,4.52-5.57,5.29.8,6.16,3.91,11.06,5.35,16.8ZM166.01,392.63c-.92,2.69-3.27,3-4.96,4.48,1.06.76.95,2.16,1.52,3.03.22.33,3.15,2.95,3.45,3.07.89-2.23,2.33-3.92,3.75-5.49l-3.75-5.09ZM191.18,520.22c.99,10.62,3.84,18.79,9.7,25.96,3.3,4.04,7.39,6.49,11.26,9.38.57-1.02-3.7-17.11-4.36-19.55-1.92-7.15-4.87-13.67-8.01-20.1-3.28-6.71-4.01-5.39-8.43-9.25-.36-.32-.6-1.5-1.43-1.2,1.86,4.48.83,9.94,1.28,14.76ZM213.85,552.63c.28,1.36.3,2.79.54,4.16l7.66,5.29c-.02-1.91-.61-3.69-.87-5.54-.75-5.38-1.05-11.33-1.92-16.55-.68-4.07-2.12-7.79-3.07-11.72-4.81-1.79-6.87-8.47-10.68-11.99-.94-.87-2-1.12-2.9-1.78-.45-.33-2.17-2.51-2.49-2.11,1.6,2.29,2.45,5.42,3.66,7.87.63,1.28,1.62,2.44,2.18,3.57,4.42,9.07,5.74,18.4,7.9,28.8ZM192.35,503.98c.43.39,1.55,1.44,2.06,1.28-.34-.49-.74-.91-1.03-1.46-7.71-14.89-16.2-28.59-25.26-41.93-3.95-5.8-7.83-11.65-12.33-16.69-2.17-2.42-4.59-4.5-6.75-6.93-.47.71,1.91,2.79,2.26,3.25,3.31,4.27,6.23,7.71,8.1,13.46,2.45,7.53,2.6,12.31,7.06,18.94.89,1.33,6.14,5.48,7.61,6.38.85.52,1.87.51,2.72,1.2,1,.82,1.45,2.67,2.45,3.61.56.53,1.3.57,1.82,1.2.89,1.07,3.31,7.7,4.46,9.64,1.54,2.6,4.76,6.16,6.84,8.03ZM156.08,451.31c-2.38-4.57-6.33-7.91-9.34-11.58-1.29-1.57-2.25-3.59-3.56-5.15-4.69-5.62-12.13-7.34-17.89-10.17,1.16,2.07,3.58,2.83,5.09,4.3.84.81,1.43,2.14,2.32,2.96,6.52,6.04,13.06,6.58,19.04,15.74,1.64,2.52,2.51,6.01,5.4,6.73.15-.2-.88-2.47-1.07-2.82ZM134.39,425.72c2.85,1.47,5.48,3.76,8.33,5.2-4.3-5.29-9.74-8.04-15.11-10.67-.37-.18-.68-.95-.96-1-.32-.05-2.65,1.19-2.86,1.89,3.48,1.68,7.15,2.8,10.6,4.58ZM137.71,423.25c8.5,6.22,15.65,18.27,23.65,25.79,12.89,18.74,25.45,37.67,36.37,58.64,3.48,1.87,6.94,4.43,10.06,7.14l1.61-8.7c-6.04-16.84-17.12-35.06-26.74-48.48-11.19-15.6-18.18-25.95-32.33-37.23-1.76-1.4-7.12-6.73-8.72-6.92-1.05-.12-2.08,1.23-2.51-1.28l-9.89,5.28c2.39,2.93,5.74,3.74,8.51,5.77ZM147.52,414.45c1.38,1.12,2.35,2.81,3.76,3.85.44-.53.62-1.31,1.05-1.85,2.74-3.43,7.21-5.6,10.2-8.98.3-.33,1.52-1.64,1.23-2.2-1.87-1.18-2.84-4.12-4.66-5.7-4.79,5.66-10.91,8.46-16.98,10.58-.43.78,4.97,3.95,5.39,4.3ZM172.42,401.68c-1.14-.48-2.17.55-2.76,1.79l-2.14,1.38c3.44,3.78,7.26,6.82,11.27,9.37.64-1.04-5.78-10.81-6.37-12.54ZM203.6,454.52c-2.1-6.11-3.33-8.31-6.01-13.85-1.13-2.34-1.83-5.21-3.19-7.49-1.49-2.5-5.41-7.01-7.36-9.16-.36-.39-2.6-2.78-2.84-2.45l11.43,22.99c2.52,3.14,4.73,7.94,7,11.08.29.4,2.99,3.26,3.2,2.99-.42-1.4-1.81-2.87-2.23-4.1ZM208.54,465.95l4.84,8.31c3.83,4.57,7.71,8.97,11.58,13.42.58.67,1.37,2.37,2.15,3.09l10.73,10.2c.49-.41-.1-.9-.3-1.22-2.13-3.42-4.41-6.48-6.6-9.79l-22.4-24.01ZM243.93,502.94c-.65-1.45-1.25-3.12-2.23-4.21-3.85-11.32-11.78-21.24-20.04-26.34l-7.72-4.81c-.58.82,2.81,3.3,3.15,3.66,6.48,6.95,15.36,15.24,20.57,23.84.81,1.33,1.52,2.78,2.23,4.24.03.15.1.29.2.41,1.46,3.03,2.92,6.07,5.09,8.17l-1.39-3.75c.23-.29.34-.74.13-1.21ZM255.42,523.64c-1.32-2.36-2.97-4.7-4.88-6.31-.05-.1-.13-.2-.22-.28-1.3-1.14-2.32-2.69-3.41-4.17-.23-.31-.55-.34-.81-.2-.14-.2-.3-.42-.46-.7-.33.22-.17,1.12-.05,1.51,0,.01.02.03.03.04,0,.11,0,.22.03.34.48,2.03,1.13,3.96,1.9,5.81.05.11.1.2.16.27,1.01,3.25,2.39,6.38,4.07,8.95.49.74,1.21,1.11,1.68,1.8,1.16,1.68,2.19,3.52,3.44,5.09.05.1.1.21.16.31.11.21.28.35.46.42.09.11.19.21.29.31.01-.1.02-.19.03-.27.35-.04.65-.36.63-.97-.16-4.18-1.17-8.59-3.04-11.94ZM281.72,562.06c-2.83-5.2-7.49-10.29-10.67-15.25-.63-.99-.94-2.35-1.51-3.26-.76-1.21-3.58-5.93-4.2-6.53-.02-.02-.03-.03-.05-.04-.44-.78-.93-1.5-1.4-2.24l-.07-.36h-.16c-.22-.34-.44-.69-.64-1.05-.79-1.38-1.64-2.72-2.79-3.47-.08-.18-.15-.35-.23-.53-.44-.99-1.6-.33-1.37.78.03.16.07.33.11.49,0,.07.01.14.03.21.06.28.15.53.26.75l-.29-.44c1.55,3.29,1.99,7.27,3.45,10.6,1.29,2.95,3.59,5.73,5.42,8.13,2.58,3.4,5.23,6.82,8.47,9.3l6.11,4.55c.13-.82-.13-1.09-.44-1.65ZM290.56,576.14c-3.1-5.34-4.75-5.97-8.81-9.24-1.77-1.43-3.31-3.47-5.31-4.41-.13.76.31.97.6,1.43,1.49,2.41,4.03,5.57,5.87,7.52,2.66,2.82,5.62,4.72,8.55,6.94.22-.33-.69-1.85-.91-2.23ZM310.48,591.09c-.89-.18-1.8.07-2.6-.14-2.99-.77-6.13-2.41-8.9-4.03,1.07,1.8,3.68,2.91,5.34,3.56,2.56,1,5.22,1.56,7.88,1.73-.09-.61-1.37-1.05-1.72-1.12ZM339.55,587.74c-3.59.37-7.42-1.19-10.96-.81-1.07.11-5.07.92-5.95,1.3-.46.2-.63.96-1.27,1.13-1.18.31-2.83-.78-3.45,1.22,1.29,1.11,2.62.65,4.07.21,2.53-.76,5.2-3.21,7.85-3.31,1.2-.04,2.66.62,3.84.68,1.54.07,3.28.07,4.82-.02.37-.02,1.12.31,1.05-.4ZM364.93,594.68c-2.76-.25-5.22-1.71-7.64-2.27-.84-.2-2.37.09-3.32-.18l3.61,1.82.3.61c-3.6.05-6.63-3.49-10.22-3.66l6.3,5.09c.53.4.31,1.71-.15,1.83-.41.11-6.48-4.12-7.66-4.68-4.03-1.92-14.47-3.68-18.41-2.17-.88.34-2.16,2.85-3.82,1.96.48,1.17,1.87.86,2.77,1.33,7.85,4,10.42,4.07,18.71,4.7,2.32.18,4.12,1.14,6.6,1.32,2.59.18,7.58.43,10.1-.2,2.41-.6,7.39-2.98,9.76-4.29,1.19-.66,3.01-1.54,3.75-2.85-3.38,1.73-7.07,1.97-10.68,1.64ZM378.91,590.99c.54.04,1.28-.46,1.5-1.21-.68-.15-1.26.36-1.5,1.21ZM416.15,571.62c.63-.51,1.52-1.83,1.83-2.02.45-.28.96.35,1.15.19.8-.7,3.84-7.5,4.11-8.91.28-1.5,0-2.84.17-4.25.18-1.6.87-3.32,1.1-5.03.17-1.26-.11-2.57.38-3.76l-5.88,4.65c-1.51,1.37-7.86,9.41-9.15,11.43-1.3,2.03-2.25,5.14-3.43,7.16-1.4,2.39-4.54,4.84-6.15,7.14-.27.39-.5.87-.63,1.38.52.53,9.63-2.77,10.81-3.47,1.69-.99,4.01-3.15,5.69-4.51ZM324.93,648.98c5.05-7.5,10.74-15.3,17.99-18.58,1.96-.89,4.32-1.25,6.24-2.13,2.4-1.1,4.42-3.07,6.92-4.06,3.81-1.52,7.15-.89,11.19-2.75,8-3.68,15.47-9.88,22.48-15.96,8.56-7.43,17.69-15.23,23.55-26.73.29-.58.43-1.27.77-1.81l-3.44,2.27c-4.64,2.88-11.01,2.56-15.5,4.65-.16.07-.35.23-.55.42-.99.09-1.96.3-2.91.66-3.7,0-5.84,3.03-8.35,5.92-.27.32-1.16,1.12-1.87,1.85-1.34,1.03-2.65,2.12-3.97,3.18h-.35c0,.09,0,.18,0,.28-.69.55-1.38,1.1-2.08,1.64-.5.38-1,.75-1.51,1.12-3.28,1.47-7.9,3.29-9.04,3.69-4.84,1.71-11,1.43-16.08,1.42-4.49-.01-10.05-1.6-14.59-3.05-3.33-1.06-5.02-1.96-8.55-2.67-2.5-.5-4.24-2.33-6.09-2.75-2.15-.49-4.88.1-7.14-.1-4.71-.42-13.56-3.29-16.54-8.54-.68-1.21-.92-2.53-1.51-3.65-1.17-2.21-5.72-4.22-7.74-5.8-9.56-7.46-14.93-20.53-23.2-29.65-.26-.29-.99-1.18-1.55-1.51-.38-.69-.78-1.36-1.18-2.03-.52-.86-1.09-1.57-1.78-2.18-.34-.3-.69-.57-1.04-.85-4.2-6.87-8.83-11.82-12.08-20.46-1.6-4.24-2.55-9.07-4.25-13.15-4.48-4.65-9.73-8.87-14.1-13.61-8.37-9.08-16.38-19.79-23.07-31.14-2.97-5.04-6.28-9.7-9.14-14.9-8.35-15.21-12.91-27.1-25.32-37.78-.53-.45-3.84-2.92-4.17-2.91-2.7,3.32-5.79,5.81-8.74,8.7-.95.93-2.01,2.57-3.24,3.09-.93.89,2.57,2.26,3.11,2.69,1.31,1.05,2.67,3.13,3.96,4.41,5.97,5.94,10.01,10.95,15.15,18.16,10.29,14.46,20.12,29.37,28.82,45.66,5.7,10.68,9.04,23.13,12.56,35.31.49.42,1.15.42,1.65.82,5.19,4.22,8.34,8.33,14,11.97,7.44,4.79,13.08,8.41,18.37,17.46,3.19,5.47,4.84,8.09,8.87,12.41,2.16,2.31,8.56,8.34,11.2,7.85.88-.16,1.78-1.08,2.79-1.16,2.57-.21,3.93,3.65,5.4,5.73,1.17,1.66,2.48,3.18,3.61,4.88.92,1.38,2.19,4.52,3.16,5.5,3.1,3.12,10.13,5.17,13.82,6.93,7.04,3.36,21.03,15.39,22.76,25.76.13.76.71,5.4-.67,4.99-.79-1.64-.32-3.66-.91-5.7-2.35-8.19-14.31-19.12-20.29-22.2-4.72-2.43-13.3-4.18-16.84-8.95-2.71-3.65-4.96-9.37-7.94-12.86-2.27-2.66-1.93-1.12-4.21-.8-5.78.79-14.74-8.81-18.79-14.05-1.24-1.6-1.88-4-2.69-4.95-.5-.58-.88-.09-.91-.15-.08-.21.26-.75.13-1.23-1.18-4.53-11.1-13.29-14.45-15.41-2.38-1.51-5.29-2.34-7.43-3.78-3.17-2.14-5.39-6.87-8.9-8.5,1.54,4.75,2.65,9.78,3.27,14.91.38,3.1.74,5.93,1.15,9.03.17,1.27.73,9.12.99,9.45.08.1.89-.08,1.28.09.44.2.73.92,1.21,1.22,11.6,7.29,26.37,20.57,34.47,34.33,2.37,4.02,4.89,10.58,7.65,14.07,4.03,5.11,10.29,10.75,14,16.06,1.91,2.74,2.72,5.28,5.25,7.95,4.58,4.82,9.99,8.08,15.74,8.77.61.07,1.51-.86,2.31-.99,2.07-.35,9.54,3.7,11.92,4.96,1.69.9,3.3,1.89,4.86,3.15.37-.12,1.65-3.3,2.08-3.93ZM225.06,566.56l3.16,14.26c3.93,2.89,5.85,7.36,10.28,9.26.5.21,1.08-.05,1.57.31.74.54.77,2.68,1.1,3.09,1,1.24,4.26,2.97,5.62,4.1,1.01.84,1.96,2.21,3.11,3.11,4.53,3.55,9.49,5.68,14.21,8.63l-4.37-8.54c-8.71-13.02-19.14-24.01-30.77-32.01-1.25-.86-2.66-1.39-3.92-2.22ZM323.26,670.31c2.4.72,6.53,1.97,8.87,1.25.88-.27,1.1-1.43,2.16-1.58,2.09-.29,1.55,2.75,3.76,1.25l-6.61-7.53-1.8.21.3.8c-.42,0-.86-.06-1.28.1-3.31,1.27-6.67,1.89-9.84,3.77,1.31.8,3.02,1.29,4.44,1.72ZM318.21,664.31c2.64-.45,5.29-.8,7.87-1.75.46-.17,2.49-.85,2.34-1.71-.08-.42-4.7-4.52-5.49-4.23-.83.31-5.02,7.37-4.72,7.68ZM313.63,666.29c1.68.43,2.02-2.8,2.78-4.23.11-.22,1.33-2.2,1.49-2.44.61-.88,3.86-3.67,3.28-5.03-.55-.21-.96-.74-1.45-1.08-2.19-1.52-7.16-4.43-9.47-4.68-4.01-.43-7.86.02-11.95-1.31-1.17-.38-2.04-1.45-3.23-1.52,1.49,3.47,4.05,5.66,6.21,8.28.26.31.37.93.69,1.3,3.62,4.26,7.41,7.68,11.66,10.71ZM238.55,600.21c8.13,5.37,15.62,11.66,22.84,19.13,5.73,5.92,11.4,16.42,16.54,23.61,5.88,8.21,18.27,22.74,26.69,24.55.86.18,1.35-.35,2-.31,1.17.07,2.48,1.4,4.08.38l-5.39-4.71c-5.18-5.06-9.06-11.13-13.39-17.29-4.72-6.72-10.53-11.78-15.48-18.11-3.13-4-5.21-8.52-8.91-11.96-4.92-4.57-9.5-5.91-14.54-9.21-4.01-2.63-8.2-6.93-12.11-10.07-1.22-.98-3.02-1.68-4.08-2.61-1.4-1.22-4.68-5.26-6.02-6.9-.42-.52-.98-.82-1.37-1.41-.38.24-.03,1.14.06,1.54.98,4.16,2.68,8.1,3.4,12.3.7.21.88-.98,1.41-1.16.63-.21,3.47,1.7,4.26,2.22ZM224.9,597.94c2.45,3.52,5.24,6.54,6.74,11.22,1.03,3.21,1.27,7.26,2.29,10.74,3.2,10.87,7.43,25.29,11.39,35.47,1.97,5.05,6.58,13.58,9.78,17.3.48.56,2.79,2.86,3.23,2.98.59.16,2.75-.35,3.21-.78,1.05-.97.28-6.19-.36-7.61-1.42-3.17-2.87-6.67-4.39-9.93-6.07-13.02-12.42-25.94-18.47-38.91-7.23-15.5-10.21-29.08-14.32-46.17-.53-2.21-.83-4.61-1.45-6.8l-8.02-5.01c.59,3.93.05,7.99.67,11.91.65,4.05,7.67,22.67,9.68,25.57ZM180.34,508.85c6.68,19.92,7.52,40.58,17.18,58.8,1.91,3.61,4.44,7.42,6.65,10.73,1.86,2.79,8.24,11.95,10.37,13.23,1.62.97,1.4.39,3.32,2.01.66.56,2.24,1.95,2.84,2.26.38.2.56-.07.44-.6-.39-1.77-1.81-3.66-2.46-5.22-1.22-2.94-4.5-10.77-4.98-13.61-.13-.74-.41-5.05-.67-5.4-.1-.12-1.2.12-1.79-.23-.72-.43-1.39-2.35-1.96-3.05-2.21-2.68-5.02-5.04-7.22-7.73-8.52-10.47-12.96-23.95-16.82-38.3-.64-2.37-2.38-10.02-3.14-11.52-.97-1.93-.83-1.3-1.75-3.84-1-2.75-2.6-5.82-4.27-7.85l4.26,10.31ZM172.91,492.04c1,1.5,3.38,3.03,4.68,4.66,1.55,1.95,2.46,4.2,3.75,6.32,1.11,1.83,2.51,2.37,3,4.89.15.77,0,1.71.18,2.59,4.66,22.6,11.15,40.86,25.23,55.02.84.84,1.97,1.94,2.99,2.26-.13-2.15.18-4.62,0-6.72-.03-.34-.58-2.85-.67-2.96-2.51-1.54-5.48-3.19-7.83-5.06-4.62-3.69-12.42-15.61-13.6-22.71-1.12-6.73-.88-11.94-1.42-18.44-.74-8.88-6.69-14.65-11.19-20.27l-8.56-6.73c1.17,1.88,2.34,5.49,3.44,7.14ZM179.68,489.57c.3-.4-.66-1.55-.9-1.84-1.92-2.34-4.72-5.04-7.14-6.21-.79-.38-1.64-.87-2.48-.91l10.52,8.95ZM130.93,446.71c.3,1.26.59,2.46,1.1,3.61,1.29,2.94,3.27,4.25,4.89,6.4,4.87,6.49,9.73,13.86,15.29,19.41,2.32,2.32,3.8,3.02,6.36,4.81,2.64,1.84,5.14,4.54,8.21,4.96l-7.51-9.98c-4.96-5.11-8.87-11.63-13.07-17.72-4.74-6.86-11.47-10.69-17.13-15.88l1.87,4.38ZM121.99,430.31c.94,1.41,1.13,3.2,1.8,4.48.17.32,1.88,2.94,2.11,3.25.38.51,3.69,1.86,4.7,2.58,3.68,2.61,11.86,9.58,14.97,13.1,2.58,2.92,5.09,8.43,7.8,11.82,1.25,1.57,3.06,2.98,4.21,4.47,3.26,4.22,6.09,9.16,9.63,13.02.3.32,1.71,1.92,1.95,1.64-2.8-3.52-4.03-8.12-6.07-12.34-1.33-2.76-3.25-5.26-4.46-7.81-1.17-2.47-1.64-5.83-3.04-8.1-.72-1.17-2.06-2.02-2.82-3.1-1.51-2.14-2.73-4.69-4.34-6.74-4.76-6.07-9.81-7.72-15.23-11.94-3.28-2.56-5.75-5.56-9.33-7.72-.96-.58-2.4-.18-2.34-2.17.04-1.23.39-1.9,1.21-2.4l-.3-.81-4.66,2.45c.26,3.24,2.83,4.23,4.2,6.3ZM117.35,432.53c1.57.7,2.75,2.35,4.34,2.87-.53-4.7-5.05-5.63-6.03-10.16-.48-.47-4.53,2.61-5.19,3.3-.33.35-.62.41-.5,1.15.32.58,6.4,2.39,7.38,2.83ZM104.87,435.81c1.47-.22,3.51,1.67,4.49,3.16,2.89,4.38,4.98,6.59,8.13,10.48,10.53,13,21.83,29.46,28.89,46.37,5.82,13.93,11.44,26.92,14.82,42.23.83,3.77,2,7.67,2.77,11.32,3.31,15.69,3.88,31.75,12.4,44.29.59.87,4.3,6.18,5.11,5.08-.26-1.41-.2-3.07-.5-4.41-1.26-5.64-3.6-11.48-4.82-17.49-2.33-11.4-3.35-24.78-6.08-35.75-6.66-26.7-17.38-45.62-29.94-67.36-8.28-14.34-17.68-27.7-28.07-39.35-.68-.77-3.26-3.54-3.92-3.3-.58.21-3.56,4.15-3.3,4.73ZM87.19,474.23c4.53,10.12,9.74,20.07,13.68,30.74,1.39,3.75,2.4,7.76,3.84,11.5,1.17,3.06,3.46,6.99,4.43,9.88,1.5,4.48,2.53,13.42,3.76,18.53,4.02,16.77,8.2,25.83,16.6,39.01,3.48,5.45,6.97,10.96,11.13,15.87,2.24,2.65,10.22,11.4,12.62,12.23,5.35,1.84,4.78,3.36,8.58,7.51,3.56,3.89,7.29,7.2,10.67,11.61,3.3,4.31,6.38,11.34,8.57,16.9,6.73,17.04,8.45,36.6,9.76,55.61.44,6.4,1.9,12.87,3.05,19.09.69,1.3,1.94,3.19,3.26,2.09.31-.26,2.43-4.46,2.57-5.07.94-4.01-1.07-18.47-1.69-23.41-.77-6.19-1.36-10.87-1.74-17.19-.59-9.69-2.82-26.07-7.35-33.83-7.7-13.18-22.51-24.47-32.19-35.6-6.57-7.55-12.26-11.35-17.3-21.76-2.21-4.57-5.4-9.37-7.27-14.18-1.33-3.42-6.01-17.74-6.24-20.87-.14-1.83.13-3.86,0-5.69-.83-11.13-7.2-25.14-11.36-35.1-5.37-12.84-11.91-26.29-18.56-37.98-1.39-2.44-5.64-9.52-7.42-10.71-2.8-1.87-2.45.91-4.72,1.73-.34.61,2.84,7.93,3.36,9.08ZM65.9,462.14c.4.63,3.04,3.24,3.14,3.48.26.65-.05,3.36,1.17,3.92,2.33,1.07,6.72-1.44,8.82-2.98,7.61-5.56,14.92-17.83,20.26-26.72,2.2-3.66,4.9-7.04,7.26-10.52.36-.53.34-1.42.62-1.7.54-.53,1.31,0,1.82-.27.81-.42,2.22-2.59,3.78-3.44,7.66-4.18,15.3-8.21,22.95-12.48,6.94-3.87,14.6-6.65,20.81-12.52.77-.73,1.57-2.21,2.16-2.78,3.9-3.73,8.94-6.82,10.84-13.41.72-2.49.15-5.22.72-7.66.32-1.37,1.39-2.99,1.77-4.44.62-2.31.65-6.45,1.39-8.3.39-.96,1.74-2.03,2.35-3.02,1.24-2.01,1.96-4.52,3.02-6.39,1.14-2,3.06-3.59,4.35-5.92.37-.67.36-1.74.77-2.21.34-.4,1.33-.56,1.87-1.04,3.87-3.38,7.79-8.21,11.74-11.87,9.37-8.69,20.31-14.55,30.65-20.78,1.43-.86,5-2,6.01-3.16.45-.51.19-1.63.7-2.1.84-.77,1.65.14,2.5-.13.52-.17,6.19-4.3,6.45-4.73.54-.88.34-1.94.6-2.85.19-.64.57-1.1.74-1.84.76-3.3-.8-7.79-1.93-10.78-5.24-13.86-17.19-29.21-27.28-35.95-2.77-1.85-8.03-5.5-10.94-5.91-.55-.08-.7.94-1.3.73l.3-1.22c-2.1-.13-3.91-1.7-5.94-2.33-3-.94-6.15-.84-9.19-1.39-10.72-1.95-21.96-3.35-32.77-1.14-4.89,1-10.37,5.53-15.04,8.12-10.51,5.82-19.99,9.97-30.21,17.3-12.78,9.15-25.25,20.18-37.27,30.94-7.41,6.62-16.92,14.94-21.74,25.11-3.38,7.13-6.87,14.57-8.79,22.71-1.63,6.92-3.35,14.53-3.12,21.88.38,11.99,5.56,26.59,9.41,37.34,2.72,7.59,6.89,14.99,9.07,22.73,1.55,5.51,4.03,16.22,4.9,21.88.68,4.42.31,12.26,2.58,15.86ZM3.01,326.43c.12,4.3-.57,10.16-.62,14.66-.11,9.11-.01,16.96,1.74,25.78,4.05,20.36,12.81,49.79,24.71,63.86,6.8,8.04,14.18,16.1,22.05,21.84,3.58,2.61,5.3,5.89,8.69,8.58,1.05.84,2.25,1.22,3.32,2.02.64.48,1.18,2.13,2,1.36-.79-1.04-1.67-2.32-2.02-3.78-1.2-4.97-1.14-11.03-1.97-16.07-1.09-6.65-3.41-16.08-5.4-22.42-2.23-7.11-5.81-13.64-8.28-20.96-4.08-12.07-7.93-21.28-9.04-34.99-.87-10.68,2.57-22.85,5.06-32.98.92-3.74,3.05-5.8,4.53-8.53.84-1.56,1.37-4.01,2.16-5.63,7.77-15.86,25.71-28.87,37.49-38.79,8.37-7.04,16.53-14.52,25.29-20.7,11.25-7.93,23.59-13.52,35.31-20.16,9.1-5.16,19.33-5.05,29.11-4.61,13.92.62,27.7,3.84,40.22,12.36,5.72,3.89,10.1,8.89,14.63,14.79,4.73,6.17,10.98,15.42,13.51,23.63.45,1.45,1.91,7.46,1.96,8.76.06,1.41-.68,2.63-.47,4.08.37.54,3.16-1.98,3.68-2.44.26-.23.31-.75.55-.98.8-.8,2.59-1.44,3.13-3.1.68-2.08-.71-4.59,2.86-2.44,3.35-7.95,3.59-16.7.46-24.84-1.06.56,1.15,3.47-.45,3.26-.2-1.21,0-3.49-.17-4.52-.98-6.19-6.24-16.71-9.74-20.94-5.83-7.04-13.55-11.74-19.39-18.93l-.3.81c-1.11-3.66-4.7-3.63-6.46-6.72.06-.5,1.85.84.9-.41-1.18-1.56-2.83-2.88-4.06-4.28-3.12-3.56-6.13-7.48-9.4-10.57-2.38-.57-4.32-2.92-6.08-5.1l.9-.21-1.96-2.03-.3,1.22c-.81-.52-.13-1.87-.18-1.99-.08-.16-1.98-2.15-2.27-2.42-5.39-5.02-11.54-8.58-17.32-12.36-9.14-6-19.49-6.43-29.52-6.05-10.61.4-22.16,2.26-32.2,7.08-2.68,1.29-5.6,1.88-8.52,2.9-18.16,6.32-34.54,23.04-49.11,38.52-6.62,7.03-12.3,15.35-18.48,23.01-7.71,9.55-14.03,16.19-20.75,27.27-5.97,9.85-12.14,19.73-17.06,30.65-.78,1.74-3.46,7.4-3.63,8.98-.1,1.01.77,1.76.74,2.75-.03.9-.77,2.68-.78,4.07-.01,2.27.84,5.34.91,7.72Z" style="fill: #eaddb7;"/>
    <path d="M186,368.19c-.45-.87,3.06-5.46,1.81-7.13-1.52-2.04-5.94,1.84-6.32,1.43.82-3.76,5.54-4,3.87-8.5-2.16-.71-1.95,1.85-2.83,3.59-.68,1.35-3.41,4.56-3.09,6.25.34.82.85,1.58,1.58,1.52.84-.07,4.5-3.35,4.35-1.08-.06.9-1.4,1.95-1.42,3.72,0,.57.42,2.7.69,3.07,1.04,1.44,6.55-1.03,3.87-3.21-.97.49-1.46,1.01-2.51.34Z" style="fill: #eaddb7;"/>
    <path d="M242.49,216.67v.81c.55.1.87.02,1.2-.61l-1.2-.2Z" style="fill: #eaddb7;"/>
    <path d="M256.01,671.24c.34-.46,1.94,1.92,2.1,2.44-.71.51-2.44-1.99-2.1-2.44Z" style="fill: #eaddb7;"/>
    <path d="M207.63,337.24c-.48-.57-5.25,2.69-6.16,1.23-1.97-2.44,3.68-8.38,5.41-8.56l.46,1.01-3.61,4.68c1.18-.08,2.41-.31,3.56-.67,1.05-.33,2.93-2.17,3.8-.54,2.06,3.86-4.99,5.09-4.05,8.96,1.77-.37,3.47-.51,5.17-1.34,1.27-.62,2.23-2,3.54-1.92.63,3.82-8.73,6.52-10,6.04-.72-.28-1.63-2.23-1.37-3.3l3.26-5.59Z" style="fill: #eaddb7;"/>
    <path d="M89.94,423.32c-2.46,2.69-4.55,6.69-6.71,9.85-2.92,4.28-7.45,9.52-11.78,10.91-1.27.41-2.99-.4-3.55.07-.82.68-.58,2.84-.02,3.7,1.28,1.95,3.29-.91,4.51-1.67.93-.58,1.95-.86,2.82-1.47,8.59-6.02,12.44-17.89,21.02-23.23,1.16-.72,3.2-1.14,4.11-2.17.69-.78-.74-1.27-1.13-1.34-2.09-.36-7.6,3.53-9.28,5.36Z" style="fill: #eaddb7;"/>
    <path d="M225.71,286.8c-.53.42-1.6,5.01-2.34,5.99-.82,1.07-6.65,5.41-7.87,6.04-2.15,1.1-7.47,1.41-8.64,3.35-1.52,2.51,1.16,2.03,2.35,1.56,2.15-.84,4.77-1.44,6.7-2.32,1.64-.74,4.02-3.29,5.64-4.58,2.81-2.22,4.75-1.81,5.77-6.84.35-1.72-.25-4.28-1.61-3.2Z" style="fill: #eaddb7;"/>
    <path d="M216.35,252.52c.18.93.94.85,1.5.81-.18-.93-.94-.85-1.5-.81Z" style="fill: #eaddb7;"/>
    <path d="M21.13,386.39c.22.4,3.78,4.83,4.01,5.04.36.33,2.48,1.21,2.94,1.21,2.48.02,2.77-2.88,2.73-5.56-.11-6.83-3.89-14.16-5.26-21.16-3.17-16.26,1.27-31.65,1.19-48.05-.02-4.47.31-13.68-1.8-17.11-.39-.64-4.18-3.8-4.68-3.84-2.39-.22-2.3,1.47-3.59,2.84-3.26,3.46-5.37,6.75-6.9,12.24-2.12,7.59.76,29.39,1.97,38.03.94,6.71,2.78,8.94,4.34,14.49,2.03,7.24,1.47,15.54,5.06,21.87ZM28.47,388.46c-.19.26-.71.49-.98.47-.86-.07-4.13-4.16-4.82-5.24-3.28-5.17-2.9-12.61-4.27-19.07-.8-3.79-2.88-6.71-3.73-10.42-.86-3.74-.75-7.37-1.23-10.95-1.58-11.74-5.07-25.28.55-36.13.45-.87,2.43-4.12,2.97-4.53.31-.24,3.22-.94,3.73-.99,2.63-.22,3.86,4.47,3.95,7.34.24,7.33,0,13.89-.6,21.17-1.2,14.51-3.03,26.16.45,40.52,1.06,4.36,3.59,10.15,4.27,14.58.14.88.19,2.58-.29,3.24Z" style="fill: #eaddb7;"/>
    <path d="M101.98,214.48c1.67,3.58,1.06,2.02,3.47,3.23,1.19.6,3.17,2.77,4.66,3.47,6.11,2.86,19.71,1.75,25.2-3.35,2.78-2.58,3.56-4.29,5.48-7.65.45-.78,1.25-.97,1.51-2.03.3-1.27.54-5.76.36-7.08-.04-.28-1.97-4.49-2.17-4.78-.39-.58-3.48-3.11-3.93-3.23-2.08-.55-8.69-.19-11.11,0-5.01.38-15.8,2.07-19.84,5.69-1.86,1.67-3.42,5.64-4.27,8.47-1.14,3.79-.85,4.08.64,7.27ZM140.55,207.21c-.06.14-.54.35-.78.75-6.95,12.11-11.8,12.02-22.73,12.39-3.13.11-6.67-1.94-9.27-4.16-2.46-2.09-3.08-2.36-3.96-6.04-.46-1.94-.97-.98-.01-3.68,2.39-6.76,5.66-7.97,10.87-9.3,4.69-1.2,16.85-2.94,21.08-1.39,2.16.79,4.63,2.92,5.11,6.12.1.68-.15,4.94-.31,5.31Z" style="fill: #eaddb7;"/>
    <path d="M160.58,206.72c1.76,3.69,4.73,5.92,7.85,7.07,7.33,2.69,17-5.38,12.81-16.55-2.45-6.55-9.67-9.76-14.86-8.58-2.45.56-2.73,2.12-4.28,3.98-.76.92-2.04,1.13-2.42,2.83s-.35,7.72.04,9.43c.16.71.56,1.23.85,1.83ZM164.66,195.08c-1.13-4.29,4.05-4.47,6.14-4.04.32.07,3.64,1.68,4,1.91.7.46,3.81,3.28,4.24,4.03.56.98,1.63,5.52,1.42,6.66-.1.54-1.48,4-1.77,4.36-.2.25-3.79,3.16-4.04,3.28-4.08,1.96-11.41-1.9-12.79-7.72-.16-.65-.6-3.23-.53-3.71.05-.35.65-.46.88-.93.78-1.63.55-4.26,2.45-3.83Z" style="fill: #eaddb7;"/>
    <path d="M147.9,215.95c-.19.25-.19.87-.37,1.24-.13.28-.55.26-.6.58-.46,2.73,1.26,4.14,2.23,5.85.44.78.72,2.09,1.24,2.79,3.43,4.55,11.56-1.56,9.88-7.28-.62-2.11-4-5.06-5.69-5.31-1.43-.22-5.72.82-6.7,2.13ZM154.82,216.36c1.72.44,4.34,3.27,3.24,5.83-1.36,3.16-5.45,5.02-6.88.73-1.65-4.93-.43-7.59,3.64-6.56Z" style="fill: #eaddb7;"/>
    <path d="M119.29,527.86c.82-.54.1-2.67-.6-2.85l.6,2.85Z" style="fill: #eaddb7;"/>
    <polygon points="195.61 724.19 196.51 724.19 195.76 722.97 195.61 724.19" style="fill: #eaddb7;"/>
    <path d="M256.01,671.24c-.34.45,1.4,2.95,2.1,2.44-.17-.52-1.76-2.9-2.1-2.44Z" style="fill: #eaddb7;"/>
    <path d="M207.63,337.24l-3.26,5.59c-.26,1.07.65,3.02,1.37,3.3,1.27.48,10.63-2.22,10-6.04-1.31-.08-2.26,1.3-3.54,1.92-1.7.82-3.4.96-5.17,1.34-.94-3.87,6.12-5.09,4.05-8.96-.87-1.63-2.75.22-3.8.54-1.15.36-2.38.59-3.56.67l3.61-4.68-.46-1.01c-1.73.18-7.38,6.12-5.41,8.56.92,1.46,5.69-1.8,6.16-1.23Z" style="fill: #eaddb7;"/>
  </g>
</svg>